<svg width="62" height="58" viewBox="0 0 62 58" fill="none" xmlns="http://www.w3.org/2000/svg">
<path fill-rule="evenodd" clip-rule="evenodd" d="M56.0716 25.3815V24.1926C56.0716 17.9043 53.5688 11.8819 49.1263 7.4238C44.6838 2.99695 38.6614 0.494141 32.3731 0.494141C31.5909 0.494141 30.7932 0.494141 29.9954 0.494141C23.7071 0.494141 17.6847 2.99695 13.2266 7.43944C8.78406 11.8819 6.28125 17.92 6.28125 24.2083C6.28125 24.9591 6.28125 25.3971 6.28125 25.3971L12.4757 26.539L12.4131 22.7222C13.7115 13.5088 21.6266 6.42268 31.1842 6.42268C40.6793 6.42268 48.5319 13.3836 49.924 22.4876L49.9866 26.5547L56.0716 25.3815Z" fill="#FFC209"/>
<path fill-rule="evenodd" clip-rule="evenodd" d="M52.5205 25.3816H56.0714C57.6356 25.3816 59.153 26.0073 60.2636 27.1179C61.3742 28.2285 61.9999 29.7459 61.9999 31.3101C61.9999 33.5783 61.9999 36.1593 61.9999 38.4275C61.9999 39.9918 61.3742 41.5091 60.2636 42.6197C59.153 43.7303 57.6513 44.356 56.0714 44.356C54.163 44.356 52.5205 44.356 52.5205 44.356V25.3816Z" fill="#FFC209"/>
<path fill-rule="evenodd" clip-rule="evenodd" d="M9.84757 25.3816H6.2967C4.73244 25.3816 3.21511 26.0073 2.10449 27.1179C0.993867 28.2285 0.368164 29.7459 0.368164 31.3101C0.368164 33.5783 0.368164 36.1593 0.368164 38.4275C0.368164 39.9918 0.993867 41.5091 2.10449 42.6197C3.21511 43.7303 4.7168 44.356 6.2967 44.356C8.2051 44.356 9.84757 44.356 9.84757 44.356V25.3816Z" fill="#FFC209"/>
<path fill-rule="evenodd" clip-rule="evenodd" d="M35.9237 55.0084H48.954C51.1596 55.0084 53.2713 54.1325 54.8199 52.5838C56.3686 51.0352 57.2445 48.9235 57.2445 46.7179C57.2445 45.357 57.2445 44.3402 57.2445 44.3402C57.2445 43.6832 56.7127 43.1514 56.0557 43.1514C55.3987 43.1514 54.8669 43.6832 54.8669 44.3402C54.8669 44.3402 54.8669 45.357 54.8669 46.7179C54.8669 48.2821 54.2412 49.7995 53.1305 50.9101C52.0199 52.0207 50.5182 52.6464 48.9383 52.6464C43.9953 52.6464 35.9081 52.6464 35.9081 52.6464C35.2511 52.6464 34.7192 53.1783 34.7192 53.8352C34.7192 54.4922 35.2667 55.0084 35.9237 55.0084Z" fill="#FFC209"/>
<path d="M33.5616 57.3862C35.5227 57.3862 37.1125 55.7964 37.1125 53.8353C37.1125 51.8742 35.5227 50.2844 33.5616 50.2844C31.6005 50.2844 30.0107 51.8742 30.0107 53.8353C30.0107 55.7964 31.6005 57.3862 33.5616 57.3862Z" fill="#FFC209"/>
<path fill-rule="evenodd" clip-rule="evenodd" d="M52.5203 25.3816C52.5203 24.7559 52.27 24.1458 51.832 23.7078C51.394 23.2698 50.784 23.0195 50.1583 23.0195C49.7672 23.0195 49.3605 23.0195 48.9695 23.0195C48.3437 23.0195 47.7337 23.2698 47.2957 23.7078C46.8577 24.1458 46.6074 24.7559 46.6074 25.3816C46.6074 29.9179 46.6074 39.804 46.6074 44.3404C46.6074 44.9661 46.8577 45.5761 47.2957 46.0141C47.7337 46.4521 48.3437 46.7024 48.9695 46.7024C49.3605 46.7024 49.7672 46.7024 50.1583 46.7024C50.784 46.7024 51.394 46.4521 51.832 46.0141C52.27 45.5761 52.5203 44.9661 52.5203 44.3404C52.5203 39.804 52.5203 29.9336 52.5203 25.3816Z" fill="#FFC209"/>
<path fill-rule="evenodd" clip-rule="evenodd" d="M9.84766 25.3816C9.84766 24.7559 10.0979 24.1458 10.5359 23.7078C10.9739 23.2698 11.584 23.0195 12.2097 23.0195C12.6007 23.0195 13.0075 23.0195 13.3985 23.0195C14.0242 23.0195 14.6343 23.2698 15.0723 23.7078C15.5103 24.1458 15.7606 24.7559 15.7606 25.3816C15.7606 29.9179 15.7606 39.804 15.7606 44.3404C15.7606 44.9661 15.5103 45.5761 15.0723 46.0141C14.6343 46.4521 14.0242 46.7024 13.3985 46.7024C13.0075 46.7024 12.6007 46.7024 12.2097 46.7024C11.584 46.7024 10.9739 46.4521 10.5359 46.0141C10.0979 45.5761 9.84766 44.9661 9.84766 44.3404C9.84766 39.804 9.84766 29.9336 9.84766 25.3816Z" fill="#FFC209"/>
</svg>
