<svg width="64" height="61" viewBox="0 0 64 61" fill="none" xmlns="http://www.w3.org/2000/svg">
<path fill-rule="evenodd" clip-rule="evenodd" d="M0.792431 6.88071C0.792431 3.42349 3.59781 0.609863 7.06328 0.609863C19.0687 0.609863 45.1917 0.609863 57.1971 0.609863C58.8555 0.609863 60.4563 1.26995 61.6279 2.44161C62.7996 3.61327 63.4597 5.21398 63.4597 6.87246C63.4597 16.8151 63.4597 36.0979 63.4597 46.0405C63.4597 49.4977 60.6543 52.3114 57.1888 52.3114C44.0613 52.3114 14.8853 52.3114 14.8853 52.3114C14.8853 52.3114 10.0172 56.6432 5.99889 60.2077C5.07476 61.0245 3.76283 61.2308 2.63243 60.7275C1.51028 60.2242 0.78418 59.102 0.78418 57.8726C0.792431 45.2814 0.792431 18.9356 0.792431 6.88071Z" fill="#FFC209"/>
<rect x="9" y="16" width="46" height="4" fill="#F8F3E7"/>
<rect x="9" y="23" width="46" height="4" fill="#F8F3E7"/>
<rect x="9" y="30" width="40" height="4" fill="#F8F3E7"/>
</svg>
