<svg width="406" height="348" viewBox="0 0 406 348" fill="none" xmlns="http://www.w3.org/2000/svg">
<path fill-rule="evenodd" clip-rule="evenodd" d="M310.208 126.84C310.208 115.102 300.683 105.55 288.918 105.55C248.16 105.55 159.474 105.55 118.716 105.55C113.085 105.55 107.651 107.791 103.673 111.769C99.6956 115.747 97.4546 121.181 97.4546 126.812C97.4546 160.566 97.4546 226.031 97.4546 259.786C97.4546 271.523 106.979 281.075 118.744 281.075C163.311 281.075 262.363 281.075 262.363 281.075C262.363 281.075 278.89 295.781 292.532 307.883C295.669 310.656 300.123 311.356 303.961 309.648C307.771 307.939 310.236 304.129 310.236 299.955C310.208 257.209 310.208 167.765 310.208 126.84Z" fill="#8200FF"/>
<path fill-rule="evenodd" clip-rule="evenodd" d="M33.6149 164.068C33.6149 152.33 43.1391 142.778 54.9042 142.778C95.6621 142.778 184.349 142.778 225.107 142.778C230.737 142.778 236.171 145.019 240.149 148.997C244.127 152.975 246.368 158.409 246.368 164.04C246.368 197.794 246.368 263.259 246.368 297.014C246.368 308.751 236.844 318.303 225.079 318.303C180.511 318.303 81.4598 318.303 81.4598 318.303C81.4598 318.303 64.9326 333.009 51.2907 345.111C48.1533 347.884 43.6993 348.584 39.8617 346.876C36.052 345.167 33.5869 341.357 33.5869 337.183C33.6149 294.437 33.6149 204.994 33.6149 164.068Z" fill="black"/>
<path fill-rule="evenodd" clip-rule="evenodd" d="M113.394 201.296C113.394 189.559 122.918 180.007 134.683 180.007C146.42 180.007 155.972 189.531 155.972 201.296C155.972 215.218 147.204 220.54 140.509 226.535C134.291 232.109 129.389 238.104 129.389 247.824V254.463C129.389 257.405 131.77 259.786 134.711 259.786C137.652 259.786 140.033 257.405 140.033 254.463V247.824C140.033 239.617 146.028 235.835 151.518 231.045C159.166 224.35 166.645 216.591 166.645 201.268C166.645 183.648 152.331 169.362 134.739 169.362C117.119 169.362 102.833 183.676 102.833 201.268C102.833 204.209 105.214 206.59 108.155 206.59C111.013 206.618 113.394 204.237 113.394 201.296Z" fill="#FFFCF3"/>
<path fill-rule="evenodd" clip-rule="evenodd" d="M129.361 274.436V281.075C129.361 284.016 131.742 286.397 134.683 286.397C137.624 286.397 140.005 284.016 140.005 281.075V274.436C140.005 271.495 137.624 269.114 134.683 269.114C131.742 269.114 129.361 271.495 129.361 274.436Z" fill="#FFFCF3"/>
<path d="M331.581 202.921C364.642 202.921 391.443 176.119 391.443 143.058C391.443 109.997 364.642 83.1963 331.581 83.1963C298.52 83.1963 271.719 109.997 271.719 143.058C271.719 176.119 298.52 202.921 331.581 202.921Z" fill="#F8F3E7"/>
<path fill-rule="evenodd" clip-rule="evenodd" d="M343.486 198.159C339.816 198.887 336.035 199.279 332.169 199.279C300.459 199.279 274.716 173.536 274.716 141.826C274.716 110.116 300.459 84.3729 332.169 84.3729C360.742 84.3729 384.496 105.298 388.894 132.638C389.118 133.955 390.322 134.823 391.639 134.627C392.956 134.403 393.824 133.198 393.628 131.882C388.866 102.245 363.151 79.5828 332.169 79.5828C297.798 79.5828 269.926 107.483 269.926 141.826C269.926 176.169 297.826 204.069 332.169 204.069C336.371 204.069 340.461 203.649 344.438 202.865C345.727 202.613 346.567 201.352 346.315 200.035C346.035 198.747 344.774 197.906 343.486 198.159Z" fill="#8200FF"/>
<path fill-rule="evenodd" clip-rule="evenodd" d="M378.249 132.246C377.885 132.246 377.577 132.47 377.437 132.778C377.297 133.114 377.381 133.478 377.633 133.73C380.883 136.98 388.446 144.543 390.659 146.756C390.995 147.092 391.555 147.092 391.891 146.756C394.104 144.543 401.668 136.98 404.917 133.73C405.169 133.478 405.253 133.114 405.113 132.778C404.973 132.442 404.665 132.246 404.301 132.246C398.726 132.246 383.796 132.246 378.249 132.246Z" fill="black"/>
<path fill-rule="evenodd" clip-rule="evenodd" d="M330.993 135.411L317.351 111.573C316.707 110.424 315.222 110.032 314.073 110.676C312.925 111.321 312.533 112.805 313.177 113.954L326.819 137.792C327.463 138.941 328.948 139.333 330.096 138.689C331.245 138.044 331.637 136.56 330.993 135.411Z" fill="black"/>
<path fill-rule="evenodd" clip-rule="evenodd" d="M325.474 143.563L315.558 151.294C314.521 152.106 314.325 153.619 315.138 154.656C315.95 155.692 317.463 155.888 318.499 155.076L328.415 147.344C329.452 146.532 329.648 145.019 328.836 143.983C328.023 142.918 326.539 142.75 325.474 143.563Z" fill="black"/>
<path fill-rule="evenodd" clip-rule="evenodd" d="M329.76 92.3564V102.777C329.76 104.094 330.825 105.158 332.141 105.158C333.458 105.158 334.522 104.094 334.522 102.777V92.3564C334.522 91.0398 333.458 89.9753 332.141 89.9753C330.853 89.9753 329.76 91.0398 329.76 92.3564Z" fill="url(#paint0_linear)"/>
<path fill-rule="evenodd" clip-rule="evenodd" d="M305.362 100.2L307.967 104.71C308.639 105.858 310.096 106.25 311.244 105.578C312.393 104.906 312.785 103.449 312.113 102.301L309.507 97.7908C308.835 96.6423 307.378 96.2501 306.23 96.9224C305.109 97.5947 304.717 99.0513 305.362 100.2Z" fill="url(#paint1_linear)"/>
<path fill-rule="evenodd" clip-rule="evenodd" d="M373.796 115.018L369.286 117.623C368.137 118.296 367.745 119.752 368.417 120.901C369.09 122.049 370.546 122.442 371.695 121.769L376.205 119.164C377.353 118.492 377.745 117.035 377.073 115.887C376.401 114.738 374.944 114.346 373.796 115.018Z" fill="url(#paint2_linear)"/>
<path fill-rule="evenodd" clip-rule="evenodd" d="M288.134 119.164L292.644 121.769C293.792 122.442 295.249 122.049 295.921 120.901C296.593 119.752 296.201 118.296 295.053 117.623L290.543 115.018C289.394 114.346 287.938 114.738 287.265 115.887C286.621 117.035 287.013 118.492 288.134 119.164Z" fill="url(#paint3_linear)"/>
<path fill-rule="evenodd" clip-rule="evenodd" d="M354.803 97.7908L352.198 102.301C351.526 103.449 351.918 104.906 353.066 105.578C354.215 106.25 355.672 105.858 356.344 104.71L358.949 100.2C359.621 99.0513 359.229 97.5947 358.081 96.9224C356.932 96.2501 355.475 96.6423 354.803 97.7908Z" fill="url(#paint4_linear)"/>
<path fill-rule="evenodd" clip-rule="evenodd" d="M329.76 180.847V191.268C329.76 192.584 330.825 193.649 332.141 193.649C333.458 193.649 334.522 192.584 334.522 191.268V180.847C334.522 179.531 333.458 178.466 332.141 178.466C330.853 178.466 329.76 179.531 329.76 180.847Z" fill="url(#paint5_linear)"/>
<path fill-rule="evenodd" clip-rule="evenodd" d="M292.644 161.855L288.134 164.46C286.985 165.132 286.593 166.589 287.265 167.737C287.938 168.886 289.394 169.278 290.543 168.606L295.053 166.001C296.201 165.328 296.594 163.872 295.921 162.723C295.277 161.603 293.792 161.21 292.644 161.855Z" fill="url(#paint6_linear)"/>
<path fill-rule="evenodd" clip-rule="evenodd" d="M307.967 178.942L305.362 183.452C304.689 184.601 305.081 186.057 306.23 186.73C307.378 187.402 308.835 187.01 309.507 185.861L312.113 181.351C312.785 180.203 312.393 178.746 311.244 178.074C310.096 177.401 308.639 177.794 307.967 178.942Z" fill="url(#paint7_linear)"/>
<path fill-rule="evenodd" clip-rule="evenodd" d="M293.12 139.417H282.699C281.383 139.417 280.318 140.481 280.318 141.798C280.318 143.115 281.383 144.179 282.699 144.179H293.12C294.437 144.179 295.501 143.115 295.501 141.798C295.529 140.509 294.437 139.417 293.12 139.417Z" fill="url(#paint8_linear)"/>
<path fill-rule="evenodd" clip-rule="evenodd" d="M351.329 166.897C351.329 163.619 353.991 160.958 357.268 160.958C360.546 160.958 363.207 163.619 363.207 166.897C363.207 169.138 362.03 170.678 360.49 171.911C358.501 173.508 355.952 174.684 353.655 175.889C351.834 176.869 350.209 177.878 349.005 179.026C347.464 180.539 346.539 182.276 346.539 184.433V188.13C346.539 189.447 347.604 190.511 348.92 190.511H365.56C366.876 190.511 367.941 189.447 367.941 188.13C367.941 186.814 366.876 185.749 365.56 185.749H351.301V184.433C351.301 183.34 352.058 182.612 352.954 181.883C354.411 180.763 356.372 179.81 358.333 178.802C363.291 176.197 367.941 172.919 367.941 166.869C367.941 160.958 363.151 156.14 357.212 156.14C351.301 156.14 346.483 160.93 346.483 166.869C346.483 168.185 347.548 169.25 348.864 169.25C350.181 169.25 351.329 168.213 351.329 166.897Z" fill="black"/>
<path fill-rule="evenodd" clip-rule="evenodd" d="M374.356 157.989L370.658 172.779C370.49 173.508 370.63 174.264 371.106 174.824C371.554 175.413 372.255 175.749 372.983 175.749H389.622C390.939 175.749 392.003 174.684 392.003 173.368C392.003 172.051 390.939 170.987 389.622 170.987H376.036L379.006 159.165C379.314 157.877 378.558 156.588 377.269 156.252C375.98 155.944 374.664 156.7 374.356 157.989Z" fill="black"/>
<path fill-rule="evenodd" clip-rule="evenodd" d="M387.241 158.577V188.186C387.241 189.503 388.306 190.567 389.622 190.567C390.939 190.567 392.003 189.503 392.003 188.186V158.577C392.003 157.261 390.939 156.196 389.622 156.196C388.306 156.168 387.241 157.261 387.241 158.577Z" fill="black"/>
<path d="M332.169 148.157C335.666 148.157 338.5 145.323 338.5 141.826C338.5 138.33 335.666 135.495 332.169 135.495C328.673 135.495 325.838 138.33 325.838 141.826C325.838 145.323 328.673 148.157 332.169 148.157Z" fill="black"/>
<path fill-rule="evenodd" clip-rule="evenodd" d="M99.7519 44.5675V42.4385C99.7519 31.1776 95.2699 20.3929 87.3144 12.4094C79.3589 4.48196 68.5742 0 57.3133 0C55.9127 0 54.4841 0 53.0554 0C41.7945 0 31.0098 4.48196 23.0263 12.4374C15.0708 20.3929 10.5889 31.2056 10.5889 42.4666C10.5889 43.8111 10.5889 44.5955 10.5889 44.5955L21.6817 46.6404L21.5697 39.8054C23.8947 23.3062 38.0689 10.6166 55.1844 10.6166C72.1878 10.6166 86.2499 23.0821 88.743 39.3852L88.8551 46.6684L99.7519 44.5675Z" fill="black"/>
<path fill-rule="evenodd" clip-rule="evenodd" d="M63.6721 97.6227H87.0063C90.956 97.6227 94.7377 96.054 97.5109 93.2808C100.284 90.5076 101.853 86.7259 101.853 82.7762C101.853 80.3391 101.853 78.5183 101.853 78.5183C101.853 77.3418 100.9 76.3894 99.7238 76.3894C98.5473 76.3894 97.5949 77.3418 97.5949 78.5183C97.5949 78.5183 97.5949 80.3391 97.5949 82.7762C97.5949 85.5774 96.4744 88.2946 94.4855 90.2835C92.4967 92.2723 89.8075 93.3928 86.9783 93.3928C78.1264 93.3928 63.6441 93.3928 63.6441 93.3928C62.4676 93.3928 61.5151 94.3453 61.5151 95.5218C61.5151 96.6983 62.4956 97.6227 63.6721 97.6227Z" fill="black"/>
<path fill-rule="evenodd" clip-rule="evenodd" d="M93.3926 44.5676H99.7514C102.553 44.5676 105.27 45.6881 107.259 47.677C109.248 49.6659 110.368 52.383 110.368 55.1843C110.368 59.246 110.368 63.8681 110.368 67.9298C110.368 70.7311 109.248 73.4482 107.259 75.4371C105.27 77.426 102.581 78.5465 99.7514 78.5465C96.3339 78.5465 93.3926 78.5465 93.3926 78.5465V44.5676Z" fill="#16D194"/>
<path fill-rule="evenodd" clip-rule="evenodd" d="M16.9754 44.5676H10.6166C7.81542 44.5676 5.09823 45.6881 3.10936 47.677C1.12049 49.6659 0 52.383 0 55.1843C0 59.246 0 63.8681 0 67.9298C0 70.7311 1.12049 73.4482 3.10936 75.4371C5.09823 77.426 7.7874 78.5465 10.6166 78.5465C14.0341 78.5465 16.9754 78.5465 16.9754 78.5465V44.5676Z" fill="#16D194"/>
<path d="M59.4418 101.881C62.9536 101.881 65.8006 99.0337 65.8006 95.5219C65.8006 92.01 62.9536 89.1631 59.4418 89.1631C55.9299 89.1631 53.083 92.01 53.083 95.5219C53.083 99.0337 55.9299 101.881 59.4418 101.881Z" fill="#16D194"/>
<path fill-rule="evenodd" clip-rule="evenodd" d="M93.3928 44.5675C93.3928 43.447 92.9446 42.3545 92.1603 41.5702C91.3759 40.7858 90.2835 40.3376 89.163 40.3376C88.4627 40.3376 87.7344 40.3376 87.034 40.3376C85.9136 40.3376 84.8211 40.7858 84.0367 41.5702C83.2524 42.3545 82.8042 43.447 82.8042 44.5675C82.8042 52.691 82.8042 70.3948 82.8042 78.5183C82.8042 79.6388 83.2524 80.7313 84.0367 81.5156C84.8211 82.3 85.9136 82.7482 87.034 82.7482C87.7344 82.7482 88.4627 82.7482 89.163 82.7482C90.2835 82.7482 91.3759 82.3 92.1603 81.5156C92.9446 80.7313 93.3928 79.6388 93.3928 78.5183C93.3928 70.3948 93.3928 52.7191 93.3928 44.5675Z" fill="#16D194"/>
<path fill-rule="evenodd" clip-rule="evenodd" d="M16.9756 44.5675C16.9756 43.447 17.4238 42.3545 18.2081 41.5702C18.9925 40.7858 20.0849 40.3376 21.2054 40.3376C21.9057 40.3376 22.6341 40.3376 23.3344 40.3376C24.4549 40.3376 25.5473 40.7858 26.3317 41.5702C27.116 42.3545 27.5642 43.447 27.5642 44.5675C27.5642 52.691 27.5642 70.3948 27.5642 78.5183C27.5642 79.6388 27.116 80.7313 26.3317 81.5156C25.5473 82.3 24.4549 82.7482 23.3344 82.7482C22.6341 82.7482 21.9057 82.7482 21.2054 82.7482C20.0849 82.7482 18.9925 82.3 18.2081 81.5156C17.4238 80.7313 16.9756 79.6388 16.9756 78.5183C16.9756 70.3948 16.9756 52.7191 16.9756 44.5675Z" fill="#16D194"/>
<defs>
<linearGradient id="paint0_linear" x1="313.541" y1="80.1169" x2="390.157" y2="151.944" gradientUnits="userSpaceOnUse">
<stop stop-color="#FFBD56"/>
<stop offset="1" stop-color="#FF781B"/>
</linearGradient>
<linearGradient id="paint1_linear" x1="300.753" y1="93.7574" x2="377.369" y2="165.585" gradientUnits="userSpaceOnUse">
<stop stop-color="#FFBD56"/>
<stop offset="1" stop-color="#FF781B"/>
</linearGradient>
<linearGradient id="paint2_linear" x1="322.132" y1="70.9536" x2="398.748" y2="142.781" gradientUnits="userSpaceOnUse">
<stop stop-color="#FFBD56"/>
<stop offset="1" stop-color="#FF781B"/>
</linearGradient>
<linearGradient id="paint3_linear" x1="284.178" y1="111.438" x2="360.794" y2="183.265" gradientUnits="userSpaceOnUse">
<stop stop-color="#FFBD56"/>
<stop offset="1" stop-color="#FF781B"/>
</linearGradient>
<linearGradient id="paint4_linear" x1="322.667" y1="70.3826" x2="399.283" y2="142.21" gradientUnits="userSpaceOnUse">
<stop stop-color="#FFBD56"/>
<stop offset="1" stop-color="#FF781B"/>
</linearGradient>
<linearGradient id="paint5_linear" x1="269.394" y1="127.207" x2="346.01" y2="199.034" gradientUnits="userSpaceOnUse">
<stop stop-color="#FFBD56"/>
<stop offset="1" stop-color="#FF781B"/>
</linearGradient>
<linearGradient id="paint6_linear" x1="260.806" y1="136.368" x2="337.422" y2="208.196" gradientUnits="userSpaceOnUse">
<stop stop-color="#FFBD56"/>
<stop offset="1" stop-color="#FF781B"/>
</linearGradient>
<linearGradient id="paint7_linear" x1="260.271" y1="136.939" x2="336.887" y2="208.766" gradientUnits="userSpaceOnUse">
<stop stop-color="#FFBD56"/>
<stop offset="1" stop-color="#FF781B"/>
</linearGradient>
<linearGradient id="paint8_linear" x1="270.772" y1="125.738" x2="347.388" y2="197.565" gradientUnits="userSpaceOnUse">
<stop stop-color="#FFBD56"/>
<stop offset="1" stop-color="#FF781B"/>
</linearGradient>
</defs>
</svg>
