<svg width="1440" height="91" viewBox="0 0 1440 91" fill="none" xmlns="http://www.w3.org/2000/svg">
<path d="M-0.5 35.5C0.94868 37.532 27.0277 53.4247 27.0277 53.4247C27.0277 53.4247 52.0174 63.1781 72.6611 71.7123L113.948 90L166.101 71.7123H236.724C237.811 66.4292 271.492 55.863 271.492 55.863C271.492 55.863 322.558 66.4292 339.943 71.7123C355.516 66.4292 389.053 55.863 398.614 55.863C408.175 55.863 451.129 66.4292 471.41 71.7123H515.957H586.58H643.079L681.107 43.6712L713.702 71.7123L756.076 55.863L796.277 71.7123H841.91L881.025 43.6712L920.139 55.863L944.042 27.8219H1000.54L1074.42 1L1135.27 27.8219L1196.11 1L1240.66 27.8219L1291.73 1H1402.55H1440" stroke="#27AE60" stroke-linejoin="round"/>
</svg>
