<svg width="54" height="39" viewBox="0 0 54 39" fill="none" xmlns="http://www.w3.org/2000/svg">
<path d="M0.77832 34.8606C0.77832 26.9077 0.77832 18.9547 0.77832 10.9882C0.860242 11.0153 0.942164 11.0425 1.01043 11.0832C8.09669 15.7654 15.1693 20.4476 22.2556 25.1298C25.4232 27.2334 28.5772 27.2334 31.7585 25.1298C38.0938 20.9497 44.4155 16.7561 50.7371 12.5761C51.5563 12.0332 52.3892 11.5039 53.2221 10.9746C53.2221 18.9276 53.2221 26.8941 53.2221 34.8471C53.2084 34.8742 53.1675 34.9014 53.1675 34.9285C52.4711 37.6835 50.7917 39 47.9245 39C40.8792 39 33.8339 39 26.7886 39C19.8252 39 12.8618 39 5.89845 39C4.50577 39 3.2906 38.5928 2.26657 37.6292C1.4337 36.8828 1.02409 35.9192 0.77832 34.8606Z" fill="#FFC209"/>
<path d="M0.77832 5.50525C0.77832 5.07096 0.77832 4.62309 0.77832 4.1888C0.860242 3.9038 0.942164 3.60522 1.03774 3.32022C1.73408 1.25733 3.55002 0.0358887 5.92576 0.0358887C19.9754 0.0358887 34.0114 0.0358887 48.061 0.0358887C48.2112 0.0358887 48.375 0.0358887 48.5252 0.0494603C50.6142 0.158033 52.321 1.42019 52.9627 3.32022C53.0583 3.60522 53.1265 3.9038 53.2221 4.1888C53.2221 4.62309 53.2221 5.07096 53.2221 5.50525C52.8944 6.84884 52.2254 7.94814 51.0375 8.73529C43.9512 13.4039 36.8923 18.0861 29.8197 22.7548C27.9355 24.0033 26.0103 23.9762 24.1261 22.7276C17.0672 18.059 10.0219 13.3904 2.97656 8.73529C1.85696 7.98885 1.11966 6.99812 0.860242 5.68168C0.846589 5.61382 0.805628 5.55953 0.77832 5.50525Z" fill="#FFC209"/>
</svg>
