<svg width="469" height="374" viewBox="0 0 469 374" fill="none" xmlns="http://www.w3.org/2000/svg">
<path d="M293.365 347.723H248.181V346.86H293.009L308.358 331.518H357.1V332.331H308.714L293.365 347.723Z" fill="black"/>
<path d="M282.335 335.938L281.726 335.328L297.99 319.072H319.286V319.936H298.346L282.335 335.938Z" fill="black"/>
<path d="M264.191 336.04H249.502V335.176H263.886L277.761 322.019H255.906V321.155H279.896L264.191 336.04Z" fill="black"/>
<path d="M344.699 308.455L321.014 307.744H259.21L246.656 295.908L247.215 295.247L259.566 306.88H321.065L344.699 307.592V308.455Z" fill="black"/>
<path d="M124.776 309.471L124.166 308.862L172.603 260.45H328.129V261.263H172.958L124.776 309.471Z" fill="black"/>
<path d="M332.5 294.536H272.831L259.006 280.719H229.629V279.855H259.362L273.186 293.673H332.5V294.536Z" fill="black"/>
<path d="M327.367 276.604H281.472V277.468H327.367V276.604Z" fill="black"/>
<path d="M24.4976 232.764L23.8877 232.205L76.797 179.272H133.315L154.56 200.506H285.08V201.37H154.204L132.959 180.136H77.1528L24.4976 232.764Z" fill="black"/>
<path d="M284.42 185.317H209.604L231.561 163.372H254.077V164.235H231.917L211.688 184.453H284.42V185.317Z" fill="black"/>
<path d="M250.824 242.771H216.415L196.441 222.756H165.742V221.893H196.797L216.771 241.908H250.468L268.613 223.772H308.918V224.585H268.969L250.824 242.771Z" fill="black"/>
<path d="M248.943 222.604H219.77V223.468H248.943V222.604Z" fill="black"/>
<path d="M320.963 243.28H268.612V244.143H320.963V243.28Z" fill="black"/>
<path d="M195.729 239.774H168.283V240.638H195.729V239.774Z" fill="black"/>
<path d="M121.473 157.479H13.0625V158.342H121.473V157.479Z" fill="black"/>
<path d="M122.337 133.095H60.4312L41.8799 114.502L42.4898 113.893L60.7869 132.231H122.337V133.095Z" fill="black"/>
<path d="M114.409 108.152H80.0508V107.289H114.053L158.017 63.3472H205.183L246.758 104.952H320.506V105.765H246.402L204.827 64.2108H158.322L114.409 108.152Z" fill="black"/>
<path d="M238.727 141.172L238.168 140.563L258.905 119.836H302.716V120.7H259.261L238.727 141.172Z" fill="black"/>
<path d="M281.099 137.121L267.011 151.201L267.622 151.812L281.71 137.731L281.099 137.121Z" fill="black"/>
<path d="M373.364 63.0423L311.458 0.863592H246.757L206.351 41.2493L205.741 40.6397L246.402 0H311.814L373.973 62.4327L373.364 63.0423Z" fill="black"/>
<path d="M351.916 76.0977L325.182 49.428L325.792 48.8184L352.526 75.4882L351.916 76.0977Z" fill="black"/>
<path d="M336.261 93.4713L319.845 77.571L320.455 76.9614L336.871 92.8617L336.261 93.4713Z" fill="black"/>
<path d="M5.08256 224.89L4.52347 224.28L49.7073 179.069H2.23633V178.205H51.7912L5.08256 224.89Z" fill="black"/>
<path d="M372.551 64.9727C373.898 64.9727 374.991 63.881 374.991 62.5343C374.991 61.1877 373.898 60.0959 372.551 60.0959C371.204 60.0959 370.111 61.1877 370.111 62.5343C370.111 63.881 371.204 64.9727 372.551 64.9727Z" fill="black"/>
<path d="M354.253 75.9455C354.253 77.2663 353.186 78.3839 351.814 78.3839C350.441 78.3839 349.374 77.3171 349.374 75.9455C349.374 74.6247 350.441 73.5071 351.814 73.5071C353.186 73.5071 354.253 74.5739 354.253 75.9455Z" fill="black"/>
<path d="M337.989 92.2013C337.989 93.5221 336.921 94.6397 335.549 94.6397C334.228 94.6397 333.109 93.5729 333.109 92.2013C333.109 90.8805 334.177 89.7629 335.549 89.7629C336.87 89.7629 337.989 90.8297 337.989 92.2013Z" fill="black"/>
<path d="M322.538 77.2663C322.538 78.5871 321.471 79.7047 320.099 79.7047C318.777 79.7047 317.659 78.6379 317.659 77.2663C317.659 75.9455 318.727 74.8279 320.099 74.8279C321.471 74.8279 322.538 75.9455 322.538 77.2663Z" fill="black"/>
<path d="M327.824 49.4281C327.824 50.7489 326.757 51.8665 325.385 51.8665C324.013 51.8665 322.945 50.7997 322.945 49.4281C322.945 48.1073 324.013 46.9897 325.385 46.9897C326.757 46.9897 327.824 48.0565 327.824 49.4281Z" fill="black"/>
<path d="M208.435 40.9445C208.435 42.2653 207.368 43.3829 205.995 43.3829C204.623 43.3829 203.556 42.3161 203.556 40.9445C203.556 39.6237 204.623 38.5061 205.995 38.5061C207.368 38.5061 208.435 39.6237 208.435 40.9445Z" fill="black"/>
<path d="M82.4896 107.695C82.4896 109.016 81.4223 110.134 80.05 110.134C78.7285 110.134 77.6104 109.067 77.6104 107.695C77.6104 106.374 78.6777 105.257 80.05 105.257C81.4223 105.257 82.4896 106.374 82.4896 107.695Z" fill="black"/>
<path d="M124.726 132.638C124.726 133.959 123.659 135.076 122.286 135.076C120.914 135.076 119.847 134.009 119.847 132.638C119.847 131.266 120.914 130.199 122.286 130.199C123.659 130.199 124.726 131.317 124.726 132.638Z" fill="black"/>
<path d="M123.354 157.834C123.354 159.155 122.286 160.273 120.914 160.273C119.593 160.273 118.475 159.206 118.475 157.834C118.475 156.514 119.542 155.396 120.914 155.396C122.236 155.396 123.354 156.514 123.354 157.834Z" fill="black"/>
<path d="M42.1848 116.636C43.5321 116.636 44.6244 115.544 44.6244 114.198C44.6244 112.851 43.5321 111.759 42.1848 111.759C40.8374 111.759 39.7451 112.851 39.7451 114.198C39.7451 115.544 40.8374 116.636 42.1848 116.636Z" fill="black"/>
<path d="M16.3148 157.834C16.3148 159.155 15.2474 160.273 13.8752 160.273C12.5537 160.273 11.4355 159.206 11.4355 157.834C11.4355 156.514 12.5029 155.396 13.8752 155.396C15.1966 155.396 16.3148 156.514 16.3148 157.834Z" fill="black"/>
<path d="M4.87923 178.713C4.87923 180.034 3.8119 181.151 2.43961 181.151C1.11815 181.151 0 180.085 0 178.713C0 177.392 1.06733 176.275 2.43961 176.275C3.76107 176.275 4.87923 177.341 4.87923 178.713Z" fill="black"/>
<path d="M7.3187 224.026C7.3187 225.347 6.25135 226.465 4.87907 226.465C3.55761 226.465 2.43945 225.398 2.43945 224.026C2.43945 222.705 3.50678 221.588 4.87907 221.588C6.20053 221.588 7.3187 222.655 7.3187 224.026Z" fill="black"/>
<path d="M27.0394 232.459C27.0394 233.78 25.9721 234.897 24.5998 234.897C23.2783 234.897 22.1602 233.831 22.1602 232.459C22.1602 231.138 23.2275 230.021 24.5998 230.021C25.9212 230.021 27.0394 231.138 27.0394 232.459Z" fill="black"/>
<path d="M165.742 224.738C167.09 224.738 168.182 223.646 168.182 222.299C168.182 220.953 167.09 219.861 165.742 219.861C164.395 219.861 163.303 220.953 163.303 222.299C163.303 223.646 164.395 224.738 165.742 224.738Z" fill="black"/>
<path d="M219.617 225.601C220.965 225.601 222.057 224.509 222.057 223.163C222.057 221.816 220.965 220.724 219.617 220.724C218.27 220.724 217.178 221.816 217.178 223.163C217.178 224.509 218.27 225.601 219.617 225.601Z" fill="black"/>
<path d="M248.892 225.601C250.239 225.601 251.331 224.509 251.331 223.163C251.331 221.816 250.239 220.724 248.892 220.724C247.544 220.724 246.452 221.816 246.452 223.163C246.452 224.509 247.544 225.601 248.892 225.601Z" fill="black"/>
<path d="M272.17 243.737C272.17 245.058 271.103 246.175 269.731 246.175C268.358 246.175 267.291 245.108 267.291 243.737C267.291 242.416 268.358 241.298 269.731 241.298C271.103 241.298 272.17 242.365 272.17 243.737Z" fill="black"/>
<path d="M281.42 279.245C282.767 279.245 283.86 278.154 283.86 276.807C283.86 275.46 282.767 274.369 281.42 274.369C280.073 274.369 278.98 275.46 278.98 276.807C278.98 278.154 280.073 279.245 281.42 279.245Z" fill="black"/>
<path d="M234.356 280.312C234.356 281.633 233.288 282.751 231.916 282.751C230.595 282.751 229.477 281.684 229.477 280.312C229.477 278.941 230.544 277.874 231.916 277.874C233.238 277.874 234.356 278.941 234.356 280.312Z" fill="black"/>
<path d="M249.401 295.959C249.401 297.279 248.333 298.397 246.961 298.397C245.589 298.397 244.521 297.33 244.521 295.959C244.521 294.587 245.589 293.52 246.961 293.52C248.333 293.52 249.401 294.587 249.401 295.959Z" fill="black"/>
<path d="M255.602 323.594C256.949 323.594 258.041 322.502 258.041 321.155C258.041 319.808 256.949 318.717 255.602 318.717C254.254 318.717 253.162 319.808 253.162 321.155C253.162 322.502 254.254 323.594 255.602 323.594Z" fill="black"/>
<path d="M253.161 335.379C253.161 336.7 252.094 337.818 250.722 337.818C249.4 337.818 248.282 336.751 248.282 335.379C248.282 334.008 249.35 332.941 250.722 332.941C252.094 332.941 253.161 334.058 253.161 335.379Z" fill="black"/>
<path d="M284.47 335.633C284.47 336.954 283.403 338.072 282.03 338.072C280.658 338.072 279.591 337.005 279.591 335.633C279.591 334.312 280.658 333.195 282.03 333.195C283.403 333.195 284.47 334.262 284.47 335.633Z" fill="black"/>
<path d="M321.065 319.936C321.065 321.257 319.997 322.374 318.625 322.374C317.304 322.374 316.186 321.308 316.186 319.936C316.186 318.564 317.253 317.498 318.625 317.498C319.997 317.498 321.065 318.564 321.065 319.936Z" fill="black"/>
<path d="M250.62 347.317C250.62 348.638 249.553 349.755 248.181 349.755C246.809 349.755 245.741 348.689 245.741 347.317C245.741 345.945 246.809 344.879 248.181 344.879C249.553 344.879 250.62 345.945 250.62 347.317Z" fill="black"/>
<path d="M195.881 242.771C197.228 242.771 198.321 241.68 198.321 240.333C198.321 238.986 197.228 237.895 195.881 237.895C194.534 237.895 193.441 238.986 193.441 240.333C193.441 241.68 194.534 242.771 195.881 242.771Z" fill="black"/>
<path d="M126.453 309.471C126.453 310.792 125.386 311.91 124.014 311.91C122.692 311.91 121.574 310.843 121.574 309.471C121.574 308.151 122.642 307.033 124.014 307.033C125.386 307.084 126.453 308.151 126.453 309.471Z" fill="black"/>
<path d="M168.436 242.771C169.783 242.771 170.875 241.68 170.875 240.333C170.875 238.986 169.783 237.895 168.436 237.895C167.088 237.895 165.996 238.986 165.996 240.333C165.996 241.68 167.088 242.771 168.436 242.771Z" fill="black"/>
<path d="M322.64 105.562C322.64 106.882 321.573 108 320.2 108C318.828 108 317.761 106.933 317.761 105.562C317.761 104.241 318.828 103.123 320.2 103.123C321.573 103.123 322.64 104.241 322.64 105.562Z" fill="black"/>
<path d="M305.41 120.446C305.41 121.767 304.343 122.884 302.971 122.884C301.649 122.884 300.531 121.818 300.531 120.446C300.531 119.125 301.599 118.008 302.971 118.008C304.343 118.008 305.41 119.074 305.41 120.446Z" fill="black"/>
<path d="M283.911 137.464C283.911 138.785 282.844 139.902 281.472 139.902C280.15 139.902 279.032 138.835 279.032 137.464C279.032 136.092 280.1 135.025 281.472 135.025C282.793 135.025 283.911 136.143 283.911 137.464Z" fill="black"/>
<path d="M270.086 151.586C270.086 152.907 269.019 154.024 267.647 154.024C266.274 154.024 265.207 152.958 265.207 151.586C265.207 150.265 266.274 149.148 267.647 149.148C269.019 149.148 270.086 150.214 270.086 151.586Z" fill="black"/>
<path d="M240.557 140.918C240.557 142.239 239.49 143.356 238.117 143.356C236.745 143.356 235.678 142.29 235.678 140.918C235.678 139.597 236.745 138.48 238.117 138.48C239.49 138.48 240.557 139.547 240.557 140.918Z" fill="black"/>
<path d="M256.16 163.829C256.16 165.15 255.093 166.267 253.721 166.267C252.399 166.267 251.281 165.2 251.281 163.829C251.281 162.457 252.349 161.39 253.721 161.39C255.093 161.39 256.16 162.508 256.16 163.829Z" fill="black"/>
<path d="M397 270.306C436.765 270.306 469 238.07 469 198.306C469 158.541 436.765 126.306 397 126.306C357.236 126.306 325 158.541 325 198.306C325 238.07 357.236 270.306 397 270.306Z" fill="#FFC209"/>
<path d="M420.072 169.167L428.416 154.408L437.139 169.167L428.416 164.247L420.072 169.167Z" fill="black"/>
<path d="M420.072 169.168L428.416 164.248L428.037 154.787L420.072 169.168Z" fill="black"/>
<path d="M428.417 154.408L428.038 154.786L428.417 164.247L437.14 169.167L428.417 154.408Z" fill="black"/>
<path d="M365.459 241.07V154.787L437.141 219.499V241.449L379.871 189.603V241.449H365.459V241.07Z" fill="black"/>
<path d="M426.144 193.765C425.764 193.765 425.006 193.387 425.006 192.63V176.736C425.006 176.358 425.385 175.601 426.144 175.601C426.523 175.601 427.281 175.979 427.281 176.736V192.63C427.281 193.387 426.902 193.765 426.144 193.765Z" fill="black"/>
<path d="M430.696 193.765C430.317 193.765 429.559 193.387 429.559 192.63V176.736C429.559 176.358 429.938 175.601 430.696 175.601C431.076 175.601 431.834 175.979 431.834 176.736V192.63C431.834 193.387 431.455 193.765 430.696 193.765Z" fill="black"/>
<path d="M194.762 130.809C198.269 129.031 199.794 125.983 199.388 121.716C199.235 120.192 198.828 118.82 198.117 117.703C197.405 116.585 196.44 115.671 195.22 114.959C194 114.248 192.679 113.74 191.255 113.385C189.832 113.029 188.206 112.775 186.325 112.572V103.733H180.836V112.369C179.921 112.369 178.447 112.369 176.567 112.419V103.733H171.129V112.572C170.366 112.572 169.197 112.623 167.723 112.623L160.252 112.572V118.363H164.166C165.944 118.363 167.012 119.176 167.317 120.751V130.86C167.571 130.86 167.723 130.86 167.876 130.91H167.317V145.033C167.113 146.252 166.453 146.811 165.284 146.811H161.37L160.303 153.262H167.317C167.774 153.262 168.384 153.262 169.248 153.262C170.112 153.262 170.722 153.262 171.129 153.262V162.254H176.567V153.415C177.533 153.415 179.007 153.466 180.836 153.466V162.305H186.275V153.313C188.206 153.212 189.883 153.059 191.408 152.805C192.882 152.551 194.305 152.145 195.677 151.586C197.05 151.027 198.168 150.367 199.083 149.503C199.997 148.69 200.76 147.624 201.37 146.354C201.98 145.084 202.335 143.61 202.488 141.934C202.793 138.683 202.285 136.143 200.912 134.416C199.54 132.688 197.507 131.469 194.762 130.809ZM178.041 118.719C178.803 118.719 179.413 118.719 179.921 118.668C180.43 118.668 181.09 118.668 181.954 118.769C182.818 118.82 183.53 118.922 184.14 119.074C184.75 119.176 185.36 119.379 186.071 119.633C186.783 119.887 187.342 120.243 187.749 120.598C188.155 121.005 188.511 121.462 188.816 122.071C189.121 122.681 189.273 123.341 189.273 124.154C189.273 124.815 189.172 125.424 188.968 125.932C188.765 126.491 188.46 126.948 188.003 127.304C187.596 127.659 187.139 127.964 186.681 128.269C186.224 128.523 185.665 128.777 184.953 128.929C184.242 129.082 183.632 129.234 183.123 129.336C182.615 129.437 181.954 129.488 181.192 129.539C180.43 129.59 179.82 129.59 179.413 129.59C179.007 129.59 178.447 129.59 177.787 129.59C177.075 129.59 176.669 129.59 176.567 129.59V118.769C176.821 118.769 177.278 118.719 178.041 118.719ZM191.459 142.696C191.255 143.255 190.951 143.712 190.595 144.118C190.239 144.525 189.782 144.88 189.222 145.185C188.663 145.49 188.104 145.744 187.545 145.947C186.986 146.15 186.376 146.303 185.614 146.455C184.851 146.608 184.191 146.709 183.632 146.76C183.073 146.811 182.361 146.862 181.548 146.912C180.735 146.963 180.125 146.963 179.667 146.963C179.21 146.963 178.651 146.963 177.99 146.963C177.329 146.963 176.872 146.963 176.669 146.963V135.076C176.872 135.076 177.431 135.076 178.346 135.025C179.261 135.025 180.023 134.974 180.633 134.974C181.243 134.974 182.005 135.025 183.073 135.076C184.089 135.127 184.953 135.228 185.665 135.381C186.376 135.533 187.139 135.736 187.952 136.041C188.765 136.346 189.477 136.702 189.985 137.108C190.493 137.514 190.951 138.073 191.306 138.734C191.662 139.394 191.815 140.156 191.815 140.969C191.815 141.578 191.662 142.137 191.459 142.696Z" fill="#FFD600"/>
<path d="M207.773 335.989L204.826 344.777H173.11L177.075 329.537L170.772 330.705V323.644L179.006 322.069L183.682 304.239H196.033L192.373 319.58L199.031 318.31V325.371L190.645 326.946L188.46 335.938H207.773V335.989Z" fill="#FFD600"/>
<path d="M119.947 242.162L105.411 249.324L90.8752 242.162C90.1128 241.806 89.198 241.958 88.5881 242.619C88.029 243.279 87.9273 244.194 88.3848 244.905L103.734 269.136C104.09 269.695 104.7 270.051 105.36 270.051C106.021 270.051 106.631 269.695 106.987 269.136L122.336 244.905C122.794 244.194 122.692 243.228 122.133 242.619C121.625 241.958 120.71 241.755 119.947 242.162ZM103.48 252.626V261.465L95.297 248.562L103.48 252.626ZM107.343 261.516V252.677L115.526 248.664L107.343 261.516Z" fill="#FFD600"/>
<path d="M122.641 234.491C122.641 234.44 122.641 234.338 122.591 234.288C122.54 234.084 122.489 233.932 122.387 233.729L107.038 209.497C106.987 209.447 106.987 209.447 106.936 209.396C106.58 208.888 106.021 208.583 105.412 208.583C104.802 208.583 104.243 208.888 103.887 209.396C103.836 209.447 103.785 209.447 103.785 209.497L88.4358 233.729C88.3342 233.881 88.2325 234.084 88.1817 234.288C88.1817 234.44 88.1309 234.592 88.1309 234.796C88.1309 234.846 88.1309 234.846 88.1309 234.897C88.1309 235.1 88.1817 235.304 88.2325 235.456C88.2833 235.507 88.2833 235.608 88.3342 235.659C88.385 235.761 88.4358 235.862 88.5375 235.964C88.5883 236.015 88.5883 236.066 88.5883 236.066L88.6391 236.116C88.7408 236.218 88.8424 236.269 88.9441 236.37C88.9949 236.421 89.0457 236.472 89.0965 236.472C89.0965 236.472 89.1474 236.472 89.1474 236.523L104.497 244.092C105.056 244.346 105.666 244.346 106.174 244.092L121.523 236.523C121.727 236.421 121.879 236.269 122.031 236.116C122.031 236.116 122.082 236.116 122.082 236.066C122.133 236.015 122.133 236.015 122.133 235.964C122.235 235.862 122.286 235.761 122.336 235.659C122.387 235.608 122.387 235.507 122.438 235.456C122.489 235.253 122.54 235.1 122.54 234.897C122.54 234.846 122.54 234.846 122.54 234.796C122.692 234.694 122.692 234.592 122.641 234.491ZM107.343 226.007V217.168L115.526 230.071L107.343 226.007ZM103.48 217.168V226.007L95.2973 230.02L103.48 217.168ZM105.412 240.231L94.3824 234.796L105.412 229.36L116.441 234.796L105.412 240.231Z" fill="#FFD600"/>
<path d="M297.43 63.1944C297.43 67.4616 293.974 70.8652 289.756 70.8652C285.486 70.8652 282.081 67.4108 282.081 63.1944C282.081 62.6357 282.132 62.0769 282.233 61.5689L277.456 56.7937L272.678 61.5689C272.78 62.1277 272.831 62.6357 272.831 63.1944C272.831 67.4616 269.375 70.8652 265.156 70.8652C260.887 70.8652 257.481 67.4108 257.481 63.1944C257.481 58.9273 260.938 55.5237 265.156 55.5237C266.528 55.5237 267.85 55.8793 269.019 56.5397L274.406 51.1549V47.1926C271.052 45.7194 269.222 42.1634 269.934 38.6074C270.696 35.0515 273.796 32.5115 277.456 32.5115C281.115 32.5115 284.216 35.0515 284.978 38.6074C285.74 42.1634 283.86 45.7702 280.505 47.1926V51.1549L285.893 56.5397C287.062 55.8793 288.383 55.5237 289.756 55.5237C293.974 55.4729 297.43 58.9273 297.43 63.1944Z" fill="#FFD600"/>
<path d="M179.719 180.999C153.035 180.999 131.384 159.307 131.384 132.688C131.384 106.069 153.086 84.3779 179.719 84.3779C206.402 84.3779 228.054 106.069 228.054 132.688C228.054 159.307 206.351 180.999 179.719 180.999ZM179.719 92.0487C157.305 92.0487 139.109 110.286 139.109 132.638C139.109 155.04 157.356 173.226 179.719 173.226C202.133 173.226 220.328 154.989 220.328 132.638C220.328 110.235 202.133 92.0487 179.719 92.0487Z" fill="#16D194"/>
<path d="M147.647 116.483L132.349 108.762C139.108 95.4015 151.205 85.4448 165.639 81.4824L170.214 97.9923C160.404 100.735 152.171 107.441 147.647 116.483Z" fill="#16D194"/>
<path d="M210.163 102.361C205.436 97.6876 199.794 94.284 193.441 92.2012C190.29 91.1852 187.088 90.5248 183.835 90.2708L184.191 86.0037C187.748 86.3085 191.306 87.0197 194.762 88.1373C201.776 90.4232 207.977 94.1824 213.212 99.3132L210.163 102.361Z" fill="#16D194"/>
<path d="M179.718 183.539C151.662 183.539 128.791 160.73 128.791 132.638C128.791 121.106 132.755 109.778 139.973 100.837C147.088 91.9978 157.05 85.6987 168.028 83.1079L170.976 95.6046C153.746 99.6686 141.65 114.908 141.65 132.638C141.65 153.618 158.727 170.686 179.718 170.686C181.141 170.686 182.564 170.585 183.988 170.432L185.411 183.234C183.53 183.437 181.599 183.539 179.718 183.539Z" fill="#16D194"/>
<path d="M221.141 166.216L207.723 155.497C219.159 141.223 217.99 120.7 205.029 107.746C202.742 105.46 200.15 103.479 197.354 101.904L205.842 87.0195C209.959 89.3563 213.771 92.2519 217.176 95.6555C236.338 114.756 238.015 145.134 221.141 166.216Z" fill="#16D194"/>
<path d="M275.17 91.9471C254.23 91.9471 237.203 74.9292 237.203 53.9998C237.203 33.0704 254.23 16.0525 275.17 16.0525C296.11 16.0525 313.136 33.0704 313.136 53.9998C313.136 74.9292 296.11 91.9471 275.17 91.9471ZM275.17 23.774C258.499 23.774 244.929 37.3375 244.929 53.9998C244.929 70.6621 258.499 84.2256 275.17 84.2256C291.84 84.2256 305.411 70.6621 305.411 53.9998C305.462 37.3375 291.891 23.774 275.17 23.774Z" fill="#16D194"/>
<path d="M299.819 47.1925C297.888 40.2837 293.11 34.4418 286.655 31.1906L294.381 15.8999C305.156 21.3355 313.135 31.089 316.337 42.6713L299.819 47.1925Z" fill="#16D194"/>
<path d="M301.091 80.0093L298.041 77.0121C301.599 73.4561 304.14 69.1889 305.716 64.363C306.478 62.0262 306.986 59.5878 307.19 57.0986L311.459 57.4542C311.205 60.2482 310.697 62.9914 309.782 65.6838C308.054 71.1701 305.106 75.9961 301.091 80.0093Z" fill="#16D194"/>
<path d="M234.864 58.5209C234.712 57.0477 234.61 55.5238 234.61 53.9998C234.61 31.6479 252.806 13.4617 275.169 13.4617C284.368 13.4617 293.365 16.6112 300.531 22.3516C307.596 27.9904 312.577 35.9151 314.66 44.6526L302.157 47.599C299.21 35.0515 288.13 26.314 275.22 26.314C259.972 26.314 247.52 38.7091 247.52 53.9998C247.52 55.0158 247.571 56.0826 247.672 57.0985L234.864 58.5209Z" fill="#16D194"/>
<path d="M274.763 93.4711C266.071 93.4711 257.38 90.6263 250.163 84.8351L256.872 76.4532C268.308 85.5971 284.775 84.6827 295.144 74.3196C296.973 72.4908 298.549 70.408 299.819 68.1729L309.121 73.456C307.393 76.504 305.207 79.3488 302.717 81.8888C295.042 89.5595 284.928 93.4711 274.763 93.4711Z" fill="#16D194"/>
<path d="M105.208 287.576C78.474 287.576 56.6699 265.834 56.6699 239.063C56.6699 212.342 78.4232 190.549 105.208 190.549C131.942 190.549 153.747 212.291 153.747 239.063C153.696 265.834 131.942 287.576 105.208 287.576ZM105.208 198.321C82.6926 198.321 64.3954 216.609 64.3954 239.114C64.3954 261.618 82.6926 279.906 105.208 279.906C127.724 279.906 146.021 261.618 146.021 239.114C145.97 216.609 127.673 198.321 105.208 198.321Z" fill="#16D194"/>
<path d="M139.973 229.461C137.279 219.657 130.52 211.428 121.422 206.856L129.147 191.565C142.565 198.321 152.527 210.513 156.542 224.94L139.973 229.461Z" fill="#16D194"/>
<g opacity="0.4">
<path opacity="0.4" d="M138.651 272.692L135.602 269.695C140.278 264.971 143.734 259.281 145.817 252.931C146.834 249.781 147.495 246.53 147.749 243.279L152.018 243.635C151.713 247.241 151.002 250.797 149.884 254.252C147.596 261.262 143.835 267.46 138.651 272.692Z" fill="#16D194"/>
</g>
<path d="M54.3831 244.752C54.1798 242.873 54.0781 240.942 54.0781 239.063C54.0781 210.92 77.0004 188.009 105.158 188.009C116.746 188.009 128.08 191.971 137.127 199.236C146.021 206.348 152.324 216.355 154.916 227.379L142.413 230.325C138.347 213.002 123.048 200.912 105.209 200.912C84.116 200.912 66.9878 218.032 66.9878 239.113C66.9878 240.536 67.0894 241.958 67.2419 243.381L54.3831 244.752Z" fill="#16D194"/>
<path d="M104.649 292.301C92.9591 292.301 81.2184 288.44 71.46 280.668L82.1841 267.256C96.5169 278.737 117.203 277.569 130.214 264.564C132.501 262.278 134.484 259.687 136.11 256.843L151.002 265.326C148.664 269.492 145.716 273.302 142.311 276.705C131.993 287.018 118.372 292.301 104.649 292.301Z" fill="#16D194"/>
<path d="M189.325 371.294C176.822 371.294 165.081 366.417 156.238 357.578C147.394 348.739 142.515 337.004 142.515 324.508C142.515 312.011 147.394 300.276 156.238 291.437C165.081 282.598 176.822 277.721 189.325 277.721C201.828 277.721 213.569 282.598 222.412 291.437C231.256 300.276 236.135 312.011 236.135 324.508C236.135 337.004 231.256 348.739 222.412 357.578C213.569 366.468 201.828 371.294 189.325 371.294ZM189.325 285.494C178.906 285.494 169.096 289.557 161.676 296.923C154.306 304.289 150.24 314.094 150.24 324.558C150.24 334.972 154.306 344.777 161.676 352.193C169.046 359.559 178.855 363.623 189.325 363.623C199.744 363.623 209.553 359.559 216.974 352.193C224.344 344.828 228.41 335.023 228.41 324.558C228.41 314.145 224.344 304.34 216.974 296.923C209.553 289.557 199.744 285.494 189.325 285.494Z" fill="#16D194"/>
<path d="M140.38 340.662C135.857 326.844 137.331 311.706 144.497 299.108L159.389 307.591C154.611 315.973 153.595 326.082 156.644 335.328L140.38 340.662Z" fill="#16D194"/>
<path d="M163.251 292.86L160.456 289.608C163.099 287.373 166.047 285.443 169.147 283.817C175.5 280.566 182.311 278.94 189.376 278.89V283.157C182.972 283.208 176.822 284.681 171.028 287.627C168.283 289.1 165.64 290.828 163.251 292.86Z" fill="#16D194"/>
<path d="M189.325 373.885C176.161 373.885 163.76 368.754 154.408 359.407C146.479 351.482 141.448 341.018 140.228 329.943C139.008 319.021 141.549 307.896 147.293 298.6L158.22 305.356C149.275 319.783 151.409 338.325 163.455 350.314C170.367 357.223 179.516 360.982 189.274 360.982C199.033 360.982 208.182 357.172 215.094 350.314C216.059 349.349 216.974 348.333 217.838 347.266L227.902 355.292C226.784 356.715 225.513 358.086 224.242 359.407C214.89 368.754 202.489 373.885 189.325 373.885Z" fill="#16D194"/>
<path d="M223.734 321.053C221.803 303.68 207.114 290.574 189.579 290.574C186.479 290.574 183.379 290.98 180.431 291.793L175.856 275.283C180.278 274.064 184.903 273.454 189.579 273.454C215.856 273.454 237.863 293.114 240.761 319.225L223.734 321.053Z" fill="#16D194"/>
</svg>
