<svg width="1440" height="91" viewBox="0 0 1440 91" fill="none" xmlns="http://www.w3.org/2000/svg">
<path d="M-11 27.8219C-9.55132 29.8539 27.0279 53.4247 27.0279 53.4247C27.0279 53.4247 52.0176 63.1781 72.6613 71.7123L113.949 90L166.101 71.7123H236.724C237.811 66.4292 271.493 55.863 271.493 55.863C271.493 55.863 322.559 66.4292 339.943 71.7123C355.516 66.4292 389.053 55.863 398.614 55.863C408.176 55.863 451.129 66.4292 471.411 71.7123H515.957H586.581H643.079L681.107 43.6712L713.702 71.7123L756.076 55.863L796.277 71.7123H841.911L881.025 43.6712L920.139 55.863L944.043 27.8219H1000.54L1074.42 1L1135.27 27.8219L1196.11 1L1240.66 27.8219L1291.73 1H1402.55H1471" stroke="#27AE60" stroke-linejoin="round"/>
</svg>
