<svg width="36" height="35" viewBox="0 0 36 35" fill="none" xmlns="http://www.w3.org/2000/svg">
<path d="M18.3718 35C8.72001 35 0.871826 27.1518 0.871826 17.5C0.871826 7.84819 8.72001 0 18.3718 0C28.0236 0 35.8718 7.84819 35.8718 17.5C35.8718 27.2006 28.0236 35 18.3718 35Z" fill="#117BB8"/>
<path d="M14.0333 13.6489H10.426V25.3481H14.0333V13.6489Z" fill="white"/>
<path d="M12.2296 12.1378C13.3995 12.1378 14.3744 11.1629 14.3744 9.99299C14.3744 8.82308 13.3995 7.84814 12.2296 7.84814C11.0596 7.84814 10.0847 8.82308 10.0847 9.99299C10.0847 11.1629 11.0596 12.1378 12.2296 12.1378Z" fill="white"/>
<path d="M19.8343 19.2062C19.8343 17.5488 20.6142 16.5739 22.0279 16.5739C23.344 16.5739 23.9777 17.5001 23.9777 19.2062C23.9777 20.9123 23.9777 25.3482 23.9777 25.3482H27.585C27.585 25.3482 27.585 21.0586 27.585 17.9388C27.585 14.819 25.8301 13.3079 23.344 13.3079C20.858 13.3079 19.8343 15.2577 19.8343 15.2577V13.6978H16.3733V25.397H19.8343C19.8343 25.3483 19.8343 21.0098 19.8343 19.2062Z" fill="white"/>
</svg>
