<svg width="66" height="50" viewBox="0 0 66 50" fill="none" xmlns="http://www.w3.org/2000/svg">
<path d="M0 44.5415C0 34.5328 0 24.5241 0 14.4983C0.103098 14.5324 0.206196 14.5666 0.292111 14.6178C9.2101 20.5104 18.1109 26.4029 27.0289 32.2954C31.0154 34.9427 34.9846 34.9427 38.9883 32.2954C46.9612 27.0348 54.9169 21.7572 62.8727 16.4966C63.9037 15.8134 64.9518 15.1473 66 14.4812C66 24.4899 66 34.5157 66 44.5245C65.9828 44.5586 65.9313 44.5928 65.9313 44.6269C65.0549 48.0941 62.9414 49.7509 59.333 49.7509C50.4665 49.7509 41.6001 49.7509 32.7337 49.7509C23.9703 49.7509 15.207 49.7509 6.44363 49.7509C4.69097 49.7509 3.16168 49.2385 1.87295 48.0258C0.824785 47.0864 0.309294 45.8738 0 44.5415Z" fill="#FFC209"/>
<path d="M0 7.59798C0 7.05143 0 6.4878 0 5.94125C0.103098 5.58257 0.206196 5.20682 0.326477 4.84814C1.20281 2.25202 3.48815 0.714844 6.478 0.714844C24.1593 0.714844 41.8235 0.714844 59.5048 0.714844C59.6938 0.714844 59.9 0.714844 60.089 0.731923C62.718 0.868561 64.8659 2.45698 65.6735 4.84814C65.7938 5.20682 65.8797 5.58257 66 5.94125C66 6.4878 66 7.05143 66 7.59798C65.5876 9.28887 64.7456 10.6723 63.2507 11.663C54.3327 17.5384 45.4491 23.4309 36.5483 29.3063C34.177 30.8777 31.7542 30.8435 29.383 29.2722C20.4993 23.3967 11.6329 17.5213 2.76647 11.663C1.35746 10.7236 0.429576 9.47675 0.103098 7.82002C0.0859151 7.73462 0.0343661 7.6663 0 7.59798Z" fill="#FFC209"/>
</svg>
