<svg width="168" height="138" viewBox="0 0 168 138" fill="none" xmlns="http://www.w3.org/2000/svg">
<path d="M94.3305 137.953C135.017 137.953 168 134.382 168 129.976C168 125.571 135.017 122 94.3305 122C53.6439 122 20.6609 125.571 20.6609 129.976C20.6609 134.382 53.6439 137.953 94.3305 137.953Z" fill="#EDEDED"/>
<path d="M112.33 84.717C110.165 84.717 108.913 86.4113 109.539 88.4706L120.078 123.478L121.096 126.867C121.722 128.926 123.991 130.621 126.156 130.621H134.791C136.956 130.621 138.209 128.926 137.582 126.867L133.982 114.876L126.026 88.4445C125.4 86.3853 123.13 84.6909 120.965 84.6909L112.33 84.717Z" fill="black"/>
<path d="M62.4523 84.717C60.2871 84.717 58.0175 86.4114 57.3914 88.4707L49.4349 114.902L45.8349 126.893C45.2088 128.952 46.461 130.647 48.6262 130.647H57.261C59.4262 130.647 61.6957 128.952 62.3218 126.893L63.3392 123.504L73.8784 88.4967C74.5044 86.4374 73.2523 84.7431 71.0871 84.7431L62.4523 84.717Z" fill="black"/>
<path d="M91.7217 123.765C125.925 123.765 153.652 96.0593 153.652 61.8825C153.652 27.7058 125.925 0 91.7217 0C57.5185 0 29.7913 27.7058 29.7913 61.8825C29.7913 96.0593 57.5185 123.765 91.7217 123.765Z" fill="#16D194"/>
<path fill-rule="evenodd" clip-rule="evenodd" d="M41.0869 61.8823C41.0869 89.7998 63.7565 112.452 91.6956 112.452C119.635 112.452 142.304 89.7737 142.304 61.8823C142.304 33.9908 119.609 11.3127 91.6956 11.3127C63.7826 11.3127 41.0869 33.9648 41.0869 61.8823Z" fill="white"/>
<path fill-rule="evenodd" clip-rule="evenodd" d="M52.4087 61.8825C52.4087 83.57 70.0174 101.165 91.7217 101.165C113.426 101.165 131.035 83.57 131.035 61.8825C131.035 40.1949 113.426 22.5999 91.7217 22.5999C70.0174 22.5999 52.4087 40.1949 52.4087 61.8825Z" fill="#16D194"/>
<path fill-rule="evenodd" clip-rule="evenodd" d="M63.7043 61.8825C63.7043 77.314 76.2522 89.8522 91.6957 89.8522C107.139 89.8522 119.687 77.314 119.687 61.8825C119.687 46.451 107.139 33.9128 91.6957 33.9128C76.2522 33.9128 63.7043 46.451 63.7043 61.8825Z" fill="white"/>
<path fill-rule="evenodd" clip-rule="evenodd" d="M75.0261 61.8824C75.0261 71.084 82.5131 78.5652 91.7218 78.5652C100.93 78.5652 108.417 71.084 108.417 61.8824C108.417 52.6809 100.93 45.1997 91.7218 45.1997C82.487 45.1997 75.0261 52.6809 75.0261 61.8824Z" fill="#16D194"/>
<path fill-rule="evenodd" clip-rule="evenodd" d="M86.3218 61.8825C86.3218 64.8541 88.7218 67.2522 91.6957 67.2522C94.6696 67.2522 97.0696 64.8541 97.0696 61.8825C97.0696 58.9108 94.6696 56.5127 91.6957 56.5127C88.7479 56.5127 86.3218 58.9108 86.3218 61.8825Z" fill="white"/>
<path d="M91.6956 60.2402H10.3826V63.8114H91.6956V60.2402Z" fill="white"/>
<path fill-rule="evenodd" clip-rule="evenodd" d="M92.9478 60.2403C92.9478 59.5625 92.4 59.0151 91.7217 59.0151H10.3826C9.70432 59.0151 9.15649 59.5625 9.15649 60.2403V63.8114C9.15649 64.4892 9.70432 65.0366 10.3826 65.0366H91.6956C92.3739 65.0366 92.9217 64.4892 92.9217 63.8114V60.2403H92.9478ZM11.6087 61.4915V62.5863H90.4695V61.4915H11.6087Z" fill="black"/>
<path d="M4.12196 47.9368C3.05239 47.9368 2.45239 48.406 2.45239 49.0837C2.45239 49.4486 2.60891 49.8657 2.94805 50.3088L10.3828 60.2403H34.8785L27.4437 50.3088C26.4524 49.0055 24.3394 47.9368 22.6959 47.9368H4.12196Z" fill="black"/>
<path fill-rule="evenodd" clip-rule="evenodd" d="M4.12174 45.4866C1.22609 45.4866 0 47.233 0 49.0838V49.1099C0 49.8919 0.26087 50.8303 0.991304 51.7947L8.42609 61.7262C8.89565 62.3518 9.62609 62.7167 10.3826 62.7167H34.8783C35.8174 62.7167 36.6522 62.1954 37.0696 61.3613C37.487 60.5271 37.4087 59.5366 36.8348 58.7806L29.4 48.8492C28.0174 46.9984 24.9913 45.4866 22.6957 45.4866H4.12174ZM4.12174 47.9369C3.05217 47.9369 2.45217 48.4061 2.45217 49.0838C2.45217 49.4487 2.6087 49.8658 2.94783 50.3089L10.3826 60.2404H34.8783L27.4435 50.3089C26.4522 49.0056 24.3391 47.9369 22.6957 47.9369H4.12174Z" fill="black"/>
<path d="M10.3828 63.8115L2.94805 73.743C2.60891 74.1861 2.45239 74.6032 2.45239 74.9681C2.45239 75.6458 3.05239 76.115 4.12196 76.115H22.6959C24.3394 76.115 26.4524 75.0463 27.4437 73.743L34.8785 63.8115H10.3828Z" fill="black"/>
<path fill-rule="evenodd" clip-rule="evenodd" d="M10.3826 61.361C9.6 61.361 8.86957 61.726 8.42609 62.3516L0.991304 72.283C0.26087 73.2475 0 74.1859 0 74.9418V74.9679C0 76.8186 1.22609 78.5651 4.12174 78.5651H22.6957C24.9913 78.5651 28.0174 77.0532 29.4 75.2025L36.8348 65.271C37.3826 64.5151 37.487 63.5246 37.0696 62.6904C36.6522 61.8563 35.7913 61.335 34.8783 61.335L10.3826 61.361ZM10.3826 63.8113L2.94783 73.7427C2.6087 74.1859 2.45217 74.6029 2.45217 74.9679C2.45217 75.6456 3.05217 76.1148 4.12174 76.1148H22.6957C24.3391 76.1148 26.4522 75.0461 27.4435 73.7427L34.8783 63.8113H10.3826Z" fill="black"/>
</svg>
