<svg width="473" height="334" viewBox="0 0 473 334" fill="none" xmlns="http://www.w3.org/2000/svg">
<path d="M239.415 333.121C368.261 333.121 472.711 326.608 472.711 318.575C472.711 310.541 368.261 304.028 239.415 304.028C110.569 304.028 6.11914 310.541 6.11914 318.575C6.11914 326.608 110.569 333.121 239.415 333.121Z" fill="#E6F5FF"/>
<path d="M152.915 328.235C175.606 328.235 194 326.943 194 325.348C194 323.754 175.606 322.461 152.915 322.461C130.224 322.461 111.83 323.754 111.83 325.348C111.83 326.943 130.224 328.235 152.915 328.235Z" fill="#D4ECFF"/>
<path d="M328.359 326.903C360.371 326.903 386.322 325.014 386.322 322.683C386.322 320.353 360.371 318.464 328.359 318.464C296.346 318.464 270.396 320.353 270.396 322.683C270.396 325.014 296.346 326.903 328.359 326.903Z" fill="#D4ECFF"/>
<path d="M36.6557 135.691C89.6219 100.491 68.8574 0.111023 162.02 0.111023C255.183 0.111023 202.883 51.7448 296.712 31.0913C390.541 10.4378 352.121 144.575 406.642 164.229C472.378 187.991 492.365 252.728 442.841 313.245H31.2147C31.2147 313.245 -42.5161 188.324 36.6557 135.691Z" fill="#F4F4F4"/>
<path d="M433.957 131.583V159.787C433.957 167.227 427.849 173.223 420.41 173.223H392.205C384.766 173.223 378.77 167.116 378.77 159.787V131.583C378.77 124.143 384.877 118.036 392.205 118.036H420.41C427.849 118.147 433.957 124.143 433.957 131.583Z" fill="black"/>
<path d="M405.974 129.806C397.868 130.028 391.316 136.691 390.983 144.686C390.872 148.35 391.983 151.792 394.092 154.568C394.981 155.679 395.203 157.122 394.87 158.455L393.87 162.674L399.089 160.342C400.088 159.898 401.199 159.787 402.309 160.12C403.975 160.564 405.752 160.786 407.528 160.675C415.301 160.12 421.519 153.902 421.963 146.129C422.519 137.024 415.079 129.473 405.974 129.806ZM399.644 146.129C399.089 146.129 398.756 145.685 398.756 145.241C398.756 144.686 399.2 144.352 399.644 144.352C400.2 144.352 400.533 144.797 400.533 145.241C400.533 145.796 400.2 146.129 399.644 146.129ZM406.307 146.129C405.752 146.129 405.418 145.685 405.418 145.241C405.418 144.686 405.863 144.352 406.307 144.352C406.862 144.352 407.195 144.797 407.195 145.241C407.195 145.796 406.751 146.129 406.307 146.129ZM413.191 146.129C412.636 146.129 412.303 145.685 412.303 145.241C412.303 144.686 412.747 144.352 413.191 144.352C413.746 144.352 414.08 144.797 414.08 145.241C414.191 145.796 413.746 146.129 413.191 146.129Z" fill="white"/>
<path d="M64.3036 145.241V172.446C64.3036 179.552 58.4184 185.437 51.3118 185.437H24.107C17.0004 185.437 11.1152 179.552 11.1152 172.446V145.241C11.1152 138.134 17.0004 132.249 24.107 132.249H51.3118C58.4184 132.249 64.3036 138.134 64.3036 145.241Z" fill="black"/>
<path d="M45.204 143.131H29.1032C24.8837 143.131 21.4414 146.573 21.4414 150.793V166.894C21.4414 171.113 24.8837 174.556 29.1032 174.556H45.204C49.4236 174.556 52.8658 171.113 52.8658 166.894V150.793C52.9769 146.573 49.5346 143.131 45.204 143.131ZM43.0943 160.231L33.4338 166.005C32.4344 166.672 31.1019 165.894 31.1019 164.673V153.014C31.1019 151.792 32.4344 151.126 33.4338 151.681L43.0943 157.455C44.0936 158.122 44.0936 159.565 43.0943 160.231Z" fill="white"/>
<path d="M254.405 13.9911V42.7506C254.405 50.3013 248.187 56.5196 240.636 56.5196H211.876C204.326 56.5196 198.107 50.3013 198.107 42.7506V13.9911C198.107 6.44037 204.326 0.222107 211.876 0.222107H240.636C248.187 0.222107 254.405 6.44037 254.405 13.9911Z" fill="black"/>
<path d="M207.99 30.9802C207.324 31.2023 206.88 31.9796 207.213 32.7569L207.99 35.0887C208.212 35.755 208.99 36.1991 209.767 35.866L210.988 35.4218L209.212 30.5361L207.99 30.9802Z" fill="white"/>
<path d="M222.536 37.3096L217.428 39.0862C217.428 39.0862 217.428 39.0862 217.317 39.0862L219.76 45.8597C219.871 46.0818 219.982 46.1928 220.204 46.1928L225.09 46.748C225.423 46.748 225.756 46.4149 225.645 46.0818L222.536 37.3096Z" fill="white"/>
<path d="M244.634 32.868L242.191 25.9835C243.19 25.2062 243.856 23.9847 243.856 22.6522C243.856 20.3204 241.969 18.4327 239.637 18.4327C239.637 18.4327 239.637 18.4327 239.526 18.4327L237.083 11.5482C236.75 10.6599 235.75 10.1047 234.751 10.4378C233.863 10.7709 233.308 11.7703 233.641 12.7697L241.191 34.0894C241.525 34.9777 242.524 35.5329 243.523 35.1998C244.412 34.7556 244.967 33.7563 244.634 32.868Z" fill="white"/>
<path d="M218.649 23.3185L212.653 25.4283C210.988 25.9835 210.099 27.8712 210.654 29.6478L212.653 35.3109C213.208 36.9765 215.096 37.8648 216.762 37.3096C216.762 37.3096 216.762 37.3096 216.873 37.3096L222.869 35.1998C222.869 35.1998 235.639 32.0907 239.414 34.4225L231.974 13.4359C230.531 17.7665 218.649 23.3185 218.649 23.3185Z" fill="white"/>
<path d="M84.9582 287.928C84.8471 287.928 92.5089 281.932 97.1726 273.381C102.058 265.164 104.168 254.282 96.1732 250.507C84.8471 245.621 95.1739 227.744 86.6238 226.522C78.4068 225.856 79.7393 230.187 75.1866 219.305C70.1898 208.423 61.8618 210.644 52.2013 204.536C41.8745 198.762 36.5446 212.087 46.7603 221.748C56.7539 232.185 43.8732 223.191 44.2063 230.742C44.3174 237.071 68.5242 248.286 62.417 249.952C56.4208 251.062 54.4221 256.614 58.6416 261.5C68.9683 272.604 85.0692 287.484 84.9582 287.928Z" fill="black"/>
<path opacity="0.39" d="M84.7352 295.367L84.8462 295.256C86.0677 283.819 85.5125 267.94 80.0715 252.617V252.506V252.395C81.9592 248.286 83.0696 243.623 83.8469 238.959C84.069 237.404 84.291 235.85 84.6242 234.295C84.6242 234.184 84.6242 234.184 84.5131 234.073C84.4021 233.962 84.291 234.073 84.18 234.073C84.18 234.073 84.18 234.073 84.18 234.184C83.9579 235.739 83.7358 237.182 83.5138 238.737C82.7365 243.067 81.8482 247.398 80.1825 251.284C80.0715 251.506 79.9605 251.729 79.9605 251.951C79.8494 251.729 79.7384 251.506 79.7384 251.284C77.4065 244.955 74.2974 238.626 70.1889 232.296C70.1889 232.185 70.0779 232.185 70.0779 232.074L70.1889 231.963V231.852C70.0779 226.744 69.1896 221.526 67.635 216.418C67.635 216.307 67.5239 216.307 67.5239 216.307C67.4129 216.307 67.3019 216.307 67.3019 216.418V216.529C68.8564 221.192 69.6337 225.967 69.8558 230.631C69.8558 230.964 69.8558 231.297 69.8558 231.63C69.6337 231.297 69.5227 231.075 69.3006 230.853C65.3031 224.968 60.5284 219.194 54.7543 213.531C54.6433 213.42 54.6433 213.42 54.6433 213.42C54.5322 213.42 54.5322 213.531 54.5322 213.531C54.5322 213.642 54.5322 213.753 54.6433 213.753C62.6382 221.415 68.6344 229.52 73.187 237.737C73.298 237.96 73.4091 238.071 73.5201 238.293C73.298 238.293 73.187 238.182 72.9649 238.182C66.7467 237.182 60.8615 235.517 55.3095 233.074C55.1985 233.074 55.1985 233.074 55.1985 233.074C55.1985 233.185 55.1985 233.185 55.1985 233.296C55.1985 233.407 55.3095 233.407 55.3095 233.407C61.0836 235.85 67.1908 237.626 73.6312 238.626C73.7422 238.626 73.7422 238.626 73.8533 238.626C73.8533 238.626 73.8532 238.737 73.9643 238.737C76.5182 243.401 78.4059 247.842 80.0715 252.284C80.0715 252.284 80.0715 252.284 80.0715 252.395C80.0715 252.395 80.0715 252.395 80.0715 252.506C80.0715 252.617 80.0715 252.617 80.1825 252.728C80.1825 252.728 80.1826 252.728 80.2936 252.839C80.2936 252.839 80.2936 252.839 80.2936 252.95C81.6261 256.947 82.8475 261.167 83.7358 265.831C83.7358 266.053 83.8469 266.386 83.8469 266.608C83.6248 266.386 83.4027 266.275 83.2917 266.053C77.7397 261.278 71.6324 257.503 65.4142 254.838C65.3031 254.838 65.3031 254.838 65.1921 254.949C65.1921 255.06 65.0811 255.06 65.0811 255.171C65.0811 255.171 65.0811 255.282 65.1921 255.282C71.7435 258.169 78.0728 262.166 83.8469 267.274C83.8469 267.274 83.9579 267.274 83.9579 267.385V267.496C85.4014 275.713 85.9566 284.819 84.9573 295.478C84.9573 295.589 84.9573 295.589 84.9573 295.589C84.6242 295.478 84.7352 295.478 84.7352 295.367Z" fill="#092B96"/>
<path d="M107.388 306.694C107.166 307.582 99.9481 287.817 80.2939 273.492C62.1943 258.391 31.6582 248.73 16.6678 255.726C-12.4248 268.94 9.7833 283.042 25.1069 278.267C40.9856 274.603 28.4381 297.144 45.7604 292.48C62.9716 289.26 62.6385 295.145 72.41 294.479C83.0699 293.036 108.165 306.027 107.388 306.694Z" fill="#16D194"/>
<path d="M401.755 276.491C401.866 276.38 392.206 275.824 383.434 271.494C374.772 267.496 366.889 259.723 371.33 252.062C377.882 241.624 359.338 232.741 365.556 226.856C371.996 221.748 373.329 225.967 370.886 214.419C368.887 202.649 376.993 199.762 381.546 189.213C386.765 178.553 398.757 186.548 395.759 200.428C393.427 214.752 398.979 199.984 402.977 206.424C406.419 211.754 392.872 234.628 398.868 232.63C404.42 230.076 409.195 233.629 408.529 240.069C406.419 254.727 401.533 276.157 401.755 276.491Z" fill="#16D194"/>
<path opacity="0.39" d="M406.197 282.487C406.086 282.487 406.086 282.487 406.086 282.376C398.647 273.603 390.097 260.168 385.877 244.622V244.511C385.877 244.511 385.766 244.511 385.766 244.4C381.88 242.068 378.326 238.848 375.106 235.406C373.996 234.295 372.996 233.185 371.886 231.963C371.775 231.852 371.775 231.852 371.886 231.741C371.886 231.63 372.108 231.519 372.219 231.63C372.219 231.63 372.219 231.63 372.33 231.741C373.33 232.852 374.44 233.962 375.439 235.072C378.437 238.182 381.658 241.18 385.211 243.512C385.433 243.623 385.655 243.734 385.766 243.845C385.655 243.623 385.655 243.4 385.544 243.178C383.878 236.627 382.879 229.631 382.657 222.081C382.657 221.97 382.657 221.97 382.657 221.859L382.435 221.748C382.435 221.748 382.435 221.748 382.324 221.637C379.548 217.417 377.327 212.642 375.772 207.423C375.772 207.312 375.772 207.312 375.772 207.201C375.883 207.09 375.995 207.09 375.995 207.201L376.106 207.312C377.549 212.087 379.548 216.418 381.991 220.415C382.213 220.637 382.324 220.97 382.546 221.192C382.546 220.859 382.546 220.526 382.546 220.193C382.435 213.086 383.101 205.647 384.767 197.652C384.767 197.541 384.878 197.541 384.878 197.541C384.989 197.541 384.989 197.541 385.1 197.541C385.211 197.652 385.211 197.652 385.211 197.763C382.99 208.645 382.657 218.638 383.434 228.077C383.434 228.299 383.434 228.521 383.434 228.632C383.545 228.521 383.656 228.41 383.878 228.299C388.431 223.968 392.317 219.194 395.538 214.086C395.538 213.975 395.649 213.975 395.649 214.086C395.76 214.086 395.76 214.197 395.76 214.308C395.76 214.419 395.76 214.419 395.76 214.53C392.428 219.749 388.32 224.746 383.545 229.187L383.434 229.298C383.434 229.409 383.434 229.409 383.434 229.52C383.989 234.739 384.878 239.514 386.099 244.178C386.099 244.178 386.099 244.178 386.099 244.289C386.099 244.289 386.099 244.289 386.21 244.4C386.21 244.4 386.321 244.511 386.21 244.622C386.21 244.622 386.21 244.622 386.21 244.733C386.21 244.733 386.21 244.733 386.21 244.844C387.321 248.841 388.764 253.061 390.652 257.392C390.763 257.614 390.874 257.836 390.985 258.058C391.096 257.836 391.096 257.503 391.207 257.28C393.095 250.174 395.982 243.623 399.535 237.959C399.535 237.848 399.646 237.848 399.757 237.848C399.868 237.848 399.868 237.959 399.868 237.959V238.071C396.093 244.067 393.095 251.062 391.207 258.502V258.613V258.724C394.649 266.386 399.313 274.159 406.197 282.376C406.309 282.487 406.197 282.487 406.197 282.487C406.309 282.487 406.42 282.376 406.197 282.487Z" fill="#092B96"/>
<path d="M389.652 286.595C389.763 286.595 383.878 278.933 381.324 269.495C378.548 260.279 379.215 249.286 387.876 247.62C400.09 245.621 394.427 225.856 402.977 226.744C411.083 228.188 408.751 231.963 415.858 222.525C423.409 213.198 430.848 217.417 441.73 213.864C453.167 210.755 455.055 224.968 442.73 231.963C430.515 239.625 445.173 234.073 443.063 241.291C441.397 247.398 415.192 252.284 420.633 255.504C426.185 258.058 426.74 263.943 421.41 267.607C408.973 275.713 389.652 286.262 389.652 286.595Z" fill="black"/>
<path opacity="0.39" d="M387.987 293.924C387.987 293.924 387.876 293.813 387.987 293.702C389.652 282.376 394.094 267.052 403.088 253.616C403.088 253.616 403.088 253.505 403.199 253.505V253.394C402.422 248.952 402.533 244.067 402.866 239.403C402.977 237.848 403.088 236.294 403.31 234.739C403.31 234.628 403.31 234.628 403.421 234.628C403.532 234.628 403.644 234.628 403.755 234.739V234.85C403.644 236.405 403.421 237.959 403.31 239.403C402.977 243.734 402.866 248.175 403.421 252.395C403.421 252.617 403.533 252.839 403.533 253.061C403.644 252.839 403.755 252.617 403.977 252.395C407.752 246.843 412.305 241.402 417.857 236.294L417.968 236.183V235.961V235.85C419.3 230.964 421.41 226.078 424.297 221.526C424.297 221.414 424.408 221.414 424.519 221.414C424.63 221.414 424.741 221.526 424.741 221.526V221.637C422.076 225.856 420.078 230.298 418.745 234.739C418.634 235.072 418.523 235.406 418.523 235.628C418.745 235.406 418.967 235.183 419.3 234.961C424.63 230.187 430.626 225.745 437.733 221.748C437.844 221.748 437.844 221.748 437.844 221.748C437.955 221.748 437.955 221.859 437.955 221.97C437.955 222.081 437.955 222.192 437.844 222.192C428.294 227.744 420.411 234.073 413.97 240.847C413.859 240.958 413.748 241.18 413.526 241.291C413.748 241.291 413.859 241.291 414.081 241.291C420.3 241.846 426.518 241.624 432.403 240.736C432.514 240.736 432.514 240.736 432.514 240.847C432.514 240.958 432.514 240.958 432.514 241.069L432.403 241.18C426.185 242.068 419.855 242.29 413.304 241.735C413.193 241.735 413.193 241.735 413.082 241.735L412.971 241.846C409.418 245.732 406.42 249.619 403.755 253.505C403.755 253.505 403.755 253.505 403.755 253.616C403.755 253.616 403.755 253.616 403.755 253.727C403.755 253.838 403.755 253.838 403.644 253.838C403.644 253.838 403.644 253.838 403.533 253.838C403.533 253.838 403.533 253.838 403.533 253.949C401.201 257.392 399.091 261.278 397.092 265.609C396.981 265.831 396.87 266.053 396.759 266.275C396.981 266.164 397.203 266.053 397.425 265.942C403.977 262.722 410.861 260.612 417.524 259.39C417.635 259.39 417.635 259.39 417.746 259.501C417.746 259.612 417.746 259.612 417.746 259.723C417.746 259.723 417.746 259.834 417.635 259.834C410.639 261.056 403.421 263.388 396.648 266.83H396.537V266.941C393.095 274.603 390.319 283.264 388.764 293.813C388.764 293.924 388.653 293.924 388.653 293.924C388.209 294.035 388.098 294.035 387.987 293.924Z" fill="#092B96"/>
<path d="M366 300.697C366 300.697 433.179 249.397 454.277 253.838C475.375 258.28 462.05 280.599 448.503 279.711C434.956 278.933 446.948 301.03 430.737 298.365C414.525 295.7 414.303 301.475 404.531 299.587C394.982 297.81 366 300.697 366 300.697Z" fill="#16D194"/>
<path d="M355.118 115.371H93.3959C88.5101 115.371 84.5127 119.368 84.5127 124.254V305.139C84.5127 310.025 88.5101 314.022 93.3959 314.022H355.118C360.004 314.022 364.001 310.025 364.001 305.139V124.143C363.89 119.257 360.004 115.371 355.118 115.371Z" fill="#16D194"/>
<path d="M107.72 301.03C106.832 301.03 106.055 300.253 106.055 299.365V129.806C106.055 128.918 106.832 128.141 107.72 128.141H325.026C325.915 128.141 326.692 128.918 326.692 129.806V299.365C326.692 300.253 325.915 301.03 325.026 301.03H107.72Z" fill="#D4ECFF"/>
<path d="M325.026 128.252H107.72C106.832 128.252 106.055 129.029 106.055 129.917V134.581H317.364C318.253 134.581 319.03 135.358 319.03 136.246V301.141H325.026C325.915 301.141 326.692 300.364 326.692 299.476V129.806C326.581 128.918 325.915 128.252 325.026 128.252Z" fill="#CCFFEE"/>
<path d="M354.118 214.641C354.118 209.644 350.121 205.647 345.124 205.647C340.127 205.647 336.13 209.644 336.13 214.641C336.13 219.638 340.127 223.635 345.124 223.635C350.121 223.635 354.118 219.638 354.118 214.641Z" fill="white"/>
<path d="M107.72 301.03H226.422C219.871 305.805 212.986 310.136 205.769 313.911H93.3959C88.5101 313.911 84.5127 309.914 84.5127 305.028V124.143C84.5127 119.257 88.5101 115.26 93.3959 115.26H282.609C284.163 119.479 285.496 123.699 286.717 128.141H107.72C106.832 128.141 106.055 128.918 106.055 129.806V299.365C106.055 300.364 106.832 301.03 107.72 301.03Z" fill="#16D194"/>
<path d="M95.0621 197.097C94.1738 197.097 93.3965 197.874 93.3965 198.762V238.071C93.3965 238.959 94.1738 239.736 95.0621 239.736C95.9504 239.736 96.7277 238.959 96.7277 238.071V198.762C96.7277 197.874 95.9504 197.097 95.0621 197.097Z" fill="white"/>
<path d="M145.586 251.728C145.364 251.173 145.253 250.618 145.142 249.952C145.142 250.174 145.364 250.84 145.586 251.728Z" fill="#0D5DBC"/>
<path d="M333.022 98.2707L333.91 97.6045C333.577 95.9389 332.133 93.496 327.248 90.609C318.031 85.168 309.037 76.1737 309.481 71.399C309.481 71.399 305.151 83.6134 311.591 88.6102C317.587 93.2739 329.579 90.831 333.022 98.2707Z" fill="black"/>
<path d="M333.354 98.0487L333.909 97.7155C333.576 96.0499 332.133 93.607 327.247 90.72C318.031 85.279 309.036 76.2847 309.48 71.51C309.48 71.51 308.259 81.8368 314.588 86.3894C320.807 90.72 329.579 89.2765 333.354 98.0487Z" fill="#16D194"/>
<path d="M331.356 92.0525C332.244 93.9402 332.799 95.6058 333.132 96.8273L333.577 96.6052C333.465 92.3857 332.577 84.6128 328.024 77.3952C321.362 66.8464 313.256 53.5215 313.256 53.5215C313.256 53.5215 309.814 69.5114 320.918 79.0608C326.581 83.9466 329.579 88.3882 331.356 92.0525Z" fill="black"/>
<path d="M320.918 71.6211C326.803 80.1712 332.244 90.2759 333.022 95.3838C333.133 94.9396 333.244 94.4955 333.355 93.9403C332.911 89.4986 331.689 83.2804 327.914 77.2842C321.251 66.7354 313.146 53.4105 313.146 53.4105C313.146 53.4105 313.368 60.5171 320.918 71.6211Z" fill="#16D194"/>
<path d="M335.354 95.2727C333.8 96.3831 332.467 97.0493 331.468 97.4935L331.801 97.8266C335.465 97.0493 342.017 95.1616 347.68 90.1648C355.897 82.8362 366.223 73.8419 366.223 73.8419C366.223 73.8419 351.788 73.1756 345.126 84.2797C341.683 89.8317 338.241 93.2739 335.354 95.2727Z" fill="black"/>
<path d="M351.565 83.1692C345.014 89.4985 337.019 95.8278 332.688 97.2714C333.133 97.2714 333.577 97.3824 333.91 97.3824C337.685 96.383 342.904 94.3843 347.568 90.2758C355.785 82.9471 366.112 73.9529 366.112 73.9529C366.112 73.9529 360.004 74.9522 351.565 83.1692Z" fill="#16D194"/>
<path d="M334.022 98.937C334.244 101.269 334.466 102.934 334.577 104.045H335.021C335.243 100.047 335.576 93.2739 335.465 88.6102C335.243 81.8368 337.353 79.0608 338.685 67.7347C340.018 56.4085 336.909 40.1967 336.909 40.1967C336.909 40.1967 329.025 54.5209 331.468 70.6217C333.911 86.8336 332.911 88.6103 334.022 98.937Z" fill="black"/>
<path d="M334.576 104.045L335.132 102.49C335.354 98.4928 335.576 92.7187 335.465 88.6102C335.243 81.8368 337.353 79.0608 338.685 67.7347C340.017 56.4085 336.908 40.1967 336.908 40.1967C336.908 40.1967 333.688 62.6268 334.354 72.8425C334.91 82.503 334.576 101.269 334.576 104.045Z" fill="#16D194"/>
<path d="M351.011 52.5221C350.678 55.0761 343.238 70.2886 338.574 80.3933C335.021 88.2771 335.909 95.7168 336.576 98.6039H337.464C336.798 95.1616 336.576 95.7168 337.353 90.2759C338.13 84.2797 346.458 80.0602 351.566 68.512C356.674 56.9638 351.455 49.9682 351.011 52.5221Z" fill="black"/>
<path d="M351.344 51.967C351.455 55.6313 351.455 68.1789 344.903 74.9523C337.242 82.8362 335.021 91.3863 337.464 98.6039H337.575C336.909 95.1617 336.686 95.7169 337.464 90.2759C338.241 84.2797 346.569 80.0602 351.677 68.512C356.119 58.1852 352.454 51.5228 351.344 51.967Z" fill="#16D194"/>
<path d="M320.363 97.4935L323.028 113.039C323.25 114.483 324.583 115.593 326.026 115.593H341.239C342.682 115.593 344.015 114.483 344.237 113.039L346.902 97.4935C347.124 96.05 346.014 94.8286 344.681 94.8286H322.806C321.252 94.8286 320.141 96.161 320.363 97.4935Z" fill="#B3D9FF"/>
<path opacity="0.56" d="M346.791 96.7162C346.791 96.6051 346.68 96.383 346.68 96.272C346.68 96.1609 346.569 96.0499 346.458 95.9389C346.458 95.9389 346.458 95.9389 346.458 95.8278C346.347 95.7168 346.347 95.6057 346.236 95.4947L346.125 95.3837C346.014 95.2726 346.014 95.2726 345.903 95.1616C345.792 95.1616 345.792 95.0505 345.68 95.0505C345.569 95.0505 345.569 94.9395 345.458 94.9395C345.347 94.9395 345.236 94.8285 345.236 94.8285C345.125 94.8285 345.125 94.8285 345.014 94.7174C344.903 94.7174 344.681 94.6064 344.57 94.6064H337.686H322.695C321.363 94.6064 320.363 95.7168 320.363 96.9382H339.906C339.906 97.0493 339.906 97.1603 339.906 97.2714L337.241 112.817C337.019 114.261 335.687 115.371 334.243 115.371H341.128C342.571 115.371 343.904 114.261 344.126 112.817L346.791 97.2714C346.902 97.2714 346.902 96.9382 346.791 96.7162Z" fill="black"/>
<path d="M302.375 91.6083V301.141H139.368V81.5036C139.368 87.0556 143.921 91.6083 149.473 91.6083H302.375Z" fill="white"/>
<path d="M284.276 71.1768V89.9426H149.473C144.81 89.9426 141.034 86.1673 141.034 81.5036V79.6159C141.034 74.9522 144.81 71.1768 149.473 71.1768H284.276Z" fill="#7CE8C4"/>
<path d="M151.583 77.3951H291.271V75.7295H151.583C149.14 75.7295 147.252 77.7282 147.252 80.0601V81.0594C147.252 83.5023 149.251 85.39 151.583 85.39H298.933V83.6134H151.583C150.139 83.6134 148.918 82.3919 148.918 80.9484V79.949C148.918 78.5055 150.028 77.3951 151.583 77.3951Z" fill="white"/>
<path d="M149.473 71.1768H284.276V69.5112H149.473C143.921 69.5112 139.368 74.0639 139.368 79.6159V81.5036C139.368 87.0556 143.921 91.6083 149.473 91.6083H302.486V89.9426H149.473C144.809 89.9426 141.034 86.1673 141.034 81.5036V79.6159C141.034 74.9522 144.809 71.1768 149.473 71.1768Z" fill="white"/>
<path d="M298.933 85.39V89.9427H149.473C148.695 89.9427 147.918 89.8316 147.252 89.6096V81.0594C147.252 83.5023 149.251 85.39 151.583 85.39H298.933Z" fill="black"/>
<path d="M217.32 162.008H197.222V164.007H217.32V162.008Z" fill="#FFA800"/>
<path d="M217.32 167.227H197.222V169.226H217.32V167.227Z" fill="#FFA800"/>
<path d="M217.32 172.557H197.222V174.555H217.32V172.557Z" fill="#FFA800"/>
<path d="M217.32 177.887H197.222V179.885H217.32V177.887Z" fill="#FFA800"/>
<path d="M217.32 183.106H197.222V185.104H217.32V183.106Z" fill="#FFA800"/>
<path d="M217.32 188.435H197.222V190.434H217.32V188.435Z" fill="#FFA800"/>
<path d="M217.319 193.765H159.578V195.764H217.319V193.765Z" fill="#FFA800"/>
<path d="M217.319 198.984H159.578V200.983H217.319V198.984Z" fill="#FFA800"/>
<path d="M217.319 204.314H159.578V206.313H217.319V204.314Z" fill="#FFA800"/>
<path d="M217.319 209.533H159.578V211.532H217.319V209.533Z" fill="#FFA800"/>
<path d="M217.319 214.863H159.578V216.862H217.319V214.863Z" fill="#FFA800"/>
<path d="M283.831 258.058H255.737V259.945H283.831V258.058Z" fill="#FFA800"/>
<path d="M283.831 263.166H255.737V265.053H283.831V263.166Z" fill="#FFA800"/>
<path d="M283.831 268.273H255.737V270.161H283.831V268.273Z" fill="#FFA800"/>
<path d="M283.831 273.381H255.737V275.269H283.831V273.381Z" fill="#FFA800"/>
<path d="M283.831 278.489H255.737V280.377H283.831V278.489Z" fill="#FFA800"/>
<path d="M283.831 283.486H255.737V285.485H283.831V283.486Z" fill="#FFA800"/>
<path d="M283.831 288.816H255.737V290.815H283.831V288.816Z" fill="#FFA800"/>
<path d="M250.075 258.058H220.205V259.945H250.075V258.058Z" fill="#FFA800"/>
<path d="M250.075 263.166H220.205V265.053H250.075V263.166Z" fill="#FFA800"/>
<path d="M250.075 268.273H220.205V270.161H250.075V268.273Z" fill="#FFA800"/>
<path d="M250.075 273.381H220.205V275.269H250.075V273.381Z" fill="#FFA800"/>
<path d="M250.075 278.489H220.205V280.377H250.075V278.489Z" fill="#FFA800"/>
<path d="M250.075 283.486H220.205V285.485H250.075V283.486Z" fill="#FFA800"/>
<path d="M250.075 288.816H220.205V290.815H250.075V288.816Z" fill="#FFA800"/>
<path d="M283.721 193.765H255.405V195.764H283.721V193.765Z" fill="#FFA800"/>
<path d="M283.833 161.675H225.647V190.212H283.833V161.675Z" fill="#B3D9FF"/>
<path d="M283.832 222.414H159.578V250.951H283.832V222.414Z" fill="#FFA800"/>
<path d="M283.721 198.984H255.405V200.983H283.721V198.984Z" fill="#FFA800"/>
<path d="M250.299 193.654H226.092V216.751H250.299V193.654Z" fill="#B3D9FF"/>
<path d="M283.721 204.314H255.405V206.313H283.721V204.314Z" fill="#FFA800"/>
<path d="M283.721 209.533H255.405V211.532H283.721V209.533Z" fill="#FFA800"/>
<path d="M283.721 214.863H255.405V216.862H283.721V214.863Z" fill="#FFA800"/>
<path d="M193.556 162.008H159.578V190.212H193.556V162.008Z" fill="#FFA800"/>
<path d="M159.578 256.836L212.989 257.28V290.926L159.578 290.482V256.836Z" fill="#B3D9FF"/>
<path d="M283.832 103.045H159.578V151.348H283.832V103.045Z" fill="#FFBD0A"/>
<path d="M178.12 145.463H174.789V112.484H179.453L187.115 136.358V112.484H190.335V145.463H186.559L178.12 118.813V145.463Z" fill="white"/>
<path d="M210.655 127.141V130.472H202.549V142.243H212.432V145.574H198.885V112.484H212.432V115.815H202.549V127.03H210.655V127.141Z" fill="white"/>
<path d="M229.31 145.463H224.313L219.761 112.484H223.314L227.2 140.577L230.865 112.484H234.529L238.193 140.577L241.969 112.373H245.189L240.747 145.352H235.862L232.752 122.922L229.31 145.463Z" fill="white"/>
<path d="M267.063 120.368V121.256H263.621V120.146C263.621 117.148 262.511 115.482 259.846 115.482C257.181 115.482 256.07 117.259 256.07 120.146C256.07 127.585 267.174 128.252 267.174 137.579C267.174 142.576 264.731 145.796 259.735 145.796C254.738 145.796 252.295 142.576 252.295 137.579V135.691H255.737V137.801C255.737 140.799 256.959 142.465 259.624 142.465C262.289 142.465 263.51 140.688 263.51 137.801C263.51 130.472 252.517 129.695 252.517 120.479C252.517 115.371 254.849 112.262 259.846 112.262C264.731 112.151 267.063 115.371 267.063 120.368Z" fill="white"/>
<path d="M291.271 77.3951V83.5023L266.509 83.6134H151.582C150.138 83.6134 148.917 82.3919 148.917 80.9484V79.949C148.917 78.5055 150.138 77.2841 151.582 77.2841H291.271V77.3951Z" fill="#3C3C3C"/>
<path d="M406.086 238.404H324.472V292.147C324.472 304.14 334.243 313.911 346.236 313.911H384.211C396.204 313.911 405.975 304.14 405.975 292.147V238.404H406.086Z" fill="#D4ECFF"/>
<path d="M329.358 292.147V238.404H324.361V292.147C324.361 304.14 334.133 313.911 346.125 313.911H351.122C339.13 313.911 329.358 304.14 329.358 292.147Z" fill="white"/>
<path d="M382.103 238.404V292.147C382.103 304.14 372.331 313.911 360.339 313.911H384.213C396.205 313.911 405.976 304.14 405.976 292.147V238.404H382.103Z" fill="#B3D9FF"/>
<path d="M405.975 238.293C405.975 234.628 387.654 231.741 365.223 231.741C342.682 231.741 324.472 234.739 324.472 238.293C324.472 241.846 342.793 244.844 365.223 244.844C387.765 244.955 405.975 241.957 405.975 238.293Z" fill="#B3D9FF"/>
<path d="M365.225 243.401C340.352 243.401 327.582 240.18 326.027 238.404C327.582 236.627 340.352 233.296 365.225 233.296C390.098 233.296 402.867 236.516 404.422 238.404C402.867 240.18 389.987 243.401 365.225 243.401Z" fill="#202020"/>
<path d="M359.339 234.961C374.662 234.961 387.432 237.96 390.874 241.957C399.091 240.847 403.644 239.403 404.532 238.404C402.978 236.627 390.208 233.296 365.335 233.296C340.462 233.296 327.692 236.516 326.138 238.404C326.582 238.959 327.914 239.514 330.246 240.18C335.243 237.071 346.458 234.961 359.339 234.961Z" fill="black"/>
<path d="M397.426 254.505C397.426 256.17 398.759 257.725 400.647 258.058C404.2 258.724 407.198 260.39 409.53 262.722C412.639 265.942 414.305 270.383 414.305 275.38C414.305 280.377 412.528 284.819 409.419 287.928C407.087 290.26 404.089 291.925 400.536 292.591C398.648 292.925 397.315 294.479 397.315 296.145C397.315 298.477 399.758 300.253 402.423 299.809C415.082 297.477 422.3 287.484 422.411 275.491C422.522 263.499 415.304 253.394 402.645 250.951C399.98 250.396 397.426 252.173 397.426 254.505Z" fill="#D4ECFF"/>
<path d="M397.647 296.7C397.647 294.923 398.98 293.48 400.867 293.036C404.421 292.369 407.419 290.704 409.751 288.261C412.86 285.041 414.525 280.488 414.636 275.38C414.636 270.272 412.971 265.72 409.862 262.499C407.53 260.057 404.532 258.391 400.978 257.725C399.091 257.281 397.758 255.837 397.758 254.06C397.758 253.283 398.091 252.617 398.425 252.062C397.758 252.728 397.314 253.616 397.314 254.505C397.314 256.17 398.647 257.725 400.534 258.058C404.088 258.724 407.086 260.39 409.418 262.721C412.527 265.942 414.192 270.383 414.192 275.38C414.192 280.377 412.416 284.819 409.307 287.928C406.975 290.26 403.977 291.925 400.423 292.591C398.536 292.924 397.203 294.479 397.203 296.145C397.203 297.033 397.536 297.81 398.091 298.477C397.869 297.921 397.647 297.366 397.647 296.7Z" fill="white"/>
<path d="M402.533 250.951C400.867 250.618 399.313 251.173 398.313 252.173C398.98 251.951 399.757 251.951 400.534 252.062C413.193 254.394 420.299 264.054 420.299 275.491C420.188 287.039 412.971 296.589 400.312 298.81C399.646 298.921 398.98 298.921 398.424 298.81C399.424 299.587 400.756 300.031 402.2 299.809C414.858 297.477 422.076 287.484 422.187 275.491C422.409 263.388 415.192 253.394 402.533 250.951Z" fill="#B3D9FF"/>
</svg>
