<svg width="34" height="49" viewBox="0 0 34 49" fill="none" xmlns="http://www.w3.org/2000/svg">
<path d="M33.1671 35.4875V6.00557C33.1671 2.7298 30.4373 0 27.1616 0H6.00557C2.7298 0 0 2.7298 0 6.00557V35.4875H33.1671ZM16.5153 3.68524C17.4708 3.68524 18.2897 4.50418 18.2897 5.45961C18.2897 6.41504 17.4708 7.23398 16.5153 7.23398C15.5599 7.23398 14.7409 6.41504 14.7409 5.45961C14.7409 4.50418 15.5599 3.68524 16.5153 3.68524Z" fill="#FFC209"/>
<path d="M0 39.1726V42.9943C0 46.2701 2.7298 48.9999 6.00557 48.9999H27.1616C30.4373 48.9999 33.1671 46.2701 33.1671 42.9943V39.1726H0ZM16.5153 45.4512C15.5599 45.4512 14.7409 44.6322 14.7409 43.6768C14.7409 42.7214 15.5599 41.9024 16.5153 41.9024C17.4708 41.9024 18.2897 42.7214 18.2897 43.6768C18.2897 44.7687 17.4708 45.4512 16.5153 45.4512Z" fill="#FFC209"/>
</svg>
