<svg width="497" height="382" viewBox="0 0 497 382" fill="none" xmlns="http://www.w3.org/2000/svg">
<path d="M399.785 192.023H398.492C397.384 192.023 396.646 191.098 396.646 190.172V188.877C396.646 187.766 397.569 187.026 398.492 187.026H399.785C400.893 187.026 401.632 187.951 401.632 188.877V190.172C401.816 191.098 400.893 192.023 399.785 192.023ZM408.834 197.206V195.91C408.834 194.799 407.911 194.059 406.987 194.059H405.695C404.586 194.059 403.848 194.985 403.848 195.91V197.206C403.848 198.316 404.771 199.056 405.695 199.056H406.987C408.095 199.056 408.834 198.316 408.834 197.206ZM405.695 192.023H406.987C408.095 192.023 408.834 191.098 408.834 190.172V188.877C408.834 187.766 407.911 187.026 406.987 187.026H405.695C404.586 187.026 403.848 187.951 403.848 188.877V190.172C403.663 191.098 404.586 192.023 405.695 192.023ZM398.492 199.056H399.785C400.893 199.056 401.632 198.131 401.632 197.206V195.91C401.632 194.799 400.708 194.059 399.785 194.059H398.492C397.384 194.059 396.646 194.985 396.646 195.91V197.206C396.646 198.316 397.384 199.056 398.492 199.056Z" fill="#8200FF"/>
<path d="M126.652 179.623H125.36C124.252 179.623 123.513 178.697 123.513 177.772V176.476C123.513 175.366 124.436 174.625 125.36 174.625H126.652C127.76 174.625 128.499 175.551 128.499 176.476V177.772C128.499 178.882 127.576 179.623 126.652 179.623ZM135.701 184.99V183.509C135.701 182.399 134.778 181.658 133.855 181.658H132.562C131.454 181.658 130.715 182.584 130.715 183.509V184.805C130.715 185.915 131.639 186.656 132.562 186.656H133.855C134.778 186.841 135.701 185.915 135.701 184.99ZM132.377 179.623H133.67C134.778 179.623 135.517 178.697 135.517 177.772V176.476C135.517 175.366 134.593 174.625 133.67 174.625H132.377C131.269 174.625 130.531 175.551 130.531 176.476V177.772C130.531 178.882 131.454 179.623 132.377 179.623ZM125.36 186.841H126.652C127.76 186.841 128.499 185.915 128.499 184.99V183.509C128.499 182.399 127.576 181.658 126.652 181.658H125.36C124.252 181.658 123.513 182.584 123.513 183.509V184.805C123.328 185.915 124.252 186.841 125.36 186.841Z" fill="#8200FF"/>
<path d="M207.909 326.765H206.432C205.139 326.765 204.031 325.655 204.031 324.359V322.878C204.031 321.583 205.139 320.472 206.432 320.472H207.909C209.202 320.472 210.31 321.583 210.31 322.878V324.359C210.495 325.655 209.387 326.765 207.909 326.765ZM206.432 320.842C205.324 320.842 204.585 321.768 204.585 322.693V324.174C204.585 325.284 205.508 326.025 206.432 326.025H207.909C209.017 326.025 209.756 325.099 209.756 324.174V322.693C209.756 321.583 208.833 320.842 207.909 320.842H206.432ZM199.599 326.765H198.121C196.829 326.765 195.721 325.655 195.721 324.359V322.878C195.721 321.583 196.829 320.472 198.121 320.472H199.599C200.892 320.472 202 321.583 202 322.878V324.359C202.184 325.655 201.076 326.765 199.599 326.765ZM198.121 320.842C197.013 320.842 196.275 321.768 196.275 322.693V324.174C196.275 325.284 197.198 326.025 198.121 326.025H199.599C200.707 326.025 201.446 325.099 201.446 324.174V322.693C201.446 321.583 200.522 320.842 199.599 320.842H198.121ZM207.909 318.436H206.432C205.139 318.436 204.031 317.326 204.031 316.03V314.549C204.031 313.254 205.139 312.143 206.432 312.143H207.909C209.202 312.143 210.31 313.254 210.31 314.549V316.03C210.495 317.326 209.387 318.436 207.909 318.436ZM206.432 312.513C205.324 312.513 204.585 313.439 204.585 314.364V315.845C204.585 316.956 205.508 317.696 206.432 317.696H207.909C209.017 317.696 209.756 316.77 209.756 315.845V314.364C209.756 313.254 208.833 312.513 207.909 312.513H206.432ZM199.599 318.436H198.121C196.829 318.436 195.721 317.326 195.721 316.03V314.549C195.721 313.254 196.829 312.143 198.121 312.143H199.599C200.892 312.143 202 313.254 202 314.549V316.03C202.184 317.326 201.076 318.436 199.599 318.436ZM198.121 312.513C197.013 312.513 196.275 313.439 196.275 314.364V315.845C196.275 316.956 197.198 317.696 198.121 317.696H199.599C200.707 317.696 201.446 316.77 201.446 315.845V314.364C201.446 313.254 200.522 312.513 199.599 312.513H198.121Z" fill="black"/>
<path d="M331.271 86.3397H330.348C329.424 86.3397 328.87 85.5993 328.87 84.859V83.9336C328.87 83.0082 329.609 82.4529 330.348 82.4529H331.271C332.194 82.4529 332.748 83.1932 332.748 83.9336V84.859C332.748 85.7844 332.01 86.3397 331.271 86.3397ZM330.348 82.638C329.609 82.638 329.055 83.1932 329.055 83.9336V84.859C329.055 85.5993 329.609 86.1546 330.348 86.1546H331.271C332.01 86.1546 332.564 85.5993 332.564 84.859V83.9336C332.564 83.1932 332.01 82.638 331.271 82.638H330.348ZM326.1 86.3397H324.992C324.069 86.3397 323.515 85.5993 323.515 84.859V83.9336C323.515 83.0082 324.253 82.4529 324.992 82.4529H325.915C326.839 82.4529 327.393 83.1932 327.393 83.9336V84.859C327.577 85.7844 326.839 86.3397 326.1 86.3397ZM324.992 82.638C324.253 82.638 323.699 83.1932 323.699 83.9336V84.859C323.699 85.5993 324.253 86.1546 324.992 86.1546H325.915C326.654 86.1546 327.208 85.5993 327.208 84.859V83.9336C327.208 83.1932 326.654 82.638 325.915 82.638H324.992ZM331.271 81.1573H330.348C329.424 81.1573 328.87 80.417 328.87 79.6766V78.7512C328.87 77.8258 329.609 77.2705 330.348 77.2705H331.271C332.194 77.2705 332.748 78.0109 332.748 78.7512V79.6766C332.748 80.602 332.01 81.1573 331.271 81.1573ZM330.348 77.4556C329.609 77.4556 329.055 78.0109 329.055 78.7512V79.6766C329.055 80.417 329.609 80.9722 330.348 80.9722H331.271C332.01 80.9722 332.564 80.417 332.564 79.6766V78.7512C332.564 78.0109 332.01 77.4556 331.271 77.4556H330.348ZM326.1 81.1573H324.992C324.069 81.1573 323.515 80.417 323.515 79.6766V78.7512C323.515 77.8258 324.253 77.2705 324.992 77.2705H325.915C326.839 77.2705 327.393 78.0109 327.393 78.7512V79.6766C327.577 80.602 326.839 81.1573 326.1 81.1573ZM324.992 77.4556C324.253 77.4556 323.699 78.0109 323.699 78.7512V79.6766C323.699 80.417 324.253 80.9722 324.992 80.9722H325.915C326.654 80.9722 327.208 80.417 327.208 79.6766V78.7512C327.208 78.0109 326.654 77.4556 325.915 77.4556H324.992Z" fill="black"/>
<path d="M350.293 229.04H346.6C343.645 229.04 341.244 226.634 341.244 223.673V219.971C341.244 217.01 343.645 214.604 346.6 214.604H350.293C353.248 214.604 355.649 217.01 355.649 219.971V223.673C355.833 226.634 353.433 229.04 350.293 229.04Z" fill="black"/>
<path d="M177.807 316.4H176.145C174.852 316.4 173.744 315.29 173.744 313.994V312.328C173.744 311.033 174.852 309.922 176.145 309.922H177.807C179.1 309.922 180.023 311.033 180.023 312.328V313.994C180.208 315.29 179.1 316.4 177.807 316.4Z" fill="black"/>
<path d="M391.291 253.657H387.597C384.088 253.657 381.318 250.88 381.318 247.364V243.662C381.318 240.145 384.088 237.369 387.597 237.369H391.291C394.8 237.369 397.57 240.145 397.57 243.662V247.364C397.57 250.695 394.8 253.657 391.291 253.657ZM387.413 239.035C385.012 239.035 382.98 241.071 382.98 243.477V247.179C382.98 249.585 385.012 251.621 387.413 251.621H391.106C393.507 251.621 395.538 249.585 395.538 247.179V243.477C395.538 241.071 393.507 239.035 391.106 239.035H387.413Z" fill="black"/>
<path d="M108.554 247.734H107.077C105.784 247.734 104.676 246.623 104.676 245.328V243.847C104.676 242.551 105.784 241.441 107.077 241.441H108.554C109.847 241.441 110.955 242.551 110.955 243.847V245.328C110.955 246.623 109.847 247.734 108.554 247.734ZM107.077 242.181C106.153 242.181 105.414 242.922 105.414 243.847V245.328C105.414 246.253 106.153 246.993 107.077 246.993H108.554C109.477 246.993 110.216 246.253 110.216 245.328V243.847C110.216 242.922 109.477 242.181 108.554 242.181H107.077Z" fill="black"/>
<path d="M129.423 256.063V261.615C129.423 262.17 129.977 262.726 130.531 262.726H139.765C140.319 262.726 140.873 262.17 140.873 261.615V256.063C140.873 255.507 140.319 254.952 139.765 254.952H130.531C129.792 254.952 129.423 255.507 129.423 256.063ZM135.332 258.654L135.517 260.32H134.594L134.778 258.654C134.594 258.469 134.409 258.284 134.409 257.913C134.409 257.543 134.778 257.173 135.148 257.173C135.702 257.173 136.071 257.543 136.071 257.913C135.702 258.284 135.517 258.654 135.332 258.654Z" fill="black"/>
<path d="M134.963 246.993C132.563 246.993 130.716 248.844 130.716 251.25V253.471H132.193V251.25C132.193 249.77 133.486 248.474 134.963 248.474C136.441 248.474 137.733 249.77 137.733 251.25V255.137H139.211V251.25C139.211 248.844 137.364 246.993 134.963 246.993Z" fill="black"/>
<path d="M295.445 275.311L293.783 274.941C293.598 274.571 293.413 274.016 293.229 273.646L294.152 272.35C294.152 272.165 294.152 272.165 294.152 271.98L292.859 270.684C292.675 270.499 292.675 270.499 292.49 270.684L291.197 271.61C290.828 271.425 290.459 271.24 289.904 271.054L289.535 269.389C289.535 269.204 289.35 269.204 289.166 269.204H287.319C287.134 269.204 287.134 269.389 286.95 269.389L286.58 271.054C286.211 271.24 285.657 271.425 285.288 271.61L283.995 270.684C283.81 270.684 283.81 270.684 283.626 270.684L282.333 271.98C282.148 272.165 282.148 272.165 282.333 272.35L283.256 273.646C283.072 274.016 282.887 274.386 282.702 274.941L281.04 275.311C280.855 275.311 280.855 275.497 280.855 275.682V277.532C280.855 277.718 281.04 277.718 281.04 277.903L282.702 278.273C282.887 278.643 283.072 279.198 283.256 279.568L282.333 280.864C282.333 281.049 282.333 281.049 282.333 281.234L283.626 282.53H283.81H283.995L285.288 281.604C285.657 281.789 286.026 281.974 286.58 282.16L286.95 283.825C286.95 284.01 287.134 284.01 287.319 284.01H289.166C289.35 284.01 289.35 283.825 289.535 283.825L289.904 282.16C290.274 281.974 290.828 281.789 291.197 281.604L292.49 282.53H292.675H292.859L294.152 281.234C294.337 281.049 294.337 281.049 294.152 280.864L293.229 279.568C293.413 279.198 293.598 278.828 293.783 278.273L295.445 277.903C295.629 277.903 295.629 277.718 295.629 277.532V275.682C295.814 275.497 295.629 275.311 295.445 275.311ZM289.904 276.422C289.904 277.162 289.35 277.903 288.427 277.903C287.688 277.903 286.95 277.347 286.95 276.422C286.95 275.682 287.504 274.941 288.427 274.941C289.166 274.941 289.904 275.682 289.904 276.422Z" fill="black"/>
<path d="M348.077 274.386L346.969 274.201C346.969 273.831 346.784 273.646 346.599 273.276L347.154 272.35V272.165L346.23 271.24H346.045L345.122 271.795C344.937 271.61 344.568 271.425 344.199 271.425L344.014 270.314C344.014 270.129 343.829 270.129 343.829 270.129H342.537C342.352 270.129 342.352 270.129 342.352 270.314L342.167 271.425C341.798 271.425 341.613 271.61 341.244 271.795L340.321 271.24H340.136L339.213 272.165V272.35L339.767 273.276C339.582 273.461 339.397 273.831 339.397 274.201L338.289 274.386C338.104 274.386 338.104 274.571 338.104 274.571V275.867C338.104 276.052 338.104 276.052 338.289 276.052L339.397 276.237C339.397 276.607 339.582 276.792 339.767 277.162L339.213 278.088V278.273L340.136 279.198H340.321C340.321 279.198 340.321 279.198 340.505 279.198L341.429 278.643C341.798 278.828 341.983 279.013 342.352 279.013L342.537 280.124C342.537 280.309 342.721 280.309 342.721 280.309H344.014C344.199 280.309 344.199 280.309 344.199 280.124L344.383 279.013C344.753 279.013 344.937 278.828 345.307 278.643L346.23 279.198C346.23 279.198 346.23 279.198 346.415 279.198H346.599L347.523 278.273V278.088L346.969 277.162C347.153 276.977 347.154 276.607 347.338 276.237L348.446 276.052C348.631 276.052 348.631 275.867 348.631 275.867V274.571C348.262 274.386 348.262 274.386 348.077 274.386ZM344.014 275.126C344.014 275.682 343.46 276.237 342.906 276.237C342.352 276.237 341.798 275.682 341.798 275.126C341.798 274.571 342.352 274.016 342.906 274.016C343.46 274.201 344.014 274.571 344.014 275.126Z" fill="black"/>
<path d="M297.845 264.947C297.845 264.762 297.845 264.577 297.845 264.391C297.845 264.206 297.845 264.021 297.845 263.836L298.584 263.281C298.769 263.096 298.769 262.911 298.584 262.726L298.03 261.8C297.845 261.615 297.661 261.615 297.476 261.615L296.552 261.985C296.183 261.8 295.998 261.615 295.629 261.43L295.444 260.505C295.444 260.32 295.26 260.135 295.075 260.135H294.152C293.967 260.135 293.782 260.32 293.782 260.505L293.598 261.43C293.228 261.615 292.859 261.8 292.674 261.985L291.751 261.615C291.566 261.615 291.382 261.615 291.197 261.8L290.643 262.726C290.458 262.911 290.643 263.096 290.828 263.281L291.566 263.836C291.566 264.021 291.566 264.206 291.566 264.391C291.566 264.577 291.566 264.762 291.566 264.947L290.828 265.502C290.643 265.687 290.643 265.872 290.643 266.057L291.197 266.983C291.197 267.168 291.382 267.168 291.566 267.168H291.751L292.674 266.798C293.044 266.983 293.228 267.168 293.598 267.353L293.782 268.278C293.782 268.463 293.967 268.648 294.152 268.648H295.075C295.26 268.648 295.444 268.463 295.444 268.278L295.629 267.353C295.998 267.168 296.368 266.983 296.552 266.798L297.476 267.168C297.476 267.168 297.476 267.168 297.661 267.168C297.845 267.168 298.03 267.168 298.03 266.983L298.584 266.057C298.769 265.872 298.584 265.687 298.584 265.502L297.845 264.947ZM294.706 265.872C293.967 265.872 293.228 265.132 293.228 264.391C293.228 263.651 293.967 262.911 294.706 262.911C295.444 262.911 296.183 263.651 296.183 264.391C296.183 265.317 295.444 265.872 294.706 265.872Z" fill="black"/>
<path d="M92.8573 181.844C92.8573 181.474 92.8573 181.288 92.8573 180.918C92.8573 180.548 92.8573 180.363 92.8573 179.993L93.9654 179.067C94.1501 178.882 94.3347 178.512 94.1501 178.142L93.4114 176.661C93.2267 176.291 92.8573 176.291 92.488 176.291L91.0106 176.661C90.6413 176.291 90.0872 175.921 89.5332 175.736L89.1639 174.255C89.1639 173.885 88.7945 173.7 88.4252 173.7H86.7631C86.3937 173.7 86.0244 173.885 86.0244 174.255L85.6551 175.736C85.101 175.921 84.547 176.291 84.1777 176.661L82.7003 176.291C82.3309 176.106 81.9616 176.291 81.7769 176.661L81.2229 178.142C81.0382 178.512 81.0382 178.882 81.4075 179.067L82.5156 179.993C82.5156 180.363 82.5156 180.548 82.5156 180.918C82.5156 181.288 82.5156 181.474 82.5156 181.844L81.4075 182.769C81.2229 182.954 81.0382 183.324 81.2229 183.695L81.9616 185.175C82.1462 185.36 82.3309 185.545 82.5156 185.545H82.7003L84.1777 185.175C84.547 185.545 85.101 185.916 85.6551 186.101L86.0244 187.581C86.0244 187.952 86.3937 188.137 86.7631 188.137H88.4252C88.7945 188.137 89.1639 187.952 89.1639 187.581L89.5332 186.101C90.0872 185.916 90.6413 185.545 91.0106 185.175L92.488 185.545H92.6727C92.8573 185.545 93.2267 185.36 93.2267 185.175L93.9654 183.695C94.1501 183.324 94.1501 182.954 93.7807 182.769L92.8573 181.844ZM87.6865 183.139C86.3937 183.139 85.2857 182.029 85.2857 180.733C85.2857 179.438 86.3937 178.327 87.6865 178.327C88.9792 178.327 90.0872 179.438 90.0872 180.733C89.9026 182.214 88.9792 183.139 87.6865 183.139Z" fill="#8200FF"/>
<path d="M430.995 153.526L430.257 153.341C430.257 152.97 430.072 152.785 429.887 152.6L430.257 152.045C430.257 151.86 430.257 151.675 430.257 151.675L429.518 150.934C429.333 150.749 429.148 150.749 429.148 150.934L428.594 151.305C428.41 151.12 428.04 151.12 427.856 150.934L427.671 150.194C427.671 150.009 427.486 149.824 427.302 149.824H426.194C426.009 149.824 425.824 150.009 425.824 150.194L425.64 150.934C425.27 150.934 425.086 151.12 424.901 151.305L424.347 150.934C424.162 150.749 423.978 150.934 423.978 150.934L423.239 151.675C423.054 151.86 423.054 152.045 423.239 152.045L423.608 152.6C423.424 152.785 423.424 153.155 423.239 153.341L422.5 153.526C422.316 153.526 422.131 153.711 422.131 153.896V155.006C422.131 155.191 422.316 155.377 422.5 155.377L423.239 155.562C423.239 155.932 423.424 156.117 423.608 156.302L423.239 156.857C423.239 157.042 423.239 157.227 423.239 157.227L423.978 157.968L424.162 158.153H424.347L424.901 157.783C425.086 157.968 425.455 157.968 425.64 158.153L425.824 158.893C425.824 159.078 426.009 159.263 426.194 159.263H427.302C427.486 159.263 427.671 159.078 427.671 158.893L427.856 158.153C428.225 158.153 428.41 157.968 428.594 157.783L429.148 158.153H429.333C429.518 158.153 429.518 158.153 429.518 157.968L430.257 157.227C430.441 157.042 430.441 156.857 430.257 156.857L429.887 156.302C430.072 156.117 430.072 155.747 430.257 155.562L430.995 155.377C431.18 155.377 431.365 155.191 431.365 155.006V153.896C431.365 153.711 431.18 153.711 430.995 153.526ZM429.148 154.451C429.148 155.747 428.04 156.857 426.748 156.857C425.455 156.857 424.347 155.747 424.347 154.451C424.347 153.156 425.455 152.045 426.748 152.045C428.04 152.045 429.148 153.156 429.148 154.451Z" fill="#8200FF"/>
<path d="M101.167 172.96L100.613 172.775C100.613 172.589 100.428 172.404 100.428 172.219L100.797 171.849C100.797 171.664 100.797 171.664 100.797 171.479L100.243 170.924C100.243 170.924 100.059 170.739 99.8741 170.924L99.5048 171.294C99.3201 171.109 99.1354 171.109 98.9507 171.109L98.7661 170.553C98.7661 170.368 98.5814 170.368 98.5814 170.368H97.658C97.4733 170.368 97.4733 170.368 97.4733 170.553L97.2887 171.109C97.104 171.109 96.9193 171.294 96.7346 171.294L95.9959 170.739C95.8113 170.739 95.8113 170.739 95.6266 170.739L95.0726 171.294C95.0726 171.294 94.8879 171.479 95.0726 171.664L95.4419 172.034C95.2573 172.219 95.2572 172.404 95.2572 172.589L94.7032 172.775C94.5186 172.775 94.5186 172.96 94.5186 172.96V173.885C94.5186 174.07 94.5186 174.07 94.7032 174.07L95.2572 174.255C95.2572 174.44 95.4419 174.625 95.4419 174.81L95.0726 175.181C95.0726 175.366 95.0726 175.366 95.0726 175.551L95.6266 176.106H95.8113H95.9959L96.3653 175.736C96.55 175.921 96.7346 175.921 96.9193 175.921L97.104 176.476C97.104 176.661 97.2887 176.661 97.2887 176.661H98.212C98.3967 176.661 98.3967 176.661 98.3967 176.476L98.5814 175.921C98.7661 175.921 98.9507 175.736 99.1354 175.736L99.5048 176.106H99.6894H99.8741L100.428 175.551C100.428 175.551 100.613 175.366 100.428 175.181L100.059 174.81C100.243 174.625 100.243 174.44 100.243 174.255L100.797 174.07C100.982 174.07 100.982 173.885 100.982 173.885V172.96C101.536 173.145 101.351 172.96 101.167 172.96ZM99.6894 173.7C99.6894 174.625 98.9507 175.551 97.8427 175.551C96.9193 175.551 95.9959 174.81 95.9959 173.7C95.9959 172.775 96.7346 171.849 97.8427 171.849C98.9507 171.849 99.6894 172.589 99.6894 173.7Z" fill="#8200FF"/>
<path d="M151.029 159.263C149.182 156.487 145.489 155.746 142.719 157.412C139.949 159.263 139.21 162.965 140.872 165.741C142.719 168.517 146.412 169.258 149.182 167.592C152.137 165.741 152.876 162.039 151.029 159.263Z" fill="#8200FF"/>
<path d="M327.209 264.392C327.024 264.392 327.024 264.206 327.024 264.206V263.466C327.024 263.281 327.209 263.281 327.209 263.281C327.394 263.281 327.394 263.466 327.394 263.466V264.206C327.578 264.206 327.394 264.392 327.209 264.392Z" fill="black"/>
<path d="M327.209 269.944C327.024 269.944 327.024 269.759 327.024 269.759V269.019C327.024 268.833 327.209 268.833 327.209 268.833C327.394 268.833 327.394 269.019 327.394 269.019V269.759C327.578 269.759 327.394 269.944 327.209 269.944Z" fill="black"/>
<path d="M326.101 264.577C326.101 264.577 325.916 264.577 325.916 264.391L325.547 263.836C325.547 263.651 325.547 263.651 325.547 263.466C325.732 263.466 325.732 263.466 325.916 263.466L326.286 264.021C326.286 264.391 326.286 264.577 326.101 264.577Z" fill="black"/>
<path d="M328.871 269.389C328.871 269.389 328.687 269.389 328.687 269.204L328.317 268.648C328.317 268.463 328.317 268.463 328.317 268.278C328.502 268.278 328.502 268.278 328.687 268.278L329.056 268.834C329.056 269.204 329.056 269.389 328.871 269.389Z" fill="black"/>
<path d="M325.178 265.502L324.439 265.132C324.255 265.132 324.255 264.947 324.439 264.762C324.439 264.577 324.624 264.577 324.809 264.762L325.363 265.132C325.547 265.132 325.547 265.317 325.363 265.502H325.178Z" fill="black"/>
<path d="M329.979 268.278L329.24 267.908C329.055 267.908 329.055 267.723 329.24 267.538C329.24 267.353 329.425 267.353 329.609 267.538L330.163 267.908C330.348 267.908 330.348 268.093 330.163 268.278C330.163 268.278 330.163 268.278 329.979 268.278Z" fill="black"/>
<path d="M324.808 266.798H324.069C323.885 266.798 323.885 266.613 323.885 266.613C323.885 266.427 324.069 266.427 324.069 266.427H324.808C324.993 266.427 324.993 266.613 324.993 266.613C325.178 266.613 324.993 266.798 324.808 266.798Z" fill="black"/>
<path d="M330.348 266.798H329.609C329.425 266.798 329.425 266.613 329.425 266.613C329.425 266.427 329.609 266.427 329.609 266.427H330.348C330.533 266.427 330.533 266.613 330.533 266.613C330.718 266.613 330.533 266.798 330.348 266.798Z" fill="black"/>
<path d="M324.623 268.278C324.623 268.278 324.438 268.278 324.438 268.093C324.438 267.908 324.438 267.908 324.438 267.723L324.993 267.353C325.177 267.353 325.177 267.353 325.362 267.353C325.362 267.538 325.362 267.538 325.362 267.723L324.623 268.278Z" fill="black"/>
<path d="M329.425 265.502C329.425 265.502 329.24 265.502 329.24 265.317C329.24 265.132 329.24 265.132 329.24 264.947L329.794 264.577C329.979 264.577 329.979 264.577 330.164 264.577C330.164 264.762 330.164 264.762 330.164 264.947L329.425 265.502Z" fill="black"/>
<path d="M325.732 269.389C325.732 269.389 325.547 269.389 325.732 269.389C325.547 269.204 325.363 269.204 325.547 269.019L325.917 268.464C325.917 268.278 326.101 268.278 326.286 268.464C326.471 268.464 326.471 268.649 326.286 268.834L325.917 269.389H325.732Z" fill="black"/>
<path d="M328.501 264.577C328.501 264.577 328.317 264.577 328.501 264.577C328.317 264.392 328.132 264.392 328.317 264.207L328.686 263.651C328.686 263.466 328.871 263.466 329.055 263.651C329.24 263.651 329.24 263.836 329.055 264.021L328.686 264.577H328.501Z" fill="black"/>
<path d="M46.3194 159.819C46.1348 159.819 46.1348 160.004 46.1348 160.004V160.744C46.1348 160.929 46.3194 160.929 46.3194 160.929C46.5041 160.929 46.5041 160.744 46.5041 160.744V160.004C46.5041 159.819 46.3194 159.819 46.3194 159.819Z" fill="black"/>
<path d="M46.3194 154.266C46.1348 154.266 46.1348 154.451 46.1348 154.451V155.191C46.1348 155.376 46.3194 155.376 46.3194 155.376C46.5041 155.376 46.5041 155.191 46.5041 155.191V154.451C46.5041 154.266 46.3194 154.266 46.3194 154.266Z" fill="black"/>
<path d="M45.0267 159.448C45.0267 159.448 44.842 159.448 44.842 159.633L44.4727 160.189C44.4727 160.374 44.4727 160.374 44.4727 160.559C44.6573 160.559 44.6573 160.559 44.842 160.559L45.2114 160.004C45.396 159.633 45.2114 159.448 45.0267 159.448C45.2114 159.448 45.0267 159.448 45.0267 159.448Z" fill="black"/>
<path d="M47.7972 154.636C47.7972 154.636 47.6125 154.636 47.6125 154.821L47.2432 155.377C47.2432 155.562 47.2432 155.562 47.2432 155.747C47.4278 155.747 47.4278 155.747 47.6125 155.747L47.9819 155.191C48.1665 154.821 48.1665 154.636 47.7972 154.636C47.9819 154.636 47.7972 154.636 47.7972 154.636Z" fill="black"/>
<path d="M44.1028 158.523L43.3641 158.893C43.1794 158.893 43.1794 159.078 43.3641 159.263C43.3641 159.448 43.5488 159.448 43.7334 159.263L44.2875 158.893C44.4721 158.893 44.4721 158.708 44.2875 158.523C44.2875 158.523 44.2875 158.523 44.1028 158.523Z" fill="black"/>
<path d="M49.0891 155.747C48.9044 155.747 48.9044 155.747 49.0891 155.747L48.3504 156.117C48.1657 156.117 48.1657 156.302 48.3504 156.487C48.3504 156.672 48.5351 156.672 48.7198 156.487L49.2738 156.117C49.4585 156.117 49.4585 155.932 49.2738 155.747C49.0891 155.747 49.0891 155.747 49.0891 155.747Z" fill="black"/>
<path d="M43.9185 157.412H43.1798C42.9951 157.412 42.9951 157.597 42.9951 157.597C42.9951 157.783 43.1798 157.783 43.1798 157.783H43.9185C44.1032 157.783 44.1032 157.597 44.1032 157.597C44.1032 157.412 43.9185 157.412 43.9185 157.412Z" fill="black"/>
<path d="M49.4585 157.412H48.7198C48.5352 157.412 48.5352 157.597 48.5352 157.597C48.5352 157.783 48.7198 157.783 48.7198 157.783H49.4585C49.6432 157.783 49.6432 157.597 49.6432 157.597C49.6432 157.412 49.6432 157.412 49.4585 157.412Z" fill="black"/>
<path d="M43.5489 155.747C43.5489 155.747 43.3643 155.747 43.3643 155.932C43.3643 156.117 43.3643 156.117 43.3643 156.302L43.9183 156.672C44.103 156.672 44.103 156.672 44.2876 156.672C44.2876 156.487 44.2876 156.487 44.2876 156.302L43.5489 155.747Z" fill="black"/>
<path d="M48.3507 158.523C48.3507 158.523 48.166 158.523 48.166 158.708C48.166 158.893 48.166 158.893 48.166 159.078L48.72 159.448C48.9047 159.448 48.9047 159.448 49.0894 159.448C49.0894 159.263 49.0894 159.263 49.0894 159.078L48.3507 158.523Z" fill="black"/>
<path d="M44.6577 154.636C44.473 154.821 44.2883 154.821 44.473 155.006L44.8423 155.562C44.8423 155.747 45.027 155.747 45.2117 155.562C45.3964 155.562 45.3964 155.377 45.2117 155.191L44.8423 154.636C44.8423 154.636 44.8423 154.636 44.6577 154.636Z" fill="black"/>
<path d="M47.4272 159.448C47.2425 159.633 47.0578 159.633 47.2425 159.818L47.6119 160.374C47.6119 160.559 47.7965 160.559 47.9812 160.374C48.1659 160.374 48.1659 160.189 47.9812 160.004L47.6119 159.448C47.6119 159.448 47.6119 159.448 47.4272 159.448Z" fill="black"/>
<path d="M128.315 128.909C127.946 128.909 127.576 128.539 127.576 128.169V127.799C127.576 127.429 127.946 127.058 128.315 127.058C128.684 127.058 129.054 127.429 129.054 127.799V128.169C129.054 128.539 128.684 128.909 128.315 128.909Z" fill="black"/>
<path d="M128.315 138.533C127.946 138.533 127.576 138.163 127.576 137.793V137.423C127.576 137.053 127.946 136.683 128.315 136.683C128.684 136.683 129.054 137.053 129.054 137.423V137.793C129.054 138.163 128.684 138.533 128.315 138.533Z" fill="black"/>
<path d="M124.99 130.205C124.806 130.205 124.621 130.205 124.436 130.02L124.067 129.835C123.698 129.465 123.698 129.094 124.067 128.724C124.436 128.354 124.99 128.354 125.175 128.724L125.36 128.909C125.729 129.279 125.729 129.835 125.36 130.02C125.36 130.205 125.175 130.205 124.99 130.205Z" fill="black"/>
<path d="M131.823 137.053C131.639 137.053 131.454 137.053 131.269 136.868L131.085 136.683C130.715 136.313 130.715 135.942 131.085 135.572C131.454 135.202 132.008 135.202 132.193 135.572L132.377 135.757C132.747 136.128 132.747 136.498 132.377 136.868C132.193 137.053 132.008 137.053 131.823 137.053Z" fill="black"/>
<path d="M123.698 133.536H123.329C122.959 133.536 122.59 133.166 122.59 132.796C122.59 132.426 122.959 132.055 123.329 132.055H123.698C124.067 132.055 124.437 132.426 124.437 132.796C124.437 133.166 124.067 133.536 123.698 133.536Z" fill="black"/>
<path d="M133.3 133.536H132.931C132.562 133.536 132.192 133.166 132.192 132.796C132.192 132.426 132.562 132.055 132.931 132.055H133.3C133.67 132.055 134.039 132.426 134.039 132.796C134.039 133.166 133.67 133.536 133.3 133.536Z" fill="black"/>
<path d="M124.621 137.053C124.436 137.053 124.252 137.053 124.067 136.868C123.698 136.498 123.698 135.942 124.067 135.757L124.252 135.572C124.621 135.202 125.175 135.202 125.36 135.572C125.729 135.942 125.729 136.498 125.36 136.683L125.175 136.868C125.175 137.053 124.99 137.053 124.621 137.053Z" fill="black"/>
<path d="M131.454 130.205C131.269 130.205 131.085 130.205 130.9 130.02C130.531 129.65 130.531 129.094 130.9 128.909L131.085 128.724C131.454 128.354 132.008 128.354 132.193 128.724C132.562 129.094 132.562 129.65 132.193 129.835L132.008 130.02C132.008 130.205 131.639 130.205 131.454 130.205Z" fill="black"/>
<path d="M479.749 196.65H478.826C478.087 196.65 477.533 196.095 477.533 195.355V194.429C477.533 193.689 478.087 193.134 478.826 193.134H479.749C480.488 193.134 481.042 193.689 481.042 194.429V195.355C481.042 196.095 480.488 196.65 479.749 196.65ZM485.844 200.167V199.242C485.844 198.501 485.29 197.946 484.551 197.946H483.627C482.889 197.946 482.335 198.501 482.335 199.242V200.167C482.335 200.907 482.889 201.463 483.627 201.463H484.551C485.29 201.463 485.844 200.907 485.844 200.167ZM483.627 196.65H484.551C485.29 196.65 485.844 196.095 485.844 195.355V194.429C485.844 193.689 485.29 193.134 484.551 193.134H483.627C482.889 193.134 482.335 193.689 482.335 194.429V195.355C482.335 196.095 482.889 196.65 483.627 196.65ZM478.826 201.463H479.749C480.488 201.463 481.042 200.907 481.042 200.167V199.242C481.042 198.501 480.488 197.946 479.749 197.946H478.826C478.087 197.946 477.533 198.501 477.533 199.242V200.167C477.533 200.907 478.087 201.463 478.826 201.463Z" fill="#8200FF"/>
<path d="M456.85 197.946C456.85 197.761 456.85 197.576 456.85 197.391C456.85 197.206 456.85 197.021 456.85 196.836L457.588 196.095C457.773 195.91 457.773 195.725 457.773 195.54L457.219 194.614C457.034 194.429 456.85 194.244 456.665 194.429L455.742 194.8C455.372 194.614 455.003 194.429 454.633 194.244L454.449 193.319C454.449 193.134 454.264 192.949 453.895 192.949H452.787C452.602 192.949 452.417 193.134 452.233 193.319L452.048 194.244C451.679 194.429 451.309 194.614 450.94 194.8L450.017 194.429C449.832 194.429 449.463 194.429 449.463 194.614L448.909 195.54C448.724 195.725 448.909 196.095 449.093 196.095L449.832 196.836C449.832 197.021 449.832 197.206 449.832 197.391C449.832 197.576 449.832 197.761 449.832 197.946L449.093 198.686C448.909 198.871 448.909 199.057 448.909 199.242L449.463 200.167C449.463 200.352 449.647 200.352 449.832 200.352H450.017L450.94 199.982C451.309 200.167 451.679 200.352 452.048 200.537L452.233 201.463C452.233 201.648 452.417 201.833 452.787 201.833H453.895C454.079 201.833 454.264 201.648 454.449 201.463L454.633 200.537C455.003 200.352 455.372 200.167 455.742 199.982L456.665 200.352H456.85C457.034 200.352 457.219 200.167 457.219 200.167L457.773 199.242C457.958 199.057 457.773 198.686 457.588 198.686L456.85 197.946ZM453.341 199.057C452.417 199.057 451.679 198.316 451.679 197.391C451.679 196.465 452.417 195.725 453.341 195.725C454.264 195.725 455.003 196.465 455.003 197.391C455.003 198.316 454.264 199.057 453.341 199.057Z" fill="#8200FF"/>
<path d="M462.575 192.023H462.205C462.205 191.838 462.021 191.653 462.021 191.653L462.205 191.283V191.098L461.836 190.728H461.651L461.282 190.913C461.097 190.913 461.097 190.728 460.913 190.728V190.357L460.728 190.172H460.174C460.174 190.172 459.989 190.172 459.989 190.357V190.728C459.805 190.728 459.62 190.913 459.62 190.913L459.251 190.728H459.066L458.697 191.098V191.283L458.881 191.653C458.881 191.838 458.697 191.838 458.697 192.023H458.327L458.143 192.208V192.764C458.143 192.764 458.143 192.949 458.327 192.949H458.697C458.697 193.134 458.881 193.319 458.881 193.319L458.697 193.689V193.874L459.066 194.244C459.066 194.244 459.066 194.244 459.251 194.244C459.251 194.244 459.251 194.244 459.435 194.244L459.805 194.059C459.989 194.059 459.989 194.244 460.174 194.244V194.614C460.174 194.614 460.174 194.799 460.359 194.799H460.913C460.913 194.799 461.097 194.799 461.097 194.614V194.244C461.282 194.244 461.467 194.059 461.467 194.059L461.836 194.244C461.836 194.244 461.836 194.244 462.021 194.244H462.205L462.575 193.874V193.689L462.39 193.319C462.39 193.134 462.575 193.134 462.575 192.949H462.944L463.129 192.764L462.575 192.023C462.759 192.208 462.759 192.208 462.575 192.023ZM461.651 192.578C461.651 193.319 461.097 193.874 460.359 193.874C459.62 193.874 459.066 193.319 459.066 192.578C459.066 191.838 459.62 191.283 460.359 191.283C461.097 191.283 461.651 191.838 461.651 192.578Z" fill="black"/>
<path d="M496.37 182.769C495.078 180.918 492.677 180.363 490.83 181.658C488.983 182.954 488.429 185.36 489.722 187.211C491.015 189.062 493.416 189.617 495.262 188.322C496.924 187.211 497.478 184.805 496.37 182.769Z" fill="#8200FF"/>
<path d="M480.858 162.225C480.488 162.225 480.304 162.039 480.304 161.669V161.484C480.304 161.114 480.488 160.929 480.858 160.929C481.227 160.929 481.412 161.114 481.412 161.484V161.669C481.412 162.039 481.227 162.225 480.858 162.225Z" fill="black"/>
<path d="M480.858 168.888C480.488 168.888 480.304 168.703 480.304 168.332V168.147C480.304 167.777 480.488 167.592 480.858 167.592C481.227 167.592 481.412 167.777 481.412 168.147V168.332C481.412 168.517 481.227 168.888 480.858 168.888Z" fill="black"/>
<path d="M478.642 163.15C478.457 163.15 478.272 163.15 478.272 162.965L478.088 162.78C477.903 162.595 477.903 162.225 478.088 162.039C478.272 161.854 478.642 161.854 478.826 162.039L479.011 162.225C479.196 162.41 479.196 162.78 479.011 162.965C479.011 163.15 478.826 163.15 478.642 163.15Z" fill="black"/>
<path d="M483.258 167.777C483.073 167.777 482.889 167.777 482.889 167.592L482.704 167.407C482.519 167.222 482.519 166.851 482.704 166.666C482.889 166.481 483.258 166.481 483.443 166.666L483.627 166.851C483.812 167.037 483.812 167.407 483.627 167.592C483.443 167.777 483.443 167.777 483.258 167.777Z" fill="black"/>
<path d="M477.718 165.371H477.534C477.164 165.371 476.979 165.186 476.979 164.816C476.979 164.445 477.164 164.26 477.534 164.26H477.718C478.088 164.26 478.272 164.445 478.272 164.816C478.272 165.186 478.088 165.371 477.718 165.371Z" fill="black"/>
<path d="M484.182 165.371H483.997C483.628 165.371 483.443 165.186 483.443 164.816C483.443 164.445 483.628 164.26 483.997 164.26H484.182C484.551 164.26 484.736 164.445 484.736 164.816C484.736 165.186 484.551 165.371 484.182 165.371Z" fill="black"/>
<path d="M478.457 167.777C478.272 167.777 478.088 167.777 478.088 167.592C477.903 167.407 477.903 167.037 478.088 166.851L478.272 166.666C478.457 166.481 478.826 166.481 479.011 166.666C479.196 166.851 479.196 167.222 479.011 167.407L478.826 167.592C478.826 167.777 478.642 167.777 478.457 167.777Z" fill="black"/>
<path d="M483.073 163.15C482.889 163.15 482.704 163.15 482.704 162.965C482.519 162.78 482.519 162.41 482.704 162.225L482.889 162.039C483.073 161.854 483.443 161.854 483.627 162.039C483.812 162.225 483.812 162.595 483.627 162.78L483.443 162.965C483.443 163.15 483.258 163.15 483.073 163.15Z" fill="black"/>
<path d="M17.1401 179.808H18.0635C18.8022 179.808 19.3562 180.363 19.3562 181.103V182.029C19.3562 182.769 18.8022 183.324 18.0635 183.324H17.1401C16.4015 183.324 15.8474 182.769 15.8474 182.029V181.103C15.8474 180.548 16.4015 179.808 17.1401 179.808ZM11.0459 176.291V177.216C11.0459 177.957 11.5999 178.512 12.3386 178.512H13.262C14.0007 178.512 14.5547 177.957 14.5547 177.216V176.291C14.5547 175.551 14.0007 174.995 13.262 174.995H12.3386C11.5999 174.995 11.0459 175.736 11.0459 176.291ZM13.262 179.808H12.3386C11.5999 179.808 11.0459 180.548 11.0459 181.103V182.029C11.0459 182.769 11.5999 183.324 12.3386 183.324H13.262C14.0007 183.324 14.5547 182.769 14.5547 182.029V181.103C14.5547 180.548 14.0007 179.808 13.262 179.808ZM18.0635 174.995H17.1401C16.4015 174.995 15.8474 175.551 15.8474 176.291V177.216C15.8474 177.957 16.4015 178.512 17.1401 178.512H18.0635C18.8022 178.512 19.3562 177.957 19.3562 177.216V176.291C19.3562 175.736 18.8022 174.995 18.0635 174.995Z" fill="#8200FF"/>
<path d="M40.0399 178.512C40.0399 178.697 40.0399 178.882 40.0399 179.067C40.0399 179.252 40.0399 179.437 40.0399 179.622L39.3012 180.363C39.1165 180.548 39.1165 180.733 39.1165 180.918L39.6706 181.844C39.8552 182.029 40.0399 182.214 40.2246 182.029L41.1479 181.658C41.5173 181.844 41.8866 182.029 42.256 182.214L42.4407 183.509C42.4407 183.694 42.6253 183.879 42.9947 183.879H44.1027C44.2874 183.879 44.4721 183.694 44.6568 183.509L44.8414 182.584C45.2108 182.399 45.5801 182.214 45.9495 182.029L46.8729 182.399C47.0575 182.399 47.4269 182.399 47.4269 182.214L47.9809 181.288C48.1656 181.103 47.9809 180.733 47.7962 180.733L47.0575 179.993C47.0575 179.808 47.0575 179.622 47.0575 179.437C47.0575 179.252 47.0575 179.067 47.0575 178.882L47.7962 178.142C47.9809 177.957 47.9809 177.772 47.9809 177.587L47.4269 176.661C47.4269 176.476 47.2422 176.476 47.0575 176.476H46.8729L45.9495 176.846C45.5801 176.661 45.2108 176.476 44.8414 176.291L44.6568 175.366C44.6568 175.18 44.4721 174.995 44.1027 174.995H42.9947C42.81 174.995 42.6253 175.18 42.4407 175.366L42.256 176.291C41.8866 176.476 41.5173 176.661 41.1479 176.846L40.2246 176.106H40.0399C39.8552 176.106 39.6706 176.106 39.6706 176.291L39.1165 177.216C38.9319 177.401 39.1165 177.772 39.3012 177.772L40.0399 178.512ZM43.5487 177.587C44.4721 177.587 45.2108 178.327 45.2108 179.252C45.2108 180.178 44.4721 180.918 43.5487 180.918C42.6253 180.918 41.8866 180.178 41.8866 179.252C41.8866 178.327 42.6253 177.587 43.5487 177.587Z" fill="#8200FF"/>
<path d="M34.3156 184.434H34.685C34.685 184.62 34.8697 184.805 34.8697 184.805L34.685 185.175V185.36L35.0543 185.73H35.239L35.6084 185.545C35.793 185.545 35.793 185.73 35.9777 185.73V186.1L36.1624 186.285H36.9011C36.9011 186.285 37.0858 186.285 37.0858 186.1V185.73C37.2704 185.73 37.4551 185.545 37.4551 185.545L37.8244 185.73H38.0091L38.3785 185.36V185.175L38.1938 184.805C38.1938 184.62 38.3785 184.62 38.3785 184.434H38.7478L38.9325 184.249V183.694C38.9325 183.694 38.9325 183.509 38.7478 183.509H38.3785C38.3785 183.324 38.1938 183.139 38.1938 183.139L38.3785 182.769V182.584L38.0091 182.213C38.0091 182.213 38.0091 182.213 37.8244 182.213C37.8244 182.213 37.8244 182.213 37.6398 182.213L37.2704 182.399C37.0858 182.399 37.0858 182.213 36.9011 182.213V181.843L36.7164 181.658H36.1624C36.1624 181.658 35.9777 181.658 35.9777 181.843V182.213C35.793 182.213 35.6084 182.399 35.6084 182.399L35.239 182.213C35.239 182.213 35.239 182.213 35.0543 182.213H34.8697L34.5003 182.584V182.769L34.685 183.139C34.685 183.324 34.5003 183.324 34.5003 183.509H34.131L33.9463 183.694V184.249C34.131 184.249 34.131 184.434 34.3156 184.434ZM35.239 183.879C35.239 183.139 35.793 182.584 36.5317 182.584C37.2704 182.584 37.8244 183.139 37.8244 183.879C37.8244 184.62 37.2704 185.175 36.5317 185.175C35.793 185.175 35.239 184.62 35.239 183.879Z" fill="#8200FF"/>
<path d="M0.704526 193.689C1.99725 195.54 4.39801 196.095 6.24475 194.8C8.09149 193.504 8.64552 191.098 7.3528 189.247C6.06008 187.396 3.65931 186.841 1.81257 188.137C-0.0341705 189.247 -0.588193 191.838 0.704526 193.689Z" fill="#8200FF"/>
<path d="M16.0325 214.233C16.4019 214.233 16.5866 214.418 16.5866 214.789V214.974C16.5866 215.344 16.4019 215.529 16.0325 215.529C15.6632 215.529 15.4785 215.344 15.4785 214.974V214.789C15.4785 214.418 15.6632 214.233 16.0325 214.233Z" fill="black"/>
<path d="M16.0325 207.755C16.4019 207.755 16.5866 207.94 16.5866 208.311V208.496C16.5866 208.866 16.4019 209.051 16.0325 209.051C15.6632 209.051 15.4785 208.866 15.4785 208.496V208.311C15.4785 207.94 15.6632 207.755 16.0325 207.755Z" fill="black"/>
<path d="M18.2481 213.308C18.4328 213.308 18.6174 213.308 18.6174 213.493L18.8021 213.678C18.9868 213.863 18.9868 214.234 18.8021 214.419C18.6174 214.604 18.2481 214.604 18.0634 214.419L17.8787 214.234C17.6941 214.048 17.6941 213.678 17.8787 213.493C18.0634 213.308 18.0634 213.308 18.2481 213.308Z" fill="black"/>
<path d="M13.6319 208.681C13.8166 208.681 14.0012 208.681 14.0012 208.866L14.1859 209.051C14.3706 209.236 14.3706 209.606 14.1859 209.791C14.0012 209.976 13.6319 209.976 13.4472 209.791L13.2625 209.606C13.0779 209.421 13.0779 209.051 13.2625 208.866C13.4472 208.681 13.4472 208.681 13.6319 208.681Z" fill="black"/>
<path d="M19.1722 211.087H19.3569C19.7262 211.087 19.9109 211.272 19.9109 211.642C19.9109 212.012 19.7262 212.197 19.3569 212.197H19.1722C18.8028 212.197 18.6182 212.012 18.6182 211.642C18.6182 211.272 18.8028 211.087 19.1722 211.087Z" fill="black"/>
<path d="M12.7083 211.087H12.893C13.2623 211.087 13.447 211.272 13.447 211.642C13.447 212.012 13.2623 212.197 12.893 212.197H12.7083C12.339 212.197 12.1543 212.012 12.1543 211.642C12.1543 211.272 12.339 211.087 12.7083 211.087Z" fill="black"/>
<path d="M18.4328 208.681C18.6174 208.681 18.8021 208.681 18.8021 208.866C18.9868 209.051 18.9868 209.421 18.8021 209.606L18.6174 209.791C18.4328 209.976 18.0634 209.976 17.8787 209.791C17.6941 209.606 17.6941 209.236 17.8787 209.051L18.0634 208.866C18.2481 208.681 18.2481 208.681 18.4328 208.681Z" fill="black"/>
<path d="M13.8166 213.308C14.0012 213.308 14.1859 213.308 14.1859 213.493C14.3706 213.678 14.3706 214.048 14.1859 214.234L14.0012 214.419C13.8166 214.604 13.4472 214.604 13.2625 214.419C13.0779 214.234 13.0779 213.863 13.2625 213.678L13.4472 213.493C13.6319 213.308 13.6319 213.308 13.8166 213.308Z" fill="black"/>
<path d="M436.536 190.913C436.536 296.226 351.401 381.55 246.322 381.55C141.242 381.55 56.1074 296.226 56.1074 190.913C56.1074 85.5992 141.242 0.274902 246.322 0.274902C351.401 0.274902 436.536 85.5992 436.536 190.913Z" fill="url(#paint0_radial)"/>
<path d="M247.799 79.8616L161.926 103.738C143.458 178.512 150.845 257.913 205.14 293.45C273.1 260.69 311.881 182.399 323.516 107.439L247.799 79.8616Z" fill="#16D194"/>
<path d="M330.164 158.708C330.349 158.153 330.533 157.597 330.718 157.042C331.087 155.561 331.641 153.896 332.011 152.415C332.195 151.675 332.38 150.934 332.565 150.194C332.749 149.639 332.934 149.083 333.119 148.343C333.303 147.788 333.488 147.233 333.488 146.677C333.857 145.197 334.227 143.531 334.596 142.05C334.781 140.94 335.15 140.014 335.335 138.904C335.704 137.423 336.074 135.757 336.443 134.277C336.628 133.351 336.812 132.241 336.997 131.315C337.366 129.649 337.736 127.984 337.92 126.133C338.105 125.392 338.29 124.467 338.474 123.727C338.844 121.136 339.398 118.729 339.767 116.138L323.516 107.254C323.146 109.845 322.777 112.251 322.223 114.843C322.038 115.583 321.854 116.508 321.669 117.249C321.3 118.915 321.115 120.58 320.746 122.431C320.561 123.357 320.376 124.467 320.192 125.392C319.822 126.873 319.453 128.539 319.084 130.02C318.899 131.13 318.53 132.056 318.345 133.166C317.975 134.647 317.606 136.313 317.237 137.793C316.867 138.904 316.683 140.199 316.313 141.31C316.129 142.05 315.944 142.791 315.759 143.531C315.39 145.012 314.836 146.677 314.467 148.158C314.282 148.713 314.097 149.268 313.913 149.824C313.359 151.86 312.62 154.081 312.066 156.117C311.881 156.487 311.881 156.857 311.697 157.227C311.143 158.893 310.589 160.559 310.034 162.224C309.296 164.631 308.372 166.852 307.634 169.258C307.449 169.443 307.449 169.813 307.264 169.998C306.341 172.589 305.233 175.18 304.31 177.772C303.94 178.697 303.571 179.808 303.017 180.733C302.463 182.029 301.909 183.324 301.355 184.62C300.985 185.73 300.431 186.656 300.062 187.766C299.508 189.062 298.954 190.357 298.4 191.468C297.846 192.578 297.292 193.874 296.738 194.985C296.369 195.91 295.815 196.835 295.445 197.761C294.891 199.056 294.153 200.167 293.598 201.462C293.229 202.388 292.675 203.128 292.306 204.054C291.382 205.719 290.459 207.385 289.536 209.236C289.351 209.421 289.166 209.791 289.166 209.976C288.058 212.012 286.95 213.863 285.842 215.899C285.473 216.454 285.288 216.825 284.919 217.38C283.995 218.861 283.257 220.156 282.333 221.637C281.964 222.192 281.595 222.932 281.225 223.488C280.302 224.783 279.379 226.264 278.455 227.56C278.086 227.93 277.901 228.485 277.532 228.855C276.424 230.521 275.131 232.372 274.023 234.037C272.361 236.444 270.514 238.85 268.667 241.071C268.113 241.626 267.744 242.366 267.19 242.922C265.713 244.587 264.42 246.438 262.943 248.104C262.389 248.844 261.65 249.585 261.096 250.325C260.726 250.695 260.357 251.065 259.988 251.621C258.695 253.101 257.402 254.397 256.11 255.692C255.925 255.878 255.74 256.063 255.556 256.248C254.078 257.728 252.601 259.209 251.123 260.69C250.754 261.06 250.385 261.43 250.015 261.8C248.723 262.911 247.615 264.021 246.322 265.317C245.953 265.687 245.583 266.057 245.214 266.242C243.736 267.723 242.074 269.019 240.597 270.314C240.228 270.684 239.858 271.055 239.489 271.24C238.196 272.35 236.904 273.276 235.795 274.201C235.241 274.571 234.687 275.126 234.133 275.497C233.025 276.422 231.917 277.162 230.809 278.088C230.071 278.643 229.332 279.198 228.593 279.568C227.485 280.309 226.377 281.234 225.084 281.975C224.346 282.345 223.792 282.9 223.053 283.27C222.314 283.825 221.391 284.196 220.652 284.751C219.359 285.491 218.067 286.417 216.774 287.157C215.851 287.712 214.927 288.082 214.189 288.638C212.896 289.378 211.603 290.118 210.31 290.674C208.648 291.599 206.986 292.339 205.324 293.265L221.576 302.149C222.868 301.594 224.161 300.853 225.269 300.298C225.638 300.113 226.008 299.928 226.377 299.743C227.67 299.002 228.963 298.262 230.255 297.707C231.179 297.152 232.102 296.781 232.841 296.226C234.133 295.486 235.426 294.56 236.719 293.82C237.273 293.45 238.012 293.08 238.566 292.709C238.75 292.524 238.935 292.524 239.12 292.339C239.858 291.969 240.412 291.414 241.151 291.044C242.259 290.303 243.552 289.563 244.66 288.638C245.399 288.082 246.137 287.527 246.876 287.157C247.43 286.602 248.169 286.232 248.723 285.861C249.277 285.491 249.646 285.121 250.2 284.751C250.754 284.381 251.308 283.825 251.862 283.455C253.155 282.53 254.448 281.419 255.556 280.494C255.925 280.124 256.294 279.754 256.664 279.568C256.848 279.383 256.848 279.383 257.033 279.198C258.51 277.903 259.988 276.792 261.281 275.497C261.65 275.126 262.019 274.756 262.389 274.571C263.127 274.016 263.866 273.276 264.42 272.535C264.974 271.98 265.343 271.61 265.897 271.055C266.267 270.684 266.636 270.314 267.005 269.944C268.483 268.463 269.776 267.168 271.253 265.687L271.438 265.502C271.622 265.317 271.807 265.132 271.992 264.947C273.284 263.651 274.577 262.17 275.87 260.875C276.239 260.505 276.608 260.135 276.978 259.579C277.347 259.209 277.717 258.839 277.901 258.469C278.271 258.099 278.455 257.728 278.825 257.358C280.302 255.692 281.779 253.842 283.072 252.176C283.441 251.806 283.626 251.435 283.995 251.065C284.18 250.88 284.365 250.695 284.549 250.325C286.396 247.919 288.243 245.698 289.905 243.292L290.09 243.107C291.198 241.441 292.306 239.96 293.414 238.294C293.783 237.924 293.968 237.369 294.337 236.999C294.891 236.259 295.445 235.333 295.999 234.593C296.369 234.037 296.738 233.482 297.107 232.927C297.477 232.372 297.846 231.631 298.215 231.076C299.139 229.595 299.877 228.3 300.801 226.819C301.17 226.264 301.355 225.894 301.724 225.338C301.724 225.153 301.909 224.968 301.909 224.968C303.017 223.117 303.94 221.452 305.048 219.601C305.233 219.416 305.418 219.046 305.418 218.861C306.156 217.38 307.08 215.899 307.818 214.418C308.003 214.233 308.003 214.048 308.188 213.863C308.557 212.938 309.111 212.197 309.48 211.272C310.035 209.976 310.773 208.866 311.327 207.57C311.697 206.645 312.251 205.719 312.62 204.794C312.989 204.054 313.359 203.128 313.728 202.388C313.913 202.018 314.097 201.648 314.282 201.277C314.836 199.982 315.39 198.686 315.944 197.576C316.313 196.465 316.867 195.54 317.237 194.429C317.791 193.134 318.345 191.838 318.899 190.542C319.268 189.802 319.638 189.062 319.822 188.136C319.822 187.951 320.007 187.766 320.007 187.581C321.115 184.99 322.038 182.399 322.962 179.808C323.146 179.622 323.146 179.252 323.331 179.067C324.254 176.661 324.993 174.44 325.732 172.034C325.732 171.849 325.916 171.479 326.101 171.294C326.655 169.998 327.025 168.517 327.394 167.222C327.579 166.852 327.579 166.481 327.763 166.111C329.056 162.965 329.61 160.929 330.164 158.708Z" fill="#1AB77E"/>
<path d="M245.398 92.4473L170.051 113.362C162.664 147.788 161.372 180.363 166.543 208.311C172.452 240.145 186.303 264.021 207.725 279.568C235.057 265.132 258.326 241.996 276.978 210.717C293.229 183.324 305.048 150.749 311.327 116.323L245.398 92.4473Z" fill="url(#paint1_linear)"/>
<path d="M270.699 103.182C254.817 136.498 236.904 169.073 214.004 198.131C202.739 212.383 190.366 225.524 177.069 237.924C184.272 254.582 194.613 268.093 208.095 277.903C234.872 263.651 257.587 240.701 275.87 209.977C291.937 183.139 303.571 151.119 309.85 117.434L270.699 103.182Z" fill="url(#paint2_linear)"/>
<path d="M260.542 147.602L268.853 160.744L213.635 212.752L211.604 211.457L202.739 163.335L204.586 164.63L218.806 186.841L258.511 146.307L260.542 147.602Z" fill="#1AB77E"/>
<path d="M258.51 146.307L267.005 159.633L211.603 211.457L189.072 176.106L202.738 163.335L216.773 185.545L258.51 146.307Z" fill="#16D194"/>
<defs>
<radialGradient id="paint0_radial" cx="0" cy="0" r="1" gradientUnits="userSpaceOnUse" gradientTransform="translate(246.315 190.976) scale(190.278 190.702)">
<stop stop-color="#EFEFEF"/>
<stop offset="0.2611" stop-color="#D9D9D9" stop-opacity="0.7389"/>
<stop offset="1" stop-color="#E1E1E1" stop-opacity="0"/>
</radialGradient>
<linearGradient id="paint1_linear" x1="276.65" y1="232.069" x2="206.077" y2="118.385" gradientUnits="userSpaceOnUse">
<stop offset="0.00450562" stop-color="#FFFB55"/>
<stop offset="1" stop-color="white"/>
</linearGradient>
<linearGradient id="paint2_linear" x1="280.396" y1="229.622" x2="245.123" y2="182.553" gradientUnits="userSpaceOnUse">
<stop offset="0.00450562" stop-color="#FFFDB4"/>
<stop offset="1" stop-color="white"/>
</linearGradient>
</defs>
</svg>
