<svg width="486" height="302" viewBox="0 0 486 302" fill="none" xmlns="http://www.w3.org/2000/svg">
<g clip-path="url(#clip0)">
<path d="M143.21 253.276H7.37561C3.33659 253.276 0 249.94 0 245.902V150.736C0 146.698 3.33659 143.362 7.37561 143.362H143.21C147.249 143.362 150.585 146.698 150.585 150.736V245.902C150.585 249.94 147.249 253.276 143.21 253.276Z" fill="white"/>
<path d="M0 173.738V148.981C0 145.908 2.45854 143.362 5.61951 143.362H145.054C148.127 143.362 150.673 145.82 150.673 148.981V173.211L0 173.738Z" fill="#16D194"/>
<path d="M28.3607 179.62H11.6777V192.964H28.3607V179.62Z" fill="#AB8624"/>
<path opacity="0.54" d="M28.3607 202.972H11.6777V216.316H28.3607V202.972Z" fill="#AB8624"/>
<path opacity="0.54" d="M28.3607 225.622H11.6777V238.966H28.3607V225.622Z" fill="#AB8624"/>
<path opacity="0.54" d="M56.9857 179.62H40.3027V192.964H56.9857V179.62Z" fill="#FFC209"/>
<path d="M56.9857 202.972H40.3027V216.316H56.9857V202.972Z" fill="#FFC209"/>
<path opacity="0.54" d="M56.9857 225.622H40.3027V238.966H56.9857V225.622Z" fill="#FFC209"/>
<g opacity="0.98">
<path opacity="0.5" d="M84.9954 179.62H68.3125V192.964H84.9954V179.62Z" fill="#FFC209"/>
<path opacity="0.5" d="M84.9954 202.972H68.3125V216.316H84.9954V202.972Z" fill="#FFC209"/>
<path opacity="0.98" d="M84.9954 225.622H68.3125V238.966H84.9954V225.622Z" fill="#FFC209"/>
</g>
<g opacity="0.54">
<path opacity="0.54" d="M113.619 179.62H96.9365V192.964H113.619V179.62Z" fill="#EF929C"/>
<path opacity="0.54" d="M113.619 202.972H96.9365V216.316H113.619V202.972Z" fill="#EF929C"/>
<path opacity="0.54" d="M113.619 225.622H96.9365V238.966H113.619V225.622Z" fill="#EF929C"/>
</g>
<path opacity="0.43" d="M140.927 179.62H124.244V192.964H140.927V179.62Z" fill="#EF929C"/>
<path d="M140.927 202.972H124.244V216.316H140.927V202.972Z" fill="#EF929C"/>
<path opacity="0.43" d="M140.927 225.622H124.244V238.966H140.927V225.622Z" fill="#EF929C"/>
<path d="M49.6101 191.384C52.5197 191.384 54.8784 189.025 54.8784 186.116C54.8784 183.207 52.5197 180.849 49.6101 180.849C46.7005 180.849 44.3418 183.207 44.3418 186.116C44.3418 189.025 46.7005 191.384 49.6101 191.384Z" stroke="white" stroke-miterlimit="10" stroke-linecap="round"/>
<path d="M47.1514 182.166L51.6294 189.628" stroke="white" stroke-miterlimit="10" stroke-linecap="round"/>
<path d="M53.1216 183.658L45.6582 188.135" stroke="white" stroke-miterlimit="10" stroke-linecap="round"/>
<path opacity="0.58" d="M18.4388 161.359C22.1243 161.359 25.112 158.372 25.112 154.687C25.112 151.002 22.1243 148.015 18.4388 148.015C14.7533 148.015 11.7656 151.002 11.7656 154.687C11.7656 158.372 14.7533 161.359 18.4388 161.359Z" fill="black"/>
<path d="M18.4386 157.057C16.8581 157.057 15.541 155.741 15.541 154.16V134.934C15.541 133.354 16.8581 132.037 18.4386 132.037C20.0191 132.037 21.3361 133.354 21.3361 134.934V154.16C21.3361 155.741 20.0191 157.057 18.4386 157.057Z" fill="#8200FF"/>
<path opacity="0.58" d="M38.1947 161.359C41.8801 161.359 44.8678 158.372 44.8678 154.687C44.8678 151.002 41.8801 148.015 38.1947 148.015C34.5092 148.015 31.5215 151.002 31.5215 154.687C31.5215 158.372 34.5092 161.359 38.1947 161.359Z" fill="black"/>
<path d="M38.1944 157.057C36.6139 157.057 35.2969 155.741 35.2969 154.16V134.934C35.2969 133.354 36.6139 132.037 38.1944 132.037C39.7749 132.037 41.092 133.354 41.092 134.934V154.16C41.092 155.741 39.7749 157.057 38.1944 157.057Z" fill="#8200FF"/>
<path opacity="0.58" d="M56.8099 161.359C60.4954 161.359 63.4831 158.372 63.4831 154.687C63.4831 151.002 60.4954 148.015 56.8099 148.015C53.1244 148.015 50.1367 151.002 50.1367 154.687C50.1367 158.372 53.1244 161.359 56.8099 161.359Z" fill="black"/>
<path d="M56.8097 157.057C55.2292 157.057 53.9121 155.741 53.9121 154.16V134.934C53.9121 133.354 55.2292 132.037 56.8097 132.037C58.3902 132.037 59.7072 133.354 59.7072 134.934V154.16C59.7072 155.741 58.3902 157.057 56.8097 157.057Z" fill="#8200FF"/>
<path opacity="0.58" d="M76.4779 161.359C80.1634 161.359 83.151 158.372 83.151 154.687C83.151 151.002 80.1634 148.015 76.4779 148.015C72.7924 148.015 69.8047 151.002 69.8047 154.687C69.8047 158.372 72.7924 161.359 76.4779 161.359Z" fill="black"/>
<path d="M76.4776 157.057C74.8971 157.057 73.5801 155.741 73.5801 154.16V134.934C73.5801 133.354 74.8971 132.037 76.4776 132.037C78.0581 132.037 79.3752 133.354 79.3752 134.934V154.16C79.463 155.741 78.1459 157.057 76.4776 157.057Z" fill="#8200FF"/>
<path opacity="0.58" d="M95.0921 161.359C98.7776 161.359 101.765 158.372 101.765 154.687C101.765 151.002 98.7776 148.015 95.0921 148.015C91.4066 148.015 88.4189 151.002 88.4189 154.687C88.4189 158.372 91.4066 161.359 95.0921 161.359Z" fill="black"/>
<path d="M95.0919 157.057C93.5114 157.057 92.1943 155.741 92.1943 154.16V134.934C92.1943 133.354 93.5114 132.037 95.0919 132.037C96.6724 132.037 97.9895 133.354 97.9895 134.934V154.16C97.9895 155.741 96.6724 157.057 95.0919 157.057Z" fill="#8200FF"/>
<path opacity="0.58" d="M114.761 161.359C118.447 161.359 121.434 158.372 121.434 154.687C121.434 151.002 118.447 148.015 114.761 148.015C111.076 148.015 108.088 151.002 108.088 154.687C108.088 158.372 111.076 161.359 114.761 161.359Z" fill="black"/>
<path d="M114.761 157.057C113.18 157.057 111.863 155.741 111.863 154.16V134.934C111.863 133.354 113.18 132.037 114.761 132.037C116.341 132.037 117.658 133.354 117.658 134.934V154.16C117.746 155.741 116.429 157.057 114.761 157.057Z" fill="#8200FF"/>
<path opacity="0.58" d="M133.375 161.359C137.061 161.359 140.048 158.372 140.048 154.687C140.048 151.002 137.061 148.015 133.375 148.015C129.69 148.015 126.702 151.002 126.702 154.687C126.702 158.372 129.69 161.359 133.375 161.359Z" fill="black"/>
<path d="M133.375 157.057C131.795 157.057 130.478 155.741 130.478 154.16V134.934C130.478 133.354 131.795 132.037 133.375 132.037C134.956 132.037 136.273 133.354 136.273 134.934V154.16C136.36 155.741 135.043 157.057 133.375 157.057Z" fill="#8200FF"/>
<path d="M91.0535 292.519C112.682 292.519 130.215 274.792 130.215 252.925C130.215 231.058 112.682 213.331 91.0535 213.331C69.4255 213.331 51.8926 231.058 51.8926 252.925C51.8926 274.792 69.4255 292.519 91.0535 292.519Z" fill="black"/>
<path d="M91.0536 283.388C107.687 283.388 121.171 269.749 121.171 252.925C121.171 236.1 107.687 222.461 91.0536 222.461C74.4204 222.461 60.9365 236.1 60.9365 252.925C60.9365 269.749 74.4204 283.388 91.0536 283.388Z" fill="white"/>
<path d="M91.6679 250.818H90.3508C89.9118 250.818 89.5605 250.467 89.5605 250.028V230.889C89.5605 230.451 89.9118 230.099 90.3508 230.099H91.6679C92.1069 230.099 92.4581 230.451 92.4581 230.889V250.028C92.4581 250.379 92.1069 250.818 91.6679 250.818Z" fill="#FFC209"/>
<path d="M91.1416 254.154V252.837C91.1416 252.398 91.4928 252.047 91.9318 252.047H106.946C107.385 252.047 107.737 252.398 107.737 252.837V254.154C107.737 254.593 107.385 254.944 106.946 254.944H91.9318C91.4928 254.944 91.1416 254.593 91.1416 254.154Z" fill="#FFC209"/>
<path d="M95.4436 252.925C95.4436 255.383 93.5119 257.314 91.0533 257.314C88.5948 257.314 86.6631 255.295 86.6631 252.925C86.6631 250.467 88.5948 248.535 91.0533 248.535C93.4241 248.535 95.4436 250.555 95.4436 252.925Z" fill="black"/>
<path d="M219.073 302C294.723 302 356.049 240.684 356.049 165.047C356.049 89.4092 294.723 28.093 219.073 28.093C143.424 28.093 82.0977 89.4092 82.0977 165.047C82.0977 240.684 143.424 302 219.073 302Z" fill="#16D194"/>
<path opacity="0.55" d="M219.074 289.534C287.837 289.534 343.581 233.799 343.581 165.047C343.581 96.2942 287.837 40.5593 219.074 40.5593C150.31 40.5593 94.5664 96.2942 94.5664 165.047C94.5664 233.799 150.31 289.534 219.074 289.534Z" fill="white"/>
<path d="M219.073 276.804C280.805 276.804 330.849 226.769 330.849 165.047C330.849 103.325 280.805 53.2891 219.073 53.2891C157.342 53.2891 107.298 103.325 107.298 165.047C107.298 226.769 157.342 276.804 219.073 276.804Z" fill="white"/>
<path d="M218.985 78.485H218.722C217.141 78.485 215.824 77.1681 215.824 75.5879V61.1024C215.824 59.5222 217.141 58.2053 218.722 58.2053H218.985C220.566 58.2053 221.883 59.5222 221.883 61.1024V75.6757C221.883 77.2559 220.566 78.485 218.985 78.485Z" fill="#373449"/>
<path d="M219.337 271.888H219.073C217.493 271.888 216.176 270.571 216.176 268.991V254.418C216.176 252.837 217.493 251.521 219.073 251.521H219.337C220.917 251.521 222.234 252.837 222.234 254.418V268.991C222.322 270.659 221.005 271.888 219.337 271.888Z" fill="#373449"/>
<path d="M305.649 164.959V164.695C305.649 163.115 306.966 161.798 308.547 161.798H323.123C324.703 161.798 326.02 163.115 326.02 164.695V164.959C326.02 166.539 324.703 167.856 323.123 167.856H308.547C306.879 167.856 305.649 166.539 305.649 164.959Z" fill="#373449"/>
<path d="M112.215 165.31V165.047C112.215 163.466 113.532 162.149 115.112 162.149H129.688C131.268 162.149 132.586 163.466 132.586 165.047V165.31C132.586 166.89 131.268 168.207 129.688 168.207H115.112C113.444 168.295 112.215 166.978 112.215 165.31Z" fill="#373449"/>
<path d="M282.908 101.135L282.732 100.959C281.591 99.8181 281.591 97.9745 282.732 96.8333L288.088 91.478C289.23 90.3368 291.074 90.3368 292.215 91.478L292.391 91.6536C293.532 92.7949 293.532 94.6385 292.391 95.7798L287.035 101.135C285.893 102.188 284.049 102.188 282.908 101.135Z" fill="#373449"/>
<path d="M145.844 238.703L145.669 238.527C144.527 237.386 144.527 235.543 145.669 234.401L152.166 227.905C153.308 226.764 155.152 226.764 156.293 227.905L156.469 228.08C157.61 229.222 157.61 231.065 156.469 232.207L149.971 238.703C148.83 239.844 146.986 239.844 145.844 238.703Z" fill="#373449"/>
<path d="M282.995 228.958L283.171 228.783C284.312 227.641 286.156 227.641 287.298 228.783L292.654 234.138C293.795 235.279 293.795 237.123 292.654 238.264L292.478 238.44C291.337 239.581 289.493 239.581 288.351 238.44L282.995 233.084C281.942 231.943 281.942 230.1 282.995 228.958Z" fill="#373449"/>
<path d="M145.405 91.917L145.581 91.7415C146.722 90.6002 148.566 90.6002 149.707 91.7415L156.205 98.238C157.346 99.3793 157.346 101.223 156.205 102.364L156.029 102.54C154.888 103.681 153.044 103.681 151.902 102.54L145.405 96.0432C144.263 94.9019 144.263 93.0583 145.405 91.917Z" fill="#373449"/>
<path d="M219.161 166.802H218.897C217.141 166.802 215.648 165.398 215.648 163.554V93.4094C215.648 91.6536 217.053 90.1611 218.897 90.1611H219.161C220.917 90.1611 222.409 91.5658 222.409 93.4094V163.554C222.322 165.31 220.917 166.802 219.161 166.802Z" fill="#FFC209"/>
<path d="M215.736 169.436V169.173C215.736 167.417 217.141 165.925 218.985 165.925H267.541C269.297 165.925 270.79 167.329 270.79 169.173V169.436C270.79 171.192 269.385 172.684 267.541 172.684H218.985C217.141 172.597 215.736 171.192 215.736 169.436Z" fill="#FFC209"/>
<path d="M269.386 119.747L219.425 164.695" stroke="#373449" stroke-width="2" stroke-miterlimit="10" stroke-linecap="round"/>
<path d="M219.073 177.162C225.765 177.162 231.19 171.738 231.19 165.047C231.19 158.356 225.765 152.931 219.073 152.931C212.381 152.931 206.956 158.356 206.956 165.047C206.956 171.738 212.381 177.162 219.073 177.162Z" fill="black"/>
<path d="M475.903 239.142V246.341C475.903 249.062 473.708 251.257 470.986 251.257H453.688" stroke="black" stroke-width="2" stroke-miterlimit="10" stroke-linecap="round"/>
<path d="M429.63 193.14H436.83C439.552 193.14 441.747 195.334 441.747 198.056V215.351" stroke="black" stroke-width="2" stroke-miterlimit="10" stroke-linecap="round"/>
<path d="M383.093 263.372H452.81C453.601 263.372 454.303 262.67 454.303 261.88V217.106C454.303 216.316 453.601 215.614 452.81 215.614H383.093C382.303 215.614 381.601 216.316 381.601 217.106V261.88C381.601 262.67 382.303 263.372 383.093 263.372Z" fill="#16D194"/>
<path opacity="0.66" d="M383.093 263.372H452.81C453.601 263.372 454.303 262.67 454.303 261.88V217.106C454.303 216.316 453.601 215.614 452.81 215.614H383.093C382.303 215.614 381.601 216.316 381.601 217.106V261.88C381.601 262.67 382.303 263.372 383.093 263.372Z" fill="#FDE087"/>
<path d="M392.752 237.825H443.152C443.766 237.825 444.206 237.298 444.206 236.772V226.149C444.206 225.534 443.679 225.095 443.152 225.095H392.752C392.137 225.095 391.698 225.622 391.698 226.149V236.772C391.698 237.298 392.225 237.825 392.752 237.825Z" fill="white"/>
<path d="M392.401 243.97H443.503C443.942 243.97 444.206 243.619 444.206 243.268C444.206 242.829 443.854 242.566 443.503 242.566H392.401C391.962 242.566 391.698 242.917 391.698 243.268C391.698 243.619 392.049 243.97 392.401 243.97Z" fill="white"/>
<path d="M392.401 248.009H443.503C443.942 248.009 444.206 247.658 444.206 247.306C444.206 246.867 443.854 246.604 443.503 246.604H392.401C391.962 246.604 391.698 246.955 391.698 247.306C391.698 247.658 392.049 248.009 392.401 248.009Z" fill="white"/>
<path d="M392.401 252.486H443.503C443.942 252.486 444.206 252.135 444.206 251.784C444.206 251.345 443.854 251.081 443.503 251.081H392.401C391.962 251.081 391.698 251.432 391.698 251.784C391.698 252.135 392.049 252.486 392.401 252.486Z" fill="white"/>
<path d="M392.401 256.525H443.503C443.942 256.525 444.206 256.173 444.206 255.822C444.206 255.383 443.854 255.12 443.503 255.12H392.401C391.962 255.12 391.698 255.471 391.698 255.822C391.698 256.261 392.049 256.525 392.401 256.525Z" fill="white"/>
<path d="M468.001 239.844H484.508C485.298 239.844 486 239.142 486 238.352V227.905C486 227.115 485.298 226.412 484.508 226.412H468.001C467.21 226.412 466.508 227.115 466.508 227.905V238.352C466.508 239.142 467.122 239.844 468.001 239.844Z" fill="white"/>
<path opacity="0.58" d="M468.001 239.844H484.508C485.298 239.844 486 239.142 486 238.352V227.905C486 227.115 485.298 226.412 484.508 226.412H468.001C467.21 226.412 466.508 227.115 466.508 227.905V238.352C466.508 239.142 467.122 239.844 468.001 239.844Z" fill="#16D194"/>
<g opacity="0.68">
<g opacity="0.89">
<g opacity="0.89">
<path opacity="0.89" d="M427.611 202.006H337.347C336.557 202.006 335.854 201.304 335.854 200.514V143.538C335.854 142.748 336.557 142.045 337.347 142.045H427.611C428.401 142.045 429.103 142.748 429.103 143.538V200.514C429.103 201.392 428.401 202.006 427.611 202.006Z" fill="#FFC209"/>
</g>
</g>
<g opacity="0.68">
<path opacity="0.68" d="M414.352 157.145H348.059C347.796 157.145 347.62 156.97 347.62 156.707C347.62 156.443 347.796 156.268 348.059 156.268H414.352C414.615 156.268 414.791 156.443 414.791 156.707C414.791 156.97 414.615 157.145 414.352 157.145Z" fill="white"/>
<path opacity="0.68" d="M375.191 174.967H348.059C347.796 174.967 347.62 174.791 347.62 174.528C347.62 174.265 347.796 174.089 348.059 174.089H375.191C375.454 174.089 375.63 174.265 375.63 174.528C375.63 174.791 375.454 174.967 375.191 174.967Z" fill="white"/>
<path opacity="0.68" d="M375.191 185.59H348.059C347.796 185.59 347.62 185.414 347.62 185.151C347.62 184.887 347.796 184.712 348.059 184.712H375.191C375.454 184.712 375.63 184.887 375.63 185.151C375.63 185.414 375.454 185.59 375.191 185.59Z" fill="white"/>
<g opacity="0.68">
<path opacity="0.68" d="M382.742 164.257H348.147C347.884 164.257 347.708 164.081 347.708 163.818C347.708 163.554 347.884 163.379 348.147 163.379H382.742C383.006 163.379 383.181 163.554 383.181 163.818C383.181 164.081 383.006 164.257 382.742 164.257Z" fill="white"/>
<path opacity="0.68" d="M413.65 164.432H389.503C389.152 164.432 388.801 164.169 388.801 163.905C388.801 163.642 389.152 163.379 389.503 163.379H413.65C414.001 163.379 414.352 163.642 414.352 163.905C414.352 164.169 414.089 164.432 413.65 164.432Z" fill="white"/>
</g>
</g>
<path opacity="0.68" d="M413.211 189.979H383.094C382.128 189.979 381.338 189.189 381.338 188.223V171.104C381.338 170.139 382.128 169.348 383.094 169.348H413.211C414.177 169.348 414.967 170.139 414.967 171.104V188.223C414.967 189.189 414.177 189.979 413.211 189.979Z" fill="white"/>
<g opacity="0.68">
<path opacity="0.68" d="M384.938 184.097L386.781 178.566C386.957 178.127 387.484 178.04 387.835 178.303L392.928 183.834C393.279 184.185 393.806 184.097 393.981 183.658L397.055 175.318C397.23 174.879 397.845 174.791 398.108 175.143L405.045 183.922C405.308 184.273 405.835 184.185 406.011 183.834L412.069 174.265" stroke="black" stroke-width="2" stroke-miterlimit="10" stroke-linecap="round"/>
<path opacity="0.68" d="M410.138 174.616L412.245 174.001V176.196" stroke="black" stroke-width="2" stroke-miterlimit="10" stroke-linecap="round"/>
</g>
</g>
<path d="M371.239 5.00415H348.146V18.3483H371.239V5.00415Z" fill="black"/>
<path d="M373.171 9.13023H346.127C345.161 9.13023 344.371 8.34012 344.371 7.37442V1.75581C344.371 0.790116 345.161 0 346.127 0H373.171C374.137 0 374.927 0.790116 374.927 1.75581V7.46221C374.927 8.42791 374.137 9.13023 373.171 9.13023Z" fill="black"/>
<path d="M359.649 127.296C390.151 127.296 414.878 102.298 414.878 71.4616C414.878 40.6248 390.151 15.6267 359.649 15.6267C329.147 15.6267 304.42 40.6248 304.42 71.4616C304.42 102.298 329.147 127.296 359.649 127.296Z" fill="#FFC209"/>
<path d="M359.649 114.391C383.071 114.391 402.059 95.171 402.059 71.4616C402.059 47.7522 383.071 28.532 359.649 28.532C336.227 28.532 317.239 47.7522 317.239 71.4616C317.239 95.171 336.227 114.391 359.649 114.391Z" fill="white"/>
<path opacity="0.81" d="M397.581 90.2489C390.732 104.559 376.156 114.391 359.386 114.391C343.054 114.391 328.829 105.086 321.805 91.3902C320.225 88.4053 339.015 71.7251 358.595 71.4617C378.264 71.1983 398.898 87.3518 397.581 90.2489Z" fill="#ECF1F7"/>
<path opacity="0.55" d="M383.357 99.2913C379.054 108.246 370.01 114.391 359.561 114.391C349.376 114.391 340.508 108.597 336.118 99.9937C335.152 98.1501 346.83 87.703 359.122 87.5274C371.327 87.3518 384.147 97.5355 383.357 99.2913Z" fill="white"/>
<path d="M360.966 68.3888H358.42C357.981 68.3888 357.63 68.0377 357.63 67.5987V39.9447C357.63 39.5057 357.981 39.1545 358.42 39.1545H360.966C361.406 39.1545 361.757 39.5057 361.757 39.9447V67.5987C361.757 67.9499 361.406 68.3888 360.966 68.3888Z" fill="black"/>
<path d="M359.649 77.6948C363.044 77.6948 365.796 74.9041 365.796 71.4617C365.796 68.0192 363.044 65.2285 359.649 65.2285C356.255 65.2285 353.503 68.0192 353.503 71.4617C353.503 74.9041 356.255 77.6948 359.649 77.6948Z" fill="black"/>
</g>
<defs>
<clipPath id="clip0">
<rect width="486" height="302" fill="white"/>
</clipPath>
</defs>
</svg>
