<svg width="558" height="1522" viewBox="0 0 558 1522" fill="none" xmlns="http://www.w3.org/2000/svg">
<circle r="5" transform="matrix(-1 -8.74228e-08 -8.74228e-08 1 523 354)" fill="black"/>
<circle r="5" transform="matrix(-1 -8.74228e-08 -8.74228e-08 1 523 760)" fill="black"/>
<circle r="5" transform="matrix(-1 -8.74228e-08 -8.74228e-08 1 523 1165)" fill="black"/>
<path d="M6.144 195H10.008V179.976H15.648V176.208H0.504V179.976H6.144V195ZM14.6938 188.616C14.6938 190.536 15.3658 192.12 16.7098 193.392C18.0538 194.664 19.7098 195.288 21.6778 195.288C23.6218 195.288 25.2778 194.64 26.6458 193.368C28.0138 192.072 28.6858 190.464 28.6858 188.544C28.6858 186.648 28.0138 185.088 26.6698 183.816C25.3258 182.544 23.6698 181.896 21.7258 181.896C19.7818 181.896 18.1018 182.544 16.7338 183.84C15.3658 185.112 14.6938 186.72 14.6938 188.616ZM18.5338 188.568C18.5338 187.632 18.8458 186.84 19.4458 186.24C20.0458 185.616 20.7898 185.304 21.6778 185.304C22.5658 185.304 23.3338 185.616 23.9338 186.24C24.5338 186.84 24.8458 187.632 24.8458 188.568C24.8458 190.488 23.5018 191.856 21.7018 191.856C20.8138 191.856 20.0458 191.544 19.4458 190.944C18.8458 190.32 18.5338 189.528 18.5338 188.568ZM35.097 188.928H35.193L39.729 195H44.457L39.153 188.088L44.313 182.184H39.537L35.097 187.224V175.44H31.353V195H35.097V188.928ZM57.8218 189.624C57.8458 189.336 57.8698 188.88 57.8698 188.28C57.8698 186.384 57.2698 184.824 56.0938 183.648C54.9178 182.472 53.3818 181.872 51.4858 181.872C49.6378 181.872 48.0298 182.52 46.6858 183.84C45.3658 185.16 44.6938 186.72 44.6938 188.568C44.6938 190.536 45.3658 192.144 46.7098 193.416C48.0778 194.664 49.7338 195.288 51.7258 195.288C54.3418 195.288 56.1658 194.328 57.2458 192.384L54.5338 190.608C53.9578 191.544 52.8058 192.144 51.6778 192.144C50.0698 192.144 48.7258 191.184 48.5098 189.624H57.8218ZM48.6058 187.152C48.6778 186.648 48.9658 186.144 49.4698 185.664C49.9738 185.16 50.6218 184.92 51.3898 184.92C53.0938 184.92 54.0298 186.024 54.1258 187.152H48.6058ZM72.5327 195V187.032C72.5327 185.592 72.1487 184.392 71.3567 183.408C70.5887 182.424 69.4367 181.944 67.9007 181.944C67.3487 181.944 66.6767 181.968 65.5487 182.616C64.9967 182.928 64.5887 183.336 64.2767 183.864H64.2527V182.184H60.5327V195H64.2767V187.896C64.2767 186.48 65.0687 185.4 66.5807 185.4C68.0447 185.4 68.8127 186.384 68.8127 187.896V195H72.5327ZM81.1883 185.616C81.1883 188.352 82.1243 190.656 83.9723 192.504C85.8203 194.352 88.1243 195.264 90.8603 195.264C92.7563 195.264 94.5323 194.76 96.1403 193.776C97.7723 192.768 98.9003 191.4 99.5243 189.672L95.9483 188.016C95.1083 190.104 93.2123 191.496 90.9083 191.496C89.2523 191.496 87.9083 190.92 86.8283 189.792C85.7483 188.64 85.2203 187.224 85.2203 185.568C85.2203 183.936 85.7723 182.544 86.8523 181.416C87.9323 180.288 89.3003 179.712 90.9083 179.712C93.2363 179.712 95.1083 181.008 95.9003 183.096L99.4523 181.464C98.8283 179.76 97.7243 178.392 96.1403 177.408C94.5803 176.424 92.8282 175.92 90.9323 175.92C88.2203 175.92 85.9163 176.856 84.0203 178.752C82.1243 180.624 81.1883 182.904 81.1883 185.616ZM109.965 182.136C109.773 182.064 109.533 182.04 109.221 182.04C107.517 182.04 106.149 182.976 105.597 184.152H105.573V182.184H101.853V195H105.597V189.576C105.597 187.272 106.653 185.76 109.077 185.76C109.389 185.76 109.677 185.784 109.965 185.832V182.136ZM124.103 189.624C124.127 189.336 124.151 188.88 124.151 188.28C124.151 186.384 123.551 184.824 122.375 183.648C121.199 182.472 119.663 181.872 117.767 181.872C115.919 181.872 114.311 182.52 112.967 183.84C111.647 185.16 110.975 186.72 110.975 188.568C110.975 190.536 111.647 192.144 112.991 193.416C114.359 194.664 116.015 195.288 118.007 195.288C120.623 195.288 122.447 194.328 123.527 192.384L120.815 190.608C120.239 191.544 119.087 192.144 117.959 192.144C116.351 192.144 115.007 191.184 114.791 189.624H124.103ZM114.887 187.152C114.959 186.648 115.247 186.144 115.751 185.664C116.255 185.16 116.903 184.92 117.671 184.92C119.375 184.92 120.311 186.024 120.407 187.152H114.887ZM130.414 195.24C132.118 195.24 133.39 194.616 134.254 193.392L134.302 193.416V195H137.758V187.056C137.758 183.696 135.574 181.896 132.19 181.896C129.382 181.896 127.414 182.904 126.31 184.944L129.166 186.648C129.814 185.496 130.75 184.92 132.022 184.92C133.366 184.92 134.086 185.616 134.086 186.504C134.086 187.128 133.75 187.44 133.078 187.44H131.806C130.366 187.44 129.166 187.656 127.99 188.208C126.838 188.76 126.094 189.864 126.094 191.376V191.424C126.094 192.576 126.502 193.512 127.342 194.208C128.182 194.904 129.214 195.24 130.414 195.24ZM131.494 192.504C130.534 192.504 129.862 192.072 129.862 191.208C129.862 190.248 130.726 189.744 131.806 189.744H134.062V190.032C134.062 191.448 133.102 192.504 131.494 192.504ZM148.867 191.832C148.603 191.904 148.315 191.928 148.003 191.928C146.539 191.928 145.771 191.352 145.771 189.888V185.424H148.939V182.184H145.771V178.176H142.075V182.184H139.723V185.424H142.027V190.344C142.027 193.344 143.779 195.168 147.115 195.168C147.739 195.168 148.315 195.096 148.867 194.928V191.832ZM153.599 175.392C152.351 175.392 151.295 176.448 151.295 177.72C151.295 178.992 152.351 180.024 153.599 180.024C154.919 180.024 155.951 178.992 155.951 177.72C155.951 176.4 154.919 175.392 153.599 175.392ZM155.519 195V182.184H151.751V195H155.519ZM158.178 188.616C158.178 190.536 158.85 192.12 160.194 193.392C161.538 194.664 163.194 195.288 165.162 195.288C167.106 195.288 168.762 194.64 170.13 193.368C171.498 192.072 172.17 190.464 172.17 188.544C172.17 186.648 171.498 185.088 170.154 183.816C168.81 182.544 167.154 181.896 165.21 181.896C163.266 181.896 161.586 182.544 160.218 183.84C158.85 185.112 158.178 186.72 158.178 188.616ZM162.018 188.568C162.018 187.632 162.33 186.84 162.93 186.24C163.53 185.616 164.274 185.304 165.162 185.304C166.05 185.304 166.818 185.616 167.418 186.24C168.018 186.84 168.33 187.632 168.33 188.568C168.33 190.488 166.986 191.856 165.186 191.856C164.298 191.856 163.53 191.544 162.93 190.944C162.33 190.32 162.018 189.528 162.018 188.568ZM186.837 195V187.032C186.837 185.592 186.453 184.392 185.661 183.408C184.893 182.424 183.741 181.944 182.205 181.944C181.653 181.944 180.981 181.968 179.853 182.616C179.301 182.928 178.893 183.336 178.581 183.864H178.557V182.184H174.837V195H178.581V187.896C178.581 186.48 179.373 185.4 180.885 185.4C182.349 185.4 183.117 186.384 183.117 187.896V195H186.837ZM5.328 225.24C7.032 225.24 8.304 224.616 9.168 223.392L9.216 223.416V225H12.672V217.056C12.672 213.696 10.488 211.896 7.104 211.896C4.296 211.896 2.328 212.904 1.224 214.944L4.08 216.648C4.728 215.496 5.664 214.92 6.936 214.92C8.28 214.92 9 215.616 9 216.504C9 217.128 8.664 217.44 7.992 217.44H6.72C5.28 217.44 4.08 217.656 2.904 218.208C1.752 218.76 1.008 219.864 1.008 221.376V221.424C1.008 222.576 1.416 223.512 2.256 224.208C3.096 224.904 4.128 225.24 5.328 225.24ZM6.408 222.504C5.448 222.504 4.776 222.072 4.776 221.208C4.776 220.248 5.64 219.744 6.72 219.744H8.976V220.032C8.976 221.448 8.016 222.504 6.408 222.504ZM28.0014 225V217.032C28.0014 215.592 27.6174 214.392 26.8254 213.408C26.0574 212.424 24.9054 211.944 23.3694 211.944C22.8174 211.944 22.1454 211.968 21.0174 212.616C20.4654 212.928 20.0574 213.336 19.7454 213.864H19.7214V212.184H16.0014V225H19.7454V217.896C19.7454 216.48 20.5374 215.4 22.0494 215.4C23.5134 215.4 24.2814 216.384 24.2814 217.896V225H28.0014ZM40.6896 225H44.3136V205.464H40.5936V213.648H40.5456C39.5856 212.52 38.3136 211.944 36.7056 211.944C34.9536 211.944 33.4896 212.616 32.3136 213.984C31.1376 215.328 30.5616 216.864 30.5616 218.568C30.5616 220.368 31.1376 221.952 32.2656 223.272C33.3936 224.592 34.8576 225.24 36.6576 225.24C38.4576 225.24 39.8016 224.616 40.6416 223.368H40.6896V225ZM40.6896 218.568C40.6896 219.528 40.3776 220.32 39.7776 220.944C39.1776 221.544 38.4096 221.856 37.5216 221.856C36.6336 221.856 35.8656 221.544 35.2656 220.944C34.6656 220.32 34.3536 219.528 34.3536 218.568C34.3536 216.672 35.7216 215.328 37.5216 215.328C39.3216 215.328 40.6896 216.672 40.6896 218.568ZM54.2621 206.208V225H66.1661V221.304H58.1261V206.208H54.2621ZM70.1385 205.392C68.8905 205.392 67.8345 206.448 67.8345 207.72C67.8345 208.992 68.8905 210.024 70.1385 210.024C71.4585 210.024 72.4905 208.992 72.4905 207.72C72.4905 206.4 71.4585 205.392 70.1385 205.392ZM72.0585 225V212.184H68.2905V225H72.0585ZM84.7733 231.336H88.4933V212.184H84.7973V213.648H84.7733C83.8133 212.52 82.5173 211.944 80.8853 211.944C79.1333 211.944 77.6693 212.616 76.4933 213.984C75.3173 215.328 74.7413 216.864 74.7413 218.568C74.7413 220.368 75.3173 221.952 76.4453 223.272C77.5733 224.592 79.0373 225.24 80.8372 225.24C82.5893 225.24 83.8853 224.664 84.7253 223.536H84.7733V231.336ZM84.8693 218.568C84.8693 219.528 84.5573 220.32 83.9573 220.944C83.3573 221.544 82.5893 221.856 81.7013 221.856C80.8133 221.856 80.0453 221.544 79.4453 220.944C78.8453 220.32 78.5333 219.528 78.5333 218.568C78.5333 216.672 79.9013 215.328 81.7013 215.328C83.5013 215.328 84.8693 216.672 84.8693 218.568ZM91.8424 212.184V220.224C91.8424 221.64 92.2504 222.84 93.0424 223.824C93.8584 224.784 95.0344 225.264 96.5464 225.264C98.0824 225.264 99.2824 224.64 100.122 223.416H100.146V225H103.842V212.184H100.098V219.336C100.098 220.752 99.3064 221.784 97.7944 221.784C96.2824 221.784 95.5864 220.848 95.5864 219.336V212.184H91.8424ZM109.139 205.392C107.891 205.392 106.835 206.448 106.835 207.72C106.835 208.992 107.891 210.024 109.139 210.024C110.459 210.024 111.491 208.992 111.491 207.72C111.491 206.4 110.459 205.392 109.139 205.392ZM111.059 225V212.184H107.291V225H111.059ZM123.869 225H127.493V205.464H123.773V213.648H123.725C122.765 212.52 121.493 211.944 119.885 211.944C118.133 211.944 116.669 212.616 115.493 213.984C114.317 215.328 113.741 216.864 113.741 218.568C113.741 220.368 114.317 221.952 115.445 223.272C116.573 224.592 118.037 225.24 119.837 225.24C121.637 225.24 122.981 224.616 123.821 223.368H123.869V225ZM123.869 218.568C123.869 219.528 123.557 220.32 122.957 220.944C122.357 221.544 121.589 221.856 120.701 221.856C119.813 221.856 119.045 221.544 118.445 220.944C117.845 220.32 117.533 219.528 117.533 218.568C117.533 216.672 118.901 215.328 120.701 215.328C122.501 215.328 123.869 216.672 123.869 218.568ZM132.81 205.392C131.562 205.392 130.506 206.448 130.506 207.72C130.506 208.992 131.562 210.024 132.81 210.024C134.13 210.024 135.162 208.992 135.162 207.72C135.162 206.4 134.13 205.392 132.81 205.392ZM134.73 225V212.184H130.962V225H134.73ZM146.101 221.832C145.837 221.904 145.549 221.928 145.237 221.928C143.773 221.928 143.005 221.352 143.005 219.888V215.424H146.173V212.184H143.005V208.176H139.309V212.184H136.957V215.424H139.261V220.344C139.261 223.344 141.013 225.168 144.349 225.168C144.973 225.168 145.549 225.096 146.101 224.928V221.832ZM152.97 223.632L149.826 231.312H153.834L161.61 212.184H157.746L154.89 219.504L151.698 212.184H147.57L152.97 223.632ZM183.841 212.232C183.841 210.312 183.217 208.824 181.945 207.792C180.697 206.736 179.089 206.208 177.121 206.208H170.137V225H174.025V218.376H176.977C179.041 218.376 180.697 217.848 181.945 216.816C183.217 215.76 183.841 214.224 183.841 212.232ZM179.929 212.328C179.929 213.96 178.537 214.752 176.809 214.752H174.025V209.88H176.785C178.585 209.88 179.929 210.624 179.929 212.328ZM185.061 218.616C185.061 220.536 185.733 222.12 187.077 223.392C188.421 224.664 190.077 225.288 192.045 225.288C193.989 225.288 195.645 224.64 197.013 223.368C198.381 222.072 199.053 220.464 199.053 218.544C199.053 216.648 198.381 215.088 197.037 213.816C195.693 212.544 194.037 211.896 192.093 211.896C190.149 211.896 188.469 212.544 187.101 213.84C185.733 215.112 185.061 216.72 185.061 218.616ZM188.901 218.568C188.901 217.632 189.213 216.84 189.813 216.24C190.413 215.616 191.157 215.304 192.045 215.304C192.933 215.304 193.701 215.616 194.301 216.24C194.901 216.84 195.213 217.632 195.213 218.568C195.213 220.488 193.869 221.856 192.069 221.856C191.181 221.856 190.413 221.544 189.813 220.944C189.213 220.32 188.901 219.528 188.901 218.568ZM200.928 218.616C200.928 220.536 201.6 222.12 202.944 223.392C204.288 224.664 205.944 225.288 207.912 225.288C209.856 225.288 211.512 224.64 212.88 223.368C214.248 222.072 214.92 220.464 214.92 218.544C214.92 216.648 214.248 215.088 212.904 213.816C211.56 212.544 209.904 211.896 207.96 211.896C206.016 211.896 204.336 212.544 202.968 213.84C201.6 215.112 200.928 216.72 200.928 218.616ZM204.768 218.568C204.768 217.632 205.08 216.84 205.68 216.24C206.28 215.616 207.024 215.304 207.912 215.304C208.8 215.304 209.568 215.616 210.168 216.24C210.768 216.84 211.08 217.632 211.08 218.568C211.08 220.488 209.736 221.856 207.936 221.856C207.048 221.856 206.28 221.544 205.68 220.944C205.08 220.32 204.768 219.528 204.768 218.568ZM221.355 205.44H217.587V225H221.355V205.44Z" fill="black"/>
<path d="M322.112 387.648C319.976 387.048 319.088 386.472 319.088 385.344C319.088 384.216 320.048 383.424 321.584 383.424C323.312 383.424 324.488 384.192 325.136 385.728L328.352 383.976C327.272 381.384 324.896 379.92 321.752 379.92C319.952 379.92 318.392 380.448 317.12 381.528C315.848 382.584 315.2 383.928 315.2 385.584C315.2 386.976 315.68 388.128 316.64 389.064C317.504 389.928 319.04 390.696 321.224 391.344C322.616 391.752 323.552 392.136 324.032 392.472C324.536 392.784 324.776 393.216 324.776 393.768C324.776 394.92 323.576 395.76 321.92 395.76C320.024 395.76 318.56 394.776 317.816 393.144L314.456 394.872C315.584 397.584 318.272 399.288 321.8 399.288C323.96 399.288 325.64 398.76 326.864 397.68C328.088 396.6 328.688 395.184 328.688 393.48C328.688 390.48 326.6 388.92 322.112 387.648ZM339.187 395.832C338.923 395.904 338.635 395.928 338.323 395.928C336.859 395.928 336.091 395.352 336.091 393.888V389.424H339.259V386.184H336.091V382.176H332.395V386.184H330.043V389.424H332.347V394.344C332.347 397.344 334.099 399.168 337.435 399.168C338.059 399.168 338.635 399.096 339.187 398.928V395.832ZM345.672 399.24C347.376 399.24 348.648 398.616 349.512 397.392L349.56 397.416V399H353.016V391.056C353.016 387.696 350.832 385.896 347.448 385.896C344.64 385.896 342.672 386.904 341.568 388.944L344.424 390.648C345.072 389.496 346.008 388.92 347.28 388.92C348.624 388.92 349.344 389.616 349.344 390.504C349.344 391.128 349.008 391.44 348.336 391.44H347.064C345.624 391.44 344.424 391.656 343.248 392.208C342.096 392.76 341.352 393.864 341.352 395.376V395.424C341.352 396.576 341.76 397.512 342.6 398.208C343.44 398.904 344.472 399.24 345.672 399.24ZM346.752 396.504C345.792 396.504 345.12 396.072 345.12 395.208C345.12 394.248 345.984 393.744 347.064 393.744H349.32V394.032C349.32 395.448 348.36 396.504 346.752 396.504ZM360.089 392.928H360.185L364.721 399H369.449L364.145 392.088L369.305 386.184H364.529L360.089 391.224V379.44H356.345V399H360.089V392.928ZM373.053 379.392C371.805 379.392 370.749 380.448 370.749 381.72C370.749 382.992 371.805 384.024 373.053 384.024C374.373 384.024 375.405 382.992 375.405 381.72C375.405 380.4 374.373 379.392 373.053 379.392ZM374.973 399V386.184H371.205V399H374.973ZM390.423 399V391.032C390.423 389.592 390.039 388.392 389.247 387.408C388.479 386.424 387.327 385.944 385.791 385.944C385.239 385.944 384.567 385.968 383.439 386.616C382.887 386.928 382.479 387.336 382.167 387.864H382.143V386.184H378.423V399H382.167V391.896C382.167 390.48 382.959 389.4 384.471 389.4C385.935 389.4 386.703 390.384 386.703 391.896V399H390.423ZM393.247 401.736C394.399 404.184 396.559 405.408 399.727 405.408C401.767 405.408 403.423 404.856 404.695 403.728C405.991 402.6 406.639 401.04 406.639 399.048V386.184H402.967V387.744H402.919C401.935 386.568 400.639 385.992 399.031 385.992C397.255 385.992 395.791 386.64 394.663 387.96C393.535 389.256 392.983 390.768 392.983 392.472C392.983 394.296 393.559 395.832 394.711 397.056C395.863 398.28 397.351 398.904 399.175 398.904C400.759 398.904 401.983 398.328 402.871 397.2H402.919V399.144C402.919 401.136 401.647 402.144 399.703 402.144C398.143 402.144 397.015 401.424 396.295 399.984L393.247 401.736ZM403.015 392.472C403.015 394.368 401.647 395.64 399.895 395.64C398.095 395.64 396.775 394.368 396.775 392.472C396.775 390.624 398.143 389.328 399.895 389.328C401.695 389.328 403.015 390.624 403.015 392.472ZM430.294 386.232C430.294 384.312 429.67 382.824 428.398 381.792C427.15 380.736 425.542 380.208 423.574 380.208H416.59V399H420.478V392.376H423.43C425.494 392.376 427.15 391.848 428.398 390.816C429.67 389.76 430.294 388.224 430.294 386.232ZM426.382 386.328C426.382 387.96 424.99 388.752 423.262 388.752H420.478V383.88H423.238C425.038 383.88 426.382 384.624 426.382 386.328ZM440.863 386.136C440.671 386.064 440.431 386.04 440.119 386.04C438.415 386.04 437.047 386.976 436.495 388.152H436.471V386.184H432.751V399H436.495V393.576C436.495 391.272 437.551 389.76 439.975 389.76C440.287 389.76 440.575 389.784 440.863 389.832V386.136ZM441.874 392.616C441.874 394.536 442.546 396.12 443.89 397.392C445.234 398.664 446.89 399.288 448.858 399.288C450.802 399.288 452.458 398.64 453.826 397.368C455.194 396.072 455.866 394.464 455.866 392.544C455.866 390.648 455.194 389.088 453.85 387.816C452.506 386.544 450.85 385.896 448.906 385.896C446.962 385.896 445.282 386.544 443.914 387.84C442.546 389.112 441.874 390.72 441.874 392.616ZM445.714 392.568C445.714 391.632 446.026 390.84 446.626 390.24C447.226 389.616 447.97 389.304 448.858 389.304C449.746 389.304 450.514 389.616 451.114 390.24C451.714 390.84 452.026 391.632 452.026 392.568C452.026 394.488 450.682 395.856 448.882 395.856C447.993 395.856 447.226 395.544 446.626 394.944C446.026 394.32 445.714 393.528 445.714 392.568ZM466.453 395.832C466.189 395.904 465.901 395.928 465.589 395.928C464.125 395.928 463.357 395.352 463.357 393.888V389.424H466.525V386.184H463.357V382.176H459.661V386.184H457.309V389.424H459.613V394.344C459.613 397.344 461.365 399.168 464.701 399.168C465.325 399.168 465.901 399.096 466.453 398.928V395.832ZM468.381 392.616C468.381 394.536 469.053 396.12 470.397 397.392C471.741 398.664 473.397 399.288 475.365 399.288C477.309 399.288 478.965 398.64 480.333 397.368C481.701 396.072 482.373 394.464 482.373 392.544C482.373 390.648 481.701 389.088 480.357 387.816C479.013 386.544 477.357 385.896 475.413 385.896C473.469 385.896 471.789 386.544 470.421 387.84C469.053 389.112 468.381 390.72 468.381 392.616ZM472.221 392.568C472.221 391.632 472.533 390.84 473.133 390.24C473.733 389.616 474.477 389.304 475.365 389.304C476.253 389.304 477.021 389.616 477.621 390.24C478.221 390.84 478.533 391.632 478.533 392.568C478.533 394.488 477.189 395.856 475.389 395.856C474.501 395.856 473.733 395.544 473.133 394.944C472.533 394.32 472.221 393.528 472.221 392.568ZM491.161 399.288C494.017 399.288 496.345 397.92 497.329 395.304L494.017 393.936C493.465 395.208 492.529 395.832 491.185 395.832C489.361 395.832 488.113 394.488 488.113 392.568C488.113 390.576 489.457 389.328 491.185 389.328C492.457 389.328 493.393 389.952 493.945 391.224L497.233 389.856C496.393 387.336 494.041 385.896 491.185 385.896C489.265 385.896 487.633 386.544 486.289 387.84C484.945 389.136 484.273 390.72 484.273 392.616C484.273 394.536 484.921 396.12 486.217 397.392C487.513 398.664 489.169 399.288 491.161 399.288ZM499.014 392.616C499.014 394.536 499.686 396.12 501.03 397.392C502.374 398.664 504.03 399.288 505.998 399.288C507.942 399.288 509.598 398.64 510.966 397.368C512.334 396.072 513.006 394.464 513.006 392.544C513.006 390.648 512.334 389.088 510.99 387.816C509.646 386.544 507.99 385.896 506.046 385.896C504.102 385.896 502.422 386.544 501.054 387.84C499.686 389.112 499.014 390.72 499.014 392.616ZM502.854 392.568C502.854 391.632 503.166 390.84 503.766 390.24C504.366 389.616 505.11 389.304 505.998 389.304C506.886 389.304 507.654 389.616 508.254 390.24C508.854 390.84 509.166 391.632 509.166 392.568C509.166 394.488 507.822 395.856 506.022 395.856C505.134 395.856 504.366 395.544 503.766 394.944C503.166 394.32 502.854 393.528 502.854 392.568ZM519.441 379.44H515.673V399H519.441V379.44Z" fill="black"/>
<path d="M315.032 792.616C315.032 795.328 315.968 797.608 317.864 799.48C319.76 801.352 322.04 802.288 324.752 802.288C327.464 802.288 329.768 801.352 331.664 799.456C333.584 797.56 334.544 795.232 334.544 792.52C334.544 789.832 333.608 787.552 331.712 785.704C329.84 783.856 327.56 782.92 324.848 782.92C322.136 782.92 319.832 783.856 317.912 785.752C315.992 787.648 315.032 789.928 315.032 792.616ZM320.696 788.416C321.824 787.264 323.192 786.688 324.8 786.688C326.408 786.688 327.776 787.264 328.904 788.416C330.032 789.568 330.584 790.96 330.584 792.592C330.584 794.224 330.032 795.616 328.904 796.792C327.776 797.944 326.408 798.52 324.8 798.52C323.192 798.52 321.824 797.944 320.696 796.792C319.568 795.616 319.016 794.224 319.016 792.592C319.016 790.96 319.568 789.568 320.696 788.416ZM341.034 789.184H337.314V808.336H341.058V800.584H341.106C342.018 801.688 343.29 802.24 344.898 802.24C346.698 802.24 348.162 801.568 349.338 800.224C350.514 798.856 351.09 797.32 351.09 795.568C351.09 793.84 350.514 792.304 349.386 790.96C348.258 789.616 346.794 788.944 344.994 788.944C343.29 788.944 341.97 789.544 341.082 790.768H341.034V789.184ZM340.962 795.568C340.962 794.632 341.274 793.84 341.874 793.24C342.474 792.64 343.218 792.328 344.106 792.328C344.994 792.328 345.762 792.64 346.362 793.24C346.986 793.84 347.298 794.632 347.298 795.568C347.298 796.528 346.986 797.32 346.386 797.944C345.786 798.544 345.018 798.856 344.13 798.856C343.242 798.856 342.474 798.544 341.874 797.944C341.274 797.32 340.962 796.528 340.962 795.568ZM366.103 796.624C366.127 796.336 366.151 795.88 366.151 795.28C366.151 793.384 365.551 791.824 364.375 790.648C363.199 789.472 361.663 788.872 359.767 788.872C357.919 788.872 356.311 789.52 354.967 790.84C353.647 792.16 352.975 793.72 352.975 795.568C352.975 797.536 353.647 799.144 354.991 800.416C356.359 801.664 358.015 802.288 360.007 802.288C362.623 802.288 364.447 801.328 365.527 799.384L362.815 797.608C362.239 798.544 361.087 799.144 359.959 799.144C358.351 799.144 357.007 798.184 356.791 796.624H366.103ZM356.887 794.152C356.959 793.648 357.247 793.144 357.751 792.664C358.255 792.16 358.903 791.92 359.671 791.92C361.375 791.92 362.311 793.024 362.407 794.152H356.887ZM380.814 802V794.032C380.814 792.592 380.43 791.392 379.638 790.408C378.87 789.424 377.718 788.944 376.182 788.944C375.63 788.944 374.958 788.968 373.83 789.616C373.278 789.928 372.87 790.336 372.558 790.864H372.534V789.184H368.814V802H372.558V794.896C372.558 793.48 373.35 792.4 374.862 792.4C376.326 792.4 377.094 793.384 377.094 794.896V802H380.814ZM393.79 798.136C393.79 795.904 392.086 794.632 388.846 793.96C387.718 793.72 387.166 793.336 387.166 792.784C387.166 792.28 387.742 791.848 388.51 791.848C389.59 791.848 390.358 792.256 390.838 793.072L393.55 791.464C392.71 789.904 390.982 788.872 388.606 788.872C387.262 788.872 386.11 789.256 385.126 790.024C384.166 790.768 383.686 791.752 383.686 792.928C383.686 795.016 385.198 796.408 388.246 797.08C389.878 797.44 390.286 797.824 390.286 798.328C390.286 798.832 389.662 799.264 388.726 799.264C387.334 799.264 386.374 798.736 385.846 797.704L383.086 799.336C384.118 801.304 385.99 802.288 388.678 802.288C391.846 802.288 393.79 800.608 393.79 798.136ZM408.759 796.624C408.783 796.336 408.807 795.88 408.807 795.28C408.807 793.384 408.207 791.824 407.031 790.648C405.855 789.472 404.319 788.872 402.423 788.872C400.575 788.872 398.967 789.52 397.623 790.84C396.303 792.16 395.631 793.72 395.631 795.568C395.631 797.536 396.303 799.144 397.647 800.416C399.015 801.664 400.671 802.288 402.663 802.288C405.279 802.288 407.103 801.328 408.183 799.384L405.471 797.608C404.895 798.544 403.743 799.144 402.615 799.144C401.007 799.144 399.663 798.184 399.447 796.624H408.759ZM399.543 794.152C399.615 793.648 399.903 793.144 400.407 792.664C400.911 792.16 401.559 791.92 402.327 791.92C404.031 791.92 404.967 793.024 405.063 794.152H399.543ZM415.07 802.24C416.774 802.24 418.046 801.616 418.91 800.392L418.958 800.416V802H422.414V794.056C422.414 790.696 420.23 788.896 416.846 788.896C414.038 788.896 412.07 789.904 410.966 791.944L413.822 793.648C414.47 792.496 415.406 791.92 416.678 791.92C418.022 791.92 418.742 792.616 418.742 793.504C418.742 794.128 418.406 794.44 417.734 794.44H416.462C415.022 794.44 413.822 794.656 412.646 795.208C411.494 795.76 410.75 796.864 410.75 798.376V798.424C410.75 799.576 411.158 800.512 411.998 801.208C412.838 801.904 413.87 802.24 415.07 802.24ZM416.15 799.504C415.19 799.504 414.518 799.072 414.518 798.208C414.518 797.248 415.382 796.744 416.462 796.744H418.718V797.032C418.718 798.448 417.758 799.504 416.15 799.504ZM445.927 789.232C445.927 787.312 445.303 785.824 444.031 784.792C442.783 783.736 441.175 783.208 439.207 783.208H432.223V802H436.111V795.376H439.063C441.127 795.376 442.783 794.848 444.031 793.816C445.303 792.76 445.927 791.224 445.927 789.232ZM442.015 789.328C442.015 790.96 440.623 791.752 438.895 791.752H436.111V786.88H438.871C440.671 786.88 442.015 787.624 442.015 789.328ZM456.496 789.136C456.304 789.064 456.064 789.04 455.752 789.04C454.048 789.04 452.68 789.976 452.128 791.152H452.104V789.184H448.384V802H452.128V796.576C452.128 794.272 453.184 792.76 455.608 792.76C455.92 792.76 456.208 792.784 456.496 792.832V789.136ZM457.506 795.616C457.506 797.536 458.178 799.12 459.522 800.392C460.866 801.664 462.522 802.288 464.49 802.288C466.434 802.288 468.09 801.64 469.458 800.368C470.826 799.072 471.498 797.464 471.498 795.544C471.498 793.648 470.826 792.088 469.482 790.816C468.138 789.544 466.482 788.896 464.538 788.896C462.594 788.896 460.914 789.544 459.546 790.84C458.178 792.112 457.506 793.72 457.506 795.616ZM461.346 795.568C461.346 794.632 461.658 793.84 462.258 793.24C462.858 792.616 463.602 792.304 464.49 792.304C465.378 792.304 466.146 792.616 466.746 793.24C467.346 793.84 467.658 794.632 467.658 795.568C467.658 797.488 466.314 798.856 464.514 798.856C463.626 798.856 462.858 798.544 462.258 797.944C461.658 797.32 461.346 796.528 461.346 795.568ZM482.086 798.832C481.822 798.904 481.534 798.928 481.222 798.928C479.758 798.928 478.99 798.352 478.99 796.888V792.424H482.158V789.184H478.99V785.176H475.294V789.184H472.942V792.424H475.246V797.344C475.246 800.344 476.998 802.168 480.334 802.168C480.958 802.168 481.534 802.096 482.086 801.928V798.832ZM484.014 795.616C484.014 797.536 484.686 799.12 486.03 800.392C487.374 801.664 489.03 802.288 490.998 802.288C492.942 802.288 494.598 801.64 495.966 800.368C497.334 799.072 498.006 797.464 498.006 795.544C498.006 793.648 497.334 792.088 495.99 790.816C494.646 789.544 492.99 788.896 491.046 788.896C489.102 788.896 487.422 789.544 486.054 790.84C484.686 792.112 484.014 793.72 484.014 795.616ZM487.854 795.568C487.854 794.632 488.166 793.84 488.766 793.24C489.366 792.616 490.11 792.304 490.998 792.304C491.886 792.304 492.654 792.616 493.254 793.24C493.854 793.84 494.166 794.632 494.166 795.568C494.166 797.488 492.822 798.856 491.022 798.856C490.134 798.856 489.366 798.544 488.766 797.944C488.166 797.32 487.854 796.528 487.854 795.568ZM506.793 802.288C509.649 802.288 511.977 800.92 512.961 798.304L509.649 796.936C509.097 798.208 508.161 798.832 506.817 798.832C504.993 798.832 503.745 797.488 503.745 795.568C503.745 793.576 505.089 792.328 506.817 792.328C508.089 792.328 509.025 792.952 509.577 794.224L512.865 792.856C512.025 790.336 509.673 788.896 506.817 788.896C504.897 788.896 503.265 789.544 501.921 790.84C500.577 792.136 499.905 793.72 499.905 795.616C499.905 797.536 500.553 799.12 501.849 800.392C503.145 801.664 504.801 802.288 506.793 802.288ZM514.647 795.616C514.647 797.536 515.319 799.12 516.663 800.392C518.007 801.664 519.663 802.288 521.631 802.288C523.575 802.288 525.231 801.64 526.599 800.368C527.967 799.072 528.639 797.464 528.639 795.544C528.639 793.648 527.967 792.088 526.623 790.816C525.279 789.544 523.623 788.896 521.679 788.896C519.735 788.896 518.055 789.544 516.687 790.84C515.319 792.112 514.647 793.72 514.647 795.616ZM518.487 795.568C518.487 794.632 518.799 793.84 519.399 793.24C519.999 792.616 520.743 792.304 521.631 792.304C522.519 792.304 523.287 792.616 523.887 793.24C524.487 793.84 524.799 794.632 524.799 795.568C524.799 797.488 523.455 798.856 521.655 798.856C520.767 798.856 519.999 798.544 519.399 797.944C518.799 797.32 518.487 796.528 518.487 795.568ZM535.074 782.44H531.306V802H535.074V782.44ZM537.733 795.616C537.733 797.536 538.405 799.12 539.749 800.392C541.093 801.664 542.749 802.288 544.717 802.288C546.661 802.288 548.317 801.64 549.685 800.368C551.053 799.072 551.725 797.464 551.725 795.544C551.725 793.648 551.053 792.088 549.709 790.816C548.365 789.544 546.709 788.896 544.765 788.896C542.821 788.896 541.141 789.544 539.773 790.84C538.405 792.112 537.733 793.72 537.733 795.616ZM541.573 795.568C541.573 794.632 541.885 793.84 542.485 793.24C543.085 792.616 543.829 792.304 544.717 792.304C545.605 792.304 546.373 792.616 546.973 793.24C547.573 793.84 547.885 794.632 547.885 795.568C547.885 797.488 546.541 798.856 544.741 798.856C543.853 798.856 543.085 798.544 542.485 797.944C541.885 797.32 541.573 796.528 541.573 795.568ZM320.072 813.208H316.184V832H320.072V813.208ZM336.001 832V824.032C336.001 822.592 335.617 821.392 334.825 820.408C334.057 819.424 332.905 818.944 331.369 818.944C330.817 818.944 330.145 818.968 329.017 819.616C328.465 819.928 328.057 820.336 327.745 820.864H327.721V819.184H324.001V832H327.745V824.896C327.745 823.48 328.537 822.4 330.049 822.4C331.513 822.4 332.281 823.384 332.281 824.896V832H336.001ZM347.109 828.832C346.845 828.904 346.557 828.928 346.245 828.928C344.781 828.928 344.013 828.352 344.013 826.888V822.424H347.181V819.184H344.013V815.176H340.317V819.184H337.965V822.424H340.269V827.344C340.269 830.344 342.021 832.168 345.357 832.168C345.981 832.168 346.557 832.096 347.109 831.928V828.832ZM362.166 826.624C362.19 826.336 362.214 825.88 362.214 825.28C362.214 823.384 361.614 821.824 360.438 820.648C359.262 819.472 357.726 818.872 355.83 818.872C353.982 818.872 352.374 819.52 351.03 820.84C349.71 822.16 349.038 823.72 349.038 825.568C349.038 827.536 349.71 829.144 351.054 830.416C352.422 831.664 354.078 832.288 356.07 832.288C358.686 832.288 360.51 831.328 361.59 829.384L358.878 827.608C358.302 828.544 357.15 829.144 356.022 829.144C354.414 829.144 353.07 828.184 352.854 826.624H362.166ZM352.95 824.152C353.022 823.648 353.31 823.144 353.814 822.664C354.318 822.16 354.966 821.92 355.734 821.92C357.438 821.92 358.374 823.024 358.47 824.152H352.95ZM364.372 834.736C365.524 837.184 367.684 838.408 370.852 838.408C372.892 838.408 374.548 837.856 375.82 836.728C377.116 835.6 377.764 834.04 377.764 832.048V819.184H374.092V820.744H374.044C373.06 819.568 371.764 818.992 370.156 818.992C368.38 818.992 366.916 819.64 365.788 820.96C364.66 822.256 364.108 823.768 364.108 825.472C364.108 827.296 364.684 828.832 365.836 830.056C366.988 831.28 368.476 831.904 370.3 831.904C371.884 831.904 373.108 831.328 373.996 830.2H374.044V832.144C374.044 834.136 372.772 835.144 370.828 835.144C369.268 835.144 368.14 834.424 367.42 832.984L364.372 834.736ZM374.14 825.472C374.14 827.368 372.772 828.64 371.02 828.64C369.22 828.64 367.9 827.368 367.9 825.472C367.9 823.624 369.268 822.328 371.02 822.328C372.82 822.328 374.14 823.624 374.14 825.472ZM389.348 819.136C389.156 819.064 388.916 819.04 388.604 819.04C386.9 819.04 385.532 819.976 384.98 821.152H384.956V819.184H381.236V832H384.98V826.576C384.98 824.272 386.036 822.76 388.46 822.76C388.772 822.76 389.06 822.784 389.348 822.832V819.136ZM394.75 832.24C396.454 832.24 397.726 831.616 398.59 830.392L398.638 830.416V832H402.094V824.056C402.094 820.696 399.91 818.896 396.526 818.896C393.718 818.896 391.75 819.904 390.646 821.944L393.502 823.648C394.15 822.496 395.086 821.92 396.358 821.92C397.702 821.92 398.422 822.616 398.422 823.504C398.422 824.128 398.086 824.44 397.414 824.44H396.142C394.702 824.44 393.502 824.656 392.326 825.208C391.174 825.76 390.43 826.864 390.43 828.376V828.424C390.43 829.576 390.838 830.512 391.678 831.208C392.518 831.904 393.55 832.24 394.75 832.24ZM395.83 829.504C394.87 829.504 394.198 829.072 394.198 828.208C394.198 827.248 395.062 826.744 396.142 826.744H398.398V827.032C398.398 828.448 397.438 829.504 395.83 829.504ZM413.203 828.832C412.939 828.904 412.651 828.928 412.339 828.928C410.875 828.928 410.107 828.352 410.107 826.888V822.424H413.275V819.184H410.107V815.176H406.411V819.184H404.059V822.424H406.363V827.344C406.363 830.344 408.115 832.168 411.451 832.168C412.075 832.168 412.651 832.096 413.203 831.928V828.832ZM417.935 812.392C416.687 812.392 415.631 813.448 415.631 814.72C415.631 815.992 416.687 817.024 417.935 817.024C419.255 817.024 420.287 815.992 420.287 814.72C420.287 813.4 419.255 812.392 417.935 812.392ZM419.855 832V819.184H416.087V832H419.855ZM422.514 825.616C422.514 827.536 423.186 829.12 424.53 830.392C425.874 831.664 427.53 832.288 429.498 832.288C431.442 832.288 433.098 831.64 434.466 830.368C435.834 829.072 436.506 827.464 436.506 825.544C436.506 823.648 435.834 822.088 434.49 820.816C433.146 819.544 431.49 818.896 429.546 818.896C427.602 818.896 425.922 819.544 424.554 820.84C423.186 822.112 422.514 823.72 422.514 825.616ZM426.354 825.568C426.354 824.632 426.666 823.84 427.266 823.24C427.866 822.616 428.61 822.304 429.498 822.304C430.386 822.304 431.154 822.616 431.754 823.24C432.354 823.84 432.666 824.632 432.666 825.568C432.666 827.488 431.322 828.856 429.522 828.856C428.634 828.856 427.866 828.544 427.266 827.944C426.666 827.32 426.354 826.528 426.354 825.568ZM451.173 832V824.032C451.173 822.592 450.789 821.392 449.997 820.408C449.229 819.424 448.077 818.944 446.541 818.944C445.989 818.944 445.317 818.968 444.189 819.616C443.637 819.928 443.229 820.336 442.917 820.864H442.893V819.184H439.173V832H442.917V824.896C442.917 823.48 443.709 822.4 445.221 822.4C446.685 822.4 447.453 823.384 447.453 824.896V832H451.173Z" fill="black"/>
<path d="M315.032 1202.62C315.032 1205.33 315.968 1207.61 317.864 1209.48C319.76 1211.35 322.04 1212.29 324.752 1212.29C327.464 1212.29 329.768 1211.35 331.664 1209.46C333.584 1207.56 334.544 1205.23 334.544 1202.52C334.544 1199.83 333.608 1197.55 331.712 1195.7C329.84 1193.86 327.56 1192.92 324.848 1192.92C322.136 1192.92 319.832 1193.86 317.912 1195.75C315.992 1197.65 315.032 1199.93 315.032 1202.62ZM320.696 1198.42C321.824 1197.26 323.192 1196.69 324.8 1196.69C326.408 1196.69 327.776 1197.26 328.904 1198.42C330.032 1199.57 330.584 1200.96 330.584 1202.59C330.584 1204.22 330.032 1205.62 328.904 1206.79C327.776 1207.94 326.408 1208.52 324.8 1208.52C323.192 1208.52 321.824 1207.94 320.696 1206.79C319.568 1205.62 319.016 1204.22 319.016 1202.59C319.016 1200.96 319.568 1199.57 320.696 1198.42ZM341.034 1199.18H337.314V1218.34H341.058V1210.58H341.106C342.018 1211.69 343.29 1212.24 344.898 1212.24C346.698 1212.24 348.162 1211.57 349.338 1210.22C350.514 1208.86 351.09 1207.32 351.09 1205.57C351.09 1203.84 350.514 1202.3 349.386 1200.96C348.258 1199.62 346.794 1198.94 344.994 1198.94C343.29 1198.94 341.97 1199.54 341.082 1200.77H341.034V1199.18ZM340.962 1205.57C340.962 1204.63 341.274 1203.84 341.874 1203.24C342.474 1202.64 343.218 1202.33 344.106 1202.33C344.994 1202.33 345.762 1202.64 346.362 1203.24C346.986 1203.84 347.298 1204.63 347.298 1205.57C347.298 1206.53 346.986 1207.32 346.386 1207.94C345.786 1208.54 345.018 1208.86 344.13 1208.86C343.242 1208.86 342.474 1208.54 341.874 1207.94C341.274 1207.32 340.962 1206.53 340.962 1205.57ZM366.103 1206.62C366.127 1206.34 366.151 1205.88 366.151 1205.28C366.151 1203.38 365.551 1201.82 364.375 1200.65C363.199 1199.47 361.663 1198.87 359.767 1198.87C357.919 1198.87 356.311 1199.52 354.967 1200.84C353.647 1202.16 352.975 1203.72 352.975 1205.57C352.975 1207.54 353.647 1209.14 354.991 1210.42C356.359 1211.66 358.015 1212.29 360.007 1212.29C362.623 1212.29 364.447 1211.33 365.527 1209.38L362.815 1207.61C362.239 1208.54 361.087 1209.14 359.959 1209.14C358.351 1209.14 357.007 1208.18 356.791 1206.62H366.103ZM356.887 1204.15C356.959 1203.65 357.247 1203.14 357.751 1202.66C358.255 1202.16 358.903 1201.92 359.671 1201.92C361.375 1201.92 362.311 1203.02 362.407 1204.15H356.887ZM380.814 1212V1204.03C380.814 1202.59 380.43 1201.39 379.638 1200.41C378.87 1199.42 377.718 1198.94 376.182 1198.94C375.63 1198.94 374.958 1198.97 373.83 1199.62C373.278 1199.93 372.87 1200.34 372.558 1200.86H372.534V1199.18H368.814V1212H372.558V1204.9C372.558 1203.48 373.35 1202.4 374.862 1202.4C376.326 1202.4 377.094 1203.38 377.094 1204.9V1212H380.814ZM391.74 1212L393.132 1208.21H401.46L402.876 1212H406.884L399.684 1193.21H395.004L387.828 1212H391.74ZM397.308 1196.98L400.14 1204.61H394.476L397.308 1196.98ZM422.747 1199.23C422.747 1197.31 422.123 1195.82 420.851 1194.79C419.603 1193.74 417.995 1193.21 416.027 1193.21H409.043V1212H412.931V1205.38H415.883C417.947 1205.38 419.603 1204.85 420.851 1203.82C422.123 1202.76 422.747 1201.22 422.747 1199.23ZM418.835 1199.33C418.835 1200.96 417.443 1201.75 415.715 1201.75H412.931V1196.88H415.691C417.491 1196.88 418.835 1197.62 418.835 1199.33ZM429.549 1193.21H425.661V1212H429.549V1193.21ZM454.405 1212L450.157 1204.66C452.725 1203.72 454.021 1201.9 454.021 1199.16C454.021 1197.26 453.397 1195.8 452.125 1194.77C450.877 1193.74 449.293 1193.21 447.373 1193.21H439.957V1212H443.845V1205.26H446.197L450.085 1212H454.405ZM443.845 1196.88H447.061C448.765 1196.88 450.085 1197.58 450.085 1199.23C450.085 1200.86 448.717 1201.66 447.085 1201.66H443.845V1196.88ZM469.064 1206.62C469.088 1206.34 469.112 1205.88 469.112 1205.28C469.112 1203.38 468.512 1201.82 467.336 1200.65C466.16 1199.47 464.624 1198.87 462.728 1198.87C460.88 1198.87 459.272 1199.52 457.928 1200.84C456.608 1202.16 455.936 1203.72 455.936 1205.57C455.936 1207.54 456.608 1209.14 457.952 1210.42C459.32 1211.66 460.976 1212.29 462.968 1212.29C465.584 1212.29 467.408 1211.33 468.488 1209.38L465.776 1207.61C465.2 1208.54 464.048 1209.14 462.92 1209.14C461.312 1209.14 459.968 1208.18 459.752 1206.62H469.064ZM459.848 1204.15C459.92 1203.65 460.208 1203.14 460.712 1202.66C461.216 1202.16 461.864 1201.92 462.632 1201.92C464.336 1201.92 465.272 1203.02 465.368 1204.15H459.848ZM475.543 1192.44H471.775V1212H475.543V1192.44ZM491.33 1206.62C491.354 1206.34 491.378 1205.88 491.378 1205.28C491.378 1203.38 490.778 1201.82 489.602 1200.65C488.426 1199.47 486.89 1198.87 484.994 1198.87C483.146 1198.87 481.538 1199.52 480.194 1200.84C478.874 1202.16 478.202 1203.72 478.202 1205.57C478.202 1207.54 478.874 1209.14 480.218 1210.42C481.586 1211.66 483.242 1212.29 485.234 1212.29C487.85 1212.29 489.674 1211.33 490.754 1209.38L488.042 1207.61C487.466 1208.54 486.314 1209.14 485.186 1209.14C483.578 1209.14 482.234 1208.18 482.018 1206.62H491.33ZM482.114 1204.15C482.186 1203.65 482.474 1203.14 482.978 1202.66C483.482 1202.16 484.13 1201.92 484.898 1201.92C486.602 1201.92 487.538 1203.02 487.634 1204.15H482.114ZM497.641 1212.24C499.345 1212.24 500.617 1211.62 501.481 1210.39L501.529 1210.42V1212H504.984V1204.06C504.984 1200.7 502.801 1198.9 499.417 1198.9C496.609 1198.9 494.641 1199.9 493.537 1201.94L496.393 1203.65C497.041 1202.5 497.977 1201.92 499.249 1201.92C500.593 1201.92 501.313 1202.62 501.313 1203.5C501.313 1204.13 500.977 1204.44 500.305 1204.44H499.033C497.593 1204.44 496.393 1204.66 495.217 1205.21C494.065 1205.76 493.321 1206.86 493.321 1208.38V1208.42C493.321 1209.58 493.729 1210.51 494.569 1211.21C495.409 1211.9 496.441 1212.24 497.641 1212.24ZM498.721 1209.5C497.761 1209.5 497.089 1209.07 497.089 1208.21C497.089 1207.25 497.953 1206.74 499.033 1206.74H501.289V1207.03C501.289 1208.45 500.329 1209.5 498.721 1209.5ZM517.962 1208.14C517.962 1205.9 516.258 1204.63 513.018 1203.96C511.89 1203.72 511.338 1203.34 511.338 1202.78C511.338 1202.28 511.914 1201.85 512.682 1201.85C513.762 1201.85 514.53 1202.26 515.01 1203.07L517.722 1201.46C516.882 1199.9 515.154 1198.87 512.778 1198.87C511.434 1198.87 510.282 1199.26 509.298 1200.02C508.338 1200.77 507.858 1201.75 507.858 1202.93C507.858 1205.02 509.37 1206.41 512.418 1207.08C514.05 1207.44 514.458 1207.82 514.458 1208.33C514.458 1208.83 513.834 1209.26 512.898 1209.26C511.506 1209.26 510.546 1208.74 510.018 1207.7L507.258 1209.34C508.29 1211.3 510.162 1212.29 512.85 1212.29C516.018 1212.29 517.962 1210.61 517.962 1208.14ZM532.931 1206.62C532.955 1206.34 532.979 1205.88 532.979 1205.28C532.979 1203.38 532.379 1201.82 531.203 1200.65C530.027 1199.47 528.491 1198.87 526.595 1198.87C524.747 1198.87 523.139 1199.52 521.795 1200.84C520.475 1202.16 519.803 1203.72 519.803 1205.57C519.803 1207.54 520.475 1209.14 521.819 1210.42C523.187 1211.66 524.843 1212.29 526.835 1212.29C529.451 1212.29 531.275 1211.33 532.355 1209.38L529.643 1207.61C529.067 1208.54 527.915 1209.14 526.787 1209.14C525.179 1209.14 523.835 1208.18 523.619 1206.62H532.931ZM523.715 1204.15C523.787 1203.65 524.075 1203.14 524.579 1202.66C525.083 1202.16 525.731 1201.92 526.499 1201.92C528.203 1201.92 529.139 1203.02 529.235 1204.15H523.715Z" fill="black"/>
<path d="M13.888 597L15.28 593.208H23.608L25.024 597H29.032L21.832 578.208H17.152L9.976 597H13.888ZM19.456 581.976L22.288 589.608H16.624L19.456 581.976ZM34.5038 577.44H30.7358V597H34.5038V577.44ZM41.7226 577.44H37.9546V597H41.7226V577.44ZM44.3813 590.616C44.3813 592.536 45.0533 594.12 46.3973 595.392C47.7413 596.664 49.3973 597.288 51.3653 597.288C53.3093 597.288 54.9653 596.64 56.3333 595.368C57.7013 594.072 58.3733 592.464 58.3733 590.544C58.3733 588.648 57.7013 587.088 56.3573 585.816C55.0133 584.544 53.3573 583.896 51.4133 583.896C49.4693 583.896 47.7893 584.544 46.4213 585.84C45.0533 587.112 44.3813 588.72 44.3813 590.616ZM48.2213 590.568C48.2213 589.632 48.5333 588.84 49.1333 588.24C49.7333 587.616 50.4773 587.304 51.3653 587.304C52.2533 587.304 53.0213 587.616 53.6213 588.24C54.2213 588.84 54.5333 589.632 54.5333 590.568C54.5333 592.488 53.1893 593.856 51.3893 593.856C50.5013 593.856 49.7333 593.544 49.1333 592.944C48.5333 592.32 48.2213 591.528 48.2213 590.568ZM67.1605 597.288C70.0165 597.288 72.3445 595.92 73.3285 593.304L70.0165 591.936C69.4645 593.208 68.5285 593.832 67.1845 593.832C65.3605 593.832 64.1125 592.488 64.1125 590.568C64.1125 588.576 65.4565 587.328 67.1845 587.328C68.4565 587.328 69.3925 587.952 69.9445 589.224L73.2325 587.856C72.3925 585.336 70.0405 583.896 67.1845 583.896C65.2645 583.896 63.6325 584.544 62.2885 585.84C60.9445 587.136 60.2725 588.72 60.2725 590.616C60.2725 592.536 60.9205 594.12 62.2165 595.392C63.5125 596.664 65.1685 597.288 67.1605 597.288ZM79.4061 597.24C81.1101 597.24 82.3821 596.616 83.2461 595.392L83.2941 595.416V597H86.7501V589.056C86.7501 585.696 84.5661 583.896 81.1821 583.896C78.3741 583.896 76.4061 584.904 75.3021 586.944L78.1581 588.648C78.8061 587.496 79.7421 586.92 81.0141 586.92C82.3581 586.92 83.0781 587.616 83.0781 588.504C83.0781 589.128 82.7421 589.44 82.0701 589.44H80.7981C79.3581 589.44 78.1581 589.656 76.9821 590.208C75.8301 590.76 75.0861 591.864 75.0861 593.376V593.424C75.0861 594.576 75.4941 595.512 76.3341 596.208C77.1741 596.904 78.2061 597.24 79.4061 597.24ZM80.4861 594.504C79.5261 594.504 78.8541 594.072 78.8541 593.208C78.8541 592.248 79.7181 591.744 80.7981 591.744H83.0541V592.032C83.0541 593.448 82.0941 594.504 80.4861 594.504ZM97.8589 593.832C97.5949 593.904 97.3069 593.928 96.9949 593.928C95.5309 593.928 94.7629 593.352 94.7629 591.888V587.424H97.9309V584.184H94.7629V580.176H91.0669V584.184H88.7149V587.424H91.0189V592.344C91.0189 595.344 92.7709 597.168 96.1069 597.168C96.7309 597.168 97.3069 597.096 97.8589 596.928V593.832ZM102.592 577.392C101.344 577.392 100.288 578.448 100.288 579.72C100.288 580.992 101.344 582.024 102.592 582.024C103.912 582.024 104.944 580.992 104.944 579.72C104.944 578.4 103.912 577.392 102.592 577.392ZM104.512 597V584.184H100.744V597H104.512ZM107.17 590.616C107.17 592.536 107.842 594.12 109.186 595.392C110.53 596.664 112.186 597.288 114.154 597.288C116.098 597.288 117.754 596.64 119.122 595.368C120.49 594.072 121.162 592.464 121.162 590.544C121.162 588.648 120.49 587.088 119.146 585.816C117.802 584.544 116.146 583.896 114.202 583.896C112.258 583.896 110.578 584.544 109.21 585.84C107.842 587.112 107.17 588.72 107.17 590.616ZM111.01 590.568C111.01 589.632 111.322 588.84 111.922 588.24C112.522 587.616 113.266 587.304 114.154 587.304C115.042 587.304 115.81 587.616 116.41 588.24C117.01 588.84 117.322 589.632 117.322 590.568C117.322 592.488 115.978 593.856 114.178 593.856C113.29 593.856 112.522 593.544 111.922 592.944C111.322 592.32 111.01 591.528 111.01 590.568ZM135.83 597V589.032C135.83 587.592 135.446 586.392 134.654 585.408C133.886 584.424 132.734 583.944 131.198 583.944C130.646 583.944 129.974 583.968 128.846 584.616C128.294 584.928 127.886 585.336 127.574 585.864H127.55V584.184H123.83V597H127.574V589.896C127.574 588.48 128.366 587.4 129.878 587.4C131.342 587.4 132.11 588.384 132.11 589.896V597H135.83ZM25.888 614.232C25.888 612.312 25.264 610.824 23.992 609.792C22.744 608.736 21.136 608.208 19.168 608.208H12.184V627H16.072V620.376H19.024C21.088 620.376 22.744 619.848 23.992 618.816C25.264 617.76 25.888 616.224 25.888 614.232ZM21.976 614.328C21.976 615.96 20.584 616.752 18.856 616.752H16.072V611.88H18.832C20.632 611.88 21.976 612.624 21.976 614.328ZM36.4572 614.136C36.2652 614.064 36.0252 614.04 35.7132 614.04C34.0092 614.04 32.6412 614.976 32.0892 616.152H32.0652V614.184H28.3452V627H32.0892V621.576C32.0892 619.272 33.1452 617.76 35.5692 617.76C35.8812 617.76 36.1692 617.784 36.4572 617.832V614.136ZM37.4673 620.616C37.4673 622.536 38.1393 624.12 39.4833 625.392C40.8273 626.664 42.4833 627.288 44.4513 627.288C46.3953 627.288 48.0513 626.64 49.4193 625.368C50.7873 624.072 51.4593 622.464 51.4593 620.544C51.4593 618.648 50.7873 617.088 49.4433 615.816C48.0993 614.544 46.4433 613.896 44.4993 613.896C42.5553 613.896 40.8753 614.544 39.5073 615.84C38.1393 617.112 37.4673 618.72 37.4673 620.616ZM41.3073 620.568C41.3073 619.632 41.6193 618.84 42.2193 618.24C42.8193 617.616 43.5633 617.304 44.4513 617.304C45.3393 617.304 46.1073 617.616 46.7073 618.24C47.3073 618.84 47.6193 619.632 47.6193 620.568C47.6193 622.488 46.2753 623.856 44.4753 623.856C43.5872 623.856 42.8193 623.544 42.2193 622.944C41.6193 622.32 41.3073 621.528 41.3073 620.568ZM62.0464 623.832C61.7824 623.904 61.4944 623.928 61.1824 623.928C59.7184 623.928 58.9504 623.352 58.9504 621.888V617.424H62.1184V614.184H58.9504V610.176H55.2544V614.184H52.9024V617.424H55.2064V622.344C55.2064 625.344 56.9584 627.168 60.2944 627.168C60.9184 627.168 61.4944 627.096 62.0464 626.928V623.832ZM63.9751 620.616C63.9751 622.536 64.6471 624.12 65.9911 625.392C67.3351 626.664 68.9911 627.288 70.9591 627.288C72.9031 627.288 74.5591 626.64 75.9271 625.368C77.2951 624.072 77.9671 622.464 77.9671 620.544C77.9671 618.648 77.2951 617.088 75.9511 615.816C74.6071 614.544 72.9511 613.896 71.0071 613.896C69.0631 613.896 67.3831 614.544 66.0151 615.84C64.6471 617.112 63.9751 618.72 63.9751 620.616ZM67.8151 620.568C67.8151 619.632 68.1271 618.84 68.7271 618.24C69.3271 617.616 70.0711 617.304 70.9591 617.304C71.8471 617.304 72.6151 617.616 73.2151 618.24C73.8151 618.84 74.1271 619.632 74.1271 620.568C74.1271 622.488 72.7831 623.856 70.9831 623.856C70.0951 623.856 69.3271 623.544 68.7271 622.944C68.1271 622.32 67.8151 621.528 67.8151 620.568ZM86.7543 627.288C89.6103 627.288 91.9383 625.92 92.9223 623.304L89.6103 621.936C89.0583 623.208 88.1223 623.832 86.7783 623.832C84.9543 623.832 83.7063 622.488 83.7063 620.568C83.7063 618.576 85.0503 617.328 86.7783 617.328C88.0503 617.328 88.9863 617.952 89.5383 619.224L92.8263 617.856C91.9863 615.336 89.6343 613.896 86.7783 613.896C84.8583 613.896 83.2263 614.544 81.8823 615.84C80.5383 617.136 79.8663 618.72 79.8663 620.616C79.8663 622.536 80.5143 624.12 81.8103 625.392C83.1063 626.664 84.7623 627.288 86.7543 627.288ZM94.6079 620.616C94.6079 622.536 95.2799 624.12 96.6239 625.392C97.9679 626.664 99.6239 627.288 101.592 627.288C103.536 627.288 105.192 626.64 106.56 625.368C107.928 624.072 108.6 622.464 108.6 620.544C108.6 618.648 107.928 617.088 106.584 615.816C105.24 614.544 103.584 613.896 101.64 613.896C99.6959 613.896 98.0159 614.544 96.6479 615.84C95.2799 617.112 94.6079 618.72 94.6079 620.616ZM98.4479 620.568C98.4479 619.632 98.7599 618.84 99.3599 618.24C99.9599 617.616 100.704 617.304 101.592 617.304C102.48 617.304 103.248 617.616 103.848 618.24C104.448 618.84 104.76 619.632 104.76 620.568C104.76 622.488 103.416 623.856 101.616 623.856C100.728 623.856 99.9599 623.544 99.3599 622.944C98.7599 622.32 98.4479 621.528 98.4479 620.568ZM115.035 607.44H111.267V627H115.035V607.44Z" fill="black"/>
<path d="M10.36 983.208L17.152 1002H21.64L28.456 983.208H24.328L19.432 997.488L14.56 983.208H10.36ZM31.0043 983.208V1002H42.9083V998.304H34.8683V983.208H31.0043ZM60.1047 996.816C60.1047 994.416 58.9767 993.096 56.6487 992.232V992.184C58.4007 991.272 59.2887 989.928 59.2887 988.176C59.2887 986.592 58.6887 985.368 57.5127 984.504C56.3367 983.64 54.9447 983.208 53.2887 983.208H45.4887V1002H53.4087C56.6967 1002 60.1047 1000.63 60.1047 996.816ZM55.4727 988.776C55.4727 990.144 54.4887 990.84 52.4967 990.84H49.2807V986.784H52.7607C54.2967 986.784 55.4727 987.336 55.4727 988.776ZM56.3127 996.312C56.3127 997.704 55.3287 998.4 53.3607 998.4H49.2807V994.2H53.2407C55.2807 994.2 56.3127 994.896 56.3127 996.312ZM62.1961 992.616C62.1961 995.328 63.1321 997.608 65.0281 999.48C66.9241 1001.35 69.2041 1002.29 71.9161 1002.29C74.6281 1002.29 76.9321 1001.35 78.8281 999.456C80.7481 997.56 81.7081 995.232 81.7081 992.52C81.7081 989.832 80.7721 987.552 78.8761 985.704C77.0041 983.856 74.7241 982.92 72.0121 982.92C69.3001 982.92 66.9961 983.856 65.0761 985.752C63.1561 987.648 62.1961 989.928 62.1961 992.616ZM67.8601 988.416C68.9881 987.264 70.3561 986.688 71.9641 986.688C73.5721 986.688 74.9401 987.264 76.0681 988.416C77.1961 989.568 77.7481 990.96 77.7481 992.592C77.7481 994.224 77.1961 995.616 76.0681 996.792C74.9401 997.944 73.5721 998.52 71.9641 998.52C70.3561 998.52 68.9881 997.944 67.8601 996.792C66.7321 995.616 66.1801 994.224 66.1801 992.592C66.1801 990.96 66.7321 989.568 67.8601 988.416ZM104.661 989.232C104.661 987.312 104.037 985.824 102.765 984.792C101.517 983.736 99.9094 983.208 97.9414 983.208H90.9574V1002H94.8454V995.376H97.7974C99.8614 995.376 101.517 994.848 102.765 993.816C104.037 992.76 104.661 991.224 104.661 989.232ZM100.749 989.328C100.749 990.96 99.3574 991.752 97.6294 991.752H94.8454V986.88H97.6054C99.4054 986.88 100.749 987.624 100.749 989.328ZM115.231 989.136C115.039 989.064 114.799 989.04 114.487 989.04C112.783 989.04 111.415 989.976 110.863 991.152H110.839V989.184H107.119V1002H110.863V996.576C110.863 994.272 111.919 992.76 114.343 992.76C114.655 992.76 114.943 992.784 115.231 992.832V989.136ZM116.241 995.616C116.241 997.536 116.913 999.12 118.257 1000.39C119.601 1001.66 121.257 1002.29 123.225 1002.29C125.169 1002.29 126.825 1001.64 128.193 1000.37C129.561 999.072 130.233 997.464 130.233 995.544C130.233 993.648 129.561 992.088 128.217 990.816C126.873 989.544 125.217 988.896 123.273 988.896C121.329 988.896 119.649 989.544 118.281 990.84C116.913 992.112 116.241 993.72 116.241 995.616ZM120.081 995.568C120.081 994.632 120.393 993.84 120.993 993.24C121.593 992.616 122.337 992.304 123.225 992.304C124.113 992.304 124.881 992.616 125.481 993.24C126.081 993.84 126.393 994.632 126.393 995.568C126.393 997.488 125.049 998.856 123.249 998.856C122.361 998.856 121.593 998.544 120.993 997.944C120.393 997.32 120.081 996.528 120.081 995.568ZM140.82 998.832C140.556 998.904 140.268 998.928 139.956 998.928C138.492 998.928 137.724 998.352 137.724 996.888V992.424H140.892V989.184H137.724V985.176H134.028V989.184H131.676V992.424H133.98V997.344C133.98 1000.34 135.732 1002.17 139.068 1002.17C139.692 1002.17 140.268 1002.1 140.82 1001.93V998.832ZM142.749 995.616C142.749 997.536 143.421 999.12 144.765 1000.39C146.109 1001.66 147.765 1002.29 149.733 1002.29C151.677 1002.29 153.333 1001.64 154.701 1000.37C156.069 999.072 156.741 997.464 156.741 995.544C156.741 993.648 156.069 992.088 154.725 990.816C153.381 989.544 151.725 988.896 149.781 988.896C147.837 988.896 146.157 989.544 144.789 990.84C143.421 992.112 142.749 993.72 142.749 995.616ZM146.589 995.568C146.589 994.632 146.901 993.84 147.501 993.24C148.101 992.616 148.845 992.304 149.733 992.304C150.621 992.304 151.389 992.616 151.989 993.24C152.589 993.84 152.901 994.632 152.901 995.568C152.901 997.488 151.557 998.856 149.757 998.856C148.868 998.856 148.101 998.544 147.501 997.944C146.901 997.32 146.589 996.528 146.589 995.568ZM165.528 1002.29C168.384 1002.29 170.712 1000.92 171.696 998.304L168.384 996.936C167.832 998.208 166.896 998.832 165.552 998.832C163.728 998.832 162.48 997.488 162.48 995.568C162.48 993.576 163.824 992.328 165.552 992.328C166.824 992.328 167.76 992.952 168.312 994.224L171.6 992.856C170.76 990.336 168.408 988.896 165.552 988.896C163.632 988.896 162 989.544 160.656 990.84C159.312 992.136 158.64 993.72 158.64 995.616C158.64 997.536 159.288 999.12 160.584 1000.39C161.88 1001.66 163.536 1002.29 165.528 1002.29ZM173.381 995.616C173.381 997.536 174.053 999.12 175.397 1000.39C176.741 1001.66 178.397 1002.29 180.365 1002.29C182.309 1002.29 183.965 1001.64 185.333 1000.37C186.701 999.072 187.373 997.464 187.373 995.544C187.373 993.648 186.701 992.088 185.357 990.816C184.013 989.544 182.357 988.896 180.413 988.896C178.469 988.896 176.789 989.544 175.421 990.84C174.053 992.112 173.381 993.72 173.381 995.616ZM177.221 995.568C177.221 994.632 177.533 993.84 178.133 993.24C178.733 992.616 179.477 992.304 180.365 992.304C181.253 992.304 182.021 992.616 182.621 993.24C183.221 993.84 183.533 994.632 183.533 995.568C183.533 997.488 182.189 998.856 180.389 998.856C179.501 998.856 178.733 998.544 178.133 997.944C177.533 997.32 177.221 996.528 177.221 995.568ZM193.809 982.44H190.041V1002H193.809V982.44ZM196.467 995.616C196.467 997.536 197.139 999.12 198.483 1000.39C199.827 1001.66 201.483 1002.29 203.451 1002.29C205.395 1002.29 207.051 1001.64 208.419 1000.37C209.787 999.072 210.459 997.464 210.459 995.544C210.459 993.648 209.787 992.088 208.443 990.816C207.099 989.544 205.443 988.896 203.499 988.896C201.555 988.896 199.875 989.544 198.507 990.84C197.139 992.112 196.467 993.72 196.467 995.616ZM200.307 995.568C200.307 994.632 200.619 993.84 201.219 993.24C201.819 992.616 202.563 992.304 203.451 992.304C204.339 992.304 205.107 992.616 205.707 993.24C206.307 993.84 206.619 994.632 206.619 995.568C206.619 997.488 205.275 998.856 203.475 998.856C202.587 998.856 201.819 998.544 201.219 997.944C200.619 997.32 200.307 996.528 200.307 995.568ZM16.072 1013.21H12.184V1032H16.072V1013.21ZM32.0014 1032V1024.03C32.0014 1022.59 31.6174 1021.39 30.8254 1020.41C30.0574 1019.42 28.9054 1018.94 27.3694 1018.94C26.8174 1018.94 26.1454 1018.97 25.0174 1019.62C24.4654 1019.93 24.0574 1020.34 23.7454 1020.86H23.7214V1019.18H20.0014V1032H23.7454V1024.9C23.7454 1023.48 24.5374 1022.4 26.0494 1022.4C27.5134 1022.4 28.2814 1023.38 28.2814 1024.9V1032H32.0014ZM43.1089 1028.83C42.8449 1028.9 42.5569 1028.93 42.2449 1028.93C40.7809 1028.93 40.0129 1028.35 40.0129 1026.89V1022.42H43.1809V1019.18H40.0129V1015.18H36.3169V1019.18H33.9649V1022.42H36.2689V1027.34C36.2689 1030.34 38.0209 1032.17 41.3569 1032.17C41.9809 1032.17 42.5569 1032.1 43.1089 1031.93V1028.83ZM58.1656 1026.62C58.1896 1026.34 58.2136 1025.88 58.2136 1025.28C58.2136 1023.38 57.6136 1021.82 56.4376 1020.65C55.2616 1019.47 53.7256 1018.87 51.8296 1018.87C49.9816 1018.87 48.3736 1019.52 47.0296 1020.84C45.7096 1022.16 45.0376 1023.72 45.0376 1025.57C45.0376 1027.54 45.7096 1029.14 47.0536 1030.42C48.4216 1031.66 50.0776 1032.29 52.0696 1032.29C54.6856 1032.29 56.5096 1031.33 57.5896 1029.38L54.8776 1027.61C54.3016 1028.54 53.1496 1029.14 52.0216 1029.14C50.4136 1029.14 49.0696 1028.18 48.8536 1026.62H58.1656ZM48.9496 1024.15C49.0216 1023.65 49.3096 1023.14 49.8136 1022.66C50.3176 1022.16 50.9656 1021.92 51.7336 1021.92C53.4376 1021.92 54.3736 1023.02 54.4696 1024.15H48.9496ZM60.3724 1034.74C61.5244 1037.18 63.6844 1038.41 66.8524 1038.41C68.8924 1038.41 70.5484 1037.86 71.8204 1036.73C73.1164 1035.6 73.7644 1034.04 73.7644 1032.05V1019.18H70.0924V1020.74H70.0444C69.0604 1019.57 67.7644 1018.99 66.1564 1018.99C64.3804 1018.99 62.9164 1019.64 61.7884 1020.96C60.6604 1022.26 60.1084 1023.77 60.1084 1025.47C60.1084 1027.3 60.6844 1028.83 61.8364 1030.06C62.9884 1031.28 64.4764 1031.9 66.3004 1031.9C67.8844 1031.9 69.1084 1031.33 69.9964 1030.2H70.0444V1032.14C70.0444 1034.14 68.7724 1035.14 66.8284 1035.14C65.2684 1035.14 64.1404 1034.42 63.4204 1032.98L60.3724 1034.74ZM70.1404 1025.47C70.1404 1027.37 68.7724 1028.64 67.0204 1028.64C65.2204 1028.64 63.9004 1027.37 63.9004 1025.47C63.9004 1023.62 65.2684 1022.33 67.0204 1022.33C68.8204 1022.33 70.1404 1023.62 70.1404 1025.47ZM85.3478 1019.14C85.1558 1019.06 84.9158 1019.04 84.6038 1019.04C82.8998 1019.04 81.5318 1019.98 80.9798 1021.15H80.9558V1019.18H77.2358V1032H80.9798V1026.58C80.9798 1024.27 82.0358 1022.76 84.4598 1022.76C84.7718 1022.76 85.0598 1022.78 85.3478 1022.83V1019.14ZM90.7499 1032.24C92.4539 1032.24 93.7259 1031.62 94.5899 1030.39L94.6379 1030.42V1032H98.0939V1024.06C98.0939 1020.7 95.9099 1018.9 92.5259 1018.9C89.7179 1018.9 87.7499 1019.9 86.6459 1021.94L89.5019 1023.65C90.1499 1022.5 91.0859 1021.92 92.3579 1021.92C93.7019 1021.92 94.4219 1022.62 94.4219 1023.5C94.4219 1024.13 94.0859 1024.44 93.4139 1024.44H92.1419C90.7019 1024.44 89.5019 1024.66 88.3259 1025.21C87.1739 1025.76 86.4299 1026.86 86.4299 1028.38V1028.42C86.4299 1029.58 86.8379 1030.51 87.6779 1031.21C88.5179 1031.9 89.5499 1032.24 90.7499 1032.24ZM91.8299 1029.5C90.8699 1029.5 90.1979 1029.07 90.1979 1028.21C90.1979 1027.25 91.0619 1026.74 92.1419 1026.74H94.3979V1027.03C94.3979 1028.45 93.4379 1029.5 91.8299 1029.5ZM109.203 1028.83C108.939 1028.9 108.651 1028.93 108.339 1028.93C106.875 1028.93 106.107 1028.35 106.107 1026.89V1022.42H109.275V1019.18H106.107V1015.18H102.411V1019.18H100.059V1022.42H102.363V1027.34C102.363 1030.34 104.115 1032.17 107.451 1032.17C108.075 1032.17 108.651 1032.1 109.203 1031.93V1028.83ZM113.935 1012.39C112.687 1012.39 111.631 1013.45 111.631 1014.72C111.631 1015.99 112.687 1017.02 113.935 1017.02C115.255 1017.02 116.287 1015.99 116.287 1014.72C116.287 1013.4 115.255 1012.39 113.935 1012.39ZM115.855 1032V1019.18H112.087V1032H115.855ZM118.514 1025.62C118.514 1027.54 119.186 1029.12 120.53 1030.39C121.874 1031.66 123.53 1032.29 125.498 1032.29C127.442 1032.29 129.098 1031.64 130.466 1030.37C131.834 1029.07 132.506 1027.46 132.506 1025.54C132.506 1023.65 131.834 1022.09 130.49 1020.82C129.146 1019.54 127.49 1018.9 125.546 1018.9C123.602 1018.9 121.922 1019.54 120.554 1020.84C119.186 1022.11 118.514 1023.72 118.514 1025.62ZM122.354 1025.57C122.354 1024.63 122.666 1023.84 123.266 1023.24C123.866 1022.62 124.61 1022.3 125.498 1022.3C126.386 1022.3 127.154 1022.62 127.754 1023.24C128.354 1023.84 128.666 1024.63 128.666 1025.57C128.666 1027.49 127.322 1028.86 125.522 1028.86C124.634 1028.86 123.866 1028.54 123.266 1027.94C122.666 1027.32 122.354 1026.53 122.354 1025.57ZM147.173 1032V1024.03C147.173 1022.59 146.789 1021.39 145.997 1020.41C145.229 1019.42 144.077 1018.94 142.541 1018.94C141.989 1018.94 141.317 1018.97 140.189 1019.62C139.637 1019.93 139.229 1020.34 138.917 1020.86H138.893V1019.18H135.173V1032H138.917V1024.9C138.917 1023.48 139.709 1022.4 141.221 1022.4C142.685 1022.4 143.453 1023.38 143.453 1024.9V1032H147.173Z" fill="black"/>
<path d="M26.8 1410.82C26.8 1408.42 25.672 1407.1 23.344 1406.23V1406.18C25.096 1405.27 25.984 1403.93 25.984 1402.18C25.984 1400.59 25.384 1399.37 24.208 1398.5C23.032 1397.64 21.64 1397.21 19.984 1397.21H12.184V1416H20.104C23.392 1416 26.8 1414.63 26.8 1410.82ZM22.168 1402.78C22.168 1404.14 21.184 1404.84 19.192 1404.84H15.976V1400.78H19.456C20.992 1400.78 22.168 1401.34 22.168 1402.78ZM23.008 1410.31C23.008 1411.7 22.024 1412.4 20.056 1412.4H15.976V1408.2H19.936C21.976 1408.2 23.008 1408.9 23.008 1410.31ZM35.9714 1404.65C33.8354 1404.05 32.9474 1403.47 32.9474 1402.34C32.9474 1401.22 33.9074 1400.42 35.4434 1400.42C37.1714 1400.42 38.3474 1401.19 38.9954 1402.73L42.2114 1400.98C41.1314 1398.38 38.7554 1396.92 35.6114 1396.92C33.8114 1396.92 32.2514 1397.45 30.9794 1398.53C29.7074 1399.58 29.0594 1400.93 29.0594 1402.58C29.0594 1403.98 29.5394 1405.13 30.4994 1406.06C31.3634 1406.93 32.8994 1407.7 35.0834 1408.34C36.4754 1408.75 37.4114 1409.14 37.8914 1409.47C38.3954 1409.78 38.6354 1410.22 38.6354 1410.77C38.6354 1411.92 37.4354 1412.76 35.7794 1412.76C33.8834 1412.76 32.4194 1411.78 31.6754 1410.14L28.3154 1411.87C29.4434 1414.58 32.1314 1416.29 35.6594 1416.29C37.8194 1416.29 39.4994 1415.76 40.7234 1414.68C41.9474 1413.6 42.5474 1412.18 42.5474 1410.48C42.5474 1407.48 40.4594 1405.92 35.9714 1404.65ZM44.5476 1406.62C44.5476 1409.35 45.4836 1411.66 47.3316 1413.5C49.1796 1415.35 51.4836 1416.26 54.2196 1416.26C56.1156 1416.26 57.8916 1415.76 59.4996 1414.78C61.1316 1413.77 62.2596 1412.4 62.8836 1410.67L59.3076 1409.02C58.4676 1411.1 56.5716 1412.5 54.2676 1412.5C52.6116 1412.5 51.2676 1411.92 50.1876 1410.79C49.1076 1409.64 48.5796 1408.22 48.5796 1406.57C48.5796 1404.94 49.1316 1403.54 50.2116 1402.42C51.2916 1401.29 52.6596 1400.71 54.2676 1400.71C56.5956 1400.71 58.4676 1402.01 59.2596 1404.1L62.8116 1402.46C62.1876 1400.76 61.0836 1399.39 59.4996 1398.41C57.9396 1397.42 56.1876 1396.92 54.2916 1396.92C51.5796 1396.92 49.2756 1397.86 47.3796 1399.75C45.4836 1401.62 44.5476 1403.9 44.5476 1406.62ZM75.5798 1397.21H71.6918V1416H75.5798V1397.21ZM91.5093 1416V1408.03C91.5093 1406.59 91.1253 1405.39 90.3333 1404.41C89.5653 1403.42 88.4133 1402.94 86.8773 1402.94C86.3253 1402.94 85.6533 1402.97 84.5253 1403.62C83.9733 1403.93 83.5653 1404.34 83.2533 1404.86H83.2293V1403.18H79.5093V1416H83.2533V1408.9C83.2533 1407.48 84.0453 1406.4 85.5573 1406.4C87.0213 1406.4 87.7893 1407.38 87.7893 1408.9V1416H91.5093ZM102.617 1412.83C102.353 1412.9 102.065 1412.93 101.753 1412.93C100.289 1412.93 99.5208 1412.35 99.5208 1410.89V1406.42H102.689V1403.18H99.5208V1399.18H95.8248V1403.18H93.4728V1406.42H95.7768V1411.34C95.7768 1414.34 97.5288 1416.17 100.865 1416.17C101.489 1416.17 102.065 1416.1 102.617 1415.93V1412.83ZM117.673 1410.62C117.697 1410.34 117.721 1409.88 117.721 1409.28C117.721 1407.38 117.121 1405.82 115.945 1404.65C114.769 1403.47 113.233 1402.87 111.337 1402.87C109.489 1402.87 107.881 1403.52 106.537 1404.84C105.217 1406.16 104.545 1407.72 104.545 1409.57C104.545 1411.54 105.217 1413.14 106.561 1414.42C107.929 1415.66 109.585 1416.29 111.577 1416.29C114.193 1416.29 116.017 1415.33 117.097 1413.38L114.385 1411.61C113.809 1412.54 112.657 1413.14 111.529 1413.14C109.921 1413.14 108.577 1412.18 108.361 1410.62H117.673ZM108.457 1408.15C108.529 1407.65 108.817 1407.14 109.321 1406.66C109.825 1406.16 110.473 1405.92 111.241 1405.92C112.945 1405.92 113.881 1407.02 113.977 1408.15H108.457ZM119.88 1418.74C121.032 1421.18 123.192 1422.41 126.36 1422.41C128.4 1422.41 130.056 1421.86 131.328 1420.73C132.624 1419.6 133.272 1418.04 133.272 1416.05V1403.18H129.6V1404.74H129.552C128.568 1403.57 127.272 1402.99 125.664 1402.99C123.888 1402.99 122.424 1403.64 121.296 1404.96C120.168 1406.26 119.616 1407.77 119.616 1409.47C119.616 1411.3 120.192 1412.83 121.344 1414.06C122.496 1415.28 123.984 1415.9 125.808 1415.9C127.392 1415.9 128.616 1415.33 129.504 1414.2H129.552V1416.14C129.552 1418.14 128.28 1419.14 126.336 1419.14C124.776 1419.14 123.648 1418.42 122.928 1416.98L119.88 1418.74ZM129.648 1409.47C129.648 1411.37 128.28 1412.64 126.528 1412.64C124.728 1412.64 123.408 1411.37 123.408 1409.47C123.408 1407.62 124.776 1406.33 126.528 1406.33C128.328 1406.33 129.648 1407.62 129.648 1409.47ZM144.856 1403.14C144.664 1403.06 144.424 1403.04 144.112 1403.04C142.408 1403.04 141.04 1403.98 140.488 1405.15H140.464V1403.18H136.744V1416H140.488V1410.58C140.488 1408.27 141.544 1406.76 143.968 1406.76C144.28 1406.76 144.568 1406.78 144.856 1406.83V1403.14ZM150.258 1416.24C151.962 1416.24 153.234 1415.62 154.098 1414.39L154.146 1414.42V1416H157.602V1408.06C157.602 1404.7 155.418 1402.9 152.034 1402.9C149.226 1402.9 147.258 1403.9 146.154 1405.94L149.01 1407.65C149.658 1406.5 150.594 1405.92 151.866 1405.92C153.21 1405.92 153.93 1406.62 153.93 1407.5C153.93 1408.13 153.594 1408.44 152.922 1408.44H151.65C150.21 1408.44 149.01 1408.66 147.834 1409.21C146.682 1409.76 145.938 1410.86 145.938 1412.38V1412.42C145.938 1413.58 146.346 1414.51 147.186 1415.21C148.026 1415.9 149.058 1416.24 150.258 1416.24ZM151.338 1413.5C150.378 1413.5 149.706 1413.07 149.706 1412.21C149.706 1411.25 150.57 1410.74 151.65 1410.74H153.906V1411.03C153.906 1412.45 152.946 1413.5 151.338 1413.5ZM168.711 1412.83C168.447 1412.9 168.159 1412.93 167.847 1412.93C166.383 1412.93 165.615 1412.35 165.615 1410.89V1406.42H168.783V1403.18H165.615V1399.18H161.919V1403.18H159.567V1406.42H161.871V1411.34C161.871 1414.34 163.623 1416.17 166.959 1416.17C167.583 1416.17 168.159 1416.1 168.711 1415.93V1412.83ZM173.443 1396.39C172.195 1396.39 171.139 1397.45 171.139 1398.72C171.139 1399.99 172.195 1401.02 173.443 1401.02C174.763 1401.02 175.795 1399.99 175.795 1398.72C175.795 1397.4 174.763 1396.39 173.443 1396.39ZM175.363 1416V1403.18H171.595V1416H175.363ZM178.022 1409.62C178.022 1411.54 178.694 1413.12 180.038 1414.39C181.382 1415.66 183.038 1416.29 185.006 1416.29C186.95 1416.29 188.606 1415.64 189.974 1414.37C191.342 1413.07 192.014 1411.46 192.014 1409.54C192.014 1407.65 191.342 1406.09 189.998 1404.82C188.654 1403.54 186.998 1402.9 185.054 1402.9C183.11 1402.9 181.43 1403.54 180.062 1404.84C178.694 1406.11 178.022 1407.72 178.022 1409.62ZM181.862 1409.57C181.862 1408.63 182.174 1407.84 182.774 1407.24C183.374 1406.62 184.118 1406.3 185.006 1406.3C185.894 1406.3 186.662 1406.62 187.262 1407.24C187.862 1407.84 188.174 1408.63 188.174 1409.57C188.174 1411.49 186.83 1412.86 185.03 1412.86C184.142 1412.86 183.374 1412.54 182.774 1411.94C182.174 1411.32 181.862 1410.53 181.862 1409.57ZM206.681 1416V1408.03C206.681 1406.59 206.297 1405.39 205.505 1404.41C204.737 1403.42 203.585 1402.94 202.049 1402.94C201.497 1402.94 200.825 1402.97 199.697 1403.62C199.145 1403.93 198.737 1404.34 198.425 1404.86H198.401V1403.18H194.681V1416H198.425V1408.9C198.425 1407.48 199.217 1406.4 200.729 1406.4C202.193 1406.4 202.961 1407.38 202.961 1408.9V1416H206.681Z" fill="black"/>
<path fill-rule="evenodd" clip-rule="evenodd" d="M263 203C291.166 203 314 180.166 314 152C314 123.833 291.166 101 263 101V103.833C289.602 103.833 311.167 125.398 311.167 152C311.167 178.602 289.602 200.167 263 200.167V203Z" fill="black"/>
<path fill-rule="evenodd" clip-rule="evenodd" d="M263 606C291.166 606 314 583.166 314 555C314 526.833 291.166 504 263 504V506.833C289.602 506.833 311.167 528.398 311.167 555C311.167 581.602 289.602 603.167 263 603.167V606Z" fill="black"/>
<path fill-rule="evenodd" clip-rule="evenodd" d="M263 1011C291.166 1011 314 988.166 314 960C314 931.833 291.166 909 263 909V911.833C289.602 911.833 311.167 933.398 311.167 960C311.167 986.602 289.602 1008.17 263 1008.17V1011Z" fill="black"/>
<path fill-rule="evenodd" clip-rule="evenodd" d="M263 1416C291.166 1416 314 1393.17 314 1365C314 1336.83 291.166 1314 263 1314V1316.83C289.602 1316.83 311.167 1338.4 311.167 1365C311.167 1391.6 289.602 1413.17 263 1413.17V1416Z" fill="black"/>
<path fill-rule="evenodd" clip-rule="evenodd" d="M266 302C237.834 302 215 324.833 215 353C215 381.166 237.834 404 266 404L266 401.167C239.398 401.167 217.833 379.602 217.833 353C217.833 326.398 239.398 304.833 266 304.833L266 302Z" fill="black"/>
<path fill-rule="evenodd" clip-rule="evenodd" d="M266 707C237.834 707 215 729.833 215 758C215 786.166 237.834 809 266 809L266 806.167C239.398 806.167 217.833 784.602 217.833 758C217.833 731.398 239.398 709.833 266 709.833L266 707Z" fill="black"/>
<path fill-rule="evenodd" clip-rule="evenodd" d="M266 1112C237.834 1112 215 1134.83 215 1163C215 1191.17 237.834 1214 266 1214L266 1211.17C239.398 1211.17 217.833 1189.6 217.833 1163C217.833 1136.4 239.398 1114.83 266 1114.83L266 1112Z" fill="black"/>
<rect x="263" width="3" height="103" fill="black"/>
<rect x="263" y="403" width="3" height="103" fill="black"/>
<rect x="263" y="808" width="3" height="103" fill="black"/>
<rect x="263" y="1213" width="3" height="103" fill="black"/>
<rect x="6" y="153" width="3" height="209" transform="rotate(-90 6 153)" fill="black"/>
<rect x="6" y="559" width="3" height="209" transform="rotate(-90 6 559)" fill="black"/>
<rect x="6" y="964" width="3" height="209" transform="rotate(-90 6 964)" fill="black"/>
<rect x="6" y="1369" width="3" height="209" transform="rotate(-90 6 1369)" fill="black"/>
<rect x="523" y="353" width="3" height="209" transform="rotate(90 523 353)" fill="black"/>
<rect x="523" y="759" width="3" height="209" transform="rotate(90 523 759)" fill="black"/>
<rect x="523" y="1164" width="3" height="209" transform="rotate(90 523 1164)" fill="black"/>
<rect x="263" y="201" width="3" height="103" fill="black"/>
<rect x="263" y="604" width="3" height="103" fill="black"/>
<rect x="263" y="1009" width="3" height="103" fill="black"/>
<rect x="263" y="1414" width="3" height="103" fill="black"/>
<circle cx="264" cy="152" r="40" fill="#F0CA00"/>
<circle cx="264" cy="555" r="40" fill="#F0CA00"/>
<circle cx="264" cy="960" r="40" fill="#F0CA00"/>
<circle cx="264" cy="1365" r="40" fill="#F0CA00"/>
<circle cx="264" cy="353" r="40" fill="#F0CA00"/>
<circle cx="264" cy="758" r="40" fill="#F0CA00"/>
<circle cx="264" cy="1163" r="40" fill="#F0CA00"/>
<circle r="5" transform="matrix(1 0 0 -1 264 1517)" fill="black"/>
<circle r="5" transform="matrix(1 0 0 -1 5 152)" fill="black"/>
<circle r="5" transform="matrix(1 0 0 -1 5 558)" fill="black"/>
<circle r="5" transform="matrix(1 0 0 -1 5 963)" fill="black"/>
<circle r="5" transform="matrix(1 0 0 -1 5 1368)" fill="black"/>
<rect y="92" width="113" height="38" rx="15" fill="#F0CA00"/>
<rect x="410" y="295" width="125" height="38" rx="15" fill="#F0CA00"/>
<rect x="410" y="701" width="125" height="38" rx="15" fill="#F0CA00"/>
<rect x="410" y="1106" width="125" height="38" rx="15" fill="#F0CA00"/>
<rect y="498" width="113" height="38" rx="15" fill="#F0CA00"/>
<rect y="903" width="113" height="38" rx="15" fill="#F0CA00"/>
<rect y="1308" width="113" height="38" rx="15" fill="#F0CA00"/>
<path d="M14.962 119H19.156C21.262 119 23.026 118.334 24.448 117.02C25.87 115.688 26.59 113.996 26.59 111.926C26.59 109.928 25.888 108.254 24.502 106.922C23.116 105.572 21.334 104.906 19.156 104.906H14.962V119ZM16.438 106.292H19.084C20.902 106.292 22.342 106.832 23.422 107.894C24.52 108.956 25.06 110.324 25.06 111.962C25.06 113.618 24.502 114.968 23.404 116.03C22.306 117.092 20.884 117.614 19.102 117.614H16.438V106.292ZM33.3867 119.162C34.7907 119.162 35.9787 118.676 36.9327 117.722C37.8867 116.768 38.3727 115.58 38.3727 114.158C38.3727 112.772 37.8867 111.62 36.9327 110.666C35.9787 109.712 34.8087 109.226 33.4227 109.226C32.0007 109.226 30.8127 109.712 29.8587 110.666C28.9047 111.62 28.4367 112.808 28.4367 114.23C28.4367 115.598 28.9047 116.768 29.8587 117.722C30.8127 118.676 32.0007 119.162 33.3867 119.162ZM33.4227 117.92C32.3967 117.92 31.5327 117.56 30.8667 116.822C30.2007 116.084 29.8767 115.184 29.8767 114.158C29.8767 113.132 30.2007 112.25 30.8667 111.53C31.5327 110.81 32.3607 110.45 33.3867 110.45C34.4127 110.45 35.2587 110.828 35.9247 111.566C36.5907 112.304 36.9327 113.204 36.9327 114.23C36.9327 115.256 36.5907 116.12 35.9247 116.84C35.2587 117.56 34.4307 117.92 33.4227 117.92ZM49.1797 119V113.06C49.1797 110.756 47.8477 109.208 45.5437 109.208C44.0857 109.208 42.9877 109.856 42.2317 111.152V109.388H40.8457V119H42.2497V113.528C42.2497 112.664 42.5197 111.944 43.0597 111.368C43.5997 110.774 44.2837 110.486 45.1117 110.486C46.8397 110.486 47.7757 111.62 47.7757 113.402V119H49.1797ZM60.7148 114.626C60.7328 114.536 60.7328 114.374 60.7328 114.158C60.7328 112.7 60.3368 111.53 59.5448 110.612C58.7528 109.694 57.6368 109.226 56.1968 109.226C54.8828 109.226 53.7668 109.712 52.8668 110.702C51.9668 111.692 51.5168 112.844 51.5168 114.176C51.5168 115.562 51.9848 116.75 52.9208 117.722C53.8568 118.676 55.0088 119.162 56.3948 119.162C58.1228 119.162 59.6528 118.262 60.4628 116.678L59.4188 115.994C58.8608 117.146 57.7268 117.92 56.3768 117.92C55.4408 117.92 54.6488 117.614 54.0008 116.984C53.3528 116.354 52.9928 115.562 52.9388 114.626H60.7148ZM52.9568 113.438C53.0828 112.61 53.4428 111.908 54.0548 111.332C54.6668 110.738 55.3868 110.45 56.1968 110.45C57.9968 110.45 59.1128 111.638 59.3108 113.438H52.9568Z" fill="black"/>
<path d="M425.175 309.472V322H426.651V307.906H425.211L421.125 310.372L421.791 311.488L425.175 309.472ZM432.909 309.472V322H434.385V307.906H432.945L428.859 310.372L429.525 311.488L432.909 309.472ZM443.127 307.348L436.989 322.09H438.465L444.603 307.348H443.127ZM452.167 307.762C449.287 307.744 447.343 309.904 446.641 312.406C445.885 314.926 446.299 317.806 447.721 319.876C448.657 321.244 450.223 322.144 452.095 322.144C453.031 322.144 453.877 321.928 454.651 321.514C456.883 320.29 457.981 317.536 457.981 314.926C457.981 311.434 456.019 307.762 452.167 307.762ZM447.793 314.926C447.793 313.612 448.135 312.244 448.801 311.092C449.467 309.922 450.673 309.13 452.113 309.13C453.553 309.13 454.777 309.958 455.443 311.128C456.109 312.298 456.469 313.684 456.469 314.998C456.469 317.5 455.173 320.794 452.131 320.794C449.089 320.794 447.793 317.482 447.793 314.926ZM460.008 322H469.512V320.632H462.024L466.344 316.852C467.46 315.862 468.252 315.016 468.72 314.314C469.206 313.594 469.44 312.784 469.44 311.902C469.44 310.678 469.008 309.688 468.126 308.914C467.262 308.14 466.164 307.744 464.85 307.744C462.474 307.744 460.8 309.148 460.206 311.11L461.538 311.668C462.186 309.976 463.284 309.13 464.814 309.13C465.75 309.13 466.506 309.418 467.064 309.976C467.622 310.534 467.91 311.182 467.91 311.938C467.91 312.622 467.712 313.252 467.334 313.81C466.956 314.368 466.218 315.124 465.12 316.096L460.008 320.632V322ZM477.352 307.348L471.214 322.09H472.69L478.828 307.348H477.352ZM480.433 322H489.937V320.632H482.449L486.769 316.852C487.885 315.862 488.677 315.016 489.145 314.314C489.631 313.594 489.865 312.784 489.865 311.902C489.865 310.678 489.433 309.688 488.551 308.914C487.687 308.14 486.589 307.744 485.275 307.744C482.899 307.744 481.225 309.148 480.631 311.11L481.963 311.668C482.611 309.976 483.709 309.13 485.239 309.13C486.175 309.13 486.931 309.418 487.489 309.976C488.047 310.534 488.335 311.182 488.335 311.938C488.335 312.622 488.137 313.252 487.759 313.81C487.381 314.368 486.643 315.124 485.545 316.096L480.433 320.632V322ZM497.958 307.762C495.078 307.744 493.134 309.904 492.432 312.406C491.676 314.926 492.09 317.806 493.512 319.876C494.448 321.244 496.014 322.144 497.886 322.144C498.822 322.144 499.668 321.928 500.442 321.514C502.674 320.29 503.772 317.536 503.772 314.926C503.772 311.434 501.81 307.762 497.958 307.762ZM493.584 314.926C493.584 313.612 493.926 312.244 494.592 311.092C495.258 309.922 496.464 309.13 497.904 309.13C499.344 309.13 500.568 309.958 501.234 311.128C501.9 312.298 502.26 313.684 502.26 314.998C502.26 317.5 500.964 320.794 497.922 320.794C494.88 320.794 493.584 317.482 493.584 314.926ZM505.799 322H515.303V320.632H507.815L512.135 316.852C513.251 315.862 514.043 315.016 514.511 314.314C514.997 313.594 515.231 312.784 515.231 311.902C515.231 310.678 514.799 309.688 513.917 308.914C513.053 308.14 511.955 307.744 510.641 307.744C508.265 307.744 506.591 309.148 505.997 311.11L507.329 311.668C507.977 309.976 509.075 309.13 510.605 309.13C511.541 309.13 512.297 309.418 512.855 309.976C513.413 310.534 513.701 311.182 513.701 311.938C513.701 312.622 513.503 313.252 513.125 313.81C512.747 314.368 512.009 315.124 510.911 316.096L505.799 320.632V322ZM520.659 309.472V322H522.135V307.906H520.695L516.609 310.372L517.275 311.488L520.659 309.472Z" fill="black"/>
<path d="M448.66 727.226L446.878 725.696C448.012 724.346 448.588 722.762 448.588 720.908C448.588 718.892 447.904 717.2 446.554 715.832C445.204 714.446 443.53 713.762 441.514 713.762C439.48 713.762 437.788 714.464 436.438 715.85C435.088 717.236 434.422 718.964 434.422 720.998C434.422 723.014 435.088 724.706 436.438 726.092C437.788 727.46 439.462 728.144 441.478 728.144C443.134 728.144 444.592 727.658 445.852 726.686L447.688 728.342L448.66 727.226ZM435.952 720.908C435.952 719.306 436.474 717.956 437.518 716.84C438.562 715.706 439.876 715.148 441.478 715.148C443.08 715.148 444.412 715.724 445.474 716.858C446.536 717.992 447.058 719.378 447.058 720.998C447.058 722.42 446.644 723.68 445.798 724.742L443.062 722.276L442.072 723.374L444.772 725.732C443.836 726.416 442.756 726.758 441.514 726.758C439.912 726.758 438.58 726.182 437.518 725.048C436.474 723.914 435.952 722.528 435.952 720.908ZM457.47 728H458.91V724.616H461.268V723.338H458.91V713.906H457.056L450.144 722.996V724.616H457.47V728ZM457.47 723.338H451.458L457.47 715.436V723.338ZM467.874 728H477.378V726.632H469.89L474.21 722.852C475.326 721.862 476.118 721.016 476.586 720.314C477.072 719.594 477.306 718.784 477.306 717.902C477.306 716.678 476.874 715.688 475.992 714.914C475.128 714.14 474.03 713.744 472.716 713.744C470.34 713.744 468.666 715.148 468.072 717.11L469.404 717.668C470.052 715.976 471.15 715.13 472.68 715.13C473.616 715.13 474.372 715.418 474.93 715.976C475.488 716.534 475.776 717.182 475.776 717.938C475.776 718.622 475.578 719.252 475.2 719.81C474.822 720.368 474.084 721.124 472.986 722.096L467.874 726.632V728ZM485.398 713.762C482.518 713.744 480.574 715.904 479.872 718.406C479.116 720.926 479.53 723.806 480.952 725.876C481.888 727.244 483.454 728.144 485.326 728.144C486.262 728.144 487.108 727.928 487.882 727.514C490.114 726.29 491.212 723.536 491.212 720.926C491.212 717.434 489.25 713.762 485.398 713.762ZM481.024 720.926C481.024 719.612 481.366 718.244 482.032 717.092C482.698 715.922 483.904 715.13 485.344 715.13C486.784 715.13 488.008 715.958 488.674 717.128C489.34 718.298 489.7 719.684 489.7 720.998C489.7 723.5 488.404 726.794 485.362 726.794C482.32 726.794 481.024 723.482 481.024 720.926ZM493.239 728H502.743V726.632H495.255L499.575 722.852C500.691 721.862 501.483 721.016 501.951 720.314C502.437 719.594 502.671 718.784 502.671 717.902C502.671 716.678 502.239 715.688 501.357 714.914C500.493 714.14 499.395 713.744 498.081 713.744C495.705 713.744 494.031 715.148 493.437 717.11L494.769 717.668C495.417 715.976 496.515 715.13 498.045 715.13C498.981 715.13 499.737 715.418 500.295 715.976C500.853 716.534 501.141 717.182 501.141 717.938C501.141 718.622 500.943 719.252 500.565 719.81C500.187 720.368 499.449 721.124 498.351 722.096L493.239 726.632V728ZM508.099 715.472V728H509.575V713.906H508.135L504.049 716.372L504.715 717.488L508.099 715.472Z" fill="black"/>
<path d="M447.087 1132.23L445.305 1130.7C446.439 1129.35 447.015 1127.76 447.015 1125.91C447.015 1123.89 446.331 1122.2 444.981 1120.83C443.631 1119.45 441.957 1118.76 439.941 1118.76C437.907 1118.76 436.215 1119.46 434.865 1120.85C433.515 1122.24 432.849 1123.96 432.849 1126C432.849 1128.01 433.515 1129.71 434.865 1131.09C436.215 1132.46 437.889 1133.14 439.905 1133.14C441.561 1133.14 443.019 1132.66 444.279 1131.69L446.115 1133.34L447.087 1132.23ZM434.379 1125.91C434.379 1124.31 434.901 1122.96 435.945 1121.84C436.989 1120.71 438.303 1120.15 439.905 1120.15C441.507 1120.15 442.839 1120.72 443.901 1121.86C444.963 1122.99 445.485 1124.38 445.485 1126C445.485 1127.42 445.071 1128.68 444.225 1129.74L441.489 1127.28L440.499 1128.37L443.199 1130.73C442.263 1131.42 441.183 1131.76 439.941 1131.76C438.339 1131.76 437.007 1131.18 435.945 1130.05C434.901 1128.91 434.379 1127.53 434.379 1125.91ZM449.021 1133H458.525V1131.63H451.037L455.357 1127.85C456.473 1126.86 457.265 1126.02 457.733 1125.31C458.219 1124.59 458.453 1123.78 458.453 1122.9C458.453 1121.68 458.021 1120.69 457.139 1119.91C456.275 1119.14 455.177 1118.74 453.863 1118.74C451.487 1118.74 449.813 1120.15 449.219 1122.11L450.551 1122.67C451.199 1120.98 452.297 1120.13 453.827 1120.13C454.763 1120.13 455.519 1120.42 456.077 1120.98C456.635 1121.53 456.923 1122.18 456.923 1122.94C456.923 1123.62 456.725 1124.25 456.347 1124.81C455.969 1125.37 455.231 1126.12 454.133 1127.1L449.021 1131.63V1133ZM465.615 1133H475.119V1131.63H467.631L471.951 1127.85C473.067 1126.86 473.859 1126.02 474.327 1125.31C474.813 1124.59 475.047 1123.78 475.047 1122.9C475.047 1121.68 474.615 1120.69 473.733 1119.91C472.869 1119.14 471.771 1118.74 470.457 1118.74C468.081 1118.74 466.407 1120.15 465.813 1122.11L467.145 1122.67C467.793 1120.98 468.891 1120.13 470.421 1120.13C471.357 1120.13 472.113 1120.42 472.671 1120.98C473.229 1121.53 473.517 1122.18 473.517 1122.94C473.517 1123.62 473.319 1124.25 472.941 1124.81C472.563 1125.37 471.825 1126.12 470.727 1127.1L465.615 1131.63V1133ZM483.139 1118.76C480.259 1118.74 478.315 1120.9 477.613 1123.41C476.857 1125.93 477.271 1128.81 478.693 1130.88C479.629 1132.24 481.195 1133.14 483.067 1133.14C484.003 1133.14 484.849 1132.93 485.623 1132.51C487.855 1131.29 488.953 1128.54 488.953 1125.93C488.953 1122.43 486.991 1118.76 483.139 1118.76ZM478.765 1125.93C478.765 1124.61 479.107 1123.24 479.773 1122.09C480.439 1120.92 481.645 1120.13 483.085 1120.13C484.525 1120.13 485.749 1120.96 486.415 1122.13C487.081 1123.3 487.441 1124.68 487.441 1126C487.441 1128.5 486.145 1131.79 483.103 1131.79C480.061 1131.79 478.765 1128.48 478.765 1125.93ZM490.98 1133H500.484V1131.63H492.996L497.316 1127.85C498.432 1126.86 499.224 1126.02 499.692 1125.31C500.178 1124.59 500.412 1123.78 500.412 1122.9C500.412 1121.68 499.98 1120.69 499.098 1119.91C498.234 1119.14 497.136 1118.74 495.822 1118.74C493.446 1118.74 491.772 1120.15 491.178 1122.11L492.51 1122.67C493.158 1120.98 494.256 1120.13 495.786 1120.13C496.722 1120.13 497.478 1120.42 498.036 1120.98C498.594 1121.53 498.882 1122.18 498.882 1122.94C498.882 1123.62 498.684 1124.25 498.306 1124.81C497.928 1125.37 497.19 1126.12 496.092 1127.1L490.98 1131.63V1133ZM502.547 1133H512.051V1131.63H504.563L508.883 1127.85C509.999 1126.86 510.791 1126.02 511.259 1125.31C511.745 1124.59 511.979 1123.78 511.979 1122.9C511.979 1121.68 511.547 1120.69 510.665 1119.91C509.801 1119.14 508.703 1118.74 507.389 1118.74C505.013 1118.74 503.339 1120.15 502.745 1122.11L504.077 1122.67C504.725 1120.98 505.823 1120.13 507.353 1120.13C508.289 1120.13 509.045 1120.42 509.603 1120.98C510.161 1121.53 510.449 1122.18 510.449 1122.94C510.449 1123.62 510.251 1124.25 509.873 1124.81C509.495 1125.37 508.757 1126.12 507.659 1127.1L502.547 1131.63V1133Z" fill="black"/>
<path d="M32.21 524.226L30.428 522.696C31.562 521.346 32.138 519.762 32.138 517.908C32.138 515.892 31.454 514.2 30.104 512.832C28.754 511.446 27.08 510.762 25.064 510.762C23.03 510.762 21.338 511.464 19.988 512.85C18.638 514.236 17.972 515.964 17.972 517.998C17.972 520.014 18.638 521.706 19.988 523.092C21.338 524.46 23.012 525.144 25.028 525.144C26.684 525.144 28.142 524.658 29.402 523.686L31.238 525.342L32.21 524.226ZM19.502 517.908C19.502 516.306 20.024 514.956 21.068 513.84C22.112 512.706 23.426 512.148 25.028 512.148C26.63 512.148 27.962 512.724 29.024 513.858C30.086 514.992 30.608 516.378 30.608 517.998C30.608 519.42 30.194 520.68 29.348 521.742L26.612 519.276L25.622 520.374L28.322 522.732C27.386 523.416 26.306 523.758 25.064 523.758C23.462 523.758 22.13 523.182 21.068 522.048C20.024 520.914 19.502 519.528 19.502 517.908ZM41.0203 525H42.4603V521.616H44.8183V520.338H42.4603V510.906H40.6063L33.6943 519.996V521.616H41.0203V525ZM41.0203 520.338H35.0083L41.0203 512.436V520.338ZM51.4236 525H60.9276V523.632H53.4396L57.7596 519.852C58.8756 518.862 59.6676 518.016 60.1356 517.314C60.6216 516.594 60.8556 515.784 60.8556 514.902C60.8556 513.678 60.4236 512.688 59.5416 511.914C58.6776 511.14 57.5796 510.744 56.2656 510.744C53.8896 510.744 52.2156 512.148 51.6216 514.11L52.9536 514.668C53.6016 512.976 54.6996 512.13 56.2296 512.13C57.1656 512.13 57.9216 512.418 58.4796 512.976C59.0376 513.534 59.3256 514.182 59.3256 514.938C59.3256 515.622 59.1276 516.252 58.7496 516.81C58.3716 517.368 57.6336 518.124 56.5356 519.096L51.4236 523.632V525ZM68.948 510.762C66.068 510.744 64.124 512.904 63.422 515.406C62.666 517.926 63.08 520.806 64.502 522.876C65.438 524.244 67.004 525.144 68.876 525.144C69.812 525.144 70.658 524.928 71.432 524.514C73.664 523.29 74.762 520.536 74.762 517.926C74.762 514.434 72.8 510.762 68.948 510.762ZM64.574 517.926C64.574 516.612 64.916 515.244 65.582 514.092C66.248 512.922 67.454 512.13 68.894 512.13C70.334 512.13 71.558 512.958 72.224 514.128C72.89 515.298 73.25 516.684 73.25 517.998C73.25 520.5 71.954 523.794 68.912 523.794C65.87 523.794 64.574 520.482 64.574 517.926ZM76.7888 525H86.2928V523.632H78.8048L83.1248 519.852C84.2408 518.862 85.0328 518.016 85.5008 517.314C85.9868 516.594 86.2208 515.784 86.2208 514.902C86.2208 513.678 85.7888 512.688 84.9068 511.914C84.0428 511.14 82.9448 510.744 81.6308 510.744C79.2548 510.744 77.5808 512.148 76.9868 514.11L78.3188 514.668C78.9668 512.976 80.0648 512.13 81.5948 512.13C82.5308 512.13 83.2868 512.418 83.8448 512.976C84.4028 513.534 84.6908 514.182 84.6908 514.938C84.6908 515.622 84.4928 516.252 84.1148 516.81C83.7368 517.368 82.9988 518.124 81.9008 519.096L76.7888 523.632V525ZM91.6492 512.472V525H93.1252V510.906H91.6852L87.5992 513.372L88.2652 514.488L91.6492 512.472Z" fill="black"/>
<path d="M32.21 929.226L30.428 927.696C31.562 926.346 32.138 924.762 32.138 922.908C32.138 920.892 31.454 919.2 30.104 917.832C28.754 916.446 27.08 915.762 25.064 915.762C23.03 915.762 21.338 916.464 19.988 917.85C18.638 919.236 17.972 920.964 17.972 922.998C17.972 925.014 18.638 926.706 19.988 928.092C21.338 929.46 23.012 930.144 25.028 930.144C26.684 930.144 28.142 929.658 29.402 928.686L31.238 930.342L32.21 929.226ZM19.502 922.908C19.502 921.306 20.024 919.956 21.068 918.84C22.112 917.706 23.426 917.148 25.028 917.148C26.63 917.148 27.962 917.724 29.024 918.858C30.086 919.992 30.608 921.378 30.608 922.998C30.608 924.42 30.194 925.68 29.348 926.742L26.612 924.276L25.622 925.374L28.322 927.732C27.386 928.416 26.306 928.758 25.064 928.758C23.462 928.758 22.13 928.182 21.068 927.048C20.024 925.914 19.502 924.528 19.502 922.908ZM37.4383 917.472V930H38.9143V915.906H37.4743L33.3883 918.372L34.0543 919.488L37.4383 917.472ZM46.906 930H56.41V928.632H48.922L53.242 924.852C54.358 923.862 55.15 923.016 55.618 922.314C56.104 921.594 56.338 920.784 56.338 919.902C56.338 918.678 55.906 917.688 55.024 916.914C54.16 916.14 53.062 915.744 51.748 915.744C49.372 915.744 47.698 917.148 47.104 919.11L48.436 919.668C49.084 917.976 50.182 917.13 51.712 917.13C52.648 917.13 53.404 917.418 53.962 917.976C54.52 918.534 54.808 919.182 54.808 919.938C54.808 920.622 54.61 921.252 54.232 921.81C53.854 922.368 53.116 923.124 52.018 924.096L46.906 928.632V930ZM64.4304 915.762C61.5504 915.744 59.6064 917.904 58.9044 920.406C58.1484 922.926 58.5624 925.806 59.9844 927.876C60.9204 929.244 62.4864 930.144 64.3584 930.144C65.2944 930.144 66.1404 929.928 66.9144 929.514C69.1464 928.29 70.2444 925.536 70.2444 922.926C70.2444 919.434 68.2824 915.762 64.4304 915.762ZM60.0564 922.926C60.0564 921.612 60.3984 920.244 61.0644 919.092C61.7304 917.922 62.9364 917.13 64.3764 917.13C65.8164 917.13 67.0404 917.958 67.7064 919.128C68.3724 920.298 68.7324 921.684 68.7324 922.998C68.7324 925.5 67.4364 928.794 64.3944 928.794C61.3524 928.794 60.0564 925.482 60.0564 922.926ZM72.2713 930H81.7753V928.632H74.2873L78.6073 924.852C79.7233 923.862 80.5153 923.016 80.9833 922.314C81.4693 921.594 81.7033 920.784 81.7033 919.902C81.7033 918.678 81.2713 917.688 80.3893 916.914C79.5253 916.14 78.4273 915.744 77.1133 915.744C74.7373 915.744 73.0633 917.148 72.4692 919.11L73.8013 919.668C74.4493 917.976 75.5473 917.13 77.0773 917.13C78.0133 917.13 78.7693 917.418 79.3273 917.976C79.8853 918.534 80.1733 919.182 80.1733 919.938C80.1733 920.622 79.9753 921.252 79.5973 921.81C79.2193 922.368 78.4813 923.124 77.3833 924.096L72.2713 928.632V930ZM83.8377 930H93.3417V928.632H85.8537L90.1737 924.852C91.2897 923.862 92.0817 923.016 92.5497 922.314C93.0357 921.594 93.2697 920.784 93.2697 919.902C93.2697 918.678 92.8377 917.688 91.9557 916.914C91.0917 916.14 89.9937 915.744 88.6797 915.744C86.3037 915.744 84.6297 917.148 84.0357 919.11L85.3677 919.668C86.0157 917.976 87.1137 917.13 88.6437 917.13C89.5797 917.13 90.3357 917.418 90.8937 917.976C91.4517 918.534 91.7397 919.182 91.7397 919.938C91.7397 920.622 91.5417 921.252 91.1637 921.81C90.7857 922.368 90.0477 923.124 88.9497 924.096L83.8377 928.632V930Z" fill="black"/>
<path d="M32.21 1334.23L30.428 1332.7C31.562 1331.35 32.138 1329.76 32.138 1327.91C32.138 1325.89 31.454 1324.2 30.104 1322.83C28.754 1321.45 27.08 1320.76 25.064 1320.76C23.03 1320.76 21.338 1321.46 19.988 1322.85C18.638 1324.24 17.972 1325.96 17.972 1328C17.972 1330.01 18.638 1331.71 19.988 1333.09C21.338 1334.46 23.012 1335.14 25.028 1335.14C26.684 1335.14 28.142 1334.66 29.402 1333.69L31.238 1335.34L32.21 1334.23ZM19.502 1327.91C19.502 1326.31 20.024 1324.96 21.068 1323.84C22.112 1322.71 23.426 1322.15 25.028 1322.15C26.63 1322.15 27.962 1322.72 29.024 1323.86C30.086 1324.99 30.608 1326.38 30.608 1328C30.608 1329.42 30.194 1330.68 29.348 1331.74L26.612 1329.28L25.622 1330.37L28.322 1332.73C27.386 1333.42 26.306 1333.76 25.064 1333.76C23.462 1333.76 22.13 1333.18 21.068 1332.05C20.024 1330.91 19.502 1329.53 19.502 1327.91ZM43.6483 1331.11C43.6483 1329.47 42.6583 1328.25 41.0743 1327.75V1327.73C42.5683 1327.04 43.3243 1325.96 43.3243 1324.49C43.3243 1323.5 42.9283 1322.62 42.1183 1321.88C41.3083 1321.12 40.2103 1320.74 38.7883 1320.74C36.5023 1320.74 34.8283 1322.04 34.1803 1323.98L35.5123 1324.58C36.1783 1322.94 37.2583 1322.13 38.7523 1322.13C39.7063 1322.13 40.4623 1322.38 41.0023 1322.87C41.5423 1323.35 41.8123 1323.95 41.8123 1324.61C41.8123 1325.32 41.5243 1325.93 40.9663 1326.41C40.4083 1326.9 39.6703 1327.15 38.7343 1327.15H37.3663V1328.52H38.7703C40.9483 1328.52 42.1363 1329.62 42.1363 1331.13C42.1363 1331.83 41.8483 1332.46 41.2543 1332.98C40.6603 1333.51 39.8503 1333.76 38.7883 1333.76C37.1503 1333.76 35.9983 1332.93 35.3323 1331.26L34.0363 1331.9C34.7563 1333.92 36.4303 1335.14 38.7883 1335.14C40.2103 1335.14 41.3803 1334.77 42.2803 1333.99C43.1983 1333.22 43.6483 1332.25 43.6483 1331.11ZM50.7556 1335H60.2596V1333.63H52.7716L57.0916 1329.85C58.2076 1328.86 58.9996 1328.02 59.4676 1327.31C59.9536 1326.59 60.1876 1325.78 60.1876 1324.9C60.1876 1323.68 59.7556 1322.69 58.8736 1321.91C58.0096 1321.14 56.9116 1320.74 55.5976 1320.74C53.2216 1320.74 51.5476 1322.15 50.9536 1324.11L52.2856 1324.67C52.9336 1322.98 54.0316 1322.13 55.5616 1322.13C56.4976 1322.13 57.2536 1322.42 57.8116 1322.98C58.3696 1323.53 58.6576 1324.18 58.6576 1324.94C58.6576 1325.62 58.4596 1326.25 58.0816 1326.81C57.7036 1327.37 56.9656 1328.12 55.8676 1329.1L50.7556 1333.63V1335ZM68.28 1320.76C65.4 1320.74 63.456 1322.9 62.754 1325.41C61.998 1327.93 62.412 1330.81 63.834 1332.88C64.77 1334.24 66.336 1335.14 68.208 1335.14C69.144 1335.14 69.99 1334.93 70.764 1334.51C72.996 1333.29 74.094 1330.54 74.094 1327.93C74.094 1324.43 72.132 1320.76 68.28 1320.76ZM63.906 1327.93C63.906 1326.61 64.248 1325.24 64.914 1324.09C65.58 1322.92 66.786 1322.13 68.226 1322.13C69.666 1322.13 70.89 1322.96 71.556 1324.13C72.222 1325.3 72.582 1326.68 72.582 1328C72.582 1330.5 71.286 1333.79 68.244 1333.79C65.202 1333.79 63.906 1330.48 63.906 1327.93ZM76.1209 1335H85.6249V1333.63H78.1369L82.4569 1329.85C83.5729 1328.86 84.3649 1328.02 84.8329 1327.31C85.3189 1326.59 85.5529 1325.78 85.5529 1324.9C85.5529 1323.68 85.1209 1322.69 84.2389 1321.91C83.3749 1321.14 82.2769 1320.74 80.9629 1320.74C78.5869 1320.74 76.9129 1322.15 76.3189 1324.11L77.6509 1324.67C78.2989 1322.98 79.3969 1322.13 80.9269 1322.13C81.8629 1322.13 82.6189 1322.42 83.1769 1322.98C83.7349 1323.53 84.0229 1324.18 84.0229 1324.94C84.0229 1325.62 83.8249 1326.25 83.4469 1326.81C83.0689 1327.37 82.3309 1328.12 81.2329 1329.1L76.1209 1333.63V1335ZM87.6873 1335H97.1913V1333.63H89.7033L94.0233 1329.85C95.1393 1328.86 95.9313 1328.02 96.3993 1327.31C96.8853 1326.59 97.1193 1325.78 97.1193 1324.9C97.1193 1323.68 96.6873 1322.69 95.8053 1321.91C94.9413 1321.14 93.8433 1320.74 92.5293 1320.74C90.1533 1320.74 88.4793 1322.15 87.8853 1324.11L89.2173 1324.67C89.8653 1322.98 90.9633 1322.13 92.4933 1322.13C93.4293 1322.13 94.1853 1322.42 94.7433 1322.98C95.3013 1323.53 95.5893 1324.18 95.5893 1324.94C95.5893 1325.62 95.3913 1326.25 95.0133 1326.81C94.6353 1327.37 93.8973 1328.12 92.7993 1329.1L87.6873 1333.63V1335Z" fill="black"/>
<path d="M262.83 143.84V158H266.718V139.208H263.526L257.142 142.952L258.87 146.096L262.83 143.84Z" fill="black"/>
<path d="M256.03 360H269.782V356.448H261.67L264.838 353.928C266.638 352.512 267.91 351.336 268.606 350.4C269.326 349.464 269.686 348.336 269.686 346.992C269.686 345.264 269.086 343.824 267.862 342.672C266.638 341.496 265.03 340.92 263.014 340.92C261.406 340.92 259.966 341.304 258.694 342.072C257.446 342.816 256.606 343.944 256.15 345.408L259.726 346.92C260.35 345.36 261.43 344.568 262.99 344.568C264.526 344.568 265.678 345.672 265.678 347.016C265.678 347.712 265.462 348.336 265.006 348.912C264.55 349.488 263.758 350.256 262.582 351.216L256.03 356.592V360Z" fill="black"/>
<path d="M269.73 560.6C269.73 558.512 268.89 557.168 266.802 556.304V556.28C268.506 555.368 269.37 554.048 269.37 552.32C269.37 550.712 268.77 549.392 267.57 548.408C266.37 547.424 264.81 546.92 262.89 546.92C259.746 546.92 257.25 548.384 256.194 550.976L259.674 552.632C260.322 551.24 261.33 550.544 262.746 550.544C264.45 550.544 265.458 551.408 265.458 552.584C265.458 553.832 264.474 554.696 262.818 554.696H261.042V558.296H263.034C264.762 558.296 265.794 559.088 265.794 560.504C265.794 561.824 264.69 562.688 263.034 562.688C261.33 562.688 259.962 561.896 259.314 560.528L255.906 562.28C257.034 564.896 259.65 566.288 262.938 566.288C264.882 566.288 266.49 565.76 267.786 564.68C269.082 563.6 269.73 562.232 269.73 560.6Z" fill="black"/>
<path d="M269.802 964.712C269.802 962.816 269.226 961.328 268.074 960.296C266.946 959.24 265.506 958.712 263.778 958.712C262.554 958.712 261.426 959.12 260.394 959.96L260.994 955.736H268.962V952.208H257.898L256.53 961.736L260.178 963.224C260.946 962.48 261.81 962.12 262.746 962.12C264.69 962.12 265.89 963.2 265.89 964.808C265.89 966.536 264.642 967.592 262.89 967.592C261.234 967.592 260.058 966.92 259.338 965.576L256.026 967.544C257.298 969.992 259.554 971.216 262.794 971.216C264.81 971.216 266.49 970.64 267.81 969.464C269.13 968.288 269.802 966.704 269.802 964.712Z" fill="black"/>
<path d="M265.474 1360.74L257.266 1376H261.634L269.938 1360.54V1357.21H256.162V1360.74H265.474Z" fill="black"/>
<path d="M264.266 763.28V767H268.058V763.256H270.722V759.776H268.058V748.208H263.426L255.002 759.464V763.28H264.266ZM264.266 752.768V759.776H259.034L264.266 752.768Z" fill="black"/>
<path d="M259.96 1161.68C260.032 1160.19 260.416 1158.97 261.112 1157.98C261.832 1157 262.888 1156.5 264.28 1156.5C265.432 1156.5 266.56 1156.93 267.664 1157.79L269.68 1154.82C268.072 1153.57 266.296 1152.94 264.352 1152.94C261.616 1152.94 259.504 1153.88 258.04 1155.78C256.576 1157.67 255.856 1160.14 255.856 1163.22C255.856 1166.12 256.384 1168.23 257.44 1169.6C258.808 1171.35 260.752 1172.24 263.224 1172.24C265.072 1172.24 266.704 1171.64 268.12 1170.46C269.536 1169.29 270.232 1167.7 270.232 1165.74C270.232 1164.08 269.656 1162.66 268.504 1161.51C267.376 1160.34 265.912 1159.76 264.112 1159.76C262.408 1159.76 261.04 1160.41 259.96 1161.68ZM259.96 1165.86C259.96 1164.13 261.424 1163.05 263.152 1163.05C265 1163.05 266.32 1164.18 266.32 1165.88C266.32 1166.67 266.008 1167.37 265.408 1167.92C264.808 1168.47 264.064 1168.74 263.176 1168.74C262.312 1168.74 261.568 1168.45 260.92 1167.9C260.272 1167.34 259.96 1166.65 259.96 1165.86Z" fill="black"/>
</svg>
