<svg width="731" height="1170" viewBox="0 0 731 1170" fill="none" xmlns="http://www.w3.org/2000/svg">
<rect x="1" y="1" width="729" height="1168" rx="19" fill="white" stroke="#D0D0D0" stroke-width="2"/>
<path d="M207.061 199.061C207.646 198.475 207.646 197.525 207.061 196.939L197.515 187.393C196.929 186.808 195.979 186.808 195.393 187.393C194.808 187.979 194.808 188.929 195.393 189.515L203.879 198L195.393 206.485C194.808 207.071 194.808 208.021 195.393 208.607C195.979 209.192 196.929 209.192 197.515 208.607L207.061 199.061ZM159 199.5H206V196.5H159V199.5Z" fill="black"/>
<path d="M157.939 215.939C157.354 216.525 157.354 217.475 157.939 218.061L167.485 227.607C168.071 228.192 169.021 228.192 169.607 227.607C170.192 227.021 170.192 226.071 169.607 225.485L161.121 217L169.607 208.515C170.192 207.929 170.192 206.979 169.607 206.393C169.021 205.808 168.071 205.808 167.485 206.393L157.939 215.939ZM206 215.5L159 215.5L159 218.5L206 218.5L206 215.5Z" fill="black"/>
<path d="M55 217H58.072V198.208H55.144V212.056L45.88 198.208H42.4V217H45.304V202.528L55 217ZM74.1409 209.104V206.392H65.8129V200.944H74.8369V198.208H62.8609V217H65.8129V209.104H74.1409ZM76.3394 200.944H82.2914V217H85.2434V200.944H91.2194V198.208H76.3394V200.944ZM92.1831 198.208L99.2151 209.488V217H102.191V209.416L109.295 198.208H105.911L100.727 206.632L95.5911 198.208H92.1831Z" fill="black"/>
<path d="M267.848 198.208V209.824C267.848 212.584 266.216 214.456 263.504 214.456C260.912 214.456 259.136 212.632 259.136 209.728V198.208H256.184V209.848C256.184 212.032 256.808 213.832 258.032 215.2C259.256 216.568 261.08 217.24 263.456 217.24C265.832 217.24 267.656 216.568 268.904 215.2C270.176 213.832 270.8 211.984 270.8 209.704V198.208H267.848ZM280.832 217.216C282.776 217.216 284.336 216.688 285.488 215.608C286.64 214.528 287.216 213.256 287.216 211.792C287.216 210.424 286.76 209.296 285.872 208.432C284.984 207.544 283.376 206.752 281.048 206.056C278.744 205.36 277.568 204.592 277.568 203.176C277.568 201.664 278.888 200.608 280.712 200.608C282.512 200.608 283.784 201.496 284.504 203.248L286.952 201.928C286.064 199.6 283.952 197.944 280.784 197.944C279.032 197.944 277.568 198.472 276.344 199.528C275.144 200.56 274.544 201.832 274.544 203.344C274.544 204.784 275.024 205.936 275.984 206.776C276.896 207.592 278.36 208.312 280.4 208.96C283.088 209.8 284.168 210.592 284.168 211.96C284.168 213.52 282.8 214.528 280.88 214.528C278.84 214.528 277.208 213.424 276.416 211.408L273.92 212.704C274.976 215.584 277.544 217.216 280.832 217.216ZM306.743 207.616C306.743 205.24 305.711 202.384 303.383 200.392C301.871 199.072 299.495 198.208 296.711 198.208H290.759V217H296.759C300.095 217 302.831 215.752 304.367 213.928C305.927 212.08 306.743 209.848 306.743 207.616ZM303.647 207.616C303.647 209.248 303.095 210.808 302.015 212.128C300.935 213.4 299.015 214.264 296.639 214.264H293.711V200.944H296.663C299.039 200.944 300.959 201.856 302.015 203.2C303.095 204.52 303.647 206.08 303.647 207.616Z" fill="black"/>
<rect x="399" y="172" width="284" height="65" rx="10" fill="white" stroke="black" stroke-width="2"/>
<path d="M441.608 207.888C441.608 206.76 441.176 205.704 440.336 204.744C439.496 203.832 438.176 203.112 436.424 202.608V195.984C437.96 196.224 439.088 197.184 439.784 198.888L441.44 197.952C440.672 195.864 438.944 194.424 436.448 194.136V191.616H434.816V194.136C433.376 194.28 432.176 194.808 431.192 195.72C430.208 196.608 429.728 197.76 429.728 199.176C429.728 201.672 431.312 203.256 434.84 204.216V211.224C433.04 211.008 431.72 209.808 430.88 207.672L429.2 208.56C430.208 211.296 432.08 212.784 434.816 213.048V215.448H436.448V213.048C438.008 212.88 439.256 212.328 440.192 211.344C441.128 210.36 441.608 209.208 441.608 207.888ZM431.672 199.08C431.672 197.448 433.04 196.224 434.84 195.96V202.176C432.608 201.504 431.672 200.592 431.672 199.08ZM436.424 204.648C438.56 205.344 439.616 206.472 439.616 208.032C439.616 209.688 438.272 210.936 436.424 211.224V204.648ZM452.481 195.888C453.897 195.888 455.217 196.488 456.489 197.688L457.545 196.128C456.105 194.712 454.401 194.016 452.457 194.016C446.937 194.016 444.393 198.936 444.393 204.288C444.393 205.704 444.465 206.856 444.633 207.696C444.801 208.536 445.089 209.328 445.545 210.12C446.673 212.064 448.953 213.192 451.281 213.192C453.129 213.192 454.665 212.64 455.937 211.512C457.209 210.384 457.857 208.848 457.857 206.904C457.857 205.296 457.281 203.904 456.129 202.752C454.977 201.6 453.441 201.024 451.545 201.024C450.609 201.024 449.673 201.24 448.689 201.696C447.705 202.128 446.937 202.8 446.361 203.736C446.385 201.456 446.913 199.584 447.945 198.12C448.977 196.632 450.489 195.888 452.481 195.888ZM451.257 202.752C452.649 202.752 453.777 203.184 454.617 204.024C455.481 204.864 455.913 205.848 455.913 207C455.913 208.392 455.457 209.472 454.569 210.24C453.681 210.984 452.577 211.368 451.257 211.368C450.033 211.368 448.929 210.96 447.993 210.144C447.057 209.328 446.601 208.248 446.601 206.904C446.601 205.704 447.057 204.72 447.969 203.928C448.881 203.136 449.985 202.752 451.257 202.752ZM460.037 196.032H470.717L461.981 213H464.165L472.829 196.032V194.208H460.037V196.032ZM474.883 209.76C473.923 209.76 473.155 210.528 473.155 211.488C473.155 212.448 473.923 213.216 474.883 213.216C475.819 213.216 476.587 212.448 476.587 211.488C476.587 210.528 475.819 209.76 474.883 209.76ZM487.491 194.016C483.651 193.992 481.059 196.872 480.123 200.208C479.115 203.568 479.667 207.408 481.563 210.168C482.811 211.992 484.899 213.192 487.395 213.192C488.643 213.192 489.771 212.904 490.803 212.352C493.779 210.72 495.243 207.048 495.243 203.568C495.243 198.912 492.627 194.016 487.491 194.016ZM481.659 203.568C481.659 201.816 482.115 199.992 483.003 198.456C483.891 196.896 485.499 195.84 487.419 195.84C489.339 195.84 490.971 196.944 491.859 198.504C492.747 200.064 493.227 201.912 493.227 203.664C493.227 207 491.499 211.392 487.443 211.392C483.387 211.392 481.659 206.976 481.659 203.568ZM505.889 194.016C502.049 193.992 499.457 196.872 498.521 200.208C497.513 203.568 498.065 207.408 499.961 210.168C501.209 211.992 503.297 213.192 505.793 213.192C507.041 213.192 508.169 212.904 509.201 212.352C512.177 210.72 513.641 207.048 513.641 203.568C513.641 198.912 511.025 194.016 505.889 194.016ZM500.057 203.568C500.057 201.816 500.513 199.992 501.401 198.456C502.289 196.896 503.897 195.84 505.817 195.84C507.737 195.84 509.369 196.944 510.257 198.504C511.145 200.064 511.625 201.912 511.625 203.664C511.625 207 509.897 211.392 505.841 211.392C501.785 211.392 500.057 206.976 500.057 203.568Z" fill="#D3D3D3"/>
<path d="M0 896H730V1150C730 1161.05 721.046 1170 710 1170H20C8.95432 1170 0 1161.05 0 1150V896Z" fill="url(#paint0_linear_2:157)" fill-opacity="0.15"/>
<path d="M236.841 61.82C240.369 60.392 242.553 57.452 242.553 53.084C242.553 49.934 241.335 47.372 239.403 45.776C237.387 44.18 234.741 43.382 231.759 43.382H219.663V74H226.005V62.996H230.583L236.421 74H243.309L236.841 61.82ZM231.213 49.388C233.649 49.388 236.127 50.27 236.127 53.21C236.127 54.512 235.665 55.52 234.699 56.15C233.733 56.822 232.599 57.158 231.255 57.158H225.963V49.388H231.213ZM245.868 58.712C245.868 67.574 252.882 74.462 261.702 74.462C263.886 74.462 265.944 74.042 267.918 73.202C269.892 72.404 271.572 71.27 273 69.842C274.428 68.456 275.562 66.734 276.402 64.76C277.242 62.828 277.662 60.77 277.662 58.586C277.662 56.402 277.242 54.344 276.444 52.412C275.604 50.48 274.47 48.8 273.084 47.414C271.656 46.028 269.976 44.936 268.044 44.138C266.07 43.298 264.012 42.92 261.828 42.92C259.686 42.92 257.628 43.34 255.654 44.138C253.68 44.978 251.958 46.07 250.53 47.498C249.102 48.884 247.968 50.564 247.128 52.538C246.288 54.512 245.868 56.57 245.868 58.712ZM253.596 53.84C254.436 52.37 255.57 51.194 256.998 50.354C258.468 49.472 260.064 49.052 261.786 49.052C266.952 48.968 271.32 53.462 271.194 58.67C271.194 60.392 270.774 62.03 269.976 63.5C269.136 64.97 268.002 66.146 266.532 67.028C265.104 67.91 263.508 68.33 261.786 68.33C260.064 68.33 258.468 67.91 256.998 67.028C255.57 66.146 254.436 64.97 253.596 63.5C252.798 62.03 252.378 60.392 252.378 58.67C252.378 56.948 252.798 55.31 253.596 53.84ZM282.909 74H289.251V43.382H282.909V74ZM320.107 74.42C321.871 74.42 323.467 74.21 325.021 73.748C326.575 73.244 327.877 72.656 328.927 71.942C329.977 71.228 330.943 70.388 331.783 69.464C333.463 67.616 334.303 65.894 334.681 64.298L328.633 62.198C328.381 63.164 327.877 64.214 326.911 65.348C326.407 65.894 325.861 66.398 325.273 66.818C324.055 67.7 322.207 68.33 320.191 68.33C318.427 68.33 316.831 67.868 315.403 66.986C312.547 65.222 310.909 62.156 310.909 58.67C310.909 56.906 311.329 55.31 312.127 53.84C312.883 52.412 314.017 51.236 315.445 50.396C316.873 49.514 318.469 49.094 320.191 49.094C322.207 49.094 324.055 49.724 325.273 50.564C327.163 51.908 328.255 53.714 328.507 54.89L334.513 52.832C334.051 51.068 333.127 49.304 331.489 47.54C330.691 46.658 329.767 45.86 328.717 45.23C326.617 43.844 323.593 42.92 320.275 42.92C318.175 42.92 316.159 43.34 314.227 44.096C312.295 44.894 310.573 45.986 309.145 47.372C307.717 48.758 306.541 50.438 305.659 52.37C304.819 54.386 304.357 56.486 304.357 58.712C304.357 61.022 304.819 63.164 305.659 65.138C306.541 67.112 307.675 68.792 309.103 70.136C312.001 72.824 315.949 74.42 320.107 74.42ZM344.262 74.42C346.992 74.42 349.05 73.37 350.478 71.396H350.562C350.562 72.614 350.604 73.454 350.688 74H356.358C356.274 73.034 356.19 71.9 356.19 70.64V61.064C356.19 55.52 352.368 52.58 347.202 52.622C345.69 52.622 344.304 52.874 343.002 53.336C341.658 53.798 340.524 54.554 339.6 55.562C338.634 56.57 338.046 57.788 337.794 59.216L343.17 60.434C343.632 58.67 345.06 57.578 346.908 57.578C349.008 57.578 350.184 58.712 350.184 60.182C350.184 61.064 349.638 61.61 348.546 61.61H346.53C344.766 61.61 343.212 61.82 341.532 62.45C339.138 63.29 337.332 65.012 337.332 67.994V68.162C337.332 70.01 338.004 71.522 339.39 72.698C340.734 73.832 342.372 74.42 344.262 74.42ZM346.026 69.968C344.598 69.968 343.464 69.212 343.464 67.826C343.464 67.07 343.8 66.482 344.472 66.062C345.102 65.642 345.774 65.432 346.53 65.432H350.184V65.936C350.184 67.028 349.806 67.994 349.05 68.75C348.294 69.548 347.286 69.968 346.026 69.968ZM361.6 74H367.732V42.122H361.6V74ZM383.368 74.462C384.88 74.462 386.35 74.21 387.778 73.664C389.164 73.16 390.382 72.362 391.516 71.27C392.608 70.136 393.364 68.834 393.784 67.28L388.198 65.6C387.568 67.406 385.888 68.834 383.41 68.834C381.898 68.834 380.722 68.33 379.798 67.322C378.832 66.356 378.37 65.054 378.37 63.5C378.37 61.904 378.874 60.644 379.84 59.678C380.806 58.712 381.982 58.25 383.368 58.25C384.628 58.25 385.636 58.544 386.476 59.174C387.274 59.804 387.82 60.56 388.072 61.442L393.658 59.762C393.112 57.452 391.684 55.562 389.794 54.428C387.946 53.252 385.72 52.622 383.494 52.622C381.394 52.622 379.462 53.126 377.698 54.05C375.976 55.058 374.59 56.36 373.624 58.04C372.616 59.72 372.112 61.568 372.112 63.584C371.986 69.716 376.9 74.546 383.368 74.462ZM397.566 53.126V66.23C397.566 68.414 398.238 70.388 399.456 71.9C400.674 73.454 402.732 74.42 405.252 74.42C407.73 74.42 409.662 73.412 411.048 71.396H411.132V74H417.138V53.126H411.048V64.76C411.048 65.936 410.712 66.86 410.082 67.616C409.452 68.372 408.528 68.75 407.31 68.75C404.832 68.75 403.656 67.196 403.656 64.76V53.126H397.566ZM422.754 74H428.886V42.122H422.754V74ZM440.28 74.42C443.01 74.42 445.068 73.37 446.496 71.396H446.58C446.58 72.614 446.622 73.454 446.706 74H452.376C452.292 73.034 452.208 71.9 452.208 70.64V61.064C452.208 55.52 448.386 52.58 443.22 52.622C441.708 52.622 440.322 52.874 439.02 53.336C437.676 53.798 436.542 54.554 435.618 55.562C434.652 56.57 434.064 57.788 433.812 59.216L439.188 60.434C439.65 58.67 441.078 57.578 442.926 57.578C445.026 57.578 446.202 58.712 446.202 60.182C446.202 61.064 445.656 61.61 444.564 61.61H442.548C440.784 61.61 439.23 61.82 437.55 62.45C435.156 63.29 433.35 65.012 433.35 67.994V68.162C433.35 70.01 434.022 71.522 435.408 72.698C436.752 73.832 438.39 74.42 440.28 74.42ZM442.044 69.968C440.616 69.968 439.482 69.212 439.482 67.826C439.482 67.07 439.818 66.482 440.49 66.062C441.12 65.642 441.792 65.432 442.548 65.432H446.202V65.936C446.202 67.028 445.824 67.994 445.068 68.75C444.312 69.548 443.304 69.968 442.044 69.968ZM470.399 58.418V53.126H465.233V46.574H459.269V53.126H455.111V58.418H459.143V66.65C459.143 71.732 461.663 74.294 466.703 74.294C468.131 74.294 469.349 74.126 470.357 73.79V68.834C469.391 68.96 468.677 69.002 468.215 69.002C466.199 69.002 465.233 67.994 465.233 66.314V58.418H470.399ZM473.05 63.626C473.05 65.642 473.596 67.49 474.604 69.17C475.612 70.85 476.956 72.11 478.678 73.076C480.442 74 482.332 74.462 484.432 74.462C486.49 74.462 488.422 74 490.186 73.034C491.908 72.11 493.294 70.808 494.344 69.086C495.352 67.406 495.856 65.558 495.856 63.5C495.856 61.442 495.352 59.594 494.344 57.956C493.336 56.276 491.95 54.974 490.228 54.05C488.506 53.084 486.574 52.622 484.516 52.622C482.416 52.622 480.526 53.126 478.762 54.05C476.998 55.016 475.612 56.36 474.604 58.04C473.596 59.72 473.05 61.568 473.05 63.626ZM480.778 59.72C481.786 58.712 483.004 58.208 484.432 58.208C485.902 58.208 487.12 58.712 488.128 59.72C489.136 60.728 489.598 61.988 489.598 63.542C489.598 65.096 489.136 66.398 488.128 67.364C487.12 68.372 485.902 68.876 484.474 68.876C483.004 68.876 481.786 68.372 480.778 67.364C479.812 66.356 479.308 65.096 479.308 63.542C479.308 61.988 479.812 60.728 480.778 59.72ZM513.086 53.126C512.54 53 511.994 52.916 511.448 52.916C509.138 52.916 507.122 53.882 506.03 56.15H505.988V53.126H500.192V74H506.198V64.844C506.198 61.064 508.13 58.922 511.154 58.922C511.91 58.922 512.54 59.006 513.086 59.09V53.126Z" fill="black"/>
<rect x="48" y="1035" width="635" height="91" rx="10" fill="#FFD600"/>
<path d="M315.957 1082.37C315.957 1081.06 315.649 1080.02 315.061 1079.26C314.417 1078.48 313.493 1077.86 312.233 1077.39V1077.36C314.137 1076.35 315.089 1074.9 315.089 1072.99C315.089 1071.2 314.277 1069.77 313.045 1068.9C311.813 1068.04 310.245 1067.59 308.565 1067.59H300.109V1088H308.705C312.289 1088 315.957 1086.52 315.957 1082.37ZM310.945 1073.64C310.945 1074.5 310.553 1075.15 309.881 1075.46C309.209 1075.76 308.537 1075.88 307.697 1075.88H304.225V1071.48H307.977C309.405 1071.48 310.945 1071.96 310.945 1073.64ZM311.841 1081.81C311.841 1082.68 311.449 1083.32 310.805 1083.63C310.161 1083.94 309.489 1084.08 308.649 1084.08H304.225V1079.54H308.509C310.749 1079.54 311.841 1080.3 311.841 1081.81ZM318.851 1074.08V1082.82C318.851 1084.28 319.299 1085.59 320.111 1086.6C320.923 1087.64 322.295 1088.28 323.975 1088.28C325.627 1088.28 326.915 1087.61 327.839 1086.26H327.895V1088H331.899V1074.08H327.839V1081.84C327.839 1082.62 327.615 1083.24 327.195 1083.74C326.775 1084.25 326.159 1084.5 325.347 1084.5C323.695 1084.5 322.911 1083.46 322.911 1081.84V1074.08H318.851ZM340.908 1094.86L349.364 1074.08H345.164L342.056 1082.04L338.584 1074.08H334.104L339.956 1086.52L336.568 1094.86H340.908ZM371.727 1088H376.515V1067.59H372.343V1081.39L363.551 1067.59H358.651V1088H362.823V1073.97L371.727 1088ZM394.705 1071.62V1067.59H381.265V1088H385.465V1079.96H393.753V1075.93H385.465V1071.62H394.705ZM406.73 1071.68H412.834V1067.59H396.398V1071.68H402.502V1088H406.73V1071.68ZM425.461 1079.74L432.937 1067.59H428.121L423.333 1075.76L418.629 1067.59H413.757L421.233 1079.94V1088H425.461V1079.74Z" fill="black"/>
<line x1="3" y1="710" x2="730" y2="710" stroke="#D0D0D0" stroke-width="2"/>
<rect x="43.5" y="804.5" width="634" height="49" rx="9.5" stroke="#C0C0C0"/>
<rect x="181.25" y="804.25" width="0.5" height="49.5" rx="0.25" stroke="#C0C0C0" stroke-width="0.5"/>
<rect x="308.25" y="804.25" width="0.5" height="49.5" rx="0.25" stroke="#C0C0C0" stroke-width="0.5"/>
<rect x="434.25" y="804.25" width="0.5" height="49.5" rx="0.25" stroke="#C0C0C0" stroke-width="0.5"/>
<rect x="553.25" y="804.25" width="0.5" height="49.5" rx="0.25" stroke="#C0C0C0" stroke-width="0.5"/>
<rect x="420" y="795" width="149" height="64" rx="10" fill="#27AE60"/>
<path d="M101.62 831.788C101.62 830.78 101.296 829.916 100.648 829.196C100 828.458 99.1 828.044 98.002 827.936L101.242 825.254V822.878H92.062V825.326H97.732L94.222 828.35L95.482 830.204C95.824 830.006 96.22 829.916 96.688 829.916C97.282 829.916 97.804 830.096 98.218 830.456C98.632 830.816 98.848 831.248 98.848 831.734C98.848 832.31 98.632 832.778 98.2 833.138C97.768 833.516 97.246 833.696 96.634 833.696C96.31 833.696 95.986 833.624 95.68 833.48C95.374 833.336 95.104 833.084 94.852 832.742C94.6 832.4 94.456 831.986 94.42 831.5L91.684 831.95C91.774 833.282 92.458 834.434 93.412 835.118C94.366 835.802 95.518 836.198 96.67 836.198C97.534 836.198 98.362 836 99.118 835.622C99.892 835.244 100.486 834.704 100.954 834.02C101.404 833.354 101.62 832.598 101.62 831.788ZM103.289 829.43C103.289 830.834 103.559 832.148 104.171 833.3C105.017 834.992 106.619 836.162 108.887 836.162C110.363 836.162 111.641 835.622 112.523 834.758C113.855 833.462 114.539 831.464 114.539 829.358C114.539 827.972 114.269 826.658 113.639 825.524C112.775 823.85 111.173 822.68 108.941 822.68C107.087 822.68 105.575 823.49 104.675 824.75C103.775 826.028 103.289 827.666 103.289 829.43ZM106.133 828.314C106.259 827.558 106.565 826.784 106.997 826.226C107.429 825.668 108.131 825.272 108.923 825.272C109.913 825.272 110.705 825.848 111.137 826.694C111.569 827.54 111.785 828.494 111.785 829.412C111.785 831.14 110.993 833.57 108.923 833.57C107.681 833.552 106.853 832.706 106.457 831.608C106.007 830.51 105.935 829.394 106.133 828.314ZM128.306 829.412C128.306 827.36 127.64 825.758 126.326 824.606C124.994 823.454 123.194 822.878 120.89 822.878H116.876V836H120.836C123.122 836 125.048 835.316 126.326 834.164C127.586 833.03 128.306 831.356 128.306 829.412ZM125.516 829.412C125.516 830.69 125.102 831.68 124.256 832.382C123.428 833.084 122.312 833.426 120.926 833.426H119.576V825.434H120.962C123.536 825.434 125.516 826.82 125.516 829.412Z" fill="black"/>
<path d="M239.62 831.788C239.62 830.78 239.296 829.916 238.648 829.196C238 828.458 237.1 828.044 236.002 827.936L239.242 825.254V822.878H230.062V825.326H235.732L232.222 828.35L233.482 830.204C233.824 830.006 234.22 829.916 234.688 829.916C235.282 829.916 235.804 830.096 236.218 830.456C236.632 830.816 236.848 831.248 236.848 831.734C236.848 832.31 236.632 832.778 236.2 833.138C235.768 833.516 235.246 833.696 234.634 833.696C234.31 833.696 233.986 833.624 233.68 833.48C233.374 833.336 233.104 833.084 232.852 832.742C232.6 832.4 232.456 831.986 232.42 831.5L229.684 831.95C229.774 833.282 230.458 834.434 231.412 835.118C232.366 835.802 233.518 836.198 234.67 836.198C235.534 836.198 236.362 836 237.118 835.622C237.892 835.244 238.486 834.704 238.954 834.02C239.404 833.354 239.62 832.598 239.62 831.788ZM253.943 836H256.607V822.878H252.845L249.299 831.608L245.681 822.878H242.009V836H244.673V827.108H244.691L248.381 836H250.199L253.907 827.054H253.943V836Z" fill="black"/>
<path d="M363.542 824.552L357.386 836H360.662L366.89 824.408V821.906H356.558V824.552H363.542ZM381.665 826.694H381.683V836H384.563V821.906H380.693L376.769 831.356L372.773 821.906H369.011V836H371.873V826.766H371.891L375.797 836H377.741L381.665 826.694Z" fill="black"/>
<path d="M606.49 836.162C607.408 836.162 608.236 835.982 608.974 835.622C609.712 835.28 610.306 834.74 610.756 834.038C611.206 833.354 611.422 832.544 611.422 831.608C611.422 830.348 611.026 829.322 610.216 828.548C609.424 827.774 608.38 827.378 607.12 827.378C606.742 827.378 606.346 827.45 605.95 827.594C605.518 827.72 605.176 827.918 604.906 828.152L605.464 825.344H610.864V822.878H603.448L602.062 829.502L604.618 830.564C604.816 830.294 605.086 830.078 605.464 829.898C605.824 829.736 606.166 829.646 606.508 829.646C607.156 829.646 607.678 829.826 608.092 830.168C608.506 830.528 608.722 831.032 608.722 831.662C608.722 832.256 608.506 832.742 608.074 833.12C607.642 833.48 607.12 833.66 606.526 833.66C605.914 833.66 605.41 833.48 605.014 833.138C604.6 832.778 604.348 832.31 604.258 831.716L601.648 832.238C601.954 834.794 604.132 836.162 606.49 836.162ZM619.955 830.69L624.761 822.878H621.665L618.587 828.134L615.563 822.878H612.431L617.237 830.816V836H619.955V830.69Z" fill="black"/>
<path d="M486.32 825.38V836H489.236V821.906H486.842L482.054 824.714L483.35 827.072L486.32 825.38ZM496.313 836H499.229V830.294L504.395 821.906H501.065L497.771 827.54L494.513 821.906H491.147L496.313 830.42V836Z" fill="white"/>
<path d="M47.848 763.216C49.792 763.216 51.352 762.688 52.504 761.608C53.656 760.528 54.232 759.256 54.232 757.792C54.232 756.424 53.776 755.296 52.888 754.432C52 753.544 50.392 752.752 48.064 752.056C45.76 751.36 44.584 750.592 44.584 749.176C44.584 747.664 45.904 746.608 47.728 746.608C49.528 746.608 50.8 747.496 51.52 749.248L53.968 747.928C53.08 745.6 50.968 743.944 47.8 743.944C46.048 743.944 44.584 744.472 43.36 745.528C42.16 746.56 41.56 747.832 41.56 749.344C41.56 750.784 42.04 751.936 43 752.776C43.912 753.592 45.376 754.312 47.416 754.96C50.104 755.8 51.184 756.592 51.184 757.96C51.184 759.52 49.816 760.528 47.896 760.528C45.856 760.528 44.224 759.424 43.432 757.408L40.936 758.704C41.992 761.584 44.56 763.216 47.848 763.216ZM64.1618 752.752V750.184H61.0178V746.224H58.1618V750.184H55.8098V752.752H58.1618V758.872C58.1618 761.656 59.7938 763.144 62.6018 763.144C63.1538 763.144 63.6818 763.048 64.1378 762.88V760.456C63.8258 760.528 63.5138 760.552 63.2258 760.552C61.7618 760.552 61.0178 759.952 61.0178 758.416V752.752H64.1618ZM74.4822 754.312C74.4822 755.032 74.0742 755.392 73.2822 755.392H71.6982C69.4422 755.392 66.3702 756.328 66.3702 759.304V759.448C66.3702 760.552 66.7782 761.464 67.5942 762.16C68.4102 762.856 69.4422 763.216 70.6902 763.216C72.4182 763.216 73.6662 762.568 74.4582 761.248V763H77.2662V754.84C77.2662 753.952 77.1222 753.184 76.8342 752.536C76.0422 750.784 74.4342 749.92 72.0342 749.92C69.4182 749.92 67.5942 751 66.5862 753.184L68.7702 754.432C69.4182 753.064 70.4982 752.392 71.9622 752.392C73.5702 752.392 74.4822 753.256 74.4822 754.312ZM74.4582 757.816C74.4582 759.736 73.2102 760.936 71.2662 760.936C70.0422 760.936 69.2262 760.24 69.2262 759.184C69.2262 758.632 69.4902 758.2 69.9942 757.888C70.5222 757.576 71.0982 757.408 71.6982 757.408H74.4582V757.816ZM80.9669 763H83.8229V756.736H83.8949L89.2469 763H93.0149L86.9189 755.992L92.7029 750.184H88.8149L83.8469 755.224H83.8229V743.464H80.9669V763ZM105.97 757.432C105.994 757.216 106.018 756.928 106.018 756.544C106.018 754.552 105.466 752.968 104.362 751.744C103.258 750.52 101.722 749.92 99.7776 749.92C97.9296 749.92 96.3936 750.568 95.1696 751.864C93.9456 753.16 93.3216 754.72 93.3216 756.568C93.3216 758.464 93.9696 760.072 95.2416 761.344C96.5376 762.616 98.1456 763.24 100.042 763.24C102.346 763.24 104.434 762.136 105.514 760.144L103.45 758.776C102.754 760.096 101.602 760.768 99.9936 760.768C99.0096 760.768 98.1456 760.456 97.4016 759.832C96.6576 759.184 96.2736 758.392 96.2496 757.432H105.97ZM99.7776 752.368C101.602 752.368 103.018 753.472 103.114 755.272H96.3936C96.6576 753.52 98.0256 752.368 99.7776 752.368ZM108.063 756.568C108.063 758.344 108.663 759.904 109.863 761.224C111.063 762.544 112.575 763.192 114.375 763.192C115.047 763.192 115.815 763.024 116.679 762.664C117.567 762.304 118.215 761.752 118.671 761.008V763H121.455V743.464H118.599V752.008C118.167 751.312 117.543 750.808 116.703 750.472C115.887 750.112 115.143 749.944 114.447 749.944C112.551 749.944 110.991 750.616 109.815 751.96C108.639 753.304 108.063 754.84 108.063 756.568ZM114.807 752.512C115.935 752.512 116.847 752.896 117.567 753.688C118.287 754.48 118.647 755.44 118.647 756.568C118.647 757.696 118.287 758.656 117.567 759.448C116.871 760.216 115.935 760.6 114.807 760.6C113.679 760.6 112.743 760.216 112.023 759.448C111.327 758.656 110.967 757.696 110.967 756.568C110.967 755.44 111.327 754.48 112.023 753.688C112.743 752.896 113.679 752.512 114.807 752.512ZM143.375 755.104V752.392H135.047V746.944H144.071V744.208H132.095V763H135.047V755.104H143.375ZM152.66 749.92C150.788 749.92 149.18 750.568 147.86 751.84C146.54 753.112 145.868 754.696 145.868 756.568C145.868 758.44 146.516 760.024 147.836 761.296C149.156 762.568 150.764 763.216 152.636 763.216C154.532 763.216 156.116 762.568 157.412 761.296C158.732 760 159.38 758.416 159.38 756.52C159.38 754.648 158.732 753.088 157.412 751.816C156.092 750.544 154.508 749.92 152.66 749.92ZM149.852 753.688C150.572 752.896 151.508 752.512 152.636 752.512C153.764 752.512 154.7 752.896 155.396 753.688C156.116 754.48 156.476 755.44 156.476 756.568C156.476 757.696 156.116 758.656 155.42 759.448C154.724 760.24 153.788 760.624 152.66 760.624C151.532 760.624 150.596 760.216 149.876 759.424C149.156 758.608 148.796 757.648 148.796 756.52C148.796 755.392 149.156 754.456 149.852 753.688ZM169.373 750.136C169.205 750.088 168.989 750.064 168.677 750.064C167.117 750.064 165.941 750.784 165.149 752.224V750.184H162.365V763H165.221V756.496C165.221 754.264 166.373 752.992 168.557 752.992C168.869 752.992 169.133 753.016 169.373 753.064V750.136Z" fill="black"/>
<line y1="120" x2="727" y2="120" stroke="#D0D0D0" stroke-width="2"/>
<line x1="34" y1="1004" x2="696" y2="1004" stroke="#D0D0D0" stroke-width="2"/>
<rect x="190" y="596" width="152" height="44" rx="22" transform="rotate(-180 190 596)" fill="#F2F2F2"/>
<path d="M62.7048 588.749C70.8261 588.749 77.4097 582.146 77.4097 574C77.4097 565.854 70.8261 559.25 62.7048 559.25C54.5836 559.25 48 565.854 48 574C48 582.146 54.5836 588.749 62.7048 588.749Z" fill="#FFC209"/>
<path d="M67.4258 568.16L69.1285 565.148L70.9085 568.16L69.1285 567.156L67.4258 568.16Z" fill="black"/>
<path d="M67.4258 568.161L69.1285 567.157L69.0511 565.227L67.4258 568.161Z" fill="black"/>
<path d="M69.1282 565.148L69.0508 565.226L69.1282 567.156L70.9082 568.16L69.1282 565.148Z" fill="black"/>
<path d="M56.2812 582.834V565.227L70.9087 578.432V582.911L59.2222 572.331V582.911H56.2812V582.834Z" fill="black"/>
<path d="M68.6648 573.179C68.5874 573.179 68.4326 573.102 68.4326 572.948V569.704C68.4326 569.627 68.51 569.473 68.6648 569.473C68.7422 569.473 68.897 569.55 68.897 569.704V572.948C68.897 573.102 68.8196 573.179 68.6648 573.179Z" fill="black"/>
<path d="M69.5935 573.179C69.5161 573.179 69.3613 573.102 69.3613 572.948V569.704C69.3613 569.627 69.4387 569.473 69.5935 569.473C69.6709 569.473 69.8257 569.55 69.8257 569.704V572.948C69.8257 573.102 69.7483 573.179 69.5935 573.179Z" fill="black"/>
<path d="M87.793 567.664L89.161 569.92L93.385 567.376V583H96.337V564.208H93.529L87.793 567.664ZM99.9829 573.592C99.9829 576.352 100.703 578.632 102.167 580.48C103.631 582.304 105.527 583.216 107.855 583.216C110.183 583.216 112.103 582.304 113.567 580.456C115.031 578.608 115.775 576.304 115.775 573.544C115.775 570.808 115.055 568.528 113.591 566.704C112.127 564.856 110.231 563.944 107.903 563.944C105.575 563.944 103.679 564.88 102.191 566.728C100.727 568.576 99.9829 570.856 99.9829 573.592ZM112.727 573.592C112.727 575.536 112.295 577.192 111.407 578.512C110.519 579.832 109.367 580.504 107.903 580.504C106.439 580.504 105.263 579.832 104.375 578.488C103.487 577.144 103.055 575.488 103.055 573.544C103.055 571.6 103.487 569.968 104.351 568.648C105.239 567.328 106.391 566.656 107.855 566.656C109.319 566.656 110.495 567.328 111.383 568.672C112.271 570.016 112.727 571.648 112.727 573.592ZM118.311 573.592C118.311 576.352 119.031 578.632 120.495 580.48C121.959 582.304 123.855 583.216 126.183 583.216C128.511 583.216 130.431 582.304 131.895 580.456C133.359 578.608 134.103 576.304 134.103 573.544C134.103 570.808 133.383 568.528 131.919 566.704C130.455 564.856 128.559 563.944 126.231 563.944C123.903 563.944 122.007 564.88 120.519 566.728C119.055 568.576 118.311 570.856 118.311 573.592ZM131.055 573.592C131.055 575.536 130.623 577.192 129.735 578.512C128.847 579.832 127.695 580.504 126.231 580.504C124.767 580.504 123.591 579.832 122.703 578.488C121.815 577.144 121.383 575.488 121.383 573.544C121.383 571.6 121.815 569.968 122.679 568.648C123.567 567.328 124.719 566.656 126.183 566.656C127.647 566.656 128.823 567.328 129.711 568.672C130.599 570.016 131.055 571.648 131.055 573.592Z" fill="black"/>
<rect x="355" y="596" width="152" height="44" rx="22" transform="rotate(-180 355 596)" fill="#27AE60"/>
<path d="M227.705 588.749C235.826 588.749 242.41 582.146 242.41 574C242.41 565.854 235.826 559.25 227.705 559.25C219.584 559.25 213 565.854 213 574C213 582.146 219.584 588.749 227.705 588.749Z" fill="#FFC209"/>
<path d="M232.426 568.16L234.128 565.148L235.909 568.16L234.128 567.156L232.426 568.16Z" fill="black"/>
<path d="M232.426 568.161L234.128 567.157L234.051 565.227L232.426 568.161Z" fill="black"/>
<path d="M234.128 565.148L234.051 565.226L234.128 567.156L235.908 568.16L234.128 565.148Z" fill="black"/>
<path d="M221.281 582.834V565.227L235.909 578.432V582.911L224.222 572.331V582.911H221.281V582.834Z" fill="black"/>
<path d="M233.665 573.179C233.587 573.179 233.433 573.102 233.433 572.948V569.704C233.433 569.627 233.51 569.473 233.665 569.473C233.742 569.473 233.897 569.55 233.897 569.704V572.948C233.897 573.102 233.82 573.179 233.665 573.179Z" fill="black"/>
<path d="M234.594 573.179C234.516 573.179 234.361 573.102 234.361 572.948V569.704C234.361 569.627 234.439 569.473 234.594 569.473C234.671 569.473 234.826 569.55 234.826 569.704V572.948C234.826 573.102 234.748 573.179 234.594 573.179Z" fill="black"/>
<path d="M259.993 583.216C261.913 583.216 263.545 582.664 264.865 581.536C266.185 580.408 266.857 578.896 266.857 577C266.857 575.248 266.281 573.808 265.153 572.68C264.025 571.552 262.513 570.976 260.665 570.976C259.201 570.976 257.953 571.408 256.945 572.248L257.689 566.872H265.945V564.208H255.457L254.041 574.12L256.561 575.152C257.521 574.072 258.697 573.544 260.113 573.544C262.201 573.544 263.809 574.84 263.809 577.048C263.809 578.104 263.449 578.944 262.705 579.568C261.985 580.192 261.097 580.504 260.041 580.504C258.241 580.504 256.945 579.592 256.153 577.768L253.609 579.184C254.761 581.848 257.113 583.216 259.993 583.216ZM269.225 573.592C269.225 576.352 269.945 578.632 271.409 580.48C272.873 582.304 274.769 583.216 277.097 583.216C279.425 583.216 281.345 582.304 282.809 580.456C284.273 578.608 285.017 576.304 285.017 573.544C285.017 570.808 284.297 568.528 282.833 566.704C281.369 564.856 279.473 563.944 277.145 563.944C274.817 563.944 272.921 564.88 271.433 566.728C269.969 568.576 269.225 570.856 269.225 573.592ZM281.969 573.592C281.969 575.536 281.537 577.192 280.649 578.512C279.761 579.832 278.609 580.504 277.145 580.504C275.681 580.504 274.505 579.832 273.617 578.488C272.729 577.144 272.297 575.488 272.297 573.544C272.297 571.6 272.729 569.968 273.593 568.648C274.481 567.328 275.633 566.656 277.097 566.656C278.561 566.656 279.737 567.328 280.625 568.672C281.513 570.016 281.969 571.648 281.969 573.592ZM287.553 573.592C287.553 576.352 288.273 578.632 289.737 580.48C291.201 582.304 293.097 583.216 295.425 583.216C297.753 583.216 299.673 582.304 301.137 580.456C302.601 578.608 303.345 576.304 303.345 573.544C303.345 570.808 302.625 568.528 301.161 566.704C299.697 564.856 297.801 563.944 295.473 563.944C293.145 563.944 291.249 564.88 289.761 566.728C288.297 568.576 287.553 570.856 287.553 573.592ZM300.297 573.592C300.297 575.536 299.865 577.192 298.977 578.512C298.089 579.832 296.937 580.504 295.473 580.504C294.009 580.504 292.833 579.832 291.945 578.488C291.057 577.144 290.625 575.488 290.625 573.544C290.625 571.6 291.057 569.968 291.921 568.648C292.809 567.328 293.961 566.656 295.425 566.656C296.889 566.656 298.065 567.328 298.953 568.672C299.841 570.016 300.297 571.648 300.297 573.592Z" fill="white"/>
<rect x="519" y="596" width="152" height="44" rx="22" transform="rotate(-180 519 596)" fill="#F2F2F2"/>
<path d="M391.08 588.749C399.201 588.749 405.785 582.146 405.785 574C405.785 565.854 399.201 559.25 391.08 559.25C382.959 559.25 376.375 565.854 376.375 574C376.375 582.146 382.959 588.749 391.08 588.749Z" fill="#FFC209"/>
<path d="M395.801 568.16L397.503 565.148L399.284 568.16L397.503 567.156L395.801 568.16Z" fill="black"/>
<path d="M395.801 568.161L397.503 567.157L397.426 565.227L395.801 568.161Z" fill="black"/>
<path d="M397.503 565.148L397.426 565.226L397.503 567.156L399.283 568.16L397.503 565.148Z" fill="black"/>
<path d="M384.656 582.834V565.227L399.284 578.432V582.911L387.597 572.331V582.911H384.656V582.834Z" fill="black"/>
<path d="M397.04 573.179C396.962 573.179 396.808 573.102 396.808 572.948V569.704C396.808 569.627 396.885 569.473 397.04 569.473C397.117 569.473 397.272 569.55 397.272 569.704V572.948C397.272 573.102 397.195 573.179 397.04 573.179Z" fill="black"/>
<path d="M397.969 573.179C397.891 573.179 397.736 573.102 397.736 572.948V569.704C397.736 569.627 397.814 569.473 397.969 569.473C398.046 569.473 398.201 569.55 398.201 569.704V572.948C398.201 573.102 398.123 573.179 397.969 573.179Z" fill="black"/>
<path d="M416.168 567.664L417.536 569.92L421.76 567.376V583H424.712V564.208H421.904L416.168 567.664ZM428.358 573.592C428.358 576.352 429.078 578.632 430.542 580.48C432.006 582.304 433.902 583.216 436.23 583.216C438.558 583.216 440.478 582.304 441.942 580.456C443.406 578.608 444.15 576.304 444.15 573.544C444.15 570.808 443.43 568.528 441.966 566.704C440.502 564.856 438.606 563.944 436.278 563.944C433.95 563.944 432.054 564.88 430.566 566.728C429.102 568.576 428.358 570.856 428.358 573.592ZM441.102 573.592C441.102 575.536 440.67 577.192 439.782 578.512C438.894 579.832 437.742 580.504 436.278 580.504C434.814 580.504 433.638 579.832 432.75 578.488C431.862 577.144 431.43 575.488 431.43 573.544C431.43 571.6 431.862 569.968 432.726 568.648C433.614 567.328 434.766 566.656 436.23 566.656C437.694 566.656 438.87 567.328 439.758 568.672C440.646 570.016 441.102 571.648 441.102 573.592ZM446.686 573.592C446.686 576.352 447.406 578.632 448.87 580.48C450.334 582.304 452.23 583.216 454.558 583.216C456.886 583.216 458.806 582.304 460.27 580.456C461.734 578.608 462.478 576.304 462.478 573.544C462.478 570.808 461.758 568.528 460.294 566.704C458.83 564.856 456.934 563.944 454.606 563.944C452.278 563.944 450.382 564.88 448.894 566.728C447.43 568.576 446.686 570.856 446.686 573.592ZM459.43 573.592C459.43 575.536 458.998 577.192 458.11 578.512C457.222 579.832 456.07 580.504 454.606 580.504C453.142 580.504 451.966 579.832 451.078 578.488C450.19 577.144 449.758 575.488 449.758 573.544C449.758 571.6 450.19 569.968 451.054 568.648C451.942 567.328 453.094 566.656 454.558 566.656C456.022 566.656 457.198 567.328 458.086 568.672C458.974 570.016 459.43 571.648 459.43 573.592ZM465.014 573.592C465.014 576.352 465.734 578.632 467.198 580.48C468.662 582.304 470.558 583.216 472.886 583.216C475.214 583.216 477.134 582.304 478.598 580.456C480.062 578.608 480.806 576.304 480.806 573.544C480.806 570.808 480.086 568.528 478.622 566.704C477.158 564.856 475.262 563.944 472.934 563.944C470.606 563.944 468.71 564.88 467.222 566.728C465.758 568.576 465.014 570.856 465.014 573.592ZM477.758 573.592C477.758 575.536 477.326 577.192 476.438 578.512C475.55 579.832 474.398 580.504 472.934 580.504C471.47 580.504 470.294 579.832 469.406 578.488C468.518 577.144 468.086 575.488 468.086 573.544C468.086 571.6 468.518 569.968 469.382 568.648C470.27 567.328 471.422 566.656 472.886 566.656C474.35 566.656 475.526 567.328 476.414 568.672C477.302 570.016 477.758 571.648 477.758 573.592Z" fill="black"/>
<rect x="684" y="596" width="152" height="44" rx="22" transform="rotate(-180 684 596)" fill="#F2F2F2"/>
<path d="M556.705 588.749C564.826 588.749 571.41 582.146 571.41 574C571.41 565.854 564.826 559.25 556.705 559.25C548.584 559.25 542 565.854 542 574C542 582.146 548.584 588.749 556.705 588.749Z" fill="#FFC209"/>
<path d="M561.426 568.16L563.128 565.148L564.909 568.16L563.128 567.156L561.426 568.16Z" fill="black"/>
<path d="M561.426 568.161L563.128 567.157L563.051 565.227L561.426 568.161Z" fill="black"/>
<path d="M563.128 565.148L563.051 565.226L563.128 567.156L564.908 568.16L563.128 565.148Z" fill="black"/>
<path d="M550.281 582.834V565.227L564.909 578.432V582.911L553.222 572.331V582.911H550.281V582.834Z" fill="black"/>
<path d="M562.665 573.179C562.587 573.179 562.433 573.102 562.433 572.948V569.704C562.433 569.627 562.51 569.473 562.665 569.473C562.742 569.473 562.897 569.55 562.897 569.704V572.948C562.897 573.102 562.82 573.179 562.665 573.179Z" fill="black"/>
<path d="M563.594 573.179C563.516 573.179 563.361 573.102 563.361 572.948V569.704C563.361 569.627 563.439 569.473 563.594 569.473C563.671 569.473 563.826 569.55 563.826 569.704V572.948C563.826 573.102 563.748 573.179 563.594 573.179Z" fill="black"/>
<path d="M588.993 583.216C590.913 583.216 592.545 582.664 593.865 581.536C595.185 580.408 595.857 578.896 595.857 577C595.857 575.248 595.281 573.808 594.153 572.68C593.025 571.552 591.513 570.976 589.665 570.976C588.201 570.976 586.953 571.408 585.945 572.248L586.689 566.872H594.945V564.208H584.457L583.041 574.12L585.561 575.152C586.521 574.072 587.697 573.544 589.113 573.544C591.201 573.544 592.809 574.84 592.809 577.048C592.809 578.104 592.449 578.944 591.705 579.568C590.985 580.192 590.097 580.504 589.041 580.504C587.241 580.504 585.945 579.592 585.153 577.768L582.609 579.184C583.761 581.848 586.113 583.216 588.993 583.216ZM598.225 573.592C598.225 576.352 598.945 578.632 600.409 580.48C601.873 582.304 603.769 583.216 606.097 583.216C608.425 583.216 610.345 582.304 611.809 580.456C613.273 578.608 614.017 576.304 614.017 573.544C614.017 570.808 613.297 568.528 611.833 566.704C610.369 564.856 608.473 563.944 606.145 563.944C603.817 563.944 601.921 564.88 600.433 566.728C598.969 568.576 598.225 570.856 598.225 573.592ZM610.969 573.592C610.969 575.536 610.537 577.192 609.649 578.512C608.761 579.832 607.609 580.504 606.145 580.504C604.681 580.504 603.505 579.832 602.617 578.488C601.729 577.144 601.297 575.488 601.297 573.544C601.297 571.6 601.729 569.968 602.593 568.648C603.481 567.328 604.633 566.656 606.097 566.656C607.561 566.656 608.737 567.328 609.625 568.672C610.513 570.016 610.969 571.648 610.969 573.592ZM616.553 573.592C616.553 576.352 617.273 578.632 618.737 580.48C620.201 582.304 622.097 583.216 624.425 583.216C626.753 583.216 628.673 582.304 630.137 580.456C631.601 578.608 632.345 576.304 632.345 573.544C632.345 570.808 631.625 568.528 630.161 566.704C628.697 564.856 626.801 563.944 624.473 563.944C622.145 563.944 620.249 564.88 618.761 566.728C617.297 568.576 616.553 570.856 616.553 573.592ZM629.297 573.592C629.297 575.536 628.865 577.192 627.977 578.512C627.089 579.832 625.937 580.504 624.473 580.504C623.009 580.504 621.833 579.832 620.945 578.488C620.057 577.144 619.625 575.488 619.625 573.544C619.625 571.6 620.057 569.968 620.921 568.648C621.809 567.328 622.961 566.656 624.425 566.656C625.889 566.656 627.065 567.328 627.953 568.672C628.841 570.016 629.297 571.648 629.297 573.592ZM634.881 573.592C634.881 576.352 635.601 578.632 637.065 580.48C638.529 582.304 640.425 583.216 642.753 583.216C645.081 583.216 647.001 582.304 648.465 580.456C649.929 578.608 650.673 576.304 650.673 573.544C650.673 570.808 649.953 568.528 648.489 566.704C647.025 564.856 645.129 563.944 642.801 563.944C640.473 563.944 638.577 564.88 637.089 566.728C635.625 568.576 634.881 570.856 634.881 573.592ZM647.625 573.592C647.625 575.536 647.193 577.192 646.305 578.512C645.417 579.832 644.265 580.504 642.801 580.504C641.337 580.504 640.161 579.832 639.273 578.488C638.385 577.144 637.953 575.488 637.953 573.544C637.953 571.6 638.385 569.968 639.249 568.648C640.137 567.328 641.289 566.656 642.753 566.656C644.217 566.656 645.393 567.328 646.281 568.672C647.169 570.016 647.625 571.648 647.625 573.592Z" fill="black"/>
<path d="M43.4 954H46.352V946.872H49.928L54.008 954H57.344L52.88 946.368C55.4 945.528 56.864 943.608 56.864 940.992C56.864 939.336 56.336 937.968 55.304 936.864C54.272 935.76 52.64 935.208 50.456 935.208H43.4V954ZM46.352 937.944H50.144C53.216 937.944 53.864 939.624 53.864 941.064C53.864 942.792 52.76 944.208 50.144 944.208H46.352V937.944ZM59.2848 944.64C59.2848 947.4 60.2208 949.68 62.0688 951.504C63.9168 953.304 66.1968 954.216 68.8848 954.216C71.5728 954.216 73.8528 953.304 75.7488 951.456C77.6448 949.608 78.5808 947.304 78.5808 944.568C78.5808 941.832 77.6448 939.552 75.7728 937.704C73.9248 935.856 71.6448 934.944 68.9568 934.944C66.2928 934.944 64.0128 935.88 62.1168 937.752C60.2208 939.624 59.2848 941.928 59.2848 944.64ZM68.9328 951.48C67.0848 951.48 65.5488 950.808 64.2768 949.464C63.0048 948.12 62.3808 946.488 62.3808 944.568C62.3808 942.648 63.0048 941.016 64.2768 939.696C65.5488 938.352 67.0848 937.68 68.9328 937.68C70.7568 937.68 72.2928 938.352 73.5648 939.696C74.8368 941.016 75.4848 942.648 75.4848 944.568C75.4848 946.488 74.8368 948.12 73.5648 949.464C72.2928 950.808 70.7568 951.48 68.9328 951.48ZM82.1422 954H85.0942V935.208H82.1422V954ZM103.045 945.312C103.045 946.032 102.637 946.392 101.845 946.392H100.261C98.0047 946.392 94.9327 947.328 94.9327 950.304V950.448C94.9327 951.552 95.3407 952.464 96.1567 953.16C96.9727 953.856 98.0047 954.216 99.2527 954.216C100.981 954.216 102.229 953.568 103.021 952.248V954H105.829V945.84C105.829 944.952 105.685 944.184 105.397 943.536C104.605 941.784 102.997 940.92 100.597 940.92C97.9807 940.92 96.1567 942 95.1487 944.184L97.3327 945.432C97.9807 944.064 99.0607 943.392 100.525 943.392C102.133 943.392 103.045 944.256 103.045 945.312ZM103.021 948.816C103.021 950.736 101.773 951.936 99.8287 951.936C98.6047 951.936 97.7887 951.24 97.7887 950.184C97.7887 949.632 98.0527 949.2 98.5567 948.888C99.0847 948.576 99.6607 948.408 100.261 948.408H103.021V948.816ZM116.396 943.752V941.184H113.252V937.224H110.396V941.184H108.044V943.752H110.396V949.872C110.396 952.656 112.028 954.144 114.836 954.144C115.388 954.144 115.916 954.048 116.372 953.88V951.456C116.06 951.528 115.748 951.552 115.46 951.552C113.996 951.552 113.252 950.952 113.252 949.416V943.752H116.396ZM134.413 954.216C136.789 954.216 138.901 953.448 140.317 952.296C141.733 951.144 142.645 949.872 143.101 948.552L140.413 947.328C139.957 948.552 139.165 949.56 138.061 950.328C136.981 951.072 135.781 951.456 134.485 951.456C132.757 951.456 131.245 950.808 129.973 949.536C128.701 948.24 128.077 946.584 128.077 944.568C128.077 942.528 128.725 940.896 129.997 939.624C131.269 938.352 132.781 937.704 134.485 937.704C137.437 937.704 139.405 939.384 140.341 941.808L143.005 940.584C142.597 939.24 141.685 937.968 140.341 936.84C138.997 935.688 136.909 934.944 134.533 934.944C131.917 934.944 129.685 935.88 127.789 937.728C125.893 939.576 124.957 941.88 124.957 944.664C124.957 947.616 126.109 950.136 127.909 951.744C129.709 953.304 132.013 954.216 134.413 954.216ZM145.596 941.184V949.056C145.596 952.128 147.3 954.264 150.396 954.264C152.028 954.264 153.324 953.592 154.308 952.272V954H157.092V941.184H154.236V948.312C154.236 950.256 153.084 951.552 151.284 951.552C149.388 951.552 148.452 950.28 148.452 948.36V941.184H145.596ZM167.936 941.136C167.768 941.088 167.552 941.064 167.24 941.064C165.68 941.064 164.504 941.784 163.712 943.224V941.184H160.928V954H163.784V947.496C163.784 945.264 164.936 943.992 167.12 943.992C167.432 943.992 167.696 944.016 167.936 944.064V941.136ZM177.358 941.136C177.19 941.088 176.974 941.064 176.662 941.064C175.102 941.064 173.926 941.784 173.134 943.224V941.184H170.35V954H173.206V947.496C173.206 945.264 174.358 943.992 176.542 943.992C176.854 943.992 177.118 944.016 177.358 944.064V941.136ZM191.274 948.432C191.298 948.216 191.322 947.928 191.322 947.544C191.322 945.552 190.77 943.968 189.666 942.744C188.562 941.52 187.026 940.92 185.082 940.92C183.234 940.92 181.698 941.568 180.474 942.864C179.25 944.16 178.626 945.72 178.626 947.568C178.626 949.464 179.274 951.072 180.546 952.344C181.842 953.616 183.45 954.24 185.346 954.24C187.65 954.24 189.738 953.136 190.818 951.144L188.754 949.776C188.058 951.096 186.906 951.768 185.298 951.768C184.314 951.768 183.45 951.456 182.706 950.832C181.962 950.184 181.578 949.392 181.554 948.432H191.274ZM185.082 943.368C186.906 943.368 188.322 944.472 188.418 946.272H181.698C181.962 944.52 183.33 943.368 185.082 943.368ZM205.752 954V946.104C205.752 943.032 204.096 940.92 200.952 940.92C199.32 940.92 198.024 941.592 197.04 942.912V941.184H194.256V954H197.112V946.872C197.112 944.928 198.264 943.632 200.064 943.632C201.96 943.632 202.896 944.904 202.896 946.824V954H205.752ZM216.427 943.752V941.184H213.283V937.224H210.427V941.184H208.075V943.752H210.427V949.872C210.427 952.656 212.059 954.144 214.867 954.144C215.419 954.144 215.947 954.048 216.403 953.88V951.456C216.091 951.528 215.779 951.552 215.491 951.552C214.027 951.552 213.283 950.952 213.283 949.416V943.752H216.427ZM226.236 954H229.188V946.872H232.764L236.844 954H240.18L235.716 946.368C238.236 945.528 239.7 943.608 239.7 940.992C239.7 939.336 239.172 937.968 238.14 936.864C237.108 935.76 235.476 935.208 233.292 935.208H226.236V954ZM229.188 937.944H232.98C236.052 937.944 236.7 939.624 236.7 941.064C236.7 942.792 235.596 944.208 232.98 944.208H229.188V937.944ZM250.326 945.312C250.326 946.032 249.918 946.392 249.126 946.392H247.542C245.286 946.392 242.214 947.328 242.214 950.304V950.448C242.214 951.552 242.622 952.464 243.438 953.16C244.254 953.856 245.286 954.216 246.534 954.216C248.262 954.216 249.51 953.568 250.302 952.248V954H253.11V945.84C253.11 944.952 252.966 944.184 252.678 943.536C251.886 941.784 250.278 940.92 247.878 940.92C245.262 940.92 243.438 942 242.43 944.184L244.614 945.432C245.262 944.064 246.342 943.392 247.806 943.392C249.414 943.392 250.326 944.256 250.326 945.312ZM250.302 948.816C250.302 950.736 249.054 951.936 247.11 951.936C245.886 951.936 245.07 951.24 245.07 950.184C245.07 949.632 245.334 949.2 245.838 948.888C246.366 948.576 246.942 948.408 247.542 948.408H250.302V948.816ZM263.677 943.752V941.184H260.533V937.224H257.677V941.184H255.325V943.752H257.677V949.872C257.677 952.656 259.309 954.144 262.117 954.144C262.669 954.144 263.197 954.048 263.653 953.88V951.456C263.341 951.528 263.029 951.552 262.741 951.552C261.277 951.552 260.533 950.952 260.533 949.416V943.752H263.677ZM278.251 948.432C278.275 948.216 278.299 947.928 278.299 947.544C278.299 945.552 277.747 943.968 276.643 942.744C275.539 941.52 274.003 940.92 272.059 940.92C270.211 940.92 268.675 941.568 267.451 942.864C266.227 944.16 265.603 945.72 265.603 947.568C265.603 949.464 266.251 951.072 267.523 952.344C268.819 953.616 270.427 954.24 272.323 954.24C274.627 954.24 276.715 953.136 277.795 951.144L275.731 949.776C275.035 951.096 273.883 951.768 272.275 951.768C271.291 951.768 270.427 951.456 269.683 950.832C268.939 950.184 268.555 949.392 268.531 948.432H278.251ZM272.059 943.368C273.883 943.368 275.299 944.472 275.395 946.272H268.675C268.939 944.52 270.307 943.368 272.059 943.368ZM285.385 954.216C286.825 954.216 288.001 953.856 288.889 953.112C289.777 952.368 290.233 951.408 290.233 950.232C290.233 948.24 288.697 946.848 285.793 946.2C284.137 945.84 283.417 945.408 283.417 944.568C283.417 943.872 284.329 943.32 285.217 943.32C286.441 943.32 287.329 943.896 287.905 945.048L290.113 943.8C289.225 941.88 287.617 940.92 285.312 940.92C284.065 940.92 282.985 941.28 282.049 942.024C281.113 942.768 280.657 943.704 280.657 944.856C280.657 945.768 280.969 946.536 281.569 947.184C282.265 947.928 283.345 948.432 284.761 948.72C286.513 949.08 287.401 949.656 287.401 950.4C287.401 951.264 286.465 951.816 285.385 951.816C284.017 951.816 283.009 951.12 282.312 949.752L280.081 951C281.065 953.136 282.84 954.216 285.385 954.216Z" fill="black"/>
<path d="M517 972C529.703 972 540 961.703 540 949C540 936.297 529.703 926 517 926C504.297 926 494 936.297 494 949C494 961.703 504.297 972 517 972Z" fill="#FFC209"/>
<path d="M524.292 939.898L526.947 935.201L529.723 939.898L526.947 938.332L524.292 939.898Z" fill="black"/>
<path d="M524.292 939.898L526.947 938.333L526.826 935.322L524.292 939.898Z" fill="black"/>
<path d="M526.947 935.201L526.826 935.322L526.947 938.332L529.723 939.898L526.947 935.201Z" fill="black"/>
<path d="M506.913 962.776V935.32L529.722 955.912V962.896L511.499 946.399V962.896H506.913V962.776Z" fill="black"/>
<path d="M526.222 947.723C526.102 947.723 525.86 947.603 525.86 947.362V942.305C525.86 942.184 525.981 941.943 526.222 941.943C526.343 941.943 526.584 942.064 526.584 942.305V947.362C526.584 947.603 526.464 947.723 526.222 947.723Z" fill="black"/>
<path d="M527.671 947.723C527.55 947.723 527.309 947.603 527.309 947.362V942.305C527.309 942.184 527.429 941.943 527.671 941.943C527.791 941.943 528.033 942.064 528.033 942.305V947.362C528.033 947.603 527.912 947.723 527.671 947.723Z" fill="black"/>
<path d="M394.997 951.496C396.357 951.496 397.061 950.504 397.077 948.536H395.957C395.909 949.768 395.621 950.264 394.997 950.264C394.597 950.264 394.245 950.072 393.909 949.704C393.141 948.872 392.565 948.504 391.717 948.504C390.341 948.504 389.637 949.496 389.621 951.464H390.741C390.789 950.232 391.093 949.736 391.717 949.736C392.085 949.736 392.501 949.976 392.981 950.472C393.637 951.16 394.117 951.496 394.997 951.496ZM407.306 951.592C407.306 950.84 407.018 950.136 406.458 949.496C405.898 948.888 405.018 948.408 403.85 948.072V943.656C404.874 943.816 405.626 944.456 406.09 945.592L407.194 944.968C406.682 943.576 405.53 942.616 403.866 942.424V940.744H402.778V942.424C401.818 942.52 401.018 942.872 400.362 943.48C399.706 944.072 399.386 944.84 399.386 945.784C399.386 947.448 400.442 948.504 402.794 949.144V953.816C401.594 953.672 400.714 952.872 400.154 951.448L399.034 952.04C399.706 953.864 400.954 954.856 402.778 955.032V956.632H403.866V955.032C404.906 954.92 405.738 954.552 406.362 953.896C406.986 953.24 407.306 952.472 407.306 951.592ZM400.682 945.72C400.682 944.632 401.594 943.816 402.794 943.64V947.784C401.306 947.336 400.682 946.728 400.682 945.72ZM403.85 949.432C405.274 949.896 405.978 950.648 405.978 951.688C405.978 952.792 405.082 953.624 403.85 953.816V949.432ZM417.531 951.544C417.531 950.088 416.651 949 415.243 948.552V948.536C416.571 947.928 417.243 946.968 417.243 945.656C417.243 944.776 416.891 943.992 416.171 943.336C415.451 942.664 414.475 942.328 413.211 942.328C411.179 942.328 409.691 943.48 409.115 945.208L410.299 945.736C410.891 944.28 411.851 943.56 413.179 943.56C414.027 943.56 414.699 943.784 415.179 944.216C415.659 944.648 415.899 945.176 415.899 945.768C415.899 946.392 415.643 946.936 415.147 947.368C414.651 947.8 413.995 948.024 413.163 948.024H411.947V949.24H413.195C415.131 949.24 416.187 950.216 416.187 951.56C416.187 952.184 415.931 952.744 415.403 953.208C414.875 953.672 414.155 953.896 413.211 953.896C411.755 953.896 410.731 953.16 410.139 951.672L408.987 952.248C409.627 954.04 411.115 955.128 413.211 955.128C414.475 955.128 415.515 954.792 416.315 954.104C417.131 953.416 417.531 952.552 417.531 951.544ZM419.38 955H427.828V953.784H421.172L425.012 950.424C426.004 949.544 426.708 948.792 427.124 948.168C427.556 947.528 427.764 946.808 427.764 946.024C427.764 944.936 427.38 944.056 426.596 943.368C425.828 942.68 424.852 942.328 423.684 942.328C421.572 942.328 420.084 943.576 419.556 945.32L420.74 945.816C421.316 944.312 422.292 943.56 423.652 943.56C424.484 943.56 425.156 943.816 425.652 944.312C426.148 944.808 426.404 945.384 426.404 946.056C426.404 946.664 426.228 947.224 425.892 947.72C425.556 948.216 424.9 948.888 423.924 949.752L419.38 953.784V955ZM430.541 957.448C431.677 956.632 432.253 955.64 432.253 954.472V954.408C432.253 953.464 431.741 952.84 430.989 952.84C430.365 952.84 429.869 953.336 429.869 953.976C429.869 954.616 430.301 955.032 430.925 955.032C431.053 955.032 431.181 955 431.309 954.952C431.213 955.608 430.749 956.248 429.917 956.872L430.541 957.448ZM437.935 953.88C436.959 953.88 436.031 953.464 435.151 952.616L434.447 953.656C435.455 954.632 436.623 955.128 437.951 955.128C441.599 955.128 443.231 951.864 443.231 948.28C443.231 947.32 443.183 946.568 443.071 946.008C442.959 945.448 442.767 944.92 442.463 944.392C441.711 943.096 440.191 942.344 438.639 942.344C437.423 942.344 436.383 942.728 435.535 943.48C434.687 944.232 434.255 945.256 434.255 946.536C434.255 947.704 434.639 948.68 435.391 949.448C436.143 950.2 437.167 950.584 438.463 950.584C439.087 950.584 439.711 950.44 440.367 950.152C441.023 949.848 441.535 949.4 441.919 948.776C441.887 950.264 441.535 951.48 440.863 952.44C440.207 953.4 439.231 953.88 437.935 953.88ZM438.655 949.432C437.711 949.432 436.943 949.16 436.383 948.6C435.823 948.04 435.551 947.336 435.551 946.472C435.551 945.576 435.855 944.872 436.447 944.344C437.055 943.816 437.791 943.56 438.655 943.56C439.471 943.56 440.191 943.832 440.815 944.376C441.439 944.92 441.759 945.64 441.759 946.536C441.759 947.352 441.455 948.04 440.863 948.6C440.271 949.16 439.535 949.432 438.655 949.432ZM444.561 943.688H451.681L445.857 955H447.313L453.089 943.688V942.472H444.561V943.688ZM463.031 951.544C463.031 950.088 462.151 949 460.743 948.552V948.536C462.071 947.928 462.743 946.968 462.743 945.656C462.743 944.776 462.391 943.992 461.671 943.336C460.951 942.664 459.975 942.328 458.711 942.328C456.679 942.328 455.191 943.48 454.615 945.208L455.799 945.736C456.391 944.28 457.351 943.56 458.679 943.56C459.527 943.56 460.199 943.784 460.679 944.216C461.159 944.648 461.399 945.176 461.399 945.768C461.399 946.392 461.143 946.936 460.647 947.368C460.151 947.8 459.495 948.024 458.663 948.024H457.447V949.24H458.695C460.631 949.24 461.687 950.216 461.687 951.56C461.687 952.184 461.431 952.744 460.903 953.208C460.375 953.672 459.655 953.896 458.711 953.896C457.255 953.896 456.231 953.16 455.639 951.672L454.487 952.248C455.127 954.04 456.615 955.128 458.711 955.128C459.975 955.128 461.015 954.792 461.815 954.104C462.631 953.416 463.031 952.552 463.031 951.544Z" fill="black"/>
<path d="M547.024 935.328L549.76 939.84L558.208 934.752V966H564.112V928.416H558.496L547.024 935.328ZM574.811 973.776C578.315 971.28 580.619 967.392 580.619 963.552V963.312C580.619 960.096 578.651 957.84 576.155 957.84C573.611 957.84 571.835 959.664 571.835 962.016C571.835 964.272 573.563 965.952 575.531 965.952C576.059 965.952 576.539 965.856 576.971 965.664C575.963 968.016 574.379 969.984 572.219 971.472L574.811 973.776ZM602.97 928.416L585.066 951.744V957.696H604.41V966H610.218V957.696H615.786V952.368H610.218V928.416H602.97ZM604.41 935.088V952.368H591.114L604.41 935.088ZM646.166 955.44C646.166 951.216 644.006 948.288 639.686 946.608V946.56C643.478 944.736 645.35 941.856 645.35 937.968C645.35 935.136 644.198 932.784 641.942 930.816C639.686 928.848 636.614 927.888 632.774 927.888C626.39 927.888 621.926 931.344 620.198 936.336L625.334 938.688C626.87 935.088 629.318 933.264 632.678 933.264C636.902 933.264 639.35 935.52 639.35 938.592C639.35 940.128 638.726 941.472 637.43 942.576C636.182 943.68 634.598 944.208 632.678 944.208H628.982V949.536H633.014C635.078 949.536 636.758 950.112 638.054 951.264C639.398 952.368 640.07 953.76 640.07 955.344C640.07 956.88 639.398 958.224 638.006 959.376C636.614 960.48 634.934 961.056 632.918 961.056C629.126 961.056 626.39 959.184 624.758 955.488L619.67 957.984C621.926 963.6 626.294 966.432 632.822 966.432C636.71 966.432 639.878 965.376 642.374 963.264C644.918 961.104 646.166 958.512 646.166 955.44ZM668.22 928.416L650.316 951.744V957.696H669.66V966H675.468V957.696H681.036V952.368H675.468V928.416H668.22ZM669.66 935.088V952.368H656.364L669.66 935.088Z" fill="black"/>
<path d="M682.744 55L691.852 42.688L700.996 55H704.452L693.652 40.528L703.984 26.812H700.528L691.924 38.44L683.212 26.812H679.756L690.088 40.564L679.288 55H682.744Z" fill="black"/>
<path d="M113.424 299.872V297.208H101.4V316H113.52V313.312H104.352V307.768H112.608V305.104H104.352V299.872H113.424ZM128.33 316V308.104C128.33 305.032 126.674 302.92 123.53 302.92C121.898 302.92 120.602 303.592 119.618 304.912V303.184H116.834V316H119.69V308.872C119.69 306.928 120.842 305.632 122.642 305.632C124.538 305.632 125.474 306.904 125.474 308.824V316H128.33ZM139.006 305.752V303.184H135.862V299.224H133.006V303.184H130.654V305.752H133.006V311.872C133.006 314.656 134.638 316.144 137.446 316.144C137.998 316.144 138.526 316.048 138.982 315.88V313.456C138.67 313.528 138.358 313.552 138.07 313.552C136.606 313.552 135.862 312.952 135.862 311.416V305.752H139.006ZM153.579 310.432C153.603 310.216 153.627 309.928 153.627 309.544C153.627 307.552 153.075 305.968 151.971 304.744C150.867 303.52 149.331 302.92 147.387 302.92C145.539 302.92 144.003 303.568 142.779 304.864C141.555 306.16 140.931 307.72 140.931 309.568C140.931 311.464 141.579 313.072 142.851 314.344C144.147 315.616 145.755 316.24 147.651 316.24C149.955 316.24 152.043 315.136 153.123 313.144L151.059 311.776C150.363 313.096 149.211 313.768 147.603 313.768C146.619 313.768 145.755 313.456 145.011 312.832C144.267 312.184 143.883 311.392 143.859 310.432H153.579ZM147.387 305.368C149.211 305.368 150.627 306.472 150.723 308.272H144.003C144.267 306.52 145.635 305.368 147.387 305.368ZM163.569 303.136C163.401 303.088 163.185 303.064 162.873 303.064C161.313 303.064 160.137 303.784 159.345 305.224V303.184H156.561V316H159.417V309.496C159.417 307.264 160.569 305.992 162.753 305.992C163.065 305.992 163.329 306.016 163.569 306.064V303.136ZM184.711 316H187.783V297.208H184.855V311.056L175.591 297.208H172.111V316H175.015V301.528L184.711 316ZM203.852 308.104V305.392H195.524V299.944H204.548V297.208H192.572V316H195.524V308.104H203.852ZM206.05 299.944H212.002V316H214.954V299.944H220.93V297.208H206.05V299.944ZM221.894 297.208L228.926 308.488V316H231.902V308.416L239.006 297.208H235.622L230.438 305.632L225.302 297.208H221.894Z" fill="black"/>
<path d="M57.9391 328C68.9512 328 77.8783 319.046 77.8783 308C77.8783 296.954 68.9512 288 57.9391 288C46.9271 288 38 296.954 38 308C38 319.046 46.9271 328 57.9391 328Z" fill="#FFC209"/>
<path d="M64.3398 299.937L66.6486 295.854L69.0623 299.937L66.6486 298.576L64.3398 299.937Z" fill="black"/>
<path d="M64.3398 299.938L66.6486 298.577L66.5436 295.959L64.3398 299.938Z" fill="black"/>
<path d="M66.6489 295.854L66.5439 295.958L66.6489 298.576L69.0626 299.937L66.6489 295.854Z" fill="black"/>
<path d="M49.2285 319.833V295.959L69.0627 313.865V319.938L53.2163 305.593V319.938H49.2285V319.833Z" fill="black"/>
<path d="M66.0189 306.743C65.914 306.743 65.7041 306.638 65.7041 306.429V302.031C65.7041 301.926 65.8091 301.717 66.0189 301.717C66.1239 301.717 66.3338 301.822 66.3338 302.031V306.429C66.3338 306.638 66.2288 306.743 66.0189 306.743Z" fill="black"/>
<path d="M67.2787 306.743C67.1737 306.743 66.9639 306.638 66.9639 306.429V302.031C66.9639 301.926 67.0688 301.717 67.2787 301.717C67.3836 301.717 67.5935 301.822 67.5935 302.031V306.429C67.5935 306.638 67.4886 306.743 67.2787 306.743Z" fill="black"/>
<path d="M175.632 418.552C175.632 435.112 179.952 448.792 188.736 459.88C197.52 470.824 208.896 476.296 222.864 476.296C236.832 476.296 248.352 470.824 257.136 459.736C265.92 448.648 270.384 434.824 270.384 418.264C270.384 401.848 266.064 388.168 257.28 377.224C248.496 366.136 237.12 360.664 223.152 360.664C209.184 360.664 197.808 366.28 188.88 377.368C180.096 388.456 175.632 402.136 175.632 418.552ZM252.096 418.552C252.096 430.216 249.504 440.152 244.176 448.072C238.848 455.992 231.936 460.024 223.152 460.024C214.368 460.024 207.312 455.992 201.984 447.928C196.656 439.864 194.064 429.928 194.064 418.264C194.064 406.6 196.656 396.808 201.84 388.888C207.168 380.968 214.08 376.936 222.864 376.936C231.648 376.936 238.704 380.968 244.032 389.032C249.36 397.096 252.096 406.888 252.096 418.552ZM282.668 463.192C282.668 469.96 288.284 475.72 295.196 475.72C302.108 475.72 307.724 470.104 307.724 463.192C307.724 456.136 302.252 450.52 295.196 450.52C288.284 450.52 282.668 456.136 282.668 463.192ZM320.054 418.552C320.054 435.112 324.374 448.792 333.158 459.88C341.942 470.824 353.318 476.296 367.286 476.296C381.254 476.296 392.774 470.824 401.558 459.736C410.342 448.648 414.806 434.824 414.806 418.264C414.806 401.848 410.486 388.168 401.702 377.224C392.918 366.136 381.542 360.664 367.574 360.664C353.606 360.664 342.23 366.28 333.302 377.368C324.518 388.456 320.054 402.136 320.054 418.552ZM396.518 418.552C396.518 430.216 393.926 440.152 388.598 448.072C383.27 455.992 376.358 460.024 367.574 460.024C358.79 460.024 351.734 455.992 346.406 447.928C341.078 439.864 338.486 429.928 338.486 418.264C338.486 406.6 341.078 396.808 346.262 388.888C351.59 380.968 358.502 376.936 367.286 376.936C376.07 376.936 383.126 380.968 388.454 389.032C393.782 397.096 396.518 406.888 396.518 418.552ZM430.023 418.552C430.023 435.112 434.343 448.792 443.127 459.88C451.911 470.824 463.287 476.296 477.255 476.296C491.223 476.296 502.743 470.824 511.527 459.736C520.311 448.648 524.775 434.824 524.775 418.264C524.775 401.848 520.455 388.168 511.671 377.224C502.887 366.136 491.511 360.664 477.543 360.664C463.575 360.664 452.199 366.28 443.271 377.368C434.487 388.456 430.023 402.136 430.023 418.552ZM506.487 418.552C506.487 430.216 503.895 440.152 498.567 448.072C493.239 455.992 486.327 460.024 477.543 460.024C468.759 460.024 461.703 455.992 456.375 447.928C451.047 439.864 448.455 429.928 448.455 418.264C448.455 406.6 451.047 396.808 456.231 388.888C461.559 380.968 468.471 376.936 477.255 376.936C486.039 376.936 493.095 380.968 498.423 389.032C503.751 397.096 506.487 406.888 506.487 418.552Z" fill="black" fill-opacity="0.1"/>
<path d="M605.464 307.032C606.928 307.032 608.104 306.288 608.968 304.776L607.336 303.216C606.784 303.96 606.16 304.32 605.464 304.32C604.432 304.416 602.296 302.304 600.4 302.376C598.936 302.376 597.784 303.12 596.896 304.632L598.552 306.192C599.104 305.448 599.704 305.088 600.4 305.088C600.88 305.088 601.672 305.424 602.776 306.072C603.88 306.72 604.768 307.032 605.464 307.032ZM624.658 306.744C624.658 305.376 624.226 304.272 623.338 303.432C622.498 302.592 621.13 301.872 619.258 301.296V295.8C620.506 296.064 621.418 296.904 621.97 298.296L624.394 296.976C623.626 294.96 621.874 293.4 619.282 293.088L619.306 290.616H617.386L617.362 293.088C615.85 293.28 614.578 293.88 613.594 294.888C612.61 295.872 612.106 297.048 612.106 298.392C612.106 299.832 612.586 300.96 613.546 301.776C614.386 302.544 615.658 303.216 617.41 303.768V309.36C615.778 309.048 614.626 308.064 613.978 306.36L611.506 307.656C612.442 310.224 614.554 311.784 617.362 312.072L617.386 314.448H619.306L619.282 312.072C620.938 311.88 622.258 311.28 623.218 310.248C624.178 309.216 624.658 308.064 624.658 306.744ZM615.106 298.224C615.106 296.976 616.042 296.016 617.41 295.752V300.696C615.874 300.096 615.106 299.376 615.106 298.224ZM619.234 304.392C620.938 305.064 621.634 305.784 621.634 306.912C621.634 308.184 620.674 309.12 619.234 309.384V304.392ZM640.013 306.72C640.013 304.608 638.933 303.144 636.773 302.304V302.28C638.669 301.368 639.605 299.928 639.605 297.984C639.605 296.568 639.029 295.392 637.901 294.408C636.773 293.424 635.237 292.944 633.317 292.944C630.125 292.944 627.893 294.672 627.029 297.168L629.597 298.344C630.365 296.544 631.589 295.632 633.269 295.632C635.381 295.632 636.605 296.76 636.605 298.296C636.605 299.064 636.293 299.736 635.645 300.288C635.021 300.84 634.229 301.104 633.269 301.104H631.421V303.768H633.437C634.469 303.768 635.309 304.056 635.957 304.632C636.629 305.184 636.965 305.88 636.965 306.672C636.965 307.44 636.629 308.112 635.933 308.688C635.237 309.24 634.397 309.528 633.389 309.528C631.493 309.528 630.125 308.592 629.309 306.744L626.765 307.992C627.893 310.8 630.077 312.216 633.341 312.216C635.285 312.216 636.869 311.688 638.117 310.632C639.389 309.552 640.013 308.256 640.013 306.72ZM642.616 302.592C642.616 305.352 643.336 307.632 644.8 309.48C646.264 311.304 648.16 312.216 650.488 312.216C652.816 312.216 654.736 311.304 656.2 309.456C657.664 307.608 658.408 305.304 658.408 302.544C658.408 299.808 657.688 297.528 656.224 295.704C654.76 293.856 652.864 292.944 650.536 292.944C648.208 292.944 646.312 293.88 644.824 295.728C643.36 297.576 642.616 299.856 642.616 302.592ZM655.36 302.592C655.36 304.536 654.928 306.192 654.04 307.512C653.152 308.832 652 309.504 650.536 309.504C649.072 309.504 647.896 308.832 647.008 307.488C646.12 306.144 645.688 304.488 645.688 302.544C645.688 300.6 646.12 298.968 646.984 297.648C647.872 296.328 649.024 295.656 650.488 295.656C651.952 295.656 653.128 296.328 654.016 297.672C654.904 299.016 655.36 300.648 655.36 302.592ZM660.944 302.592C660.944 305.352 661.664 307.632 663.128 309.48C664.592 311.304 666.488 312.216 668.816 312.216C671.144 312.216 673.064 311.304 674.528 309.456C675.992 307.608 676.736 305.304 676.736 302.544C676.736 299.808 676.016 297.528 674.552 295.704C673.088 293.856 671.192 292.944 668.864 292.944C666.536 292.944 664.64 293.88 663.152 295.728C661.688 297.576 660.944 299.856 660.944 302.592ZM673.688 302.592C673.688 304.536 673.256 306.192 672.368 307.512C671.48 308.832 670.328 309.504 668.864 309.504C667.4 309.504 666.224 308.832 665.336 307.488C664.448 306.144 664.016 304.488 664.016 302.544C664.016 300.6 664.448 298.968 665.312 297.648C666.2 296.328 667.352 295.656 668.816 295.656C670.28 295.656 671.456 296.328 672.344 297.672C673.232 299.016 673.688 300.648 673.688 302.592Z" fill="black"/>
<rect x="684" y="681" width="646" height="59.9999" rx="30" transform="rotate(-180 684 681)" fill="url(#paint1_linear_2:157)" fill-opacity="0.15"/>
<path d="M308.318 650.294L312.476 656H314.276L309.92 650.042C311.036 649.898 311.954 649.484 312.692 648.782C313.43 648.08 313.79 647.162 313.79 646.01C313.79 644.84 313.376 643.85 312.53 643.076C311.702 642.302 310.478 641.906 308.84 641.906H303.962V656H305.438V650.294H308.318ZM305.438 643.292H308.75C311.216 643.292 312.296 644.48 312.296 646.064C312.296 646.856 311.99 647.54 311.396 648.098C310.802 648.656 309.902 648.944 308.714 648.944H305.438V643.292ZM324.789 651.626C324.807 651.536 324.807 651.374 324.807 651.158C324.807 649.7 324.411 648.53 323.619 647.612C322.827 646.694 321.711 646.226 320.271 646.226C318.957 646.226 317.841 646.712 316.941 647.702C316.041 648.692 315.591 649.844 315.591 651.176C315.591 652.562 316.059 653.75 316.995 654.722C317.931 655.676 319.083 656.162 320.469 656.162C322.197 656.162 323.727 655.262 324.537 653.678L323.493 652.994C322.935 654.146 321.801 654.92 320.451 654.92C319.515 654.92 318.723 654.614 318.075 653.984C317.427 653.354 317.067 652.562 317.013 651.626H324.789ZM317.031 650.438C317.157 649.61 317.517 648.908 318.129 648.332C318.741 647.738 319.461 647.45 320.271 647.45C322.071 647.45 323.187 648.638 323.385 650.438H317.031ZM329.086 656H330.634L333.19 648.188H333.208L335.746 656H337.312L340.552 646.388H339.094L336.556 654.38H336.538L333.91 646.388H332.506L329.896 654.362H329.878L327.358 646.388H325.864L329.086 656ZM345.441 650.456C344.433 650.456 343.551 650.69 342.777 651.14C342.021 651.59 341.643 652.274 341.643 653.228V653.336C341.643 654.146 341.931 654.83 342.525 655.37C343.119 655.892 343.911 656.162 344.865 656.162C346.233 656.162 347.313 655.55 348.105 654.308H348.123V656H349.491V649.79C349.491 649.196 349.401 648.674 349.203 648.206C348.627 646.892 347.457 646.226 345.693 646.226C343.785 646.226 342.471 647.054 341.751 648.71L342.903 649.358C343.497 648.098 344.415 647.468 345.657 647.468C347.295 647.468 348.105 648.242 348.105 649.808V650.456H345.441ZM348.105 651.95C348.105 652.832 347.817 653.534 347.259 654.092C346.701 654.65 345.981 654.92 345.117 654.92C343.911 654.92 343.047 654.29 343.047 653.228C343.101 651.968 344.325 651.59 345.423 651.608H348.105V651.95ZM352.539 646.388V656H353.943V651.302C353.943 650.312 354.177 649.484 354.663 648.782C355.149 648.08 355.905 647.72 356.949 647.72C357.075 647.72 357.255 647.738 357.489 647.756V646.262C357.417 646.244 357.255 646.244 357.021 646.244C355.797 646.244 354.591 646.91 353.925 648.296V646.388H352.539ZM358.359 651.176C358.359 652.544 358.773 653.714 359.601 654.686C360.447 655.658 361.527 656.144 362.859 656.144C364.461 656.144 365.721 655.406 366.603 653.948V656H367.971V641.348H366.585V648.404C365.595 646.946 364.353 646.226 362.859 646.226C361.545 646.226 360.465 646.73 359.619 647.72C358.773 648.71 358.359 649.862 358.359 651.176ZM363.147 654.902C362.121 654.902 361.311 654.542 360.699 653.84C360.087 653.12 359.781 652.238 359.781 651.212C359.781 650.15 360.087 649.25 360.699 648.548C361.311 647.828 362.121 647.468 363.147 647.468C364.119 647.468 364.929 647.846 365.595 648.584C366.261 649.322 366.603 650.168 366.603 651.158C366.603 652.184 366.279 653.066 365.613 653.804C364.965 654.542 364.137 654.902 363.147 654.902Z" fill="black"/>
<path d="M378.882 643.472V656H380.358V641.906H378.918L374.832 644.372L375.498 645.488L378.882 643.472ZM392.826 652.112C392.826 650.474 391.836 649.25 390.252 648.746V648.728C391.746 648.044 392.502 646.964 392.502 645.488C392.502 644.498 392.106 643.616 391.296 642.878C390.486 642.122 389.388 641.744 387.966 641.744C385.68 641.744 384.006 643.04 383.358 644.984L384.69 645.578C385.356 643.94 386.436 643.13 387.93 643.13C388.884 643.13 389.64 643.382 390.18 643.868C390.72 644.354 390.99 644.948 390.99 645.614C390.99 646.316 390.702 646.928 390.144 647.414C389.586 647.9 388.848 648.152 387.912 648.152H386.544V649.52H387.948C390.126 649.52 391.314 650.618 391.314 652.13C391.314 652.832 391.026 653.462 390.432 653.984C389.838 654.506 389.028 654.758 387.966 654.758C386.328 654.758 385.176 653.93 384.51 652.256L383.214 652.904C383.934 654.92 385.608 656.144 387.966 656.144C389.388 656.144 390.558 655.766 391.458 654.992C392.376 654.218 392.826 653.246 392.826 652.112ZM396.436 653.57C395.716 653.57 395.14 654.146 395.14 654.866C395.14 655.586 395.716 656.162 396.436 656.162C397.138 656.162 397.714 655.586 397.714 654.866C397.714 654.146 397.138 653.57 396.436 653.57ZM408.663 643.292V641.906H401.229L400.149 649.34L401.517 649.898C402.237 649.016 403.425 648.458 404.451 648.458C406.485 648.458 407.835 649.682 407.835 651.554C407.835 652.544 407.511 653.318 406.863 653.894C406.233 654.47 405.423 654.758 404.451 654.758C402.867 654.758 401.733 653.93 401.049 652.274L399.771 652.958C400.509 654.956 402.201 656.144 404.415 656.144C405.819 656.144 406.989 655.73 407.925 654.884C408.879 654.038 409.347 652.922 409.347 651.518C409.347 650.168 408.915 649.106 408.069 648.332C407.223 647.54 406.107 647.144 404.721 647.144C403.623 647.144 402.309 647.576 401.661 648.296L402.399 643.292H408.663ZM410.965 643.274H418.975L412.423 656H414.061L420.559 643.274V641.906H410.965V643.274ZM426.38 654.74C425.282 654.74 424.238 654.272 423.248 653.318L422.456 654.488C423.59 655.586 424.904 656.144 426.398 656.144C430.502 656.144 432.338 652.472 432.338 648.44C432.338 647.36 432.284 646.514 432.158 645.884C432.032 645.254 431.816 644.66 431.474 644.066C430.628 642.608 428.918 641.762 427.172 641.762C425.804 641.762 424.634 642.194 423.68 643.04C422.726 643.886 422.24 645.038 422.24 646.478C422.24 647.792 422.672 648.89 423.518 649.754C424.364 650.6 425.516 651.032 426.974 651.032C427.676 651.032 428.378 650.87 429.116 650.546C429.854 650.204 430.43 649.7 430.862 648.998C430.826 650.672 430.43 652.04 429.674 653.12C428.936 654.2 427.838 654.74 426.38 654.74ZM427.19 649.736C426.128 649.736 425.264 649.43 424.634 648.8C424.004 648.17 423.698 647.378 423.698 646.406C423.698 645.398 424.04 644.606 424.706 644.012C425.39 643.418 426.218 643.13 427.19 643.13C428.108 643.13 428.918 643.436 429.62 644.048C430.322 644.66 430.682 645.47 430.682 646.478C430.682 647.396 430.34 648.17 429.674 648.8C429.008 649.43 428.18 649.736 427.19 649.736ZM440.47 644.948C440.47 644.066 440.164 643.31 439.534 642.698C438.904 642.068 438.166 641.762 437.284 641.762C436.402 641.762 435.664 642.068 435.034 642.698C434.422 643.328 434.116 644.066 434.116 644.948C434.116 645.83 434.422 646.568 435.034 647.198C435.664 647.81 436.402 648.116 437.284 648.116C438.166 648.116 438.904 647.81 439.534 647.198C440.164 646.568 440.47 645.83 440.47 644.948ZM445.06 641.906L435.88 656H437.302L446.5 641.906H445.06ZM438.688 646.352C438.31 646.73 437.842 646.928 437.284 646.928C436.726 646.928 436.258 646.73 435.862 646.352C435.484 645.974 435.286 645.506 435.286 644.948C435.286 644.39 435.484 643.922 435.862 643.544C436.258 643.148 436.726 642.95 437.284 642.95C437.842 642.95 438.31 643.148 438.688 643.544C439.084 643.922 439.282 644.39 439.282 644.948C439.282 645.506 439.084 645.974 438.688 646.352ZM448.282 652.94C448.282 652.058 447.976 651.302 447.346 650.69C446.716 650.06 445.978 649.754 445.096 649.754C444.214 649.754 443.476 650.06 442.846 650.69C442.216 651.302 441.91 652.058 441.91 652.94C441.91 653.822 442.216 654.56 442.846 655.19C443.476 655.802 444.214 656.108 445.096 656.108C445.978 656.108 446.716 655.802 447.346 655.19C447.976 654.56 448.282 653.822 448.282 652.94ZM446.5 654.344C446.122 654.722 445.654 654.92 445.096 654.92C444.538 654.92 444.07 654.722 443.692 654.344C443.314 653.966 443.116 653.498 443.116 652.94C443.116 652.382 443.314 651.914 443.692 651.536C444.07 651.14 444.538 650.942 445.096 650.942C445.654 650.942 446.122 651.14 446.5 651.536C446.896 651.914 447.094 652.382 447.094 652.94C447.094 653.498 446.896 653.966 446.5 654.344Z" fill="#27AE60"/>
<defs>
<linearGradient id="paint0_linear_2:157" x1="90.8027" y1="934.706" x2="705.987" y2="1120.71" gradientUnits="userSpaceOnUse">
<stop stop-color="#FFC209"/>
<stop offset="1" stop-color="#FF8E09"/>
</linearGradient>
<linearGradient id="paint1_linear_2:157" x1="764.354" y1="689.476" x2="1002.69" y2="980.691" gradientUnits="userSpaceOnUse">
<stop stop-color="#FFC209"/>
<stop offset="1" stop-color="#FF8E09"/>
</linearGradient>
</defs>
</svg>
