<svg width="369" height="344" viewBox="0 0 369 344" fill="none" xmlns="http://www.w3.org/2000/svg">
<path d="M338.412 45.864L131.562 6.37915L75.9134 300.491L282.764 339.976L338.412 45.864Z" fill="#F2F2F2"/>
<path d="M334.044 48.8896L127.193 9.40479L71.5452 303.517L278.396 343.002L334.044 48.8896Z" fill="white"/>
<path d="M318.674 32.125L110.561 0L65.2849 295.908L273.399 328.033L318.674 32.125Z" fill="#F2F2F2"/>
<path d="M315.323 28.9489L106.473 2.11108L68.6486 299.067L277.499 325.905L315.323 28.9489Z" fill="white"/>
<path d="M301.722 25.443L91.25 19.7351L83.2056 318.997L293.678 324.704L301.722 25.443Z" fill="#F2F2F2"/>
<path d="M292.475 22.5356H81.9189V321.917H292.475V22.5356Z" fill="white"/>
<path d="M274.552 73.1533H248.195V99.6272H274.552V73.1533ZM250.454 97.358V75.4225H272.293V97.358H250.454Z" fill="#D9D9D9"/>
<path d="M274.552 136.69H248.195V163.164H274.552V136.69ZM250.454 160.895V138.96H272.293V160.895H250.454Z" fill="#D9D9D9"/>
<path d="M274.552 199.774H248.195V226.248H274.552V199.774ZM250.454 223.979V202.043H272.293V223.979H250.454Z" fill="#D9D9D9"/>
<path d="M99.0583 72.0945H229.112C230.016 72.0945 230.739 71.3683 230.739 70.4607V70.385C230.739 69.4774 230.016 68.7512 229.112 68.7512H99.0583C98.1546 68.7512 97.4316 69.4774 97.4316 70.385V70.4607C97.4316 71.3532 98.1546 72.0945 99.0583 72.0945Z" fill="#D9D9D9"/>
<path d="M99.2096 87.9785H194.171C195.074 87.9785 195.797 87.2524 195.797 86.3447V86.2691C195.797 85.3614 195.074 84.6353 194.171 84.6353H99.2096C98.3059 84.6353 97.583 85.3614 97.583 86.2691V86.3447C97.583 87.2372 98.3059 87.9785 99.2096 87.9785Z" fill="#D9D9D9"/>
<path d="M99.0583 104.014H213.9C214.804 104.014 215.527 103.288 215.527 102.381V102.305C215.527 101.397 214.804 100.671 213.9 100.671H99.0583C98.1546 100.671 97.4316 101.397 97.4316 102.305V102.381C97.4316 103.273 98.1546 104.014 99.0583 104.014Z" fill="#D9D9D9"/>
<path d="M99.0583 135.783H229.112C230.016 135.783 230.739 135.057 230.739 134.149V134.074C230.739 133.166 230.016 132.44 229.112 132.44H99.0583C98.1546 132.44 97.4316 133.166 97.4316 134.074V134.149C97.4316 135.042 98.1546 135.783 99.0583 135.783Z" fill="#D9D9D9"/>
<path d="M99.2096 151.667H194.171C195.074 151.667 195.797 150.941 195.797 150.033V149.958C195.797 149.05 195.074 148.324 194.171 148.324H99.2096C98.3059 148.324 97.583 149.05 97.583 149.958V150.033C97.583 150.926 98.3059 151.667 99.2096 151.667Z" fill="#D9D9D9"/>
<path d="M99.0583 167.552H213.9C214.804 167.552 215.527 166.825 215.527 165.918V165.842C215.527 164.934 214.804 164.208 213.9 164.208H99.0583C98.1546 164.208 97.4316 164.934 97.4316 165.842V165.918C97.4316 166.81 98.1546 167.552 99.0583 167.552Z" fill="#D9D9D9"/>
<path d="M99.0583 199.32H229.112C230.016 199.32 230.739 198.594 230.739 197.686V197.611C230.739 196.703 230.016 195.977 229.112 195.977H99.0583C98.1546 195.977 97.4316 196.703 97.4316 197.611V197.686C97.4316 198.579 98.1546 199.32 99.0583 199.32Z" fill="#D9D9D9"/>
<path d="M99.2096 215.204H194.171C195.074 215.204 195.797 214.478 195.797 213.571V213.495C195.797 212.587 195.074 211.861 194.171 211.861H99.2096C98.3059 211.861 97.583 212.587 97.583 213.495V213.571C97.583 214.463 98.3059 215.204 99.2096 215.204Z" fill="#D9D9D9"/>
<path d="M99.0583 231.089H213.9C214.804 231.089 215.527 230.362 215.527 229.455V229.379C215.527 228.472 214.804 227.745 213.9 227.745H99.0583C98.1546 227.745 97.4316 228.472 97.4316 229.379V229.455C97.4316 230.347 98.1546 231.089 99.0583 231.089Z" fill="#D9D9D9"/>
<path opacity="0.6" d="M131.137 301.948C143.406 301.948 153.353 291.957 153.353 279.634C153.353 267.31 143.406 257.32 131.137 257.32C118.868 257.32 108.922 267.31 108.922 279.634C108.922 291.957 118.868 301.948 131.137 301.948Z" fill="#EDE485"/>
<path opacity="0.6" d="M131.138 295.216C139.706 295.216 146.651 288.24 146.651 279.634C146.651 271.028 139.706 264.052 131.138 264.052C122.57 264.052 115.625 271.028 115.625 279.634C115.625 288.24 122.57 295.216 131.138 295.216Z" fill="#EDD185"/>
<path opacity="0.6" d="M139.529 288.059C144.205 283.363 144.205 275.748 139.529 271.051C134.853 266.355 127.271 266.355 122.596 271.051C117.92 275.748 117.92 283.363 122.596 288.059C127.271 292.756 134.853 292.756 139.529 288.059Z" fill="#EDC585"/>
<path d="M195.058 288.711H251.116C251.568 288.711 251.93 288.348 251.93 287.894V287.864C251.93 287.41 251.568 287.047 251.116 287.047H195.058C194.607 287.047 194.245 287.41 194.245 287.864V287.894C194.245 288.348 194.607 288.711 195.058 288.711Z" fill="#D9D9D9"/>
<path d="M268.241 69.6438C266.674 72.5786 265.108 75.5134 263.752 78.5541C263.075 80.0518 262.457 81.5797 261.93 83.1379C261.448 84.5145 261.041 85.9214 260.605 87.3283C260.093 85.6945 259.55 84.0758 258.948 82.4722C258.903 82.3361 258.451 82.1394 258.391 82.1092C257.924 81.852 257.457 81.6099 256.975 81.383C256.493 81.1561 256.011 80.9292 255.529 80.7174C255.454 80.6871 254.896 80.5207 254.896 80.5207C256.372 84.4389 257.547 88.4629 258.436 92.5626C258.466 92.6836 258.963 92.9256 258.993 92.9256C259.46 93.1828 259.927 93.4248 260.409 93.6518C260.575 93.7274 262.427 94.6805 262.487 94.514C264.46 89.5067 264.641 88.6595 265.771 85.7399C268.18 79.5223 268.196 79.5677 269.687 76.6026C270.53 74.9234 271.419 73.2745 272.292 71.6104C272.352 71.4894 268.361 69.4017 268.241 69.6438Z" fill="black"/>
<path d="M268.241 134.134C266.674 137.069 265.108 140.004 263.752 143.044C263.075 144.542 262.457 146.07 261.93 147.628C261.448 149.005 261.041 150.412 260.605 151.819C260.093 150.185 259.55 148.566 258.948 146.962C258.903 146.826 258.451 146.63 258.391 146.599C257.924 146.342 257.457 146.1 256.975 145.873C256.493 145.646 256.011 145.419 255.529 145.208C255.454 145.177 254.896 145.011 254.896 145.011C256.372 148.929 257.547 152.953 258.436 157.053C258.466 157.174 258.963 157.416 258.993 157.416C259.46 157.673 259.927 157.915 260.409 158.142C260.575 158.218 262.427 159.171 262.487 159.004C264.46 153.997 264.641 153.15 265.771 150.23C268.18 144.013 268.196 144.058 269.687 141.093C270.53 139.414 271.419 137.765 272.292 136.101C272.352 135.98 268.361 133.892 268.241 134.134Z" fill="black"/>
<path d="M268.241 196.869C266.674 199.804 265.108 202.739 263.752 205.78C263.075 207.277 262.457 208.805 261.93 210.363C261.448 211.74 261.041 213.147 260.605 214.554C260.093 212.92 259.55 211.301 258.948 209.698C258.903 209.562 258.451 209.365 258.391 209.335C257.924 209.078 257.457 208.836 256.975 208.609C256.493 208.382 256.011 208.155 255.529 207.943C255.454 207.913 254.896 207.746 254.896 207.746C256.372 211.664 257.547 215.689 258.436 219.788C258.466 219.909 258.963 220.151 258.993 220.151C259.46 220.408 259.927 220.65 260.409 220.877C260.575 220.953 262.427 221.906 262.487 221.74C264.46 216.732 264.641 215.885 265.771 212.965C268.18 206.748 268.196 206.793 269.687 203.828C270.53 202.149 271.419 200.5 272.292 198.836C272.352 198.715 268.361 196.642 268.241 196.869Z" fill="black"/>
<path d="M364.527 303.512L363.992 302.975L351.026 315.812L351.328 316.115L354.698 319.569C356.882 321.787 361.529 320.713 365.108 317.165C368.686 313.618 369.825 308.95 367.664 306.756L364.527 303.512Z" fill="#78B98D"/>
<path d="M360.879 299.848L347.913 312.661L351.05 315.812L363.993 302.975L363.644 302.602H363.621L360.879 299.848Z" fill="#4ABC8D"/>
<path d="M293.238 192.418C265.54 192.208 242.93 214.59 242.721 242.411C242.512 270.231 264.796 292.939 292.494 293.149C302.765 293.219 312.315 290.185 320.285 284.934L347.914 312.661L360.88 299.848L333.437 272.308C339.363 264.116 342.918 254.08 342.988 243.181C343.22 215.337 320.936 192.629 293.238 192.418ZM293.284 278.189C273.812 278.049 258.15 262.085 258.29 242.527C258.429 222.969 274.346 207.239 293.819 207.379C313.291 207.519 328.953 223.483 328.813 243.064C328.65 262.599 312.757 278.353 293.284 278.189Z" fill="#FFD600"/>
<path d="M313.5 219.328C309.48 215.547 303.462 212.957 297.095 212.793L296.77 236.389L313.5 219.328Z" fill="#010201"/>
<path d="M292.68 212.584C276.042 212.467 263.657 225.91 263.541 242.621C263.425 259.331 276.809 272.961 293.446 273.101C305.111 273.195 316.009 266.356 320.076 257.464L293.075 242.854L293.307 212.63C293.075 212.607 292.889 212.584 292.68 212.584Z" fill="#010201"/>
<path d="M306.11 245.421L312.454 225.677L308.085 230.134L303.601 244.044L306.11 245.421Z" fill="#AAD4C8"/>
<path d="M302.881 243.648L306.784 231.441L302.416 235.899L300.371 242.271L302.881 243.648Z" fill="#AAD4C8"/>
<path d="M315.87 250.766L322.121 231.278C321.609 230.018 321.028 228.781 320.355 227.614L313.36 249.389L315.87 250.766Z" fill="#AAD4C8"/>
<path d="M319.1 252.54L323.817 237.836C323.584 236.016 323.143 234.242 322.562 232.538L316.613 251.163L319.1 252.54Z" fill="#AAD4C8"/>
<path d="M321.33 253.753C323.235 250.089 324.025 245.772 324.049 241.36C324.049 240.894 324.049 240.404 324.025 239.937L319.843 252.937L321.33 253.753Z" fill="#AAD4C8"/>
<path d="M306.854 245.841L309.364 247.218L317.102 223.086C316.777 222.713 316.428 222.339 316.103 221.989L313.756 224.37L306.854 245.841Z" fill="#AAD4C8"/>
<path d="M301.115 237.206L297.606 240.777L299.628 241.874L301.115 237.206Z" fill="#AAD4C8"/>
<path d="M312.617 248.992L319.774 226.68C319.146 225.677 318.473 224.72 317.752 223.833L310.107 247.615L312.617 248.992Z" fill="#AAD4C8"/>
<path d="M40.5992 104.184C40.7656 105.059 41.6807 105.642 42.5958 105.434L47.0883 104.559C48.0035 104.392 48.5858 103.517 48.3779 102.641L46.2564 92.5534C46.09 91.678 45.1749 91.0944 44.2597 91.3029L39.7672 92.1782C38.8521 92.345 38.2697 93.2204 38.4777 94.0957L40.5992 104.184Z" fill="#002C51"/>
<path d="M45.4653 95.9716V95.0962C45.9229 95.1379 46.3804 95.1796 46.838 95.2212L48.4187 102.641C48.5851 103.517 48.0027 104.392 47.1292 104.559L45.9229 104.809L42.6367 105.476C41.7216 105.643 40.848 105.101 40.64 104.225L40.4736 103.433C43.3854 102.141 45.4653 99.3064 45.4653 95.9716Z" fill="#001133"/>
<path d="M19.5508 77.0884C19.5508 77.0884 28.1198 120.774 34.7754 125.235C34.7754 125.235 41.3478 130.237 51.3311 126.318C51.3311 126.318 40.391 85.8006 40.7238 77.2968L19.5508 77.0884Z" fill="black"/>
<path d="M47.4216 74.0869V80.5481C47.4216 84.5916 44.0522 87.8847 39.8509 87.8847H23.7943C19.6346 87.8847 16.2236 84.5916 16.2236 80.5481V74.0869H47.4216Z" fill="#4ABC8D"/>
<path d="M19.5507 39.8635V79.2976C8.65224 78.7974 0 70.1686 0 59.5806C0 48.9926 8.65224 40.3637 19.5507 39.8635Z" fill="black"/>
<path d="M37.0217 39.8218H19.5508V79.2559H37.0217V39.8218Z" fill="#379169"/>
<path d="M116.681 6.43213C114.268 12.4348 112.521 33.9443 112.521 59.5806C112.521 85.1752 114.31 106.685 116.681 112.687C108.112 102.808 78.952 79.2976 37.0635 79.2976V39.8219C78.952 39.8219 108.07 16.3115 116.681 6.43213Z" fill="#4ABC8D"/>
<path d="M111.148 59.5389C111.148 88.8852 113.603 112.646 116.681 112.646C119.717 112.646 122.213 88.8435 122.213 59.5389C122.172 30.2343 119.717 6.43213 116.681 6.43213C116.015 6.43213 111.148 30.2343 111.148 59.5389Z" fill="black"/>
<path d="M128.702 61.1647C128.702 61.1647 128.66 61.1647 128.702 61.1647C128.702 61.0813 128.66 60.9979 128.66 60.9146C128.66 60.9979 128.702 61.0813 128.702 61.1647Z" fill="#00568B"/>
<path d="M112.479 45.8662C121.548 46.3247 128.744 53.5779 128.744 62.4569C128.744 71.3358 121.548 78.589 112.479 79.0475V45.8662Z" fill="#4ABC8D"/>
<path d="M116.681 6.43213C114.268 12.4348 112.521 33.9443 112.521 59.5806C112.521 85.1752 114.31 106.685 116.681 112.687C114.725 110.436 111.689 107.477 107.696 104.267C104.368 89.8856 102.662 75.2125 102.579 60.5393C102.496 45.2409 104.201 29.9008 107.696 14.8942C111.689 11.6428 114.725 8.68312 116.681 6.43213Z" fill="#379169"/>
</svg>
