<svg width="36" height="35" viewBox="0 0 36 35" fill="none" xmlns="http://www.w3.org/2000/svg">
<path d="M17.5244 35C7.85914 35 0 27.1897 0 17.5244C0 7.85914 7.85914 0 17.5244 0C27.1897 0 35.0488 7.85914 35.0488 17.5244C35 27.1897 27.1897 35 17.5244 35Z" fill="#29A9E1"/>
<path d="M8.20093 23.3822C9.90944 24.4561 11.9108 25.0907 14.0587 25.0907C21.1856 25.0907 25.1884 19.0866 24.9443 13.717C25.6765 13.18 26.3599 12.4966 26.8481 11.7156C26.1647 12.0084 25.4324 12.2037 24.6514 12.3013C25.4324 11.8132 26.067 11.081 26.3111 10.2023C25.5789 10.6416 24.749 10.9833 23.8704 11.1298C23.187 10.3976 22.1619 9.90942 21.088 9.90942C18.5984 9.90942 16.7923 12.2037 17.3781 14.5956C14.2051 14.4492 11.3739 12.9359 9.47011 10.5928C8.445 12.3013 8.93315 14.5468 10.6417 15.7184C10.0071 15.7184 9.42129 15.5231 8.88433 15.2302C8.83552 16.9875 10.1047 18.6472 11.9596 19.0377C11.4227 19.1842 10.8369 19.233 10.2511 19.0866C10.7393 20.5998 12.1549 21.7225 13.8146 21.7225C12.2525 23.0405 10.2023 23.6263 8.20093 23.3822Z" fill="white"/>
</svg>
