<svg width="38" height="49" viewBox="0 0 38 49" fill="none" xmlns="http://www.w3.org/2000/svg">
<path d="M19.0712 0C8.53933 0 0 8.49711 0 18.9769C0 27.7572 13.8052 43.9017 17.9326 48.4335C18.5019 49.1416 19.4981 49.1416 20.2097 48.4335C24.1948 43.9017 38 27.7572 38 18.9769C38 8.49711 29.4607 0 19.0712 0ZM19.0712 27.3324C13.9476 27.3324 9.6779 23.0838 9.6779 17.9855C9.6779 12.8873 13.9476 8.63873 19.0712 8.63873C24.1948 8.63873 28.4644 12.8873 28.4644 17.9855C28.4644 23.2254 24.1948 27.3324 19.0712 27.3324Z" fill="#FFC209"/>
</svg>
