<svg width="166" height="140" viewBox="0 0 166 140" fill="none" xmlns="http://www.w3.org/2000/svg">
<path d="M85.2439 139.432C129.843 139.432 165.998 135.53 165.998 130.716C165.998 125.902 129.843 122 85.2439 122C40.6445 122 4.4895 125.902 4.4895 130.716C4.4895 135.53 40.6445 139.432 85.2439 139.432Z" fill="#EDEDED"/>
<path d="M0 57.3953C12.382 23.9266 44.7237 0 82.6703 0C112.81 0 139.433 15.0965 155.303 38.1116L155.275 38.0547C159.393 44.0078 162.796 50.5022 165.341 57.4238C162.796 64.317 159.393 70.8113 155.275 76.793L155.303 76.736C139.433 99.7511 112.81 114.848 82.6703 114.848C44.7237 114.819 12.382 90.8926 0 57.3953Z" fill="#16D194"/>
<path d="M82.6703 0.598145C51.1578 0.598145 25.6218 26.0344 25.6218 57.3953C25.6218 88.7562 51.1578 114.192 82.6417 114.192C114.126 114.192 139.662 88.7562 139.662 57.3953C139.69 26.0344 114.154 0.598145 82.6703 0.598145Z" fill="white"/>
<path d="M82.6702 94.7949C61.9669 94.7949 45.124 78.0178 45.124 57.3954C45.124 36.7729 61.9669 19.9958 82.6702 19.9958C103.345 20.0243 120.188 36.7729 120.188 57.3954C120.188 78.0178 103.345 94.7949 82.6702 94.7949Z" fill="#16D194"/>
<path d="M82.6704 85.8224C66.9427 85.8224 54.1318 73.09 54.1318 57.3953C54.1318 41.7291 66.9427 28.9683 82.6704 28.9683C98.398 28.9683 111.18 41.7291 111.18 57.3953C111.18 73.0615 98.398 85.8224 82.6704 85.8224Z" fill="white"/>
<path d="M82.6704 40.96C73.5769 40.96 66.1707 48.3373 66.1707 57.3952C66.1707 66.4532 73.5769 73.8305 82.6704 73.8305C91.7638 73.8305 99.1701 66.4532 99.1701 57.3952C99.1701 48.3373 91.7638 40.96 82.6704 40.96Z" fill="black"/>
<path d="M69.5163 43.4951C70.3742 41.6722 70.8603 39.6498 70.8603 37.5135C70.8603 29.7943 64.5693 23.5278 56.8198 23.5278C49.0704 23.5278 42.7793 29.7943 42.7793 37.5135C42.7793 45.2327 49.0704 51.4992 56.8198 51.4992C59.7652 51.4992 62.5104 50.5877 64.7694 49.021C65.227 51.0719 67.0571 52.6385 69.259 52.6385C71.804 52.6385 73.8629 50.5877 73.8629 48.0526C73.8629 45.6314 71.947 43.6376 69.5163 43.4951Z" fill="white"/>
</svg>
