<svg width="1440" height="1138" viewBox="0 0 1440 1138" fill="none" xmlns="http://www.w3.org/2000/svg">
<path d="M153 24.4702C18.2 0.870169 -36.8333 14.6368 -47.5 24.4702L-82 1071.47C-43.6667 1082.14 37.2 1103.47 54 1103.47C75 1103.47 310.5 1116.97 369.5 1116.97C416.7 1116.97 592.167 1127.64 674 1132.97C754.167 1127.64 920.9 1114.27 946.5 1103.47C978.5 1089.97 1154.5 1116.97 1219 1132.97C1270.6 1145.77 1404.17 1127.64 1464.5 1116.97L1528.5 37.9701C1505.33 23.6368 1436.1 -3.92985 1344.5 0.470151C1230 5.97015 1080 48.4701 930.5 37.9701C781 27.4701 743.5 0.47015 513.5 24.4702C283.5 48.4702 321.5 53.9702 153 24.4702Z" fill="url(#paint0_linear)"/>
<defs>
<linearGradient id="paint0_linear" x1="723.25" y1="0" x2="723.25" y2="715.5" gradientUnits="userSpaceOnUse">
<stop stop-color="#FFD600"/>
<stop offset="1" stop-color="#FFD600" stop-opacity="0"/>
</linearGradient>
</defs>
</svg>
